<svg xmlns="http://www.w3.org/2000/svg" width="22" height="14.001" viewBox="0 0 22 14.001">
  <path id="Combined_Shape" data-name="Combined Shape" d="M0,6.95A7.055,7.055,0,0,1,7.141,0a6.98,6.98,0,0,1,4.675,1.917.47.47,0,0,1,0,.682L10.558,3.782a.472.472,0,0,1-.641,0A4.341,4.341,0,1,0,11.1,8.444H7.678a.469.469,0,0,1-.469-.469V6.256a.469.469,0,0,1,.469-.469H14s0,1.561-.009,1.607A7,7,0,0,1,0,6.95ZM18.339,11a.356.356,0,0,1-.384-.32V9.371h-1.57A.356.356,0,0,1,16,9.05V7.95a.356.356,0,0,1,.384-.32h1.57V6.321A.356.356,0,0,1,18.339,6H19.66a.356.356,0,0,1,.384.32V7.629h1.571A.356.356,0,0,1,22,7.95v1.1a.356.356,0,0,1-.384.32H20.045v1.309a.356.356,0,0,1-.384.32Z" transform="translate(0 0)" fill="#fff"/>
</svg>
