<svg xmlns="http://www.w3.org/2000/svg" xmlns:xlink="http://www.w3.org/1999/xlink" width="318" height="226" viewBox="0 0 318 226">
  <defs>
    <clipPath id="clip-path">
      <path id="Mask" d="M0,0H133a16,16,0,0,1,16,16V180a16,16,0,0,1-16,16H0a0,0,0,0,1,0,0V0A0,0,0,0,1,0,0Z" fill="#fffbec"/>
    </clipPath>
    <clipPath id="clip-path-2">
      <path id="Mask-2" data-name="Mask" d="M0,0H133a16,16,0,0,1,16,16V180a16,16,0,0,1-16,16H0a0,0,0,0,1,0,0V0A0,0,0,0,1,0,0Z" fill="#f7f3ff"/>
    </clipPath>
  </defs>
  <g id="Group_1" data-name="Group 1" transform="translate(-28 -108)">
    <g id="Content" transform="translate(28 108)">
      <g id="Illus">
        <g id="_16_character2" data-name="16_character2">
          <path id="Mask-3" data-name="Mask" d="M0,0H133a16,16,0,0,1,16,16V180a16,16,0,0,1-16,16H0a0,0,0,0,1,0,0V0A0,0,0,0,1,0,0Z" fill="#fffbec"/>
          <g id="_16_character2-2" data-name="16_character2" clip-path="url(#clip-path)">
            <g id="_19_nice_try" data-name="19_nice_try" transform="translate(-7 -3)">
              <g id="background">
                <g id="background-2">
                  <path id="Path" d="M5.429,4.362c-1.719,0-3.54-1.32-5.4-3.926a.145.145,0,0,1,.032-.2.143.143,0,0,1,.2.034c1.866,2.612,3.662,3.89,5.336,3.8C6.959,4,7.9,3.072,8.9,2.091S10.944.077,12.461,0c1.683-.082,3.439,1.042,5.187,3.337a.143.143,0,0,1-.027.2.141.141,0,0,1-.191-.027C15.722,1.3,14.06.212,12.474.288,11.068.357,10.111,1.3,9.1,2.3S7.083,4.278,5.61,4.356C5.551,4.36,5.49,4.362,5.429,4.362Z" transform="translate(0 169.137)"/>
                  <path id="Path-2" data-name="Path" d="M4.669,3.773C3.188,3.773,1.628,2.642.031.41A.143.143,0,1,1,.264.244C1.857,2.47,3.393,3.562,4.812,3.487A4.51,4.51,0,0,0,7.622,1.8,4.847,4.847,0,0,1,10.679,0c1.452-.069,2.948.891,4.457,2.862a.144.144,0,0,1-.227.176C13.46,1.15,12.043.223,10.694.292A4.5,4.5,0,0,0,7.829,2.009a4.725,4.725,0,0,1-3,1.772Z" transform="translate(180.824 155.045)"/>
                  <path id="Path-3" data-name="Path" d="M18.1.007c-1.811.088-3.1.9-4.974,2.723l-.374.367c-2.007,1.977-2.932,2.61-4.406,2.689C6.16,5.9,3.727,4.173,1.151.566A.651.651,0,0,0,.287.4.653.653,0,0,0,.1,1.287C2.829,5.11,5.52,7.069,8.147,7.069c.091,0,.176,0,.275-.006,1.713-.092,2.9-.821,4.707-2.548l.685-.667c1.858-1.817,2.884-2.5,4.352-2.566,2.074-.1,4.321,1.36,6.657,4.412a.64.64,0,0,0,1.037-.75l-.016-.022C23.269,1.558,20.668-.119,18.1.007Z" transform="matrix(0.809, 0.588, -0.588, 0.809, 26.812, 0.892)" fill="#ffcc0a"/>
                  <rect id="Rectangle" width="3.716" height="3.715" transform="translate(180.839 79.067) rotate(42.09)" fill="#ffd6d3" stroke="#ffca00" stroke-miterlimit="10" stroke-width="1"/>
                  <path id="Path-4" data-name="Path" d="M2.224.318.081,4.154a.642.642,0,0,0,.242.869.685.685,0,0,0,.314.083.647.647,0,0,0,.554-.3L3.342.954A.643.643,0,0,0,2.224.318Z" transform="translate(19.579 129.701)" fill="#0f0a39"/>
                  <path id="Path-5" data-name="Path" d="M.04.412A.642.642,0,0,0,.318,1.2L3.487,2.99l-.643.428,1.6.03a.643.643,0,0,0,.317-1.209L.925.067a.647.647,0,0,0-.84.244Z" transform="translate(89.384 17.366)" fill="#ffcc0a"/>
                  <path id="Path-6" data-name="Path" d="M3.964,2.445a.142.142,0,0,1-.071-.019L.073.262A.141.141,0,0,1,.017.071.145.145,0,0,1,.208.016L4.029,2.179a.143.143,0,0,1-.071.269Z" transform="translate(182.196 128.002)" stroke="#ffca00" stroke-miterlimit="10" stroke-width="1"/>
                  <path id="Path-7" data-name="Path" d="M.1.273a.658.658,0,0,0,.157.885l3.7,2.4a.619.619,0,0,0,.261.1l.093.005a.641.641,0,0,0,.34-1.187L.952.086A.645.645,0,0,0,.1.273Z" transform="translate(102.201 86.78)" fill="#0f0a39"/>
                  <path id="Path-8" data-name="Path" d="M3.415,0A.641.641,0,0,0,2.977.23L.152,3.577a.643.643,0,1,0,.986.825L3.963,1.055A.645.645,0,0,0,3.882.148.635.635,0,0,0,3.517,0Z" transform="translate(88.046 51.296)" fill="#0f0a39"/>
                  <path id="Path-9" data-name="Path" d="M2.436,4.021a.143.143,0,0,1-.122-.069L.021.219A.144.144,0,0,1,.266.068L2.558,3.8a.141.141,0,0,1-.048.191.132.132,0,0,1-.075.029Z" transform="translate(159.191 140.748)" stroke="#ffca00" stroke-miterlimit="10" stroke-width="1"/>
                  <path id="Path-10" data-name="Path" d="M3.616.125.225,2.958a.647.647,0,0,0-.1.871.661.661,0,0,0,.512.255.643.643,0,0,0,.349-.1l3.42-2.854A.641.641,0,0,0,4.483.222L4.473.211A.643.643,0,0,0,3.616.125Z" transform="translate(149.908 171.321)" fill="#ffcc0a"/>
                  <path id="Path-11" data-name="Path" d="M4.11,2.163a.149.149,0,0,1-.063-.013L.081.275A.143.143,0,0,1,.014.084.14.14,0,0,1,.205.015L4.173,1.89a.143.143,0,0,1,.067.191.139.139,0,0,1-.13.082Z" transform="translate(133.883 205.837)" stroke="#ffca00" stroke-miterlimit="10" stroke-width="1"/>
                  <path id="Path-12" data-name="Path" d="M.144,3.381a.14.14,0,0,1-.1-.042.141.141,0,0,1,0-.2L3.155.042a.143.143,0,0,1,.2.2L.251,3.339a.141.141,0,0,1-.107.042Z" transform="translate(181.001 204.293)" stroke="#ffca00" stroke-miterlimit="10" stroke-width="1"/>
                  <path id="Path-13" data-name="Path" d="M.979,0a.639.639,0,0,0-.7.613L0,4.975a.643.643,0,0,0,.6.683H.644a.643.643,0,0,0,.642-.6L1.563.683l0-.1a.644.644,0,0,0-.5-.573Z" transform="translate(65.416 63.194)" fill="#ffcc0a"/>
                  <path id="Path-14" data-name="Path" d="M.493.018A.643.643,0,0,0,.008.542L0,.638a.643.643,0,0,0,.228.5l.014.009L3.383,4.165a.637.637,0,0,0,.46.178l.081-.008a.677.677,0,0,0,.493-.392.643.643,0,0,0-.15-.7L1.106.2A.6.6,0,0,0,.493.018Z" transform="translate(37.025 41.299)" fill="#0f0a39"/>
                  <path id="Path-15" data-name="Path" d="M.215.163a.643.643,0,0,0-.051.909L3.087,4.34a.644.644,0,0,0,.9.057.643.643,0,0,0,.057-.914L1.123.215A.644.644,0,0,0,.215.163Z" transform="translate(48.542 88.691)" fill="#ffcc0a"/>
                  <path id="Path-16" data-name="Path" d="M2.762,3.8a.141.141,0,0,1-.115-.057L.029.229A.143.143,0,0,1,.258.057L2.883,3.573a.143.143,0,0,1-.029.191.145.145,0,0,1-.092.038Z" transform="translate(180.891 51.179)" stroke="#ffca00" stroke-miterlimit="10" stroke-width="1"/>
                  <path id="Path-17" data-name="Path" d="M3.484.008a.643.643,0,0,0-.6.233L.14,3.671A.643.643,0,0,0,.65,4.717a.657.657,0,0,0,.458-.207L3.887,1.046a.643.643,0,0,0-.4-1.038Z" transform="translate(152.711 29.599)" fill="#ffcc0a"/>
                  <path id="Path-18" data-name="Path" d="M4.513.678H4.5L.131.287A.143.143,0,0,1,0,.13.141.141,0,0,1,.155,0L4.526.4a.145.145,0,0,1,.13.156A.141.141,0,0,1,4.513.678Z" transform="translate(156.282 74.436)" stroke="#ffca00" stroke-miterlimit="10" stroke-width="1"/>
                  <path id="Path-19" data-name="Path" d="M.143,3.819a.138.138,0,0,1-.084-.027.143.143,0,0,1-.031-.2L2.62.055A.141.141,0,0,1,2.811.024a.143.143,0,0,1,.044.2L.263,3.762a.145.145,0,0,1-.12.057Z" transform="translate(179.963 103.608)" stroke="#ffca00" stroke-miterlimit="10" stroke-width="1"/>
                  <path id="Path-20" data-name="Path" d="M3.119,3.513a.143.143,0,0,1-.105-.046L.042.243a.143.143,0,0,1,0-.2.145.145,0,0,1,.2,0L3.217,3.265a.143.143,0,0,1,0,.2.134.134,0,0,1-.1.046Z" transform="translate(9.179 101.052)" stroke="#ffca00" stroke-miterlimit="10" stroke-width="1"/>
                  <ellipse id="Oval" cx="2.697" cy="2.694" rx="2.697" ry="2.694" transform="translate(168.785 187.237)" fill="#ffd6d3"/>
                  <ellipse id="Oval-2" data-name="Oval" cx="1.656" cy="1.654" rx="1.656" ry="1.654" transform="translate(9.156 62.133)" fill="#ffd6d3"/>
                  <ellipse id="Oval-3" data-name="Oval" cx="2.164" cy="2.162" rx="2.164" ry="2.162" transform="translate(65.991 26.513)" fill="#0f0a39"/>
                  <path id="Shape" d="M3.154,6.315a3.172,3.172,0,1,1,.015,0Zm.014-5.031a1.875,1.875,0,1,0,.933.252,1.884,1.884,0,0,0-.933-.252h0Z" transform="translate(27.253 67.386)" fill="#0f0a39"/>
                  <path id="Shape-2" data-name="Shape" d="M.11,1.235a.825.825,0,1,1,.715.414A.823.823,0,0,1,.11,1.235Z" transform="translate(187.575 35.18)"/>
                </g>
              </g>
              <g id="general" transform="translate(19 27)">
                <g id="general-2">
                  <g id="ball" transform="translate(46.103 106.302)">
                    <path id="Path-21" data-name="Path" d="M36.035,27.862A19.551,19.551,0,0,1,0,25.343l6.636-4.281A38.844,38.844,0,0,0,2.464,8.4a19.575,19.575,0,0,1,33.231,1.763A34.238,34.238,0,0,0,36.035,27.862Z" transform="translate(1.06 0.177)" fill="#0f0a39"/>
                    <path id="Path-22" data-name="Path" d="M7.592,12.667.956,16.948A19.26,19.26,0,0,1,3.42,0,38.83,38.83,0,0,1,7.592,12.667Z" transform="translate(0.103 8.572)" fill="#ffcc0a"/>
                  </g>
                  <g id="skittles" transform="translate(13.921 61.883)">
                    <g id="skittle4" transform="translate(68.911 20.121)">
                      <path id="Path-23" data-name="Path" d="M18.556,41.768,15.864,42c-1.031,4.343-3.554,8.542-4.553,13.719a26.681,26.681,0,0,0-.409,3.162l-8.2-.368A35.841,35.841,0,0,1,.341,52.154,19.245,19.245,0,0,0,0,34.45c.109-.393.23-.784.358-1.171,1.6-4.787,4.532-8.474,6.062-12.473a13.01,13.01,0,0,0,.765-7.314c-.011-.066-.025-.133-.04-.2-.44-2.128-1.781-5.435-.394-9.112C7.367,2.55,8.865-.1,10.63,0c2.15.12,3.3,4.243,3.369,4.5,1.025,3.827-.612,7.024-1.22,9.043l-.057.19a13,13,0,0,0,.082,7.352A28.955,28.955,0,0,0,14,24.445c-.029.106-.055.209-.078.309-.928,3.986.914,7.234,1.66,9.374l.071.2,2.091-.178A30.035,30.035,0,0,1,18.556,41.768Z" transform="translate(0.025 0.183)" fill="#ffcc0a"/>
                      <path id="Path-24" data-name="Path" d="M0,7.314A12.991,12.991,0,0,0,.765,0L6.3.249A13,13,0,0,0,6.384,7.6Z" transform="translate(6.445 13.675)" fill="#0f0a39"/>
                      <path id="Path-25" data-name="Path" d="M7.652,0a39.222,39.222,0,0,1-4.4,17.259L0,17.113A26.681,26.681,0,0,1,.409,13.95c1-5.169,3.522-9.375,4.553-13.719Z" transform="translate(10.929 41.951)" fill="#0f0a39"/>
                      <path id="Shape-3" data-name="Shape" d="M3.866,18.544h0L.609,18.4a.66.66,0,0,1-.449-.216A.638.638,0,0,1,0,17.712a26.788,26.788,0,0,1,.419-3.24l.107-.53A38.723,38.723,0,0,1,2.678,7.294L3.552,5.07c.477-1.228.73-1.937,1-2.809.167-.533.306-1.037.426-1.54A.64.64,0,0,1,5.45.249l.1-.015L8.255,0h.037a.665.665,0,0,1,.442.172A.649.649,0,0,1,8.94.652,40.029,40.029,0,0,1,4.466,18.21a.627.627,0,0,1-.384.3l-.119.03Zm3.756-17.2-1.516.13-.018.074A38.9,38.9,0,0,1,4.469,6.23L3.986,7.45,3.653,8.3a34.584,34.584,0,0,0-1.98,6.412c-.112.585-.2,1.177-.275,1.761l-.071.669,2.182.1.116-.221A39.1,39.1,0,0,0,7.593,1.975Z" transform="translate(10.296 41.309)" fill="#0f0a39"/>
                      <path id="Path-26" data-name="Path" d="M4.078,9.708l-2.091.178-.071-.2C1.17,7.544-.672,4.305.255.309.278.209.305.106.334,0A66.29,66.29,0,0,1,4.055,9.613Z" transform="translate(13.686 24.628)" fill="#0f0a39"/>
                      <path id="Shape-4" data-name="Shape" d="M2.639,11.713h0a.647.647,0,0,1-.516-.26l-.052-.085-.039-.092-.163-.464L1.142,8.974C-.024,5.945-.273,3.735.283,1.348l.082-.327A.645.645,0,0,1,.745.587L.873,0l.236.551a.644.644,0,0,1,.474.386l.476,1.12L2.835,3.81A41.153,41.153,0,0,1,5.246,10.3l.113.443a.644.644,0,0,1-.464.765l-.109.019L2.7,11.707ZM1.3,3.513h0l0,.189a12.439,12.439,0,0,0,.9,4.408l.324.844.526,1.326.039.106.835-.07-.013-.05A37.37,37.37,0,0,0,2.055,5.243Z" transform="translate(13.032 23.446)" fill="#0f0a39"/>
                    </g>
                    <g id="skittle5" transform="translate(79.624 40.053)">
                      <path id="Shape-5" data-name="Shape" d="M7,62.871H7a.647.647,0,0,1-.536-.285A39.729,39.729,0,0,1,1.474,51.67a35.449,35.449,0,0,1-1.4-12.086.642.642,0,0,1,.574-.611l.1,0L3.59,39.1l.117-.222A39.1,39.1,0,0,0,7.675,23.834L7.7,23.2l-1.973.18a.648.648,0,0,1-.067,0,.633.633,0,0,1-.33-.093l-.086-.063-.079-.078a.655.655,0,0,1-.127-.556,12.937,12.937,0,0,0-.073-6.915L4.848,15.3a.642.642,0,0,1,.451-.851l.1-.014,1.331-.115-.013-.05a35.812,35.812,0,0,0-1.677-4.62L3.4,5.9,3.19,5.4a.6.6,0,0,1-.01-.371A11.858,11.858,0,0,1,4.22,2.367C5.034.882,6.009.088,7.117.006,7.178,0,7.239,0,7.3,0c1.056,0,2.091.671,3.079,1.995l.162.224.253.376a13.511,13.511,0,0,1,1.066,2c.955,2.3,1.084,4.459.458,7.7l-.4,1.952-.064.423a13.007,13.007,0,0,0,1.05,7.246,30.081,30.081,0,0,0,2.072,3.928L16.4,28.183a40.693,40.693,0,0,1,3.379,6.488,35.1,35.1,0,0,1,2.25,13.5,40.024,40.024,0,0,1-2.491,13.269.645.645,0,0,1-.443.4l-.1.018ZM1.311,40.284l0,.028A34.736,34.736,0,0,0,2.721,51.35a38.841,38.841,0,0,0,4.5,10.036l.112.171L18.465,60.6l.07-.191A39.174,39.174,0,0,0,20.7,48a34.327,34.327,0,0,0-1.937-12.38l-.186-.483-.2-.5a38.917,38.917,0,0,0-2.928-5.538L13.815,26.42c-.288-.481-.5-.851-.764-1.32a27.679,27.679,0,0,1-1.339-2.687,14.271,14.271,0,0,1-1.2-7.51l.089-.645.1-.538.266-1.281c.663-3.226.581-5.217-.3-7.347A12.4,12.4,0,0,0,9.481,2.95,3.567,3.567,0,0,0,7.474,1.292l-.136-.014-.133,0c-.949.071-1.982,1.457-2.632,3.532l-.1.323.6,1.381.571,1.292A41.076,41.076,0,0,1,8.054,14.3l.113.443a.64.64,0,0,1-.464.764l-.109.019-1.3.112.058.216a13.885,13.885,0,0,1,.17,5.923l-.047.242,1.843-.158h.041a.646.646,0,0,1,.353.107l.086.066A.652.652,0,0,1,9,22.51,40.014,40.014,0,0,1,4.53,40.057a.636.636,0,0,1-.509.343h-.09l-2.62-.117Z" transform="translate(-0.491 -0.488)" fill="#0f0a39"/>
                      <path id="Shape-6" data-name="Shape" d="M1.008,9.455h0l-.154,0a.643.643,0,0,1-.619-.792A12.922,12.922,0,0,0,.163,1.747L.042,1.362A.64.64,0,0,1,.493.51L.589.5,6.362,0H6.4a.643.643,0,0,1,.463.194A.621.621,0,0,1,7.04.736,13.044,13.044,0,0,0,8.1,7.993a.658.658,0,0,1-.049.578.642.642,0,0,1-.393.287l-.1.016-6.512.558-.034.023Zm4.666-8.1h0l-4.187.356.059.217a13.9,13.9,0,0,1,.17,5.923L1.669,8.1l4.912-.42L6.5,7.447a14.041,14.041,0,0,1-.842-5.862l.02-.227Z" transform="translate(4.315 13.446)" fill="#0f0a39"/>
                    </g>
                    <g id="skittle3" transform="translate(5.591 54.67)">
                      <path id="Path-27" data-name="Path" d="M17.467,64.075,4.753,63.941C1.046,56.987-1.668,45.748,1.2,36.084c1.59-5.363,4.693-9.556,6.233-14.047a14.333,14.333,0,0,0,.564-8.128c-.015-.074-.033-.146-.052-.222-.574-2.339-2.181-5.951-.784-10.08A11.269,11.269,0,0,1,9.132,0a33.737,33.737,0,0,0,6.359,8.922,42.389,42.389,0,0,1-1.3,4.823c-.021.072-.04.148-.057.22a14.5,14.5,0,0,0,.373,8.138c1.414,4.493,4.379,8.741,5.94,14.172C23.241,46.008,20.876,57.2,17.467,64.075Z" transform="translate(0.15 1.359)" fill="#ffcc0a"/>
                      <path id="Path-28" data-name="Path" d="M0,8.128A14.349,14.349,0,0,0,.562,0L6.7.066A14.5,14.5,0,0,0,7.076,8.2Z" transform="translate(7.581 15.273)" fill="#0f0a39"/>
                      <path id="Path-29" data-name="Path" d="M6.359,10.1A33.565,33.565,0,0,1,0,1.179,2.939,2.939,0,0,1,2.162,0c2.385.053,3.814,4.577,3.9,4.861A11.409,11.409,0,0,1,6.359,10.1Z" transform="translate(9.282 0.195)" fill="#0f0a39"/>
                      <path id="Shape-7" data-name="Shape" d="M7.244,11.508h0l-.129-.132-.065.007H7a.641.641,0,0,1-.458-.194A34.118,34.118,0,0,1,.062,2.1a.646.646,0,0,1,.1-.7A3.589,3.589,0,0,1,2.637,0h.181l.189.01C4.164.119,5.231,1.017,6.178,2.679A13.536,13.536,0,0,1,7.322,5.32a12,12,0,0,1,.316,5.521.633.633,0,0,1-.266.424l-.1.057-.028.184ZM2.746,1.283a1.965,1.965,0,0,0-1.28.613l-.048.045.119.239a32.383,32.383,0,0,0,4.791,6.9l.192.21.007-.105A10.587,10.587,0,0,0,6.2,6.072l-.105-.379a12.664,12.664,0,0,0-.974-2.285C4.364,2.036,3.559,1.3,2.79,1.283Z" transform="translate(8.638 -0.444)" fill="#0f0a39"/>
                    </g>
                    <g id="skittle2" transform="translate(0 18.172)">
                      <path id="Path-30" data-name="Path" d="M1.408.389C-.176,1.384-.3,4.07.427,6.741c.739,2.719,2.078,4.306,4.919,6.684l.471.394c.091.077.174.149.251.216l.285.257.067.065a12.367,12.367,0,0,1,3.5,6.093l.111.434a32.723,32.723,0,0,1,.662,3.908l.169,1.415.1.9a35.608,35.608,0,0,0,1.351,7.013,26.048,26.048,0,0,0,1.354,3.434.645.645,0,0,0,1.061.151,2.292,2.292,0,0,1,1.665-.972c.792.018,1.6.8,2.331,2.124a12.624,12.624,0,0,1,.973,2.286,10.678,10.678,0,0,1,.276,4.937.649.649,0,0,0,.169.556,39.243,39.243,0,0,0,9.186,7.018.643.643,0,0,0,.655-.027l2.98-1.919a.647.647,0,0,0,.186-.885l-.061-.08a.644.644,0,0,0-.8-.13l-2.685,1.73-.274-.152A38.173,38.173,0,0,1,21.6,46.266l-.295-.3-.039.259a11.929,11.929,0,0,0-.331-5.466,14.378,14.378,0,0,0-1.142-2.647c-.979-1.72-2.1-2.644-3.362-2.673l-.188,0a3.034,3.034,0,0,0-1.628.617l-.15.114-.248-.589q-.372-.918-.669-1.864a36.156,36.156,0,0,1-1.355-7.25l-.216-1.84a30.8,30.8,0,0,0-.8-4.526A13.632,13.632,0,0,0,7.319,13.42L6.973,13.1c-.1-.089-.207-.183-.334-.292l-1.146-.968c-.337-.29-.58-.51-.859-.778A9.956,9.956,0,0,1,1.684,6.391a10.164,10.164,0,0,1-.365-2.913A2.456,2.456,0,0,1,2.1,1.463a2.022,2.022,0,0,1,1.67-.018,7.8,7.8,0,0,1,1.6.749,11.855,11.855,0,0,1,1.366.943C8.537,4.613,9.38,6.162,10.261,9l.421,1.4c.044.144.085.27.126.391l.111.318a13.9,13.9,0,0,0,4.571,6.219,29.691,29.691,0,0,0,3.193,2.2l1.358.816,1.7,1a35.555,35.555,0,0,1,5.341,3.671,31.73,31.73,0,0,1,7.432,9.5.644.644,0,0,0,1.138-.6,33.015,33.015,0,0,0-7.738-9.88A32.886,32.886,0,0,0,24.4,21.479l-.788-.5c-.186-.115-.369-.228-.567-.348L20.094,18.88a30.774,30.774,0,0,1-3.8-2.55,12.609,12.609,0,0,1-4.039-5.284l-.2-.547-.115-.349-.524-1.742A15.9,15.9,0,0,0,10.33,5.659,10.809,10.809,0,0,0,7.831,2.4l-.292-.247-.267-.21c-.152-.116-.329-.245-.524-.379A12.047,12.047,0,0,0,5.236.67C3.744-.062,2.425-.251,1.408.389Z" transform="translate(0.615 0.604)" fill="#0f0a39"/>
                      <path id="Path-31" data-name="Path" d="M3.671,9.383A13.013,13.013,0,0,0,0,3L4.647,0A13.151,13.151,0,0,0,9.027,5.93Z" transform="translate(7.491 11.497)" fill="#0f0a39"/>
                    </g>
                    <g id="skittle1" transform="translate(34.86)">
                      <path id="Shape-8" data-name="Shape" d="M9.392,24.063a6.377,6.377,0,0,1-3.5-1.075C3.355,21.474,1.045,17.583.276,13.525-.431,9.778.231,6.362,2.143,3.906A10.411,10.411,0,0,1,5.015,1.344,9.514,9.514,0,0,1,9.058.032C9.324.011,9.594,0,9.861,0a10.042,10.042,0,0,1,7.412,3.269l.212.24.167.206a8.731,8.731,0,0,1,1.776,4.4,14.19,14.19,0,0,1-.717,5.93,19.811,19.811,0,0,1-4.979,8.185,9.617,9.617,0,0,1-.977.761A6.041,6.041,0,0,1,9.785,24.06Zm.5-22.779-.241,0c-.161,0-.321.014-.476.03A8.6,8.6,0,0,0,3.16,4.7C1.478,6.858.9,9.909,1.535,13.292c.656,3.467,2.5,6.813,4.6,8.328l.207.143.2.128a7.858,7.858,0,0,0,.716.39,4.827,4.827,0,0,0,2.1.5c.112,0,.225,0,.336-.013a5.191,5.191,0,0,0,3.181-1.515,18.335,18.335,0,0,0,4.594-7.6c1.239-3.9.91-7.03-.978-9.312a8.783,8.783,0,0,0-6.3-3.05Z" transform="translate(-0.353 6.429)" fill="#0f0a39"/>
                      <ellipse id="Oval-4" data-name="Oval" cx="4.163" cy="4.131" rx="4.163" ry="4.131" transform="translate(5.089 21.04)" fill="#0f0a39"/>
                      <path id="Path-32" data-name="Path" d="M4.1,0C2.449-.086,1.046,1.542.343,3.438-.131,4.72-.1,5.692.34,7.869a.632.632,0,0,0,.416.486A.643.643,0,0,0,1.6,7.6l-.11-.572A5.3,5.3,0,0,1,1.55,3.885c.523-1.42,1.555-2.65,2.479-2.6.9.05,1.776,1.329,2.176,2.816A5.823,5.823,0,0,1,5.84,7.724a.627.627,0,0,0,.029.49.645.645,0,0,0,.388.335l.149.023h.046a.651.651,0,0,0,.608-.454,6.913,6.913,0,0,0,.388-4.345C6.919,1.794,5.721.095,4.1,0Z" transform="translate(6.156 -0.336)" fill="#0f0a39"/>
                      <path id="Path-33" data-name="Path" d="M0,.507A6.684,6.684,0,0,1,5.827.856l-.178.569A9.5,9.5,0,0,0,.2,1.285C.132,1.023.067.765,0,.507Z" transform="translate(6.977 6.116)" fill="#0f0a39"/>
                    </g>
                  </g>
                  <g id="lines" transform="translate(0 84.282)">
                    <path id="Path-34" data-name="Path" d="M84.9.079.326,47.473a.644.644,0,0,0,.3,1.2A.684.684,0,0,0,.95,48.6L85.524,1.2a.645.645,0,0,0,.29-.77L85.766.321A.642.642,0,0,0,84.9.079Z" transform="translate(-0.478 -0.423)" fill="#0f0a39"/>
                    <path id="Path-35" data-name="Path" d="M39.178.039A.639.639,0,0,0,38.81.39L36.938,4.454C36,6.5,35.058,8.569,34.126,10.629,22.081,37.224,10.615,64.526.045,91.776a.637.637,0,0,0,.011.5.645.645,0,0,0,.367.344.625.625,0,0,0,.222.041.634.634,0,0,0,.612-.408c10.541-27.212,22-54.5,34.042-81.088,1.521-3.355,3.1-6.8,4.687-10.247a.633.633,0,0,0,.02-.494L39.962.326A.641.641,0,0,0,39.752.1L39.671.061l.013.006A.641.641,0,0,0,39.178.039Z" transform="translate(90.392 19.347)" fill="#0f0a39"/>
                  </g>
                  <g id="man" transform="translate(89.337)">
                    <g id="hand_l" transform="translate(14.156 15.945)">
                      <path id="Path-36" data-name="Path" d="M.145,5.755a.154.154,0,0,1-.057-.011A.141.141,0,0,1,.01,5.665a.139.139,0,0,1,0-.111c.235-.549,1.448-3.349,2.2-4.7C2.343.611,2.661.034,3.166,0a.752.752,0,0,1,.658.309c.237.363-.013.862-.134,1.1l-.285.569C4.222.727,4.618.362,5.068.4a.747.747,0,0,1,.574.344C5.9,1.2,5.49,1.811,5.161,2.3l-.291.437c-.478.716-.934,1.4-1.423,2.126l-.055.084a.144.144,0,0,1-.256-.008.141.141,0,0,1,.017-.148L3.2,4.721l.011-.015C3.7,3.978,4.153,3.3,4.631,2.581l.291-.435c.272-.406.641-.961.471-1.257a.469.469,0,0,0-.344-.2c-.348-.038-.765.442-1.67,1.881-.218.345-.853,1.371-1.069,1.75-.078.173-.105.224-.191.224a.156.156,0,0,1-.088-.028c-.1-.08-.054-.171.033-.323l.059-.133c.191-.421.589-1.3,1.339-2.777.088-.177.3-.592.149-.818a.453.453,0,0,0-.4-.177c-.352.023-.616.5-.729.706C1.745,2.321.536,5.119.3,5.666a.144.144,0,0,1-.157.089Z" transform="translate(2.489 0.164)" fill="#0f0a39"/>
                      <path id="Path-37" data-name="Path" d="M.143,8.161a.142.142,0,0,1-.1-.243c1.877-1.9,3.151-3.181,4.105-4.066l.019-.017c.3-.281,1.106-1.027.941-1.456a.28.28,0,0,0-.122-.146c-.264-.125-.867.418-1.351.854A11.334,11.334,0,0,0,2.571,4.18a.144.144,0,0,1-.191.016.142.142,0,0,1-.036-.187c.5-.748,1.012-1.462,1.53-2.118l.1-.131c.419-.539.817-1.05.675-1.31A.348.348,0,0,0,4.413.289C4.105.232,3.726.7,3.131,1.472c-.423.545-.87,1.139-1.339,1.76a.15.15,0,0,1-.2.038.136.136,0,0,1-.042-.19l.011-.017C2.024,2.438,2.471,1.844,2.9,1.3,3.6.393,3.988-.075,4.459.01A.624.624,0,0,1,4.9.316c.23.423-.2.978-.7,1.617l-.1.131q-.266.342-.53.7c.608-.547,1.134-.983,1.546-.786a.546.546,0,0,1,.262.3c.235.609-.606,1.391-1.012,1.767l-.019.017c-.956.883-2.221,2.156-4.1,4.058a.142.142,0,0,1-.105.044Z" transform="translate(4.134 1.807)" fill="#0f0a39"/>
                      <path id="Path-38" data-name="Path" d="M4.176,7.474A.16.16,0,0,1,4.1,7.453L.067,4.974A.144.144,0,0,1,.011,4.8l.136-.325C.78,2.955,1.283,1.755,1.578.979c.1-.26.323-.852.811-.961A.716.716,0,0,1,3,.164c.295.264.207.746.142,1.1-.126.693-.283,1.367-.476,2.06a.143.143,0,0,1-.067.087.144.144,0,0,1-.109.014.146.146,0,0,1-.1-.177c.191-.685.346-1.35.473-2.035C2.93.853,2.974.521,2.812.375A.429.429,0,0,0,2.452.3c-.339.074-.524.569-.6.774-.3.788-.8,1.989-1.437,3.512L.323,4.8,4.25,7.211a.144.144,0,0,1-.075.264Z" transform="translate(0.102 2.493)" fill="#0f0a39"/>
                    </g>
                    <path id="tshirt" d="M13.474,38.037h0c-.105-1.361-.857-6.722-1.083-7.855A12.261,12.261,0,0,1,6.324,32.3,5.524,5.524,0,0,1,4.1,31.855a5.63,5.63,0,0,1-2.7-2.644A12.31,12.31,0,0,1,.193,25.117a27.08,27.08,0,0,1,.309-8.3C1.9,9.831,6.729,5.342,9.482,3.288A7.9,7.9,0,0,0,13.527,4.61a4.715,4.715,0,0,0,1.944-.4,6.018,6.018,0,0,0,2.175-1.766A5.851,5.851,0,0,0,18.714,0h.9c7.274.061,12.736,2.67,19.66,6.348,5.893,3.133,11.77,6.51,17.467,10.038-.838,2-1.682,4.014-2.507,6L38.322,15.45l-5.873-2.56c.91,2.342,1.8,4.662,2.646,6.895C36.4,23.2,37.674,26.534,38.873,29.7c-3.742,1.418-7.677,2.812-11.695,4.145-4.7,1.552-9.309,2.963-13.7,4.195Zm3.262-31.06a.573.573,0,0,0-.129.015c-.412.09-.617.628-.705.859l0,.011c-.276.728-.733,1.822-1.31,3.206l-.258.619,4.04,2.479c1.817-1.846,3.137-3.17,4.1-4.063h-.007l.017-.016c.353-.327,1.179-1.093.978-1.613a.422.422,0,0,0-.192-.221.345.345,0,0,0-.151-.033c-.352,0-.864.461-1.358.908a11.722,11.722,0,0,0-1.076,1.107c.617-.924,1.162-1.646,1.518-2.11l.091-.117c.472-.607.879-1.132.7-1.476a.488.488,0,0,0-.338-.236.441.441,0,0,0-.076-.007c-.365,0-.731.449-1.345,1.242-.392.5-.843,1.091-1.339,1.763.543-.8,1.041-1.544,1.568-2.332l.154-.23.035-.054c.288-.439.647-.986.439-1.351a.612.612,0,0,0-.455-.275l-.049,0c-.4,0-.829.474-1.756,1.95-.223.354-.86,1.387-1.076,1.762l.068-.149c.191-.422.588-1.3,1.321-2.759.084-.162.342-.654.141-.961a.6.6,0,0,0-.484-.243h-.042c-.427.022-.721.553-.846.78-.817,1.481-2.174,4.654-2.188,4.685.191-.685.351-1.374.472-2.048.075-.414.12-.772-.1-.967A.581.581,0,0,0,16.736,6.976Z" transform="translate(0.072 11.606)" fill="#0f0a39"/>
                    <g id="hand_r" transform="translate(53.946 27.525)">
                      <path id="Path-39" data-name="Path" d="M2.584,1.928a.143.143,0,0,1-.142-.12,6.542,6.542,0,0,1-.077-.664,6.7,6.7,0,0,1,0-.759c-.119.055-.237.1-.36.15A4.281,4.281,0,0,1,.132.792.143.143,0,1,1,.156.508a4.035,4.035,0,0,0,.48.013A4.262,4.262,0,0,0,2.46.02a.146.146,0,0,1,.147,0A.138.138,0,0,1,2.67.151a6.056,6.056,0,0,0-.013.968c.013.211.038.425.073.634a.144.144,0,0,1-.119.165Z" transform="translate(4.123 4.401)"/>
                      <path id="Path-40" data-name="Path" d="M3.552,8.943a.919.919,0,0,1-.22-.027A1.23,1.23,0,0,1,3.1,8.822a.779.779,0,0,1-.383-.4,1.037,1.037,0,0,1-.075-.345c0-.3.551-.7,1.238-.9a.144.144,0,0,1,.178.1.142.142,0,0,1-.1.177,1.617,1.617,0,0,0-1.031.626.743.743,0,0,0,.052.235.551.551,0,0,0,.05.089.573.573,0,0,0,.2.169.826.826,0,0,0,.172.07,2.2,2.2,0,0,0,1.255-.38c.914-.554,1.374-.833,1.58-1.226a8.294,8.294,0,0,0,.224-1.247,2.964,2.964,0,0,0-.084-1.9,2.25,2.25,0,0,0-.142-.235,2.416,2.416,0,0,0-.4-.433A11.083,11.083,0,0,0,2.821,1.489l-.285-.123-.679-.3C1.218.771.344.376.095.285A.145.145,0,0,1,.012.208.143.143,0,0,1,.011.1.141.141,0,0,1,.088.012.143.143,0,0,1,.2.012C.46.107,1.306.488,1.983.8l.675.3.283.121A11.615,11.615,0,0,1,6.035,3a2.644,2.644,0,0,1,.444.486,2.367,2.367,0,0,1,.163.266,3.211,3.211,0,0,1,.113,2.075A6.982,6.982,0,0,1,6.5,7.157c-.243.465-.725.759-1.683,1.329A2.673,2.673,0,0,1,3.552,8.943Z" transform="translate(1.64 0.117)"/>
                      <path id="Path-41" data-name="Path" d="M6.34,3.277a4.239,4.239,0,0,1-.912-.12,11.926,11.926,0,0,1-1.752-.569l-.251-.1-.052-.023c-.172-.072-.354-.148-.536-.228,0,0-.281-.125-.515-.235A6.587,6.587,0,0,1,.027.215.14.14,0,0,1,.05.026.146.146,0,0,1,.241.048a6.306,6.306,0,0,0,2.19,1.708c.23.11.507.233.507.233.18.08.36.154.53.226l.054.023c.05.021.134.057.245.1a11.889,11.889,0,0,0,1.71.554c.765.173,1.28.144,1.477-.078a.523.523,0,0,0,.107-.461c-.052-.165-.226-.308-.528-.438-.105-.044-.21-.082-.3-.112l-.063-.023c-.165-.057-.333-.121-.5-.19-.3-.125-.606-.268-.907-.425C4.614,1.089,4.459,1,4.3.912L4.161.827h0L4.075.774C3.949.7,3.815.614,3.677.525a.144.144,0,0,1-.042-.19A.144.144,0,0,1,3.826.293c.134.087.264.171.394.247L4.3.587h0l.138.082c.155.091.3.175.451.251.293.154.589.294.884.416.159.066.321.127.482.19l.063.021c.1.034.207.072.321.121a1.1,1.1,0,0,1,.687.611.808.808,0,0,1-.165.737A1.069,1.069,0,0,1,6.34,3.277Z" transform="translate(0.101 4.413)"/>
                      <path id="Path-42" data-name="Path" d="M.144.915A.143.143,0,0,1,.009.822.142.142,0,0,1,.05.664L.787.036a.145.145,0,0,1,.2.012.142.142,0,0,1-.012.2L.243.881a.146.146,0,0,1-.1.034Z" transform="translate(5.042 4.71)"/>
                      <path id="Path-43" data-name="Path" d="M.88,1.7a.9.9,0,0,1-.394-.087A.921.921,0,0,1,0,1.045a.292.292,0,0,1,0-.04.756.756,0,0,1,.2-.592h0A2.289,2.289,0,0,1,.631.034.144.144,0,0,1,.779.011.142.142,0,0,1,.8.263,2.12,2.12,0,0,0,.434.586h0A.5.5,0,0,0,.283.95V.979a.645.645,0,0,0,.329.38.809.809,0,0,0,.641-.025.144.144,0,0,1,.145.013.142.142,0,0,1-.028.247A1.227,1.227,0,0,1,.88,1.7Z" transform="translate(3.115 6.73)"/>
                      <path id="Path-44" data-name="Path" d="M.753,1.5H.73A.862.862,0,0,1,.493,1.43.891.891,0,0,1,0,.8.222.222,0,0,1,0,.755.942.942,0,0,1,.4.037.144.144,0,0,1,.6.047a.143.143,0,0,1-.011.2C.382.438.279.6.288.743V.764a.624.624,0,0,0,.335.41.577.577,0,0,0,.155.049A.143.143,0,0,1,.9,1.385a.145.145,0,0,1-.145.12Z" transform="translate(2.499 6.379)"/>
                      <path id="Path-45" data-name="Path" d="M.144.281H.116A.142.142,0,0,1,0,.114H0A.144.144,0,0,1,.286.151.143.143,0,0,1,.144.285Z" transform="translate(3.299 7.086)"/>
                      <path id="Path-46" data-name="Path" d="M.434,1.136a.133.133,0,0,1-.086-.03A.854.854,0,0,1,0,.574.7.7,0,0,1,.156.065a.144.144,0,0,1,.252.02A.141.141,0,0,1,.39.23a.427.427,0,0,0-.1.3A.586.586,0,0,0,.52.879a.142.142,0,0,1,.029.2.148.148,0,0,1-.115.057Z" transform="translate(2.212 6.138)"/>
                    </g>
                    <g id="shoes" transform="translate(13.008 83.903)">
                      <path id="Path-47" data-name="Path" d="M10.013,1.477C9.764,2.143,9.421,3.056,9,4.148H9a1.076,1.076,0,0,0-1.483.364,1.09,1.09,0,0,0,.725,1.445L6.6,10.19q-1.888,4.854-3.792,9.7a5.41,5.41,0,0,1-2.3-3.554c-.132-1.222.4-2,.723-4.935a6.673,6.673,0,0,0-.059-2.113A9.466,9.466,0,0,0,0,6.365c.027-.072.054-.144.082-.215Q.5,5.061.914,3.973L2.6,2.13,4.377.19,4.549,0Z" transform="translate(33.265 0.125)" fill="#0f0a39"/>
                      <path id="Path-48" data-name="Path" d="M18.5,5.366c-.66.254-1.565.6-2.655,1.012h0A1.079,1.079,0,0,0,14.59,5.5,1.091,1.091,0,0,0,14,7.008L9.752,8.58q-4.863,1.8-9.741,3.58A5.361,5.361,0,0,1,1.136,8.079C1.959,7.17,2.89,7.05,5.285,5.351a6.561,6.561,0,0,0,1.53-1.445A7.321,7.321,0,0,0,7.562,2.7,7.151,7.151,0,0,0,8.174.826L15.826,0Z" transform="translate(0.084 13.276)" fill="#0f0a39"/>
                    </g>
                    <g id="head" transform="translate(3.782)">
                      <path id="Path-49" data-name="Path" d="M2.494,0H2.315A2.43,2.43,0,0,0,.278,1.256a2.37,2.37,0,0,0-.271.812.644.644,0,0,0,1.255.273l.02-.093a1.038,1.038,0,0,1,.129-.364,1.139,1.139,0,0,1,1.767-.307,1.125,1.125,0,0,1,.19.216l.09.163.01.022a1.084,1.084,0,0,1,.088.388A1.129,1.129,0,0,1,2.74,3.479l-.116.028a.642.642,0,0,0,.121,1.274l.1-.012.017,0a2.4,2.4,0,0,0,1.764-3.31c-.021-.049-.043-.1-.066-.139A2.421,2.421,0,0,0,2.494,0Z" transform="translate(9.03 4.109)" fill="#0f0a39"/>
                      <path id="hair" d="M0,4.736A9.37,9.37,0,0,0,2.736,3.69,5.732,5.732,0,0,0,4.06,2.058,6.3,6.3,0,0,0,6.365,4.269a6.709,6.709,0,0,0,3.123.84,1.764,1.764,0,0,1,.378-.289,2.046,2.046,0,0,1,.522-.2,2.165,2.165,0,0,1,1.267.179c-.019-.1-.051-.251-.1-.423A5.942,5.942,0,0,0,8.544.642,8.528,8.528,0,0,0,5.125.009,5.771,5.771,0,0,0,1.052,1.9,4.824,4.824,0,0,0,0,4.736Z" transform="translate(0.675 0.192)" fill="#0f0a39"/>
                      <g id="face" transform="translate(0 3.746)">
                        <path id="Path-50" data-name="Path" d="M.786.007A.641.641,0,0,0,.058.56a7.281,7.281,0,0,0,0,1.834C.437,5.4,2.635,8.264,5.313,8.691l.292.037a4.793,4.793,0,0,0,.586.02l.224-.014.022.079L4.658,10.242a.645.645,0,0,0-.1.9.652.652,0,0,0,.5.24.644.644,0,0,0,.364-.107L7.566,9.563a.645.645,0,0,0,.216-.674l-.113-.4L7.515,7.88A.643.643,0,0,0,6.761,7.4c-.118.023-.25.043-.407.059a3.481,3.481,0,0,1-.846-.031C3.447,7.1,1.649,4.738,1.335,2.242a5.894,5.894,0,0,1,0-1.517A.642.642,0,0,0,1.2.248L1.136.173A.644.644,0,0,0,.876.026Z" transform="translate(0.584 0.607)" fill="#0f0a39"/>
                        <path id="Path-51" data-name="Path" d="M.789.017A.643.643,0,0,0,.018.793L1.209,4.365a.644.644,0,0,0,.584.438l2.013.1.1-.006.045-.007a.662.662,0,0,0,.519-.629l-.007-.1a.643.643,0,0,0-.636-.547L2.283,3.541,1.257.45A.627.627,0,0,0,.789.017Z" transform="translate(11.584 3.695)" fill="#0f0a39"/>
                        <path id="Path-52" data-name="Path" d="M2.741,0A7.2,7.2,0,0,1,.254,2.574C.237,2.513.222,2.451.2,2.384c-.065-.239-.134-.473-.2-.7.153-.038.312-.084.473-.14A5.549,5.549,0,0,0,2.741,0Z" transform="translate(7.441 6.867)" fill="#0f0a39"/>
                      </g>
                    </g>
                    <g id="legs" transform="translate(14.113 40.951)">
                      <path id="Path-53" data-name="Path" d="M4.7.007a.643.643,0,0,0-.517.444C3.469,2.067,2.761,3.722,2.034,5.463L1.259,7.337c-.158.386-.3.742-.446,1.1L.047,10.394a.63.63,0,0,0,.007.493.643.643,0,0,0,.369.348.672.672,0,0,0,.212.04.649.649,0,0,0,.619-.436L1.865,9.28c.29-.734.56-1.4.92-2.273C3.652,4.911,4.5,2.92,5.38.913A.62.62,0,0,0,5.325.275.644.644,0,0,0,4.7.007Z" transform="translate(4.128 7.607)" fill="#0f0a39"/>
                      <path id="Shape-9" data-name="Shape" d="M21.833,0l-.079.006-.045.007a.662.662,0,0,0-.519.629c.006.532,0,1.066-.028,1.592-.016.366-.04.731-.075,1.138-.039.442-.085.862-.137,1.257a29.938,29.938,0,0,1-1.588,6.3l-.421,1.132c-.371.967-.768,1.922-1.562,3.8-.4.941-.8,1.837-1.219,2.74-.639,1.367-1.326,2.738-2.045,4.079l-.649,1.19-.112.2v.012l.065-.114c-.361.64-.728,1.277-1.091,1.889a.618.618,0,0,0-.087.379l.311,5.4.149,2.625,1.2,20.763-8.489.915-.223-1.53c-.5-3.524-1.187-8.967-1.68-13.692l-.2-2.025c-.721-7.413-.934-12.777-.473-15.021l.047-.221q.024-.109.048-.214v-.011c.083-.364.171-.7.27-1.044l.139-.464c.317-1.025.736-2.189,1.377-3.823A.627.627,0,0,0,4.7,17.4a55.349,55.349,0,0,1-2.71-7.256L1.651,8.947,1.265,7.435a.655.655,0,0,0-.771-.46.642.642,0,0,0-.488.709L.177,8.4l.309,1.16.271.946a56.621,56.621,0,0,0,2.349,6.47l.313.706L3,18.787c-.481,1.286-.79,2.2-1.03,3.042-.087.306-.162.588-.227.858l-.112.49-.049.232c-.571,2.8-.222,9.378.77,18.469l.06.548c.29,2.62.617,5.3.962,7.938l.451,3.354.425,3-.731.726,11.126-1.2a.64.64,0,0,0,.571-.684l-1.383-23.99-.3-5.221.289-.493c.243-.419.485-.843.721-1.267l.006-.021.189-.346V24.2l-.062.117c.943-1.706,1.831-3.447,2.64-5.178.317-.679.623-1.36.93-2.066l.307-.716C20.922,10.8,21.743,8.4,22.223,4.8c.059-.436.107-.879.144-1.317.024-.267.045-.555.063-.867l.026-.52.013-.426c.006-.288.007-.518.007-1.029A.641.641,0,0,0,21.833,0Z" transform="translate(0.648 0.593)" fill="#0f0a39"/>
                      <path id="Path-54" data-name="Path" d="M3.788.155a.645.645,0,0,0-.068.913L20.849,21.629v.01l2.006,2.408-3.464,3.785-1.733,1.887.367.321A150.81,150.81,0,0,1,4.659,16.932l-3.108-3.5-.419-.483a.645.645,0,1,0-.971.848l1.145,1.312c.619.7,1.351,1.516,2.4,2.678a152.239,152.239,0,0,0,13.583,13.3.647.647,0,0,0,.9-.053l.624-.683L20.34,28.69l3.635-3.971.208-.23.066-.086a.642.642,0,0,0-.065-.774l-2.109-2.54v-.014l-.6-.709L11.718,8.652,4.7.223A.647.647,0,0,0,3.788.155Z" transform="translate(13.216 18.798)" fill="#0f0a39"/>
                      <path id="Path-55" data-name="Path" d="M.836.8A.142.142,0,0,1,.75.769L.057.256A.142.142,0,0,1,.087.011.144.144,0,0,1,.23.028L.922.541a.142.142,0,0,1,.029.2A.148.148,0,0,1,.836.8Z" transform="translate(31.407 48.578)"/>
                      <g id="pattern" transform="translate(1.383 2.708)">
                        <path id="Path-56" data-name="Path" d="M2.046.33,1.837,0,0,.609V.994A1.118,1.118,0,0,0,1.248,2.01,1.1,1.1,0,0,0,2.2.771,1.055,1.055,0,0,0,2.046.33Z" transform="translate(10.548 1.054)" fill="#0f0a39"/>
                        <path id="Oval-5" data-name="Oval" d="M1.108,0A1.1,1.1,0,1,0,2.217,1.1,1.106,1.106,0,0,0,1.108,0Z" transform="translate(15.326 0.242)" fill="#0f0a39"/>
                        <path id="Path-57" data-name="Path" d="M1.489.637,1.518,0,.892.124A1.1,1.1,0,0,0,.753,2.252l.6.2.054-.635C1.444,1.429,1.471,1.038,1.489.637Z" transform="translate(20.107 -0.483)" fill="#0f0a39"/>
                        <path id="Path-58" data-name="Path" d="M.6,0,0,.04.3,1.2.618,2.361l.54-.262A1.105,1.105,0,0,0,.6,0Z" transform="translate(-0.557 5.607)" fill="#0f0a39"/>
                        <path id="Oval-6" data-name="Oval" d="M1.108,0A1.1,1.1,0,1,0,2.217,1.1,1.106,1.106,0,0,0,1.108,0Z" transform="translate(3.793 4.986)" fill="#0f0a39"/>
                        <path id="Oval-7" data-name="Oval" d="M1.108,0A1.1,1.1,0,1,0,2.217,1.1,1.106,1.106,0,0,0,1.108,0Z" transform="translate(8.575 4.363)" fill="#0f0a39"/>
                        <path id="Oval-8" data-name="Oval" d="M1.108,0A1.1,1.1,0,1,0,2.217,1.1,1.106,1.106,0,0,0,1.108,0Z" transform="translate(13.356 3.739)" fill="#0f0a39"/>
                        <path id="Oval-9" data-name="Oval" d="M1.108,0A1.1,1.1,0,1,0,2.217,1.1,1.106,1.106,0,0,0,1.108,0Z" transform="translate(18.138 3.116)" fill="#0f0a39"/>
                        <path id="Oval-10" data-name="Oval" d="M1.108,0A1.1,1.1,0,1,0,2.217,1.1,1.106,1.106,0,0,0,1.108,0Z" transform="translate(2.123 8.963)" fill="#0f0a39"/>
                        <path id="Oval-11" data-name="Oval" d="M1.108,0A1.1,1.1,0,1,0,2.217,1.1,1.106,1.106,0,0,0,1.108,0Z" transform="translate(6.903 8.34)" fill="#0f0a39"/>
                        <path id="Oval-12" data-name="Oval" d="M1.108,0A1.1,1.1,0,1,0,2.217,1.1,1.106,1.106,0,0,0,1.108,0Z" transform="translate(11.686 7.716)" fill="#0f0a39"/>
                        <path id="Oval-13" data-name="Oval" d="M1.108,0A1.1,1.1,0,1,0,2.217,1.1,1.106,1.106,0,0,0,1.108,0Z" transform="translate(16.466 7.093)" fill="#0f0a39"/>
                        <path id="Oval-14" data-name="Oval" d="M1.108,0A1.1,1.1,0,1,0,2.217,1.1,1.106,1.106,0,0,0,1.108,0Z" transform="translate(4.935 11.835)" fill="#0f0a39"/>
                        <path id="Oval-15" data-name="Oval" d="M1.108,0A1.1,1.1,0,1,0,2.217,1.1,1.106,1.106,0,0,0,1.108,0Z" transform="translate(9.715 11.212)" fill="#0f0a39"/>
                        <path id="Oval-16" data-name="Oval" d="M1.108,0A1.1,1.1,0,1,0,2.217,1.1,1.106,1.106,0,0,0,1.108,0Z" transform="translate(14.498 10.59)" fill="#0f0a39"/>
                        <path id="Oval-17" data-name="Oval" d="M1.108,0A1.1,1.1,0,1,0,2.217,1.1,1.106,1.106,0,0,0,1.108,0Z" transform="translate(2.802 15.872)" fill="#0f0a39"/>
                        <path id="Oval-18" data-name="Oval" d="M1.108,0A1.1,1.1,0,1,0,2.217,1.1,1.106,1.106,0,0,0,1.108,0Z" transform="translate(7.584 15.25)" fill="#0f0a39"/>
                        <path id="Oval-19" data-name="Oval" d="M1.108,0A1.1,1.1,0,1,0,2.217,1.1,1.106,1.106,0,0,0,1.108,0Z" transform="translate(12.365 14.625)" fill="#0f0a39"/>
                        <path id="Path-59" data-name="Path" d="M.783.009.455.051.366.369C.253.766.159,1.132.08,1.482L0,1.834l.388.234L.5,2.12v.151L1.067,2.2A1.1,1.1,0,1,0,.783.009Z" transform="translate(1.017 19.37)" fill="#0f0a39"/>
                        <path id="Oval-20" data-name="Oval" d="M1.108,0A1.1,1.1,0,1,0,2.217,1.1,1.106,1.106,0,0,0,1.108,0Z" transform="translate(5.614 18.746)" fill="#0f0a39"/>
                        <path id="Oval-21" data-name="Oval" d="M1.108,0A1.1,1.1,0,1,0,2.217,1.1,1.106,1.106,0,0,0,1.108,0Z" transform="translate(10.396 18.122)" fill="#0f0a39"/>
                        <path id="Oval-22" data-name="Oval" d="M1.108,0A1.1,1.1,0,1,0,2.217,1.1,1.106,1.106,0,0,0,1.108,0Z" transform="translate(15.177 17.499)" fill="#0f0a39"/>
                        <path id="Oval-23" data-name="Oval" d="M1.108,0A1.1,1.1,0,1,0,2.217,1.1,1.106,1.106,0,0,0,1.108,0Z" transform="translate(3.186 22.435)" fill="#0f0a39"/>
                        <path id="Oval-24" data-name="Oval" d="M1.108,0A1.1,1.1,0,1,0,2.217,1.1,1.106,1.106,0,0,0,1.108,0Z" transform="translate(7.969 21.812)" fill="#0f0a39"/>
                        <path id="Oval-25" data-name="Oval" d="M1.108,0A1.1,1.1,0,1,0,2.217,1.1,1.106,1.106,0,0,0,1.108,0Z" transform="translate(12.749 21.189)" fill="#0f0a39"/>
                        <path id="Oval-26" data-name="Oval" d="M1.108,0A1.1,1.1,0,1,0,2.217,1.1,1.106,1.106,0,0,0,1.108,0Z" transform="translate(17.532 20.567)" fill="#0f0a39"/>
                        <path id="Oval-27" data-name="Oval" d="M1.108,0A1.1,1.1,0,1,0,2.217,1.1,1.106,1.106,0,0,0,1.108,0Z" transform="translate(1.218 25.931)" fill="#0f0a39"/>
                        <path id="Oval-28" data-name="Oval" d="M1.108,0A1.1,1.1,0,1,0,2.217,1.1,1.106,1.106,0,0,0,1.108,0Z" transform="translate(5.998 25.309)" fill="#0f0a39"/>
                        <path id="Oval-29" data-name="Oval" d="M1.108,0A1.1,1.1,0,1,0,2.217,1.1,1.106,1.106,0,0,0,1.108,0Z" transform="translate(10.781 24.686)" fill="#0f0a39"/>
                        <path id="Oval-30" data-name="Oval" d="M1.108,0A1.1,1.1,0,1,0,2.217,1.1,1.106,1.106,0,0,0,1.108,0Z" transform="translate(15.561 24.061)" fill="#0f0a39"/>
                        <path id="Oval-31" data-name="Oval" d="M1.108,0A1.1,1.1,0,1,0,2.217,1.1,1.106,1.106,0,0,0,1.108,0Z" transform="translate(20.344 23.439)" fill="#0f0a39"/>
                        <path id="Oval-32" data-name="Oval" d="M1.108,0A1.1,1.1,0,1,0,2.217,1.1,1.106,1.106,0,0,0,1.108,0Z" transform="translate(3.867 29.346)" fill="#0f0a39"/>
                        <path id="Oval-33" data-name="Oval" d="M1.108,0A1.1,1.1,0,1,0,2.217,1.1,1.106,1.106,0,0,0,1.108,0Z" transform="translate(8.648 28.722)" fill="#0f0a39"/>
                        <path id="Oval-34" data-name="Oval" d="M1.108,0A1.1,1.1,0,1,0,2.217,1.1,1.106,1.106,0,0,0,1.108,0Z" transform="translate(13.43 28.099)" fill="#0f0a39"/>
                        <path id="Oval-35" data-name="Oval" d="M1.108,0A1.1,1.1,0,1,0,2.217,1.1,1.106,1.106,0,0,0,1.108,0Z" transform="translate(18.211 27.476)" fill="#0f0a39"/>
                        <path id="Oval-36" data-name="Oval" d="M1.108,0A1.1,1.1,0,1,0,2.217,1.1,1.106,1.106,0,0,0,1.108,0Z" transform="translate(22.993 26.852)" fill="#0f0a39"/>
                        <path id="Oval-37" data-name="Oval" d="M1.108,0A1.1,1.1,0,1,0,2.217,1.1,1.106,1.106,0,0,0,1.108,0Z" transform="translate(1.897 32.841)" fill="#0f0a39"/>
                        <path id="Oval-38" data-name="Oval" d="M1.108,0A1.1,1.1,0,1,0,2.217,1.1,1.106,1.106,0,0,0,1.108,0Z" transform="translate(6.679 32.218)" fill="#0f0a39"/>
                        <path id="Path-60" data-name="Path" d="M1.221.006a1.186,1.186,0,0,0-.241,0A1.113,1.113,0,0,0,.086.677,1.105,1.105,0,0,0,1.251,2.2l-.012,0h.53L1.645.05Z" transform="translate(11.46 31.588)" fill="#0f0a39"/>
                        <path id="Oval-39" data-name="Oval" d="M1.108,0A1.1,1.1,0,1,0,2.217,1.1,1.106,1.106,0,0,0,1.108,0Z" transform="translate(16.242 30.973)" fill="#0f0a39"/>
                        <path id="Oval-40" data-name="Oval" d="M1.108,0A1.1,1.1,0,1,0,2.217,1.1,1.106,1.106,0,0,0,1.108,0Z" transform="translate(21.023 30.348)" fill="#0f0a39"/>
                        <path id="Oval-41" data-name="Oval" d="M1.108,0A1.1,1.1,0,1,0,2.217,1.1,1.106,1.106,0,0,0,1.108,0Z" transform="translate(25.806 29.726)" fill="#0f0a39"/>
                        <path id="Oval-42" data-name="Oval" d="M1.108,0A1.1,1.1,0,1,0,2.217,1.1,1.106,1.106,0,0,0,1.108,0Z" transform="translate(5.007 36.195)" fill="#0f0a39"/>
                        <path id="Oval-43" data-name="Oval" d="M1.108,0A1.1,1.1,0,1,0,2.217,1.1,1.106,1.106,0,0,0,1.108,0Z" transform="translate(9.79 35.572)" fill="#0f0a39"/>
                        <path id="Oval-44" data-name="Oval" d="M1.108,0A1.1,1.1,0,1,0,2.217,1.1,1.106,1.106,0,0,0,1.108,0Z" transform="translate(19.353 34.325)" fill="#0f0a39"/>
                        <path id="Oval-45" data-name="Oval" d="M1.108,0A1.1,1.1,0,1,0,2.217,1.1,1.106,1.106,0,0,0,1.108,0Z" transform="translate(24.134 33.703)" fill="#0f0a39"/>
                        <path id="Path-61" data-name="Path" d="M1.2.005a1.14,1.14,0,0,0-.215,0A1.106,1.106,0,1,0,2.212,1.238l.026-.213L1.4.024Z" transform="translate(28.913 33.081)" fill="#0f0a39"/>
                        <path id="Oval-46" data-name="Oval" d="M1.108,0A1.1,1.1,0,1,0,2.217,1.1,1.106,1.106,0,0,0,1.108,0Z" transform="translate(3.039 39.692)" fill="#0f0a39"/>
                        <path id="Oval-47" data-name="Oval" d="M1.108,0A1.1,1.1,0,1,0,2.217,1.1,1.106,1.106,0,0,0,1.108,0Z" transform="translate(7.82 39.069)" fill="#0f0a39"/>
                        <path id="Oval-48" data-name="Oval" d="M1.108,0A1.1,1.1,0,1,0,2.217,1.1,1.106,1.106,0,0,0,1.108,0Z" transform="translate(22.165 37.199)" fill="#0f0a39"/>
                        <path id="Oval-49" data-name="Oval" d="M1.108,0A1.1,1.1,0,1,0,2.217,1.1,1.106,1.106,0,0,0,1.108,0Z" transform="translate(26.946 36.575)" fill="#0f0a39"/>
                        <path id="Path-62" data-name="Path" d="M2.225,1.58.909,0,.543.217a1.1,1.1,0,0,0,.7,2.045,1.129,1.129,0,0,0,.695-.36Z" transform="translate(31.724 35.889)" fill="#0f0a39"/>
                        <path id="Oval-50" data-name="Oval" d="M1.108,0A1.1,1.1,0,1,0,2.217,1.1,1.106,1.106,0,0,0,1.108,0Z" transform="translate(5.689 43.105)" fill="#0f0a39"/>
                        <path id="Oval-51" data-name="Oval" d="M1.108,0A1.1,1.1,0,1,0,2.217,1.1,1.106,1.106,0,0,0,1.108,0Z" transform="translate(10.469 42.482)" fill="#0f0a39"/>
                        <path id="Oval-52" data-name="Oval" d="M1.108,0A1.1,1.1,0,1,0,2.217,1.1,1.106,1.106,0,0,0,1.108,0Z" transform="translate(24.815 40.612)" fill="#0f0a39"/>
                        <path id="Oval-53" data-name="Oval" d="M1.108,0A1.1,1.1,0,1,0,2.217,1.1,1.106,1.106,0,0,0,1.108,0Z" transform="translate(29.595 39.99)" fill="#0f0a39"/>
                        <path id="Path-63" data-name="Path" d="M1.821.84,1.124,0,.813.085a1.1,1.1,0,0,0-.8,1.207,1.065,1.065,0,0,0,.151.423l.349.564Z" transform="translate(34.378 39.324)" fill="#0f0a39"/>
                        <path id="Oval-54" data-name="Oval" d="M1.108,0A1.1,1.1,0,1,0,2.217,1.1,1.106,1.106,0,0,0,1.108,0Z" transform="translate(3.718 46.601)" fill="#0f0a39"/>
                        <path id="Oval-55" data-name="Oval" d="M1.108,0A1.1,1.1,0,1,0,2.217,1.1,1.106,1.106,0,0,0,1.108,0Z" transform="translate(8.501 45.979)" fill="#0f0a39"/>
                        <path id="Oval-56" data-name="Oval" d="M1.108,0A1.1,1.1,0,1,0,2.217,1.1,1.106,1.106,0,0,0,1.108,0Z" transform="translate(27.627 43.486)" fill="#0f0a39"/>
                        <path id="Oval-57" data-name="Oval" d="M1.108,0A1.1,1.1,0,1,0,2.217,1.1,1.106,1.106,0,0,0,1.108,0Z" transform="translate(6.461 50.041)" fill="#0f0a39"/>
                        <path id="Oval-58" data-name="Oval" d="M1.108,0A1.1,1.1,0,1,0,2.217,1.1,1.106,1.106,0,0,0,1.108,0Z" transform="translate(11.242 49.416)" fill="#0f0a39"/>
                      </g>
                    </g>
                  </g>
                </g>
              </g>
            </g>
          </g>
        </g>
        <rect id="Rectangle-2" data-name="Rectangle" width="12" height="196" fill="#ffcc0a"/>
      </g>
      <g id="Illus-2" data-name="Illus" transform="translate(169)">
        <g id="_16_character2-3" data-name="16_character2">
          <path id="Mask-4" data-name="Mask" d="M0,0H133a16,16,0,0,1,16,16V180a16,16,0,0,1-16,16H0a0,0,0,0,1,0,0V0A0,0,0,0,1,0,0Z" fill="#f7f3ff"/>
          <g id="_16_character2-4" data-name="16_character2" clip-path="url(#clip-path-2)">
            <g id="_18_opportunites" data-name="18_opportunites" transform="translate(-18 -1)">
              <g id="background-2-2" data-name="background">
                <g id="background-2-3" data-name="background-2">
                  <path id="Path-64" data-name="Path" d="M15.83.006c-1.57.076-2.572.671-4.235,2.25l-.9.873C9.256,4.5,8.49,4.961,7.346,5.023c-1.876.1-3.963-1.384-6.191-4.5A.641.641,0,0,0,.287.364.65.65,0,0,0,.009.79a.64.64,0,0,0,.11.481C2.5,4.6,4.857,6.31,7.173,6.31l.176,0,.08-.005c1.487-.077,2.554-.722,4.1-2.2l.615-.6c1.6-1.57,2.487-2.156,3.742-2.216,1.775-.086,3.7,1.169,5.72,3.8a.631.631,0,0,0,.585.253.641.641,0,0,0,.476-.969L22.63,4.3C20.374,1.362,18.095-.1,15.83.006Z" transform="translate(141.61 49.853)" fill="#7c37fa"/>
                  <path id="Path-65" data-name="Path" d="M5.508,4.4C3.758,4.4,1.913,3.066.022.425A.14.14,0,0,1,.056.237.14.14,0,0,1,.244.271c1.9,2.651,3.724,3.94,5.424,3.858,1.387-.075,2.345-1.015,3.357-2.01S11.1.077,12.642,0c1.709-.083,3.48,1.055,5.269,3.377a.139.139,0,0,1-.026.188.141.141,0,0,1-.188-.026C15.973,1.291,14.283.192,12.671.269,11.24.338,10.267,1.293,9.24,2.3S7.185,4.314,5.69,4.4Z" transform="translate(28.927 26.2)" stroke="#000" stroke-miterlimit="10" stroke-width="1"/>
                  <path id="Shape-10" data-name="Shape" d="M2.549,6.918a.147.147,0,0,1-.085-.066L.018,2.643a.139.139,0,0,1,.05-.187L4.29.017a.141.141,0,0,1,.188.052L6.916,4.276a.141.141,0,0,1-.051.188L2.643,6.894a.159.159,0,0,1-.057.024H2.549Z" transform="translate(21.145 138.208)"/>
                  <path id="Shape-11" data-name="Shape" d="M1.631,5.1.014,1.814A.14.14,0,0,1,.08,1.626L3.376.015A.139.139,0,0,1,3.483.007a.141.141,0,0,1,.081.071L5.18,3.364a.151.151,0,0,1-.071.187L1.817,5.163a.12.12,0,0,1-.058.015h0A.141.141,0,0,1,1.631,5.1Z" transform="translate(169.252 25.723)"/>
                  <path id="Shape-12" data-name="Shape" d="M.773,2.331A.138.138,0,0,1,.692,2.26L.011.878a.143.143,0,0,1,0-.109A.139.139,0,0,1,.082.689L1.462.014A.144.144,0,0,1,1.65.077l.679,1.383a.14.14,0,0,1-.064.187L.878,2.326a.116.116,0,0,1-.06.005l-.023,0Z" transform="translate(3.763 188.547)"/>
                  <path id="Path-66" data-name="Path" d="M.139,2.715a.147.147,0,0,1-.12-.066.142.142,0,0,1,.043-.188L3.9.022A.141.141,0,1,1,4.057.26L.214,2.7A.142.142,0,0,1,.139,2.715Z" transform="translate(200.183 126.115)"/>
                  <path id="Path-67" data-name="Path" d="M3.417,3.411a.145.145,0,0,1-.1-.039L.03.227a.141.141,0,0,1,.188-.2L3.51,3.169a.141.141,0,0,1-.1.242Z" transform="translate(196.655 150.13)"/>
                  <path id="Path-68" data-name="Path" d="M.137,3.981a.143.143,0,0,1-.081-.026.139.139,0,0,1-.034-.188L2.657.056A.141.141,0,0,1,2.846.022a.144.144,0,0,1,.034.2L.245,3.929A.141.141,0,0,1,.137,3.981Z" transform="translate(205.595 92.735)"/>
                  <path id="Path-69" data-name="Path" d="M3.684.139.223,3.13A.641.641,0,0,0,.652,4.256a.659.659,0,0,0,.41-.165L4.5,1.121a.644.644,0,0,0,.066-.9L4.547.2A.64.64,0,0,0,3.684.139Z" transform="translate(114.027 34.781)" fill="#7c37fa"/>
                  <path id="Path-70" data-name="Path" d="M.348.068A.645.645,0,0,0,.072.934l2.19,4a.645.645,0,0,0,.56.333.683.683,0,0,0,.329-.1.634.634,0,0,0,.234-.842l-2.192-4A.643.643,0,0,0,.348.068Z" transform="translate(78.359 0.505)" fill="#0f0a39"/>
                  <path id="Path-71" data-name="Path" d="M2.828,3.965a.145.145,0,0,1-.115-.058L.033.231A.141.141,0,1,1,.261.066L2.943,3.742a.15.15,0,0,1-.115.223Z" transform="translate(179.445 100.119)"/>
                  <path id="Path-72" data-name="Path" d="M2.754,0a.642.642,0,0,0-.545.338L.074,4.357a.639.639,0,0,0,.268.865.64.64,0,0,0,.865-.266L3.342.943A.641.641,0,0,0,2.851,0Z" transform="translate(165.741 67.864)" fill="#0f0a39"/>
                  <path id="Path-73" data-name="Path" d="M3.271,3.591a.147.147,0,0,1-.1-.043L.041.24a.141.141,0,0,1,.2-.2L3.369,3.349a.143.143,0,0,1-.1.242Z" transform="translate(10.699 48.695)"/>
                  <path id="Path-74" data-name="Path" d="M3.026,4.555,1.231.389a.641.641,0,0,0-1.179.5l1.8,4.178a.642.642,0,0,0,.591.387.6.6,0,0,0,.213-.033.661.661,0,0,0,.384-.371A.64.64,0,0,0,3.026,4.555Z" transform="translate(40.611 82.642)" fill="#0f0a39"/>
                  <path id="Path-75" data-name="Path" d="M3.419,0a.641.641,0,0,0-.6.3L.127,3.918a.64.64,0,1,0,1.031.759L3.871,1.033A.621.621,0,0,0,3.96.4.641.641,0,0,0,3.52.019Z" transform="translate(41.514 124.99)" fill="#0f0a39"/>
                  <path id="Path-76" data-name="Path" d="M.356.067A.641.641,0,0,0,.287,1.175l3.8,2.513a.626.626,0,0,0,.36.107.645.645,0,0,0,.548-.328.636.636,0,0,0-.189-.84L1,.107A.642.642,0,0,0,.356.067Z" transform="translate(66.859 90.857)" fill="#0f0a39"/>
                  <path id="Path-77" data-name="Path" d="M4.107,2.516a.14.14,0,0,1-.07-.019L.07.258A.139.139,0,0,1,.017.071.141.141,0,0,1,.206.016l3.967,2.24a.141.141,0,0,1-.07.263Z" transform="translate(13.83 113.926)"/>
                  <path id="Path-78" data-name="Path" d="M.137,1.2A.141.141,0,0,1,.109.918L4.575,0a.145.145,0,0,1,.167.109.141.141,0,0,1-.111.167L.165,1.194Z" transform="translate(7.391 157.05)"/>
                  <path id="Path-79" data-name="Path" d="M.138,4.053a.153.153,0,0,1-.079-.023.14.14,0,0,1-.038-.188L2.548.06A.14.14,0,0,1,2.736.021a.142.142,0,0,1,.04.188L.247,3.991a.137.137,0,0,1-.109.062Z" transform="translate(26.887 175.672)"/>
                  <path id="Path-80" data-name="Path" d="M.143,1.929a.144.144,0,0,1-.132-.2.141.141,0,0,1,.08-.077L4.342.009a.141.141,0,1,1,.1.263L.194,1.914A.128.128,0,0,1,.143,1.929Z" transform="translate(190.38 184.117)"/>
                  <path id="Path-81" data-name="Path" d="M.142,3.857a.153.153,0,0,1-.088-.03.142.142,0,0,1-.023-.2L2.853.063a.141.141,0,1,1,.22.175L.251,3.8a.136.136,0,0,1-.109.054Z" transform="translate(25.321 73.17)"/>
                  <path id="Path-82" data-name="Path" d="M.142,3.1a.145.145,0,0,1-.111-.053.142.142,0,0,1,.023-.2L3.629.03A.141.141,0,1,1,3.8.252L.228,3.066A.14.14,0,0,1,.142,3.1Z" transform="translate(196.609 44.291)"/>
                  <ellipse id="Oval-59" data-name="Oval" cx="3.109" cy="3.1" rx="3.109" ry="3.1" transform="translate(189.539 72.009)" fill="#ffdee9"/>
                  <ellipse id="Oval-60" data-name="Oval" cx="1.856" cy="1.85" rx="1.856" ry="1.85" transform="translate(136.253 18.314)" fill="#0f0a39"/>
                  <ellipse id="Oval-61" data-name="Oval" cx="2.635" cy="2.627" rx="2.635" ry="2.627" transform="translate(51.923 57.069)" fill="#7c37fa"/>
                  <path id="Shape-13" data-name="Shape" d="M0,1.454A1.458,1.458,0,1,1,1.459,2.909,1.457,1.457,0,0,1,0,1.454Z" transform="translate(174.094 122.664)"/>
                  <path id="Shape-14" data-name="Shape" d="M.112,2.014a1.461,1.461,0,1,1,1.351.9A1.453,1.453,0,0,1,.112,2.014Z" transform="translate(0.184 90.516)"/>
                  <ellipse id="Oval-62" data-name="Oval" cx="1.317" cy="1.313" rx="1.317" ry="1.313" transform="translate(61.118 108.954)" fill="#7c37fa"/>
                  <ellipse id="Oval-63" data-name="Oval" cx="1.317" cy="1.313" rx="1.317" ry="1.313" transform="translate(217.19 172.991)" fill="#ffdee9"/>
                  <path id="Shape-15" data-name="Shape" d="M5.426,7.969h0l-.1-.008-.107-.029L.421,6.039a.645.645,0,0,1-.4-.749L.047,5.2l1.9-4.81A.664.664,0,0,1,2.293.046a.659.659,0,0,1,.386-.03L2.77.045l4.8,1.873a.644.644,0,0,1,.4.748l-.031.093-1.894,4.8a.642.642,0,0,1-.445.4ZM2.9,1.474h0l-1.422,3.6L5.09,6.5l1.421-3.6L2.9,1.474Z" transform="translate(71.58 29.159)" fill="#0f0a39"/>
                </g>
              </g>
              <g id="general-2-2" data-name="general" transform="translate(43 51)">
                <g id="general-2-3" data-name="general-2">
                  <g id="aquarium" transform="translate(23.085 83.488)">
                    <path id="Path-83" data-name="Path" d="M56.652,22.015c-1,1.465,0,5.6,0,5.6a55.385,55.385,0,0,0-10.165,1.583,17.7,17.7,0,0,0-4.447-4.005c-1.237-.783-3.434-2.16-4.2-1.532-.561.468-.494,2.173,2.482,7.735-5.2,4.674-5.626,6.214-5.276,6.8.749,1.244,6.2.174,10.107-2.714.464-.345.852-.669,1.157-.937A49.438,49.438,0,0,0,57.165,36.5a5.026,5.026,0,0,0-.96,3.01c.086.515,2.01.18,3.294-.4-5.52,14.377-29.727,18.634-44.411,9.485a2.08,2.08,0,0,0,.994-1.529c0-1.347-2.394-2.561-5.24-3.359-.395-.169-1.467-.626-2.819-1.111A32.85,32.85,0,0,1,7.66,0h6.717c-.346,4.429-.4,9.076-.352,12.572a22.8,22.8,0,0,0,3.713.892c6.264.98,9.143-.993,13.253-2.767A26.928,26.928,0,0,1,41.284,8.364c10.855-.427,16.3,4.067,22.8,6.047a32.251,32.251,0,0,1,.561,10.53C61.614,23.093,57.208,21.2,56.652,22.015Z" transform="translate(-0.003 0.573)" fill="#7c37fa"/>
                    <path id="Path-84" data-name="Path" d="M16.981,10.064c-4.117,1.774-6.988,3.747-13.253,2.767a22.8,22.8,0,0,1-3.713-.892C-.039,8.443.042,4.429.39,0H16.639Z" transform="translate(13.997 1.214)" fill="#0f0a39"/>
                    <path id="Shape-16" data-name="Shape" d="M7.533,14.374a21.1,21.1,0,0,1-3.254-.268,23.55,23.55,0,0,1-3.832-.922.646.646,0,0,1-.431-.595C-.047,8.582.08,4.544.392.59A.636.636,0,0,1,.932.007L1.03,0H17.285a.64.64,0,0,1,.621.517l.013.1.345,10.065a.636.636,0,0,1-.387.608l-.725.32-.98.446C12.461,13.767,10.6,14.374,7.533,14.374ZM1.645,1.281h0l-.072,1c-.193,2.918-.286,5.86-.278,8.745L1.3,12.107l.235.074a22.111,22.111,0,0,0,2.347.558l.6.1a19.873,19.873,0,0,0,3.08.263,15.329,15.329,0,0,0,6.2-1.366l.636-.274,2.48-1.126.105-.047-.3-9.009H1.645Z" transform="translate(13.344 0.573)" fill="#0f0a39"/>
                    <path id="Path-85" data-name="Path" d="M32.573,13.807C26.079,11.826,21.5,7.3,10.638,7.731A26.962,26.962,0,0,0,.344,10.064L0,0H25.68a31.9,31.9,0,0,1,6.893,13.807Z" transform="translate(30.638 1.214)" fill="#0f0a39"/>
                    <path id="Shape-17" data-name="Shape" d="M33.254,15.071h0l-.094-.005-.046,0-.081-.013-.432-.135a35.592,35.592,0,0,1-4.26-1.726l-1.385-.643c-6.512-3.024-9.817-3.577-13.979-3.577-.536,0-1.083.011-1.672.035a25.963,25.963,0,0,0-9.585,2.072l-.451.192a.61.61,0,0,1-.284.07.739.739,0,0,1-.348-.093.638.638,0,0,1-.283-.416l-.011-.1L0,.664A.63.63,0,0,1,.177.2.643.643,0,0,1,.537.008L.641,0H26.326a.632.632,0,0,1,.485.224,32.851,32.851,0,0,1,7.035,14.09.637.637,0,0,1-.157.549l.023.1-.092-.03-.021.023A.634.634,0,0,1,33.254,15.071ZM12.722,7.687c5.145,0,8.471.8,14.233,3.44l2.418,1.117.378.169c.894.4,1.641.705,2.349.965l.222.079-.062-.242A31.22,31.22,0,0,0,26.248,1.532l-.223-.267H1.3l.291,8.473.252-.1a27.208,27.208,0,0,1,8.84-1.9l.574-.027C11.748,7.7,12.241,7.687,12.722,7.687Z" transform="translate(29.993 0.59)" fill="#0f0a39"/>
                  </g>
                  <g id="waves" transform="translate(0 88.546)">
                    <path id="Path-86" data-name="Path" d="M29.079,0A25.3,25.3,0,0,0,19.254,1.99l-1.673.666L16.6,3.04A28.19,28.19,0,0,1,10.672,4.7,20.843,20.843,0,0,1,.814,4.178a.651.651,0,0,0-.787.432A.641.641,0,0,0,.4,5.387a22.117,22.117,0,0,0,10.484.577A30.347,30.347,0,0,0,17.535,4.05l1.971-.781a23.815,23.815,0,0,1,9.6-1.983,39.047,39.047,0,0,1,15.18,3.127,46.524,46.524,0,0,1,5.662,2.654.652.652,0,0,0,.309.079.626.626,0,0,0,.564-.317.642.642,0,0,0-.25-.879,47.76,47.76,0,0,0-5.82-2.726A40.2,40.2,0,0,0,29.079,0Z" transform="translate(85.676 5.171)" fill="#0f0a39"/>
                    <path id="Path-87" data-name="Path" d="M.239,7.674a.643.643,0,0,0-.1.9.65.65,0,0,0,.5.244.639.639,0,0,0,.411-.141C7.814,3.222,14.421.774,20.693,1.368A16.975,16.975,0,0,1,25.685,2.6a24.041,24.041,0,0,1,2.757,1.379l2.151,1.268a27.9,27.9,0,0,0,5.8,2.78.641.641,0,1,0,.4-1.217l-.539-.186a28.571,28.571,0,0,1-5.263-2.629l-1.481-.877a26.909,26.909,0,0,0-3.336-1.7A18.235,18.235,0,0,0,21.365.151L20.813.093C14.177-.535,7.261,2.023.239,7.674Z" transform="translate(0.511 0.675)" fill="#0f0a39"/>
                    <path id="Path-88" data-name="Path" d="M26.921.143a15.421,15.421,0,0,0-6.4,2.089l-1.159.647a17.921,17.921,0,0,1-7.347,2.535,28.311,28.311,0,0,1-8.758-.291,24.972,24.972,0,0,1-2.424-.63.633.633,0,0,0-.624.133A.641.641,0,0,0,.469,5.719c.833.26,1.687.482,2.54.66a29.616,29.616,0,0,0,9.17.3,18.625,18.625,0,0,0,7.744-2.648l.815-.457a14.708,14.708,0,0,1,6.317-2.157c4.574-.505,8.079.38,15.12,3.131A47.721,47.721,0,0,1,47.847,7.2a.641.641,0,0,0,.313.079.621.621,0,0,0,.555-.315.645.645,0,0,0-.237-.873A49.185,49.185,0,0,0,43.5,3.7l-.853-.342-1.008-.391C35.071.449,31.533-.363,26.921.143Z" transform="translate(88.949 26.75)" fill="#0f0a39"/>
                    <path id="Path-89" data-name="Path" d="M.238,7.674a.641.641,0,0,0,.8,1c6.765-5.45,13.372-7.9,19.645-7.3.422.04.843.094,1.248.16a18.51,18.51,0,0,1,6.775,2.609l2.118,1.249A23.565,23.565,0,0,0,40.2,8.944a21.085,21.085,0,0,0,3.256.27c2.81,0,4.6-.489,7.852-1.948l.809-.369A27.521,27.521,0,0,1,60.812,4.12l.429-.056a.619.619,0,0,0,.517-.37.64.64,0,0,0-.626-.906l-.1.015A26.508,26.508,0,0,0,53.4,4.917l-.794.348-1.026.467C46.949,7.858,44.77,8.359,40.411,7.679c-3.514-.55-5.6-1.432-9.342-3.642L29.829,3.3A20.2,20.2,0,0,0,22.154.264c-.294-.048-.591-.089-.891-.124L20.812.093C14.174-.536,7.26,2.021.238,7.674Z" transform="translate(1.678 22.385)" fill="#0f0a39"/>
                    <path id="Path-90" data-name="Path" d="M.717,0A.641.641,0,0,0,.564,1.277,43.866,43.866,0,0,1,11.384,4.165,46.538,46.538,0,0,1,17.052,6.81a.662.662,0,0,0,.3.079A.635.635,0,0,0,17.68,5.7a48.277,48.277,0,0,0-5.832-2.73A45.585,45.585,0,0,0,.717,0Z" transform="translate(120.337 47.319)" fill="#0f0a39"/>
                    <path id="Path-91" data-name="Path" d="M4.242,0A28.928,28.928,0,0,0,1.3.193L.563.287A.63.63,0,0,0,0,.956a.641.641,0,0,0,.674.606l.039,0a28.032,28.032,0,0,1,3.549-.273c.93-.017,1.883.013,2.849.087l.12-.005.043-.007A.663.663,0,0,0,7.79.765.651.651,0,0,0,7.3.111L7.2.094C6.2.018,5.208-.012,4.242,0Z" transform="translate(112.273 47.063)" fill="#0f0a39"/>
                    <path id="Path-92" data-name="Path" d="M34.448.03A27.261,27.261,0,0,0,23.784,2.473l-1.416.636-.287.133-.867.39c-3.92,1.728-6.146,2.135-10.188,1.5a22.743,22.743,0,0,1-8.881-3.37l-1.176-.7a.641.641,0,0,0-.657,1.1l.7.42A24.572,24.572,0,0,0,10.828,6.4,16.743,16.743,0,0,0,21.556,4.886l1.17-.531C27.253,2.277,29.85,1.493,34.5,1.308c.947-.039,1.886-.039,2.791,0C41.8,1.5,44.766,2.385,49.583,4.589l1.411.653C55.453,7.3,57.819,8.082,61.156,8.251l.5.02.014.014h.207a.641.641,0,0,0,0-1.281,21.9,21.9,0,0,1-9-2.3l-1.453-.665-.894-.415C45.5,1.295,42.4.306,37.84.054L37.346.03C36.405-.01,35.43-.01,34.448.03Z" transform="translate(31.657 45.114)" fill="#0f0a39"/>
                    <path id="Path-93" data-name="Path" d="M11.243.048A37.053,37.053,0,0,0,.238,6.4a.641.641,0,0,0-.1.9.626.626,0,0,0,.407.233l.1.006a.565.565,0,0,0,.36-.1,35.894,35.894,0,0,1,10.688-6.18.642.642,0,0,0,.392-.843.618.618,0,0,0-.327-.355A.64.64,0,0,0,11.243.048Z" transform="translate(2.281 43.84)" fill="#0f0a39"/>
                  </g>
                  <path id="pack" d="M14.845,5.037c.082-.015.176-.026.294-.039l1.235-.034-1.48,1.124a4.159,4.159,0,0,0-.859.937c-.013.019-.1.146-.187.294a6.662,6.662,0,0,0-.593,3.589,13.748,13.748,0,0,0,.168,1.828L7.211,16.165a6.832,6.832,0,0,1-1.089-1.913,9.076,9.076,0,0,0-.674-2.023c-.421-.671-.676-.588-1.136-1.3a9.5,9.5,0,0,1-.7-1.821,3.372,3.372,0,0,0-.936-1.257,2.5,2.5,0,0,0-.3.948c-.062.682.223.961.408,1.767.234,1.025-.127,1.032.1,2.167A8.5,8.5,0,0,1,3.285,14.4c.017.583-.12.723-.138,1.279a4.042,4.042,0,0,0,.41,1.86l-2.433.251L0,6.886l2.433-.225L14.494,0l1.248,2.265a4.974,4.974,0,0,0-2.268.386c-.44.214-1.007.59-2.491,2.919-2.4,3.765-2.008,4.487-1.872,4.666a.749.749,0,0,0,.374.285c.152.043.9-.036,2.2-1.716A30.794,30.794,0,0,0,13.7,5.94a2.12,2.12,0,0,1,.438-.562,1.553,1.553,0,0,1,.361-.24,1.29,1.29,0,0,1,.35-.1Z" transform="translate(59.498 56.388)" fill="#0f0a39"/>
                  <path id="Shape-18" data-name="Shape" d="M1.274,18.07a.138.138,0,0,1-.139-.125L0,7.038a.134.134,0,0,1,.032-.1.134.134,0,0,1,.1-.05l2.408-.223L6.17,4.654l8.4-4.637a.141.141,0,0,1,.191.056L16,2.336a.146.146,0,0,1,0,.139.142.142,0,0,1-.12.071,4.8,4.8,0,0,0-2.209.374c-.445.216-1,.615-2.433,2.867C9.068,9.189,9.2,10.071,9.356,10.3a.581.581,0,0,0,.31.23s.688.094,2.058-1.667a30.74,30.74,0,0,0,2-2.849,2.3,2.3,0,0,1,.468-.592,1.646,1.646,0,0,1,.392-.258,1.376,1.376,0,0,1,.374-.119c.083-.014.187-.028.3-.041L16.5,4.966a.135.135,0,0,1,.137.094.14.14,0,0,1-.049.159L15.11,6.343a4.078,4.078,0,0,0-.827.9,2.88,2.88,0,0,0-.173.284,6.563,6.563,0,0,0-.576,3.52,14.108,14.108,0,0,0,.165,1.805A.136.136,0,0,1,13.63,13L7.42,16.428a.138.138,0,0,1-.187-.036A6.64,6.64,0,0,1,5.855,13.5a2.931,2.931,0,0,0-.4-1.055,2.4,2.4,0,0,0-.524-.6,2.893,2.893,0,0,1-.61-.693,4.471,4.471,0,0,1-.5-1.223A6.54,6.54,0,0,0,3.614,9.3a3.193,3.193,0,0,0-.758-1.079,2.218,2.218,0,0,0-.2.731,1.987,1.987,0,0,0,.174.976,5.909,5.909,0,0,1,.23.75,2.745,2.745,0,0,1,.056,1.086,2.932,2.932,0,0,0,.047,1.084,5.171,5.171,0,0,0,.208.75,2.712,2.712,0,0,1,.187.948,2.92,2.92,0,0,1-.068.729,3.025,3.025,0,0,0-.071.562,3.941,3.941,0,0,0,.4,1.8.143.143,0,0,1,0,.13.137.137,0,0,1-.109.069l-2.433.253Z" transform="translate(59.361 56.245)"/>
                  <g id="woman" transform="translate(36.373)">
                    <g id="tshirt-2" data-name="tshirt" transform="translate(0.936 21.918)">
                      <path id="Path-94" data-name="Path" d="M22.515.151a48.406,48.406,0,0,0-4.588,3.8l-.7.673c-.52.5-.982.974-1.378,1.394l-.23.247C8.464,13.9,5.566,21.307,2.64,36.707l-.56,3.027c-.114.626-.249,1.376-.438,2.427C.886,46.359.334,50.645,0,54.9a.641.641,0,0,0,.589.687l.05,0A.646.646,0,0,0,1.272,55q.441-5.639,1.381-11.22l.988-5.494.371-1.966C6.851,21.581,9.7,14.455,16.553,7.138c.429-.457.809-.851,1.234-1.272l.413-.4a48.068,48.068,0,0,1,4.428-3.8l.67-.5a.625.625,0,0,0,.269-.575A.64.64,0,0,0,22.515.151Z" transform="translate(-0.48 7.833)" fill="#0f0a39"/>
                      <path id="Path-95" data-name="Path" d="M11.079.151A37.81,37.81,0,0,0,6.561.842c-.709.15-1.363.308-1.99.485l-.036.008-.809.225c-.478.137-.855.254-1.266.4l-1.175.424L.424,2.7A.64.64,0,0,0,.841,3.909l1.841-.673c.469-.168.87-.3,1.4-.447l.828-.229c.667-.181,1.31-.338,1.916-.467a36.3,36.3,0,0,1,4.365-.665,38.171,38.171,0,0,1,8.316.187A67.166,67.166,0,0,1,43.928,8.727c7.039,3.714,12.333,8.486,14.9,13.414,1.625,3.111,1.969,5.74,1.552,7.786-.472,2.3-1.883,4.372-4.47,6.525-3.319,2.764-9.134,6.173-17.272,10.118-3.1,1.508-6.363,3.006-9.663,4.457l-1.925.839-2.108.9c-.839.356-1.627.686-2.357.989l-.911.374-.523-13.558,8.315-5.444,3.181-2.077L43.4,26.012a.635.635,0,0,0-.678-1.073L31.952,31.99l-3.179,2.074L20.163,39.7a.547.547,0,0,0-.135.114.629.629,0,0,0-.166.455l.571,14.841a.642.642,0,0,0,.3.516.609.609,0,0,0,.249.093l.093.007a.479.479,0,0,0,.139-.01l.1-.029,2.044-.84c1.294-.537,2.723-1.142,4.368-1.854,3.915-1.694,7.8-3.461,11.475-5.248l1.217-.6c7.595-3.747,13.077-7.007,16.311-9.7,2.8-2.334,4.369-4.642,4.9-7.254.474-2.327.095-5.253-1.671-8.635C57.255,16.375,51.772,11.425,44.524,7.6A68.437,68.437,0,0,0,19.633.348L18.281.224A35.4,35.4,0,0,0,11.079.151Z" transform="translate(31.769 -0.347)" fill="#0f0a39"/>
                      <path id="Path-96" data-name="Path" d="M.717.005.618,0A.64.64,0,0,0,0,.665l1.069,31.22a.639.639,0,0,0,.55.613l.094.007a.646.646,0,0,0,.636-.66L1.281.618A.641.641,0,0,0,.717.005Z" transform="translate(14.701 30.919)" fill="#0f0a39"/>
                      <path id="Path-97" data-name="Path" d="M.72,0a.64.64,0,0,0-.68.856L11.8,26.818a.641.641,0,0,0,.58.376.617.617,0,0,0,.264-.055.641.641,0,0,0,.319-.855L1.228.387A.623.623,0,0,0,.72,0Z" transform="translate(70.041 46.163)" fill="#0f0a39"/>
                      <path id="Path-98" data-name="Path" d="M0,0,.272.6.261.618A.641.641,0,0,0,.226,1.2L6.865,15.856a.641.641,0,0,0,.588.376.623.623,0,0,0,.251-.049l.1-.052a.642.642,0,0,0,.242-.8L2.278,2.605l13.037,8.156A.636.636,0,0,0,16,9.69L1.148.4,1.056.352A.64.64,0,0,0,.661.322l-.1.031Z" transform="translate(56.611 16.592)" fill="#0f0a39"/>
                      <path id="Path-99" data-name="Path" d="M9.976.467l-5,17.381L1.253,6.048a.641.641,0,0,0-1.224.384L4.394,20.259l.038.095a.639.639,0,0,0,.366.32l.022.006.2.633.183-.638.014,0a.639.639,0,0,0,.405-.42L11.21.818A.641.641,0,1,0,9.976.467Z" transform="translate(21.807 2.237)" fill="#0f0a39"/>
                    </g>
                    <g id="head-2" data-name="head">
                      <path id="Path-100" data-name="Path" d="M5.673,6.056a.141.141,0,0,1-.1-.244,3.183,3.183,0,1,0-5.3-2.4.139.139,0,0,1-.14.137h0A.14.14,0,0,1,0,3.407,3.454,3.454,0,1,1,5.768,6.021a.142.142,0,0,1-.1.036Z" transform="translate(22.401 10.384)"/>
                      <path id="hair-2" data-name="hair" d="M20.045.206c-4.866-.8-10.606.74-13.85,4.378C5.259,5.637,4.323,7.087,2.65,14A134.767,134.767,0,0,0,0,28.325c4.467,3.559,10.329,6.7,16.96,6.293.326-.021.649-.049.968-.086A49.219,49.219,0,0,1,23.1,30.174c-.036-.169-.073-.339-.109-.508q-.374-1.8-.765-3.612a10.814,10.814,0,0,1-6.551.817,11.4,11.4,0,0,1-7.451-5.6,36.859,36.859,0,0,0,3.33-12.907,16.721,16.721,0,0,0,6.874,4.007A16.243,16.243,0,0,0,22.3,13a3.44,3.44,0,0,1,2.946-2.832A3.614,3.614,0,0,1,28.9,13.1a4.05,4.05,0,0,1-.028.937,3.749,3.749,0,0,1-.487,1.328c.127.318.313.766.547,1.3,0,0,.346.749.749,1.605,1.319,2.729,2.529,4.891,3.369,6.311,0,.026,1.2-.386,1.836-.6.749-.251,1.5-.483,2.274-.691A34.932,34.932,0,0,0,41.811,10.92a54.972,54.972,0,0,1-5.5-1.991C26.679,4.837,25.607,1.119,20.045.206Z" transform="translate(0.29 0.221)" fill="#0f0a39"/>
                      <path id="Shape-19" data-name="Shape" d="M16.525,35.94h-.072c-5.2,0-10.49-2.053-15.711-6.1L0,29.252l.043-.362A136.5,136.5,0,0,1,2.713,14.5l.2-.8C4.192,8.549,5.074,6.3,6.4,4.8a13.96,13.96,0,0,1,5.162-3.537A17.5,17.5,0,0,1,18.1,0a16.954,16.954,0,0,1,2.733.22c2.369.389,3.681,1.006,6.683,3.144l.331.237a42.19,42.19,0,0,0,9.4,5.378c1.473.624,2.992,1.189,4.514,1.68l1.037.323.422.127-.095.558A35.379,35.379,0,0,1,38.723,23.7l-.361.6-.107.185L38,24.55c-.538.144-1.1.31-1.668.492l-.569.187-1.6.539a2.638,2.638,0,0,1-.625.163c-.085,0-.106-.038-.139-.1a.584.584,0,0,0-.08-.114l-.256-.256v-.1l-.524-.913c-.584-1.034-1.155-2.092-1.7-3.146l-.535-1.06-.519-1.063-.383-.8c-.128-.276-.208-.453-.267-.592l-.086-.211-.011-.029-.011.005-.29-.679-.292-.7-.094-.236.167-.267a3.1,3.1,0,0,0,.4-1.093,3.471,3.471,0,0,0,.025-.773,2.99,2.99,0,0,0-2.744-2.379,2.053,2.053,0,0,0-.211.011,2.776,2.776,0,0,0-2.344,2.128l-.04.185-.1.527H22.96a16.961,16.961,0,0,1-4.027-.652,17.292,17.292,0,0,1-5.467-2.738l-.374-.288-.332-.27-.043.41a37.538,37.538,0,0,1-2.637,10.1l-.274.643-.182.4.021.034a10.2,10.2,0,0,0,6.145,4.81l.346.087.34.073A10.237,10.237,0,0,0,22.3,26.27l.5-.223.57-.258.91,4.341.207.968-.337.244a48.155,48.155,0,0,0-4.5,3.727l-.786.748h-.2l.011,0c-.336.039-.673.068-1,.088C17.288,35.927,16.9,35.94,16.525,35.94ZM18.1,1.288a16.252,16.252,0,0,0-5.863,1.094A12.889,12.889,0,0,0,7.572,5.431l-.211.23-.1.115c-1.163,1.351-2,3.632-3.3,9.04-1.014,4.192-1.835,8.475-2.439,12.732l-.158,1.146.214.168c4.977,3.847,9.982,5.8,14.877,5.8.239,0,.481,0,.719-.014l.427-.022.446-.032.279-.028.481-.457a49.385,49.385,0,0,1,3.846-3.247l.413-.309-.628-2.961-.193.073a11.482,11.482,0,0,1-5.611.547l-.4-.068a11.372,11.372,0,0,1-7.747-5.662l-.145-.262-.147-.277.13-.294A36.14,36.14,0,0,0,11.533,9.657l.056-.692L11.684,7.6l.987.945A16.2,16.2,0,0,0,19.285,12.4a15.665,15.665,0,0,0,3.08.562l.124.007.067-.185a4.047,4.047,0,0,1,3.1-2.586l.2-.026a3.484,3.484,0,0,1,.361-.019,4.239,4.239,0,0,1,4,3.529,4.782,4.782,0,0,1-.035,1.1,4.331,4.331,0,0,1-.294,1.011l-.117.248.166.4.258.592.222.484c.177.382.352.755.521,1.107.842,1.742,1.753,3.483,2.708,5.174l.374.656,1.332-.445c.568-.192,1.14-.371,1.7-.533l.363-.1.231-.386a34.187,34.187,0,0,0,4.072-10.777l.038-.2-.494-.156c-1.225-.4-2.445-.841-3.628-1.318l-.893-.368a42.591,42.591,0,0,1-9.2-5.2L26.5,4.216A12.976,12.976,0,0,0,21.482,1.66l-.448-.1-.4-.073A15.7,15.7,0,0,0,18.1,1.288Z" transform="translate(-0.391 -0.425)" fill="#0f0a39"/>
                      <path id="Path-101" data-name="Path" d="M0,4.775a10.49,10.49,0,0,0,.979-.562A11.423,11.423,0,0,0,4.834,0,10.742,10.742,0,0,1,2.2,5.322,10.077,10.077,0,0,1,.5,6.78Q.243,5.777,0,4.775Z" transform="translate(22.491 21.401)" fill="#0f0a39"/>
                    </g>
                    <g id="hand" transform="translate(31.817 58.261)">
                      <path id="Path-102" data-name="Path" d="M4.132.052,1.893.97a.635.635,0,0,0-.323.291L.072,4.087a.642.642,0,0,0,.261.861.634.634,0,0,0,.3.078l.109-.014a.639.639,0,0,0,.462-.351l1.4-2.6,1.544-.63.141.188A6.613,6.613,0,0,0,5.715,2.949a7.138,7.138,0,0,0,4.962,1.105L11.1,4q.419-.064.83-.164l.066-.01a.642.642,0,0,0,.4-.845.616.616,0,0,0-.331-.356.638.638,0,0,0-.52-.006l-.371.071c-.2.035-.421.068-.642.093a5.876,5.876,0,0,1-4.094-.887A5.339,5.339,0,0,1,5.077.534L4.926.3A.638.638,0,0,0,4.132.052Z" transform="translate(9.91 8.588)" fill="#0f0a39"/>
                      <path id="Path-103" data-name="Path" d="M5.305.054A10.85,10.85,0,0,0,3.4.93a7.478,7.478,0,0,0-1.088.779l-.04.035c-.056.049-.1.086-.141.131a3.215,3.215,0,0,0-.4.472,4.27,4.27,0,0,0-.414.764l-.1.238c-.056.142-.1.27-.167.447L.659,4.937c-.036.109-.067.2-.1.308-.141.441-.253.83-.342,1.2-.35,1.47-.31,2.541.374,3.154l.159.125.071.046a2.259,2.259,0,0,0,1.232.336,5.055,5.055,0,0,0,2.08-.551l.468-.2c1.323-.578,1.812-1.036,1.923-1.56a1.819,1.819,0,0,0-.57-1.67A2,2,0,0,0,3.7,5.846a.641.641,0,0,0,.5,1.177l.09-.037a.712.712,0,0,1,.814.088l.061.065a.548.548,0,0,1,.117.331l-.005.061V7.525c-.01,0-.044.027-.111.08a4.63,4.63,0,0,1-.884.5l-.185.083c-1.454.635-2.056.786-2.523.543l-.092-.054.01.008c-.391-.29-.233-1.4.352-3.226l.17-.515c.237-.7.323-.943.432-1.21a3.392,3.392,0,0,1,.34-.659,1.809,1.809,0,0,1,.241-.286l.128-.116a6.1,6.1,0,0,1,.89-.635,9.726,9.726,0,0,1,1.365-.658l.357-.131A.627.627,0,0,0,6.19.772.64.64,0,0,0,5.305.054Z" transform="translate(7.041 5.633)" fill="#0f0a39"/>
                      <path id="Path-104" data-name="Path" d="M5.965.061a21.149,21.149,0,0,0-2.149,1.1l-.8.474A5.489,5.489,0,0,0,.878,3.388a5.756,5.756,0,0,0-.7,2.842L.068,7.6l-.013.19a10.221,10.221,0,0,0,0,2.129,1.793,1.793,0,0,0,.7,1.3,1.893,1.893,0,0,0,1.144.335,2.744,2.744,0,0,0,.348-.027.641.641,0,0,0-.169-1.27.806.806,0,0,1-.6-.1c-.055-.041-.109-.148-.149-.4a8.808,8.808,0,0,1,0-1.849l.056-.768c.148-1.92.276-2.615.557-3.038l.092-.131A4.878,4.878,0,0,1,3.532,2.82l.933-.552a19.839,19.839,0,0,1,2.029-1.04A.64.64,0,1,0,5.965.061Z" transform="translate(5.432 2.965)" fill="#0f0a39"/>
                      <path id="Path-105" data-name="Path" d="M8.964.034,8.731.07,8.651.087a3.05,3.05,0,0,0-.507.159,12.628,12.628,0,0,0-1.8.97l-.015.008-.267.163L4.757,2.21l-1.183.762-.392.259-.5.35L2.1,4.013c-.085.066-.159.125-.235.189A4.3,4.3,0,0,0,.682,5.547,5.213,5.213,0,0,0,.247,6.6,8.621,8.621,0,0,0,.008,9.462a14.788,14.788,0,0,0,.176,1.916C.436,12.863.9,13.733,1.7,13.9a1.255,1.255,0,0,0,.243.026,1.4,1.4,0,0,0,.523-.128A.633.633,0,0,0,2.8,12.98a.641.641,0,0,0-.74-.39l-.119.037a2.877,2.877,0,0,1-.494-1.463,13.487,13.487,0,0,1-.158-1.737L1.28,8.885A4.928,4.928,0,0,1,1.8,6.159a2.79,2.79,0,0,1,.719-.848l.154-.129c.094-.078.2-.161.32-.253l.489-.355.126-.068.309-.216.366-.249.635-.416.436-.278.274-.177L7.018,2.3a11.859,11.859,0,0,1,1.63-.884,2.024,2.024,0,0,1,.287-.09l.13-.026c1.036-.127,2.256.258,5.438,1.849l.987.5c.636.327,1.169.608,1.674.885a.64.64,0,0,0,.312.078L17.6,4.6a.661.661,0,0,0,.516-.627A.638.638,0,0,0,17.75,3.4l-.889-.477q-.461-.243-.957-.5l-.508-.259C11.738.323,10.3-.141,8.964.034Z" transform="translate(3.917 -0.42)" fill="#0f0a39"/>
                      <path id="Path-106" data-name="Path" d="M13.021,0h-.187L9.34.053,7.361.09,6.873.107A4.524,4.524,0,0,0,4.828.54C4.063.9,3.38,1.642,2.075,3.689.277,6.515-.386,8.223.217,9.073a1.357,1.357,0,0,0,.72.526.916.916,0,0,0,.264.037c.685,0,1.614-.665,2.628-1.982A31.46,31.46,0,0,0,5.881,4.721a1.519,1.519,0,0,1,.314-.4.828.828,0,0,1,.2-.135.677.677,0,0,1,.176-.053l.264-.037L7.719,4l.643-.059A.649.649,0,0,0,8.925,3.6a.641.641,0,0,0-.6-.934L7.6,2.726l-.9.093-.194.024c-.055.007-.1.015-.144.023a1.873,1.873,0,0,0-.5.159,2.133,2.133,0,0,0-.509.335,2.822,2.822,0,0,0-.574.724,30.3,30.3,0,0,1-1.95,2.782A5.6,5.6,0,0,1,1.469,8.211l-.082.048c-.05.027-.089.046-.121.06V8.3A2.3,2.3,0,0,1,1.4,7.7,15.145,15.145,0,0,1,2.966,4.675l.186-.294C4.273,2.62,4.822,2,5.314,1.73L5.381,1.7a3.75,3.75,0,0,1,1.774-.32l2.2-.043,3.48-.052h.181a.641.641,0,0,0,0-1.281Z" transform="translate(-0.326 -0.331)" fill="#0f0a39"/>
                      <path id="Path-107" data-name="Path" d="M.715,0h0L0,8.511a9.842,9.842,0,0,0,1.173-.2l-.1-2.75V5.524L.891.066Z" transform="translate(20.524 3.479)" fill="#0f0a39"/>
                    </g>
                  </g>
                  <g id="fishes" transform="translate(12.165 99.849)">
                    <g id="fish3" transform="translate(45.544 5.807)">
                      <path id="Path-108" data-name="Path" d="M21.359.051A31.851,31.851,0,0,1,18.1,9.185c-.984-.017-1.98-.066-2.97-.141A49.521,49.521,0,0,1,4.271,7.081C1.668,6.242-.017,5.255,0,4.314S1.784,2.467,4.441,1.741A55.546,55.546,0,0,1,14.606.158C16.1.051,17.61,0,19.058,0,19.815,0,20.582.017,21.359.051Z" transform="translate(7.415 5.858)" fill="#0f0a39"/>
                      <path id="Shape-20" data-name="Shape" d="M18.723,10.466h0c-.977-.017-1.989-.065-3.008-.141a50.031,50.031,0,0,1-11-1.992A14.016,14.016,0,0,1,1.241,6.8,2.278,2.278,0,0,1,0,4.945C.024,3.668,1.539,2.686,4.911,1.762A55.89,55.89,0,0,1,15.2.159C16.5.067,17.771.014,18.981,0L19.7,0l.563,0c.559.006,1.151.022,1.762.048a.642.642,0,0,1,.468.238.631.631,0,0,1,.131.522,32.4,32.4,0,0,1-3.337,9.338.625.625,0,0,1-.325.266l-.107.038Zm.993-9.2h0l-.161.015c-1.371,0-2.808.053-4.27.157A54.786,54.786,0,0,0,5.245,3c-2.595.709-3.961,1.524-3.97,1.962S2.578,6.3,5.1,7.1A48.864,48.864,0,0,0,15.8,9.039c.631.047,1.272.084,1.907.108l.637.018.166-.317A31.147,31.147,0,0,0,21.05,2.019l.166-.724-.436-.011-.534-.008-.53,0Z" transform="translate(6.78 5.217)" fill="#0f0a39"/>
                      <path id="Shape-21" data-name="Shape" d="M.623,10.422a.641.641,0,0,1-.481-.238l-.032-.046H.041l.032-.062a.627.627,0,0,1,.007-.6A31.124,31.124,0,0,0,3.269.545.637.637,0,0,1,3.848,0h.079C5.184.053,6.488.144,7.8.273l.971.1.073,0c.726.082,1.459.178,2.18.286l1.247.2c.3.052.623.112,1.1.2l.692.139c4.411.916,6.622,1.991,6.958,3.385l.026.133.013.158c.02,1.049-1.009,1.956-3.237,2.854A30.25,30.25,0,0,1,13.536,9.04c-.488.115-1.024.229-1.593.341a56.48,56.48,0,0,1-7.185.922l-.9.05c-.575.039-1.182.061-1.854.068ZM4.426,1.3l-.041.2A32.539,32.539,0,0,1,1.894,8.733l-.2.4.555,0c.228,0,.5-.009.769-.019l.77-.031a55.466,55.466,0,0,0,7.913-.95c.55-.109,1.07-.22,1.548-.331,3.965-.92,6.319-2.116,6.521-2.776l.013-.062,0-.049c-.006-.289-.629-.745-1.587-1.161A25.818,25.818,0,0,0,13.136,2.33c-.561-.109-1.1-.2-1.6-.284-.654-.106-1.354-.207-2.08-.3l-.7-.087-.078,0C7.466,1.511,6.166,1.4,4.811,1.324Z" transform="translate(24.871 5.268)" fill="#0f0a39"/>
                      <path id="Path-109" data-name="Path" d="M11.355,11.044a13.352,13.352,0,0,1-1.157.937C6.281,14.869.83,15.939.092,14.695c-.35-.584.075-2.124,5.276-6.8C2.392,2.334,2.321.63,2.886.161c.765-.633,2.965.749,4.2,1.527a17.7,17.7,0,0,1,4.447,4.005C8.875,6.42,7.111,7.317,7.092,8.267S8.752,10.2,11.355,11.044Z" transform="translate(0.335 1.896)" fill="#0f0a39"/>
                      <path id="Shape-22" data-name="Shape" d="M1.773,15.485h0a4.085,4.085,0,0,1-.754-.07A1.255,1.255,0,0,1,.128,14.9c-.211-.354-.855-1.429,5.22-6.9C3.792,5.087,1.851,1.1,2.952.19A.937.937,0,0,1,3.566,0C4.6,0,6.228,1.023,7.306,1.7a17.805,17.805,0,0,1,4.5,4.044.141.141,0,0,1-.073.222C8.986,6.715,7.405,7.6,7.39,8.4s1.545,1.781,4.173,2.623a.141.141,0,0,1,.094.105.137.137,0,0,1-.042.133c-.376.339-.769.659-1.168.953a16.782,16.782,0,0,1-8.632,3.27ZM3.531.275a.663.663,0,0,0-.4.133c-.484.4-.44,2.036,2.516,7.561a.14.14,0,0,1-.03.17C.4,12.828.094,14.3.377,14.761a1,1,0,0,0,.7.374,3.9,3.9,0,0,0,.769.068A16.515,16.515,0,0,0,10.285,12c.327-.239.651-.5.964-.774-1.9-.632-4.157-1.637-4.135-2.827s2.373-2.1,4.341-2.65A17.6,17.6,0,0,0,7.175,1.94L7.109,1.9C6.193,1.332,4.486.276,3.572.276Z" transform="translate(0.171 1.768)" fill="#0f0a39"/>
                      <path id="Path-110" data-name="Path" d="M7.567,3.154q-.14,1.281-.374,2.527c-.777-.034-1.544-.049-2.3-.051-1.449,0-2.951.051-4.453.157,0,0-1-4.131,0-5.6C.994-.622,4.538,1.3,7.567,3.154Z" transform="translate(21.587 0.227)" fill="#0f0a39"/>
                      <path id="Shape-23" data-name="Shape" d="M1.086,7.07h0a.644.644,0,0,1-.623-.491,18.261,18.261,0,0,1-.4-2.425A5.746,5.746,0,0,1,.558.473,1.042,1.042,0,0,1,.689.309,1.142,1.142,0,0,1,1.551,0c1.173,0,3.331,1,7,3.25a.642.642,0,0,1,.3.616c-.093.839-.22,1.7-.378,2.564a.637.637,0,0,1-.617.535H7.817c-.754-.032-1.518-.049-2.27-.05-1.172,0-2.363.034-3.541.1Zm.487-5.8h0L1.562,1.3a5.092,5.092,0,0,0-.235,2.483,17.4,17.4,0,0,0,.258,1.863l.022.113.331-.021c1.03-.058,2.012-.091,2.921-.1l.694,0c.495,0,.984.007,1.455.021l.307.011.059-.334c.04-.251.078-.507.113-.759l.055-.444-.967-.575C4.12,2.116,2.419,1.33,1.658,1.279l-.085,0Z" transform="translate(20.939 -0.414)" fill="#0f0a39"/>
                      <path id="Path-111" data-name="Path" d="M5.577,3.094l-.05-.046L4,2.025Q2.993,1.36,1.98.72L.953.082A.64.64,0,0,0,.287,1.174c.671.412,1.342.836,2,1.263l.982.642c.63.416,1.18.788,1.47.989a.637.637,0,0,0,.364.119.642.642,0,0,0,.47-1.093Z" transform="translate(28.518 2.744)" fill="#0f0a39"/>
                      <path id="Shape-24" data-name="Shape" d="M1.816,8.625H1.785a.65.65,0,0,1-.537-.288,7.6,7.6,0,0,1-.2-8.024A.647.647,0,0,1,1.6,0l.1.008.733.124c.262.047.549.1.9.167L4.03.438c4.41.916,6.621,1.991,6.958,3.385l.026.133.013.159c.029,1.556-2.382,2.926-7.166,4.074l-.355.084c-.442.1-.877.2-1.369.292l-.32.059Zm.121-7.277-.082.169A6.353,6.353,0,0,0,2,7.095l.1.172.386-.078.725-.164C7.175,6.1,9.529,4.909,9.731,4.25l.013-.062,0-.05c-.005-.29-.628-.746-1.586-1.161a24.759,24.759,0,0,0-4.64-1.338l-.8-.154Z" transform="translate(34.913 6.047)" fill="#0f0a39"/>
                      <path id="Shape-25" data-name="Shape" d="M1.577,8a.643.643,0,0,1-.553-.319A7.6,7.6,0,0,1,.865.354.632.632,0,0,1,1.435,0h.034l.095.012L1.9.079A23.842,23.842,0,0,1,7.232,1.638c1.339.639,2,1.355,2.014,2.19C9.276,5.384,6.873,6.753,2.1,7.9L1.75,7.98A.6.6,0,0,1,1.577,8ZM1.8,1.366l-.065.155a6.353,6.353,0,0,0,.1,4.952l.073.153.049-.012A24.267,24.267,0,0,0,6.148,5.23l.258-.122c1.084-.535,1.565-1.015,1.56-1.255-.005-.29-.617-.743-1.559-1.154A22.841,22.841,0,0,0,2.242,1.46Z" transform="translate(36.686 6.333)" fill="#0f0a39"/>
                      <ellipse id="Oval-64" data-name="Oval" cx="0.395" cy="0.395" rx="0.395" ry="0.395" transform="translate(40.198 9.655)"/>
                      <path id="Path-112" data-name="Path" d="M3.959.133q-.692,1.287-1.5,2.5C1.185,3.211.122,3.518.029,3.01A5.026,5.026,0,0,1,.989,0C1.979.077,2.975.116,3.959.133Z" transform="translate(21.553 14.91)" fill="#0f0a39"/>
                      <path id="Shape-26" data-name="Shape" d="M1.068,4.554a1.227,1.227,0,0,1-.551-.131.911.911,0,0,1-.48-.668A3,3,0,0,1,.013,3a5.172,5.172,0,0,1,.547-1.8A6.846,6.846,0,0,1,1.1.279.634.634,0,0,1,1.59,0h.086C2.668.075,3.653.121,4.6.139a.638.638,0,0,1,.5.24l.043.065.061,0L5.178.5a.627.627,0,0,1-.016.579C4.7,1.939,4.184,2.8,3.626,3.637a.644.644,0,0,1-.272.23,6.357,6.357,0,0,1-2.238.687Zm.9-3.25-.076.13a6.133,6.133,0,0,0-.323.659,3.517,3.517,0,0,0-.269.975l-.013.183.05-.008A6.308,6.308,0,0,0,2.387,2.89l.276-.119.19-.291c.193-.3.368-.588.536-.869l.129-.222-.535-.023-.666-.038L1.964,1.3Z" transform="translate(20.912 14.264)" fill="#0f0a39"/>
                      <path id="Path-113" data-name="Path" d="M5.29,0a.661.661,0,0,0-.323.1L4.23.545c-.287.17-.609.357-.952.552C2.2,1.707,1.2,2.232.366,2.608a.657.657,0,0,0-.355.7.642.642,0,0,0,.538.515.614.614,0,0,0,.334-.039c.772-.348,1.649-.8,2.589-1.326l.407-.229c.7-.4,1.32-.767,1.757-1.036a.622.622,0,0,0,.3-.7A.641.641,0,0,0,5.4.005Z" transform="translate(23.385 14.358)" fill="#0f0a39"/>
                    </g>
                    <path id="fish2" d="M0,5.644C0,4.2,2.143,2.99,5.033,2.658h0a2.883,2.883,0,0,1,.221-.819A3.463,3.463,0,0,1,7.771,0a4.378,4.378,0,0,1,.049,2.623h0A9.84,9.84,0,0,1,11.75,3.7h0c.013-.03.028-.06.043-.09a3.709,3.709,0,0,1,3.436-2.031,4.741,4.741,0,0,1-.882,3.657,6.143,6.143,0,0,1,2.433,2.758A3.915,3.915,0,0,1,12.2,7.312h0A8.937,8.937,0,0,1,7.964,8.664h0a3.891,3.891,0,0,1-.316,1.961,2.9,2.9,0,0,1-1.92-1.737c-.021-.066-.037-.129-.052-.187H5.7C2.478,8.486,0,7.2,0,5.644Z" transform="translate(18.604 1.474)" fill="#0f0a39"/>
                    <g id="fish4" transform="translate(97.199)">
                      <ellipse id="Oval-65" data-name="Oval" cx="0.369" cy="0.369" rx="0.369" ry="0.369" transform="translate(14.247 4.104)"/>
                      <path id="Shape-27" data-name="Shape" d="M.594.282A1.456,1.456,0,1,1,.072,1.907,1.454,1.454,0,0,1,.594.282Z" transform="translate(12.958 3.144)" fill="#0f0a39"/>
                      <path id="Shape-28" data-name="Shape" d="M8.133,6.3a18.085,18.085,0,0,1-5.514-.822C.9,4.883-.01,4.05,0,3.067S.932,1.272,2.666.714A17.5,17.5,0,0,1,7.753,0H8.2a17.768,17.768,0,0,1,5.562.837c1.512.54,2.394,1.279,2.549,2.136l.017.128.005.13c-.009.883-.774,1.643-2.213,2.2a16.325,16.325,0,0,1-5.44.864Zm-.187-5.02-.414.005a16.136,16.136,0,0,0-4.471.648c-1.225.4-1.776.862-1.778,1.148s.539.767,1.756,1.184a16.8,16.8,0,0,0,5.11.752h.222c3.69,0,6.672-.984,6.681-1.8,0-.405-.721-.87-1.938-1.244a18.029,18.029,0,0,0-4.646-.682l-.293,0Z" transform="translate(1.499 1.679)" fill="#0f0a39"/>
                      <path id="Path-114" data-name="Path" d="M4.506,2.229c.342.041.676.092,1,.148L.067,0C.054.043.045.09.035.135A2.728,2.728,0,0,0,.567,2.122,20.716,20.716,0,0,1,4.506,2.229Z" transform="translate(7.509 0.238)" fill="#0f0a39"/>
                      <path id="Shape-29" data-name="Shape" d="M5.643,2.66l.008,0H5.627c-.328-.059-.661-.107-.993-.148A20.751,20.751,0,0,0,.721,2.4.14.14,0,0,1,.6,2.341,2.827,2.827,0,0,1,.034.248C.043.2.054.151.068.1A.138.138,0,0,1,.143.013a.142.142,0,0,1,.118,0L5.7,2.39a.142.142,0,0,1,.082.158.139.139,0,0,1-.137.112Z" transform="translate(7.364 0.1)"/>
                      <path id="Path-115" data-name="Path" d="M1.578.049l.561.022A2.994,2.994,0,0,1,.814.95,2.93,2.93,0,0,1,0,1.087C.079.85.316.124.354,0Z" transform="translate(7.481 7.317)"/>
                      <path id="Shape-30" data-name="Shape" d="M.148,1.368H.14a.148.148,0,0,1-.114-.059.142.142,0,0,1-.019-.127C.087.944.323.22.361.1A.137.137,0,0,1,.492,0H.5L1.73.049,2.29.071a.144.144,0,0,1,.122.086A.147.147,0,0,1,2.39.306,3.152,3.152,0,0,1,1,1.223,3.026,3.026,0,0,1,.148,1.368ZM.595.285h0C.538.471.422.824.338,1.074A2.772,2.772,0,0,0,.912.956,2.8,2.8,0,0,0,1.957.339L.595.285Z" transform="translate(7.335 7.177)" fill="#0f0a39"/>
                      <path id="Path-116" data-name="Path" d="M1.778.041C1.918.03,2.057.015,2.192,0A3.075,3.075,0,0,1,.762,1.077,2.925,2.925,0,0,1,0,1.233C.062.976.294.184.335.062A10.75,10.75,0,0,0,1.778.041Z" transform="translate(9.478 7.274)"/>
                      <path id="Shape-31" data-name="Shape" d="M.14,1.515h0a.142.142,0,0,1-.107-.05A.14.14,0,0,1,0,1.342C.065,1.085.3.29.343.158a.135.135,0,0,1,.129-.1H.483c.186.01.374.014.559.014.289,0,.58-.012.865-.035C2.038.031,2.178.019,2.315,0h.016a.143.143,0,0,1,.123.07.137.137,0,0,1,0,.154,3.176,3.176,0,0,1-1.5,1.123,3.118,3.118,0,0,1-.8.164l-.017,0ZM.577.349C.519.529.4.93.328,1.213a2.728,2.728,0,0,0,.527-.128A2.845,2.845,0,0,0,2.006.316H1.93c-.318.027-.638.04-.952.04-.131,0-.264,0-.4-.007H.577Z" transform="translate(9.337 7.133)" fill="#0f0a39"/>
                      <path id="Path-117" data-name="Path" d="M2.915,2.021a6.755,6.755,0,0,0-.728-.955A6.829,6.829,0,0,0,.954,0,7.663,7.663,0,0,0,.295,5.807,6.592,6.592,0,0,0,2.816,4.363a1.225,1.225,0,0,1,.1-2.344Z" transform="translate(0.145 1.538)" fill="#0f0a39"/>
                      <path id="Shape-32" data-name="Shape" d="M.945,7.093h0l-.017,0a.666.666,0,0,1-.307-.081.654.654,0,0,1-.3-.383A8.313,8.313,0,0,1,1.039.316.64.64,0,0,1,1.593,0a.646.646,0,0,1,.254.052L1.939.1l.01.007A7.367,7.367,0,0,1,4.095,2.317a.654.654,0,0,1,.052.582.644.644,0,0,1-.338.345l-.1.034a.588.588,0,0,0-.438.542.582.582,0,0,0,.307.539l.176.078A.64.64,0,0,1,3.89,5.472,7.24,7.24,0,0,1,1.046,7.086l-.1.007Zm.881-5.466L1.795,1.7A6.957,6.957,0,0,0,1.35,3.351a7.074,7.074,0,0,0,.019,2.109l.026.143c.171-.076.338-.158.508-.252l.242-.142.127-.083.14-.1L2.392,5a1.851,1.851,0,0,1-.4-1.1l0-.153a1.861,1.861,0,0,1,.533-1.2l.091-.086-.066-.085-.2-.235a6.379,6.379,0,0,0-.476-.472Z" transform="translate(-0.494 0.903)" fill="#0f0a39"/>
                    </g>
                    <g id="fish5" transform="translate(78.981 32.221)">
                      <ellipse id="Oval-66" data-name="Oval" cx="0.56" cy="0.56" rx="0.56" ry="0.56" transform="translate(4.157 6.452)"/>
                      <path id="Path-118" data-name="Path" d="M10.906.051A29.959,29.959,0,0,0,5.77.741c-.26.056-.51.119-.817.2l-.242.069C1.712,1.874,0,3.139,0,4.708A2.886,2.886,0,0,0,1.518,7.019,15.745,15.745,0,0,0,7.685,9.037c.777.121,1.6.212,2.5.28s1.81.1,2.734.1q.911,0,1.758-.048l.557-.038c.4-.023.824-.057,1.265-.1,3.381-.333,6.228-1.139,7.83-2.235a.644.644,0,0,0,.181-.861.655.655,0,0,0-.865-.208c-1.43.977-4.08,1.724-7.267,2.038-.389.04-.8.074-1.223.1a36.537,36.537,0,0,1-4.87-.028c-.836-.063-1.642-.153-2.393-.269A14.746,14.746,0,0,1,2.246,5.954C1.59,5.507,1.29,5.082,1.29,4.7c0-.81,1.35-1.77,3.781-2.462.307-.089.64-.175.993-.256a28.574,28.574,0,0,1,4.2-.616l.707-.042a37.176,37.176,0,0,1,4.328.033l.653.045a25.966,25.966,0,0,1,5.126.941h.013a9.426,9.426,0,0,1,2.518,1.13.64.64,0,0,0,.729-1.051,10.8,10.8,0,0,0-2.9-1.312l-.651-.18a27.189,27.189,0,0,0-4.713-.8L15.395.082A38.375,38.375,0,0,0,10.906.051Z" transform="translate(0.507 2.733)" fill="#0f0a39"/>
                      <path id="Path-119" data-name="Path" d="M5.358,0V7.087L2.678,6.3,0,5.511a2.3,2.3,0,0,0,1.218-1.77A2.3,2.3,0,0,0,0,1.971L3.8.571h0Z" transform="translate(24.473 3.7)" fill="#0f0a39"/>
                      <path id="Shape-33" data-name="Shape" d="M5.52,7.354l-.022,0h-.04l-.387-.114L2.778,6.564.1,5.777a.143.143,0,0,1-.039-.251A2.156,2.156,0,0,0,1.218,3.872,2.17,2.17,0,0,0,.063,2.218.141.141,0,0,1,0,2.084a.138.138,0,0,1,.09-.114L3.9.571h.011L5.45.009A.138.138,0,0,1,5.5,0a.135.135,0,0,1,.08.026.139.139,0,0,1,.06.114V7.227a.113.113,0,0,1-.118.127ZM.445,5.582h0l2.4.705,2.295.674.206.062V.328l-1.359.5H3.98L.424,2.139A2.248,2.248,0,0,1,1.485,3.868,2.23,2.23,0,0,1,.452,5.582Z" transform="translate(24.334 3.575)" fill="#0f0a39"/>
                      <path id="Path-120" data-name="Path" d="M.389.052A.641.641,0,0,0,.052.892l2.9,6.774a.639.639,0,0,0,.588.39.613.613,0,0,0,.239-.044.65.65,0,0,0,.357-.357.642.642,0,0,0-.007-.493L1.23.389A.64.64,0,0,0,.389.052Z" transform="translate(4.761 3.721)" fill="#0f0a39"/>
                      <path id="Path-121" data-name="Path" d="M.327.078A.643.643,0,0,0,.083.952L4.4,8.265a.641.641,0,0,0,.851.238.651.651,0,0,0,.256-.866L1.181.309A.64.64,0,0,0,.327.078Z" transform="translate(5.779 3.473)" fill="#0f0a39"/>
                      <path id="Path-122" data-name="Path" d="M0,3.185H0L6.124,0,4.413,3.215C3.831,3.177,3.225,3.151,2.6,3.14,1.686,3.121.818,3.142,0,3.185Z" transform="translate(11.445 0.24)" fill="#0f0a39"/>
                      <path id="Shape-34" data-name="Shape" d="M5.94,4.712c-.567-.037-1.168-.062-1.786-.074-.207,0-.416-.005-.622-.005-.659,0-1.3.018-1.917.053l-.051,0a.633.633,0,0,1-.527-.275L0,4.446l.94-.49a.819.819,0,0,1,.054-.179l.047-.095L1.1,3.6a.667.667,0,0,1,.113-.095l.054-.031L7.41.287A.63.63,0,0,1,7.686.224a.648.648,0,0,1,.291.069L8.543,0l-.3.557a.65.65,0,0,1,.047.5l-.041.1L6.539,4.383a.627.627,0,0,1-.33.277L6.1,4.7l-.051.007-.107,0h0Zm.2-2.336-1.883.978.475.013.586.024.274.014Z" transform="translate(9.888 -0.622)" fill="#0f0a39"/>
                      <path id="Path-123" data-name="Path" d="M1.246,0l.633,1.356L0,.1,1.246,0Z" transform="translate(15.692 11.339)" fill="#0f0a39"/>
                      <path id="Shape-35" data-name="Shape" d="M2.255,0a.64.64,0,0,1,.583.281L2.887.37l.632,1.354a.641.641,0,0,1,.012.52l-.051.094.3.657-.608-.4a.637.637,0,0,1-.155.04l-.1,0a.646.646,0,0,1-.264-.063l-.082-.046L.7,1.274A.641.641,0,0,1,.419.753L0,.472.5.428A.642.642,0,0,1,.9.122L1.006.1Z" transform="translate(14.64 10.698)" fill="#0f0a39"/>
                    </g>
                    <g id="fish1" transform="translate(0 24.103)">
                      <path id="Path-124" data-name="Path" d="M7.55,3.906a2.108,2.108,0,0,1-.994,1.529,31.725,31.725,0,0,1-3.1-2.207.613.613,0,0,0,.1-.33A.623.623,0,0,0,2.5,2.435,31.6,31.6,0,0,1,0,0C.773.148,1.552.326,2.3.536h0C5.156,1.341,7.546,2.555,7.55,3.906Z" transform="translate(19.444 3.276)" fill="#0f0a39"/>
                      <path id="Shape-36" data-name="Shape" d="M7.617,6.7H7.605a.625.625,0,0,1-.339-.1A32.313,32.313,0,0,1,4.109,4.363a.639.639,0,0,1-.194-.752l.013-.023-.03.023a.644.644,0,0,1-.583.048l-.091-.047L3.139,3.55A32.187,32.187,0,0,1,.589,1.08.634.634,0,0,1,.43.5L0,.043.619.171A.648.648,0,0,1,1.058,0l.117.011c.652.125,1.29.268,1.9.427L3.5.554l.023,0c3.39.949,5.233,2.078,5.635,3.451l.04.162.027.165.012.2A2.669,2.669,0,0,1,7.98,6.579.634.634,0,0,1,7.617,6.7ZM3.982,2.254a1.26,1.26,0,0,1,.7.212l.11.082a1.258,1.258,0,0,1,.451.941l-.005.124.316.246c.557.423,1.135.833,1.719,1.217l.277.178.091-.093a1.267,1.267,0,0,0,.3-.462l.016-.075.008-.1c0-.776-1.643-1.784-4.186-2.568L3.2,1.787l-.022,0-.106-.03.28.262.31.278L3.8,2.268A1.283,1.283,0,0,1,3.982,2.254Z" transform="translate(18.396 2.649)" fill="#0f0a39"/>
                      <path id="Shape-37" data-name="Shape" d="M11.829,9.962h-.157a15.615,15.615,0,0,1-2.156-.176,22.772,22.772,0,0,1-6.707-2.1L2.27,7.415,2.127,7.34a6.6,6.6,0,0,1-1.4-.94A1.966,1.966,0,0,1,0,4.956c0-.9.6-1.587,2.061-2.37l.463-.238a23.357,23.357,0,0,1,3.33-1.341A22.487,22.487,0,0,1,10.482.077L10.91.043C11.415.008,11.784,0,12,0l.209,0L12.4.011l.645.051c.855.078,1.72.2,2.57.362a.646.646,0,0,1,.345.2c.6.656,1.236,1.287,1.879,1.876l.265.236.13-.026a1.282,1.282,0,0,1,.187-.014A1.269,1.269,0,0,1,19,2.833l.117.069.11.082a1.268,1.268,0,0,1,.455.931l0,.134.328.255c.378.288.771.574,1.169.849l.6.4.607.389a.642.642,0,0,1,.292.4l.014.124A.636.636,0,0,1,22.438,7a14.315,14.315,0,0,1-4.72,2.049c-.59.16-1.212.3-1.849.431a26.366,26.366,0,0,1-3.357.445ZM11.822,1.3l-.355.011a19.918,19.918,0,0,0-5.229.932A21.99,21.99,0,0,0,3.1,3.5L2.8,3.646l-.082.043-.05.026c-.9.481-1.389.924-1.387,1.246a.79.79,0,0,0,.3.495,5.4,5.4,0,0,0,.886.623l.445.233A21.569,21.569,0,0,0,9.707,8.526a13.251,13.251,0,0,0,2.037.159h.05a25.161,25.161,0,0,0,3.822-.463c.581-.114,1.174-.252,1.762-.41a16.865,16.865,0,0,0,3.3-1.224l.181-.1L20.3,6.111c-.4-.28-.8-.571-1.182-.864L18.547,4.8a.637.637,0,0,1-.193-.751l.013-.023-.03.022a.64.64,0,0,1-.675,0l-.085-.062c-.7-.607-1.385-1.257-2.04-1.932l-.367-.388-.441-.077c-.592-.1-1.2-.175-1.806-.23L12.276,1.3,11.992,1.3Z" transform="translate(3.957 2.216)" fill="#0f0a39"/>
                      <path id="Path-125" data-name="Path" d="M1.247.626a.613.613,0,0,1-.1.33.624.624,0,1,1,.1-.33Z" transform="translate(18.835 6.048)" fill="#0f0a39"/>
                      <path id="Path-126" data-name="Path" d="M1.09.146A1.9,1.9,0,0,0,.606.467C.033,1.017.038,1.541.337,2.95a10.392,10.392,0,0,1,.234,1.5A7.683,7.683,0,0,1,.407,6.335L.246,7c-.36,1.49-.371,2.047.277,2.623A1.343,1.343,0,0,0,.764,9.8a1.9,1.9,0,0,0,.968.243,4.843,4.843,0,0,0,2.551-.97l.125-.086A13.924,13.924,0,0,0,5.722,7.951c.232-.208.425-.39.646-.614a.64.64,0,0,0-.908-.9l-.223.219c-.109.1-.222.209-.37.343q-.423.38-.882.721l-.329.236-.088.06a3.06,3.06,0,0,1-2.085.719l-.091-.043c-.143-.128-.142-.373.05-1.2l.113-.475a8.936,8.936,0,0,0,.289-2.635A11.71,11.71,0,0,0,1.672,3.1l-.088-.415c-.186-.891-.2-1.188-.106-1.276a.551.551,0,0,1,.133-.085c.193-.086.549-.013,1.163.316A9.1,9.1,0,0,1,5.183,3.59a.649.649,0,0,0,.474.212.637.637,0,0,0,.458-.194A.616.616,0,0,0,6.3,3.191a.641.641,0,0,0-.162-.463A10.384,10.384,0,0,0,3.727.7L3.383.5A2.539,2.539,0,0,0,1.09.146Z" transform="translate(0.657 2.21)" fill="#0f0a39"/>
                      <path id="Path-127" data-name="Path" d="M.4,1.081A2.858,2.858,0,0,0,.134,3.467a.64.64,0,0,0,.615.487l.1-.007a.669.669,0,0,0,.456-.3.641.641,0,0,0,.073-.486,1.677,1.677,0,0,1,.069-1.341c.63-.89,3.391-.665,7.677.833l.342.121a.626.626,0,0,0,.629-.1.641.641,0,0,0-.139-1.08l-.059-.023C5.047-.179,1.613-.64.4,1.081Z" transform="translate(9.248 0.543)" fill="#0f0a39"/>
                      <path id="Path-128" data-name="Path" d="M8.459.081l-.34.171c-.349.175-.685.339-1,.489A21.159,21.159,0,0,1,2.467,2.5c-.717.135-1.062.077-1.148-.029-.07-.086-.063-.382.115-.881A.641.641,0,1,0,.226,1.159a2.107,2.107,0,0,0,.1,2.114,1.613,1.613,0,0,0,1.424.583c1.158,0,3.044-.593,5.914-1.957q.7-.332,1.389-.682A.641.641,0,1,0,8.459.081Z" transform="translate(12.736 10.008)" fill="#0f0a39"/>
                    </g>
                  </g>
                  <g id="fish_food" transform="translate(46.854 71.374)">
                    <ellipse id="Oval-67" data-name="Oval" cx="0.462" cy="0.463" rx="0.462" ry="0.463" transform="translate(17.402 0.302)" fill="#0f0a39"/>
                    <path id="Shape-38" data-name="Shape" d="M.6,1.206h0A.6.6,0,0,1,.176.177.6.6,0,1,1,.6,1.206ZM.6.282h0a.322.322,0,0,0-.227.55A.323.323,0,0,0,.6.928.315.315,0,0,0,.726.9.323.323,0,0,0,.6.283Z" transform="translate(17.26 0.161)" fill="#0f0a39"/>
                    <ellipse id="Oval-68" data-name="Oval" cx="0.462" cy="0.463" rx="0.462" ry="0.463" transform="translate(19.91 3.127)" fill="#0f0a39"/>
                    <path id="Shape-39" data-name="Shape" d="M.6,1.206h0a.6.6,0,1,1,.6-.6A.6.6,0,0,1,.6,1.206ZM.6.282h0A.322.322,0,1,0,.924.6.321.321,0,0,0,.6.283Z" transform="translate(19.768 2.984)" fill="#0f0a39"/>
                    <ellipse id="Oval-69" data-name="Oval" cx="0.462" cy="0.463" rx="0.462" ry="0.463" transform="translate(16.94 6.813)" fill="#0f0a39"/>
                    <path id="Shape-40" data-name="Shape" d="M.6,1.206a.6.6,0,1,1,.6-.6A.6.6,0,0,1,.6,1.206ZM.6.283A.322.322,0,1,0,.6.927.323.323,0,0,0,.924.6.322.322,0,0,0,.6.283Z" transform="translate(16.803 6.673)" fill="#0f0a39"/>
                    <ellipse id="Oval-70" data-name="Oval" cx="0.462" cy="0.463" rx="0.462" ry="0.463" transform="translate(22.691 10.646)" fill="#0f0a39"/>
                    <path id="Shape-41" data-name="Shape" d="M.606,1.206h0A.6.6,0,0,1,.177.176.6.6,0,0,1,1.205.6a.6.6,0,0,1-.6.6ZM.6.283A.322.322,0,1,0,.924.6.323.323,0,0,0,.6.283Z" transform="translate(22.551 10.504)" fill="#0f0a39"/>
                    <ellipse id="Oval-71" data-name="Oval" cx="0.462" cy="0.463" rx="0.462" ry="0.463" transform="translate(13.616 24.578)" fill="#0f0a39"/>
                    <path id="Shape-42" data-name="Shape" d="M.606,1.206h0A.6.6,0,0,1,.177.176.6.6,0,0,1,1.205.6a.6.6,0,0,1-.6.6ZM.6.282h0A.322.322,0,1,0,.924.6.323.323,0,0,0,.6.293Z" transform="translate(13.475 24.436)" fill="#0f0a39"/>
                    <ellipse id="Oval-72" data-name="Oval" cx="0.462" cy="0.463" rx="0.462" ry="0.463" transform="translate(23.153 31.727)" fill="#0f0a39"/>
                    <path id="Shape-43" data-name="Shape" d="M.6,1.206h0A.6.6,0,0,1,.176.177.6.6,0,1,1,.6,1.206ZM.6.282h0a.322.322,0,0,0-.227.55A.323.323,0,0,0,.6.928.315.315,0,0,0,.726.9.323.323,0,0,0,.6.283Z" transform="translate(23.011 31.586)" fill="#0f0a39"/>
                    <ellipse id="Oval-73" data-name="Oval" cx="0.462" cy="0.463" rx="0.462" ry="0.463" transform="translate(0.234 43.699)" fill="#0f0a39"/>
                    <path id="Shape-44" data-name="Shape" d="M.6,1.206a.6.6,0,1,1,.426-.176A.6.6,0,0,1,.6,1.206ZM.6.27V.281h0A.322.322,0,1,0,.924.6.321.321,0,0,0,.6.27Z" transform="translate(0.094 43.566)" fill="#0f0a39"/>
                    <ellipse id="Oval-74" data-name="Oval" cx="0.462" cy="0.463" rx="0.462" ry="0.463" transform="translate(9.932 35.873)" fill="#0f0a39"/>
                    <path id="Shape-45" data-name="Shape" d="M.606,1.206h0A.6.6,0,0,1,.177.176.6.6,0,0,1,1.205.6a.6.6,0,0,1-.6.6ZM.6.283A.321.321,0,1,0,.831.377.328.328,0,0,0,.6.283Z" transform="translate(9.792 35.73)" fill="#0f0a39"/>
                    <ellipse id="Oval-75" data-name="Oval" cx="0.462" cy="0.463" rx="0.462" ry="0.463" transform="translate(7.761 31.266)" fill="#0f0a39"/>
                    <path id="Shape-46" data-name="Shape" d="M.6,1.206h0a.6.6,0,1,1,.6-.6A.6.6,0,0,1,.6,1.206ZM.6.282h0A.322.322,0,1,0,.924.6.321.321,0,0,0,.6.283Z" transform="translate(7.619 31.124)" fill="#0f0a39"/>
                    <ellipse id="Oval-76" data-name="Oval" cx="0.462" cy="0.463" rx="0.462" ry="0.463" transform="translate(16.479 12.864)" fill="#0f0a39"/>
                    <path id="Shape-47" data-name="Shape" d="M.6,1.206h0a.6.6,0,1,1,.6-.6A.6.6,0,0,1,.6,1.206ZM.6.282h0A.322.322,0,1,0,.924.6.321.321,0,0,0,.6.283Z" transform="translate(16.337 12.722)" fill="#0f0a39"/>
                  </g>
                </g>
              </g>
            </g>
          </g>
        </g>
        <rect id="Rectangle-3" data-name="Rectangle" width="12" height="196" fill="#7c37fa"/>
      </g>
      <text id="All_note_18_" data-name="All note (18)" transform="translate(0 222)" fill="#0f0a39" font-size="16" font-family="SegoeUI, Segoe UI"><tspan x="0" y="0">All note </tspan><tspan y="0" fill="#7c37fa">(18)</tspan></text>
      <text id="Notebook_4_" data-name="Notebook (4)" transform="translate(169 222)" fill="#0f0a39" font-size="16" font-family="SegoeUI, Segoe UI"><tspan x="0" y="0">Notebook </tspan><tspan y="0" fill="#7c37fa">(4)</tspan></text>
    </g>
  </g>
</svg>
