<svg id="Group_5" data-name="Group 5" xmlns="http://www.w3.org/2000/svg" width="60" height="58" viewBox="0 0 60 58">
  <path id="Path_14" data-name="Path 14" d="M0,0S3.355,30,3.355,36.678l43.7.322S48.456,6.721,50,1.761c0,0-6.683,6.595-13.717,6.4S25.027,0,25.027,0,20.494,8.157,13.243,8.157,0,0,0,0Z" transform="translate(5 8)" fill="#ffda93"/>
  <path id="Path_25" data-name="Path 25" d="M24.877,5.193s-8.438,9.406-3.151,15.6-1.255,5.63-1.255,5.63A12.1,12.1,0,0,0,24.877,38.2c6.135,5.173-21.243.781-21.243.781L0,.724S5.412,11.1,14.353,9.547A12.818,12.818,0,0,0,24.877,0Z" transform="translate(5 7)" fill="#ffce71"/>
  <circle id="Oval" cx="6" cy="6" r="6" transform="translate(0 2)" fill="#ffce71"/>
  <circle id="Oval_Copy_13" data-name="Oval Copy 13" cx="6" cy="6" r="6" transform="translate(24)" fill="#ffce71"/>
  <circle id="Oval_Copy_14" data-name="Oval Copy 14" cx="6" cy="6" r="6" transform="translate(48 2)" fill="#ffce71"/>
  <path id="Path_21" data-name="Path 21" d="M.128.127" transform="translate(17.872 32.873)" fill="none" stroke="#979797" stroke-miterlimit="10" stroke-width="1"/>
  <path id="Path_27" data-name="Path 27" d="M.128.127" transform="translate(51.872 1.873)" fill="none" stroke="#979797" stroke-miterlimit="10" stroke-width="1"/>
  <path id="Path_28" data-name="Path 28" d="M4.876,0S.253,1.518.009,5.987s4.34,6.259,6.337,5.987A6.325,6.325,0,0,0,11,9.442s-4.483-.4-5.844-2.749C3.746,4.352,4.876,0,4.876,0Z" transform="translate(48 2)" fill="#ffb357"/>
  <path id="Path_28_Copy" data-name="Path 28 Copy" d="M4.876,0S.253,1.518.009,5.987s4.34,6.259,6.337,5.987A6.325,6.325,0,0,0,11,9.442s-4.483-.4-5.844-2.749C3.746,4.352,4.876,0,4.876,0Z" transform="translate(24)" fill="#ffb357"/>
  <path id="Path_28_Copy_2" data-name="Path 28 Copy 2" d="M4.876,0S.253,1.518.009,5.987s4.34,6.259,6.337,5.987A6.325,6.325,0,0,0,11,9.442s-4.483-.4-5.844-2.749C3.746,4.352,4.876,0,4.876,0Z" transform="translate(0 2)" fill="#ffb357"/>
  <path id="Path_20" data-name="Path 20" d="M49.757,14H8.941S0,13.567,0,7.084,3.93,0,10.977,0H48.715S58,0,58,7,49.757,14,49.757,14Z" transform="translate(1 44)" fill="#ffce71"/>
  <path id="Path_24" data-name="Path 24" d="M29,14S24.115,6.669,29,0L10,.039S0-.309,0,6.536,8.941,14,8.941,14Z" transform="translate(1 44)" fill="#ffb357"/>
  <path id="Path_23" data-name="Path 23" d="M7.78,7.2a1.941,1.941,0,0,0,2.8-1c.946-2.043-3.219-3.724-3.219-3.724S7.167,0,5.938,0,4.07,1.17,4.07,2.473c0,0-3.078,1.449-3.829,3.869S.478,12.558,3.5,13.494s3.728.654,4.276,2.177-1.67,3.461-3.71,2.251-3.078-1.441-3.829,0,2.582,3.891,3.829,3.891c0,0-.306,2.086,1.315,2.183s1.977-2.183,1.977-2.183S11,20.415,11,17.454,10.477,11.5,6.42,10.5,2.754,7.519,4.07,6.342,7.78,7.2,7.78,7.2Z" transform="translate(25 17)" fill="#f2876b"/>
  <path id="Path_22" data-name="Path 22" d="M14.141,9.773c1.382.853,4.225-.706,3.82-4.441S13.924-.819,10.884.794s-3.727,5.024-5,5.024S2.631,4.551,4.735,2.889,3.1-1.3,1.712.794s-3.321,5,.651,8.113,6.944-1.9,9.009-3.958,3.956-.732,2.768.869S12.759,8.92,14.141,9.773Z" transform="translate(4 24)" fill="#ffb357"/>
  <path id="Path_22_Copy" data-name="Path 22 Copy" d="M14.141-9.773c1.382-.853,4.225.706,3.82,4.441S13.924.819,10.884-.794s-3.727-5.024-5-5.024S2.631-4.551,4.735-2.889,3.1,1.3,1.712-.794s-3.321-5,.651-8.113,6.944,1.9,9.009,3.958,3.956.732,2.768-.869S12.759-8.92,14.141-9.773Z" transform="translate(39 34)" fill="#ffb357"/>
  <path id="Path_26" data-name="Path 26" d="M2.919.588S1.385-.4.317.275,1.069,2,3.02,2,6.694.944,5.719.275,2.919.588,2.919.588Z" transform="translate(27 50)" fill="#313d40"/>
  <ellipse id="Oval-2" data-name="Oval" cx="3.5" cy="2.5" rx="3.5" ry="2.5" transform="translate(17 51)" fill="#ff8e9e"/>
  <ellipse id="Oval_Copy_15" data-name="Oval Copy 15" cx="3.5" cy="2.5" rx="3.5" ry="2.5" transform="translate(36 51)" fill="#ff8e9e"/>
  <ellipse id="Oval-3" data-name="Oval" cx="1" cy="1.5" rx="1" ry="1.5" transform="translate(21 49)" fill="#313d40"/>
  <ellipse id="Oval_Copy_16" data-name="Oval Copy 16" cx="1" cy="1.5" rx="1" ry="1.5" transform="translate(37 49)" fill="#313d40"/>
</svg>
