<svg id="Icon_Brush" data-name="Icon / Brush" xmlns="http://www.w3.org/2000/svg" width="150" height="135" viewBox="0 0 150 135">
  <path id="path" d="M115.557,0l13.2,5.407c-.542,1.544,1.084,5.452,6.454,14.257l4.45,7.127,2.027,3.339c10.281,17.416,12.011,28.675-.405,37.646-7.014,5.067-14.982,3.23-24.2-3.205l-1.393-1c-5.113-3.769-9.168-7.441-17.56-15.821l-8.007-8.065c-18.825-18.972-28.194-25.06-31.867-21.8-3.338,2.966,1.909,15.293,19.688,43.69l5.941,9.484c20.643,33.3,25.314,46.021,15.348,57.9-6.869,8.186-16.162,7.572-26.331,1.024-5.425-3.493-10.746-8.152-18.536-15.969L42.125,101.475C27.488,86.6,20.654,81.32,17.638,82.139c-5.734,1.556-5.18,14.232,6.693,41.533l.988,2.246-12.722,6.6-1.9-4.366C-3.894,93.767-4.335,72.378,14.2,67.347c10.178-2.762,17.251,2.192,37.341,22.74l7.2,7.426c18.4,19.011,27.149,24.641,30.032,21.2,2.935-3.5-1.788-15.028-16.731-39.322L61.3,62.195c-7-11.33-10.4-17.483-13.42-24.436C41.893,24,41.294,13.209,49.284,6.109,61.69-4.916,73.587,2.381,98.017,26.8l7.234,7.275c17.571,17.507,25.4,23.035,28.184,21.022,3.179-2.3,2.534-6.4-3.727-16.906l-2.535-4.124-3.215-5.119c-8.916-14.362-11.181-20.1-8.719-27.99Z" transform="translate(0)" fill="#7c37fa"/>
</svg>
