<svg id="Icon_Leaf" data-name="Icon / Leaf" xmlns="http://www.w3.org/2000/svg" width="40" height="40" viewBox="0 0 40 40">
  <path id="Path" d="M32.879.455A1.852,1.852,0,0,0,31.515,0C30.909.152,14.7,2.879,8.03,9.545A14.318,14.318,0,0,0,3.788,23.03L9.394,19.7a.767.767,0,0,1,.909,1.212L4.7,26.515h0L.455,30.758a1.465,1.465,0,0,0,0,2.121,1.375,1.375,0,0,0,1.061.455,1.375,1.375,0,0,0,1.061-.455l4.242-4.242A14.728,14.728,0,0,0,13.182,30a14.453,14.453,0,0,0,9.091-3.182,1.378,1.378,0,0,0,.455-1.667l-2.121-7.576L26.061,19.7a1.5,1.5,0,0,0,1.97-.758c3.182-7.121,5.152-16.667,5.3-16.97A2.262,2.262,0,0,0,32.879.455Z" transform="translate(3.333 3.333)" fill="#7c37fa"/>
</svg>
