<svg xmlns="http://www.w3.org/2000/svg" width="374.079" height="375.733" viewBox="0 0 374.079 375.733">
  <g id="Illus" transform="translate(-0.921 -0.642)">
    <g id="background" transform="translate(0.921 0.642)">
      <g id="background_1_">
        <path id="Path" d="M35.4,6.172l-.04-.045C31.838,1.925,28.278-.164,24.8.01c-2.476.1-4.084.994-6.717,3.322L16.774,4.5l-.055.048c-2.093,1.822-3.48,2.593-5.3,2.678C8.382,7.378,5.052,5.213,1.492.7A.779.779,0,0,0,.472.449L.374.5A.725.725,0,0,0,.147,1.584C3.893,6.338,7.572,8.765,11.139,8.765l.049,0,.1.1.227-.013c2.4-.139,3.986-1.053,6.677-3.41l.439-.388c2.724-2.476,4.088-3.32,6.221-3.416,2.876-.154,5.988,1.69,9.2,5.509a.882.882,0,0,0,1.229.081A.783.783,0,0,0,35.4,6.172Z" transform="translate(315.57 137.996)" fill="#ffcc0a"/>
        <path id="Path-2" data-name="Path" d="M13.045,9.877h.02c2.685-.1,4.523-1.152,7.5-3.774l.583-.52c3.241-2.906,4.769-3.854,7.213-3.951,3.333-.157,6.923,1.963,10.588,6.333a.882.882,0,0,0,1.23.081A.783.783,0,0,0,40.3,7l-.041-.047C36.214,2.172,32.223-.164,28.272.009,25.532.143,23.735,1.133,20.79,3.7L19.438,4.9c-2.726,2.385-4.23,3.231-6.465,3.353-3.55.155-7.4-2.341-11.48-7.517A.779.779,0,0,0,.472.489l-.1.054A.725.725,0,0,0,.147,1.624c4.175,5.3,8.238,8.045,12.189,8.167l.428.006Z" transform="translate(0 342.611)" fill="#7c37fa"/>
        <path id="Path-3" data-name="Path" d="M26.45.009c-2.712.106-4.513,1.153-7.467,3.81l-.866.781c-2.512,2.233-3.911,3.027-5.962,3.118C8.9,7.912,5.313,5.585,1.492.737A.779.779,0,0,0,.472.489l-.1.054A.725.725,0,0,0,.147,1.624C4.159,6.716,8.053,9.3,11.832,9.3h.347c2.524-.135,4.349-1.164,6.95-3.449l.673-.6c3.021-2.7,4.427-3.567,6.7-3.664,3.1-.155,6.434,1.827,9.893,5.961a.882.882,0,0,0,1.23.082.783.783,0,0,0,.121-1.05l-.04-.046C33.92,2.052,30.145-.164,26.45.009Z" transform="translate(22.557 61.724)" fill="#2de6ea"/>
        <path id="Path-4" data-name="Path" d="M7.062,10.842,0,6.39,4.939,0l7.018,4.452Z" transform="translate(62.855 170.985)" fill="#7c37fa"/>
        <path id="Path_Copy_6" data-name="Path Copy 6" d="M4.783,7.714,0,4.546,3.345,0,8.1,3.168Z" transform="translate(193.005 48.489)" fill="#7c37fa"/>
        <path id="Path_Copy" data-name="Path Copy" d="M4.783,7.714,0,4.546,3.345,0,8.1,3.168Z" transform="translate(38.559 271.261)" fill="#ffcc0a"/>
        <path id="Shape" d="M5.117,6.167h0l-.129-.006-4.2-.694a.749.749,0,0,1-.633-.345L.087,5.013l.028.063a.937.937,0,0,1-.093-.222.627.627,0,0,1,.01-.366l0-.012L.813.621A.85.85,0,0,1,1.625,0a.831.831,0,0,1,.087,0l4.271.7a.749.749,0,0,1,.67.39.914.914,0,0,1,.092.222.633.633,0,0,1,.013.275l-.027.1-.77,3.833-.076.176a.961.961,0,0,1-.647.453Zm-2.845-4.5-.464,2.35,2.642.45.463-2.351Z" transform="translate(207.931 241.391)" fill="#ffcc0a"/>
        <path id="Shape_Copy_4" data-name="Shape Copy 4" d="M5.117,6.167h0l-.129-.006-4.2-.694a.749.749,0,0,1-.633-.345L.087,5.013l.028.063a.937.937,0,0,1-.093-.222.627.627,0,0,1,.01-.366l0-.012L.813.621A.85.85,0,0,1,1.625,0a.831.831,0,0,1,.087,0l4.271.7a.749.749,0,0,1,.67.39.914.914,0,0,1,.092.222.633.633,0,0,1,.013.275l-.027.1-.77,3.833-.076.176a.961.961,0,0,1-.647.453Zm-2.845-4.5-.464,2.35,2.642.45.463-2.351Z" transform="translate(207.931 0.342)" fill="#2de6ea"/>
        <path id="Shape_Copy" data-name="Shape Copy" d="M5.117,6.167h0l-.129-.006-4.2-.694a.749.749,0,0,1-.633-.345L.087,5.013l.028.063a.937.937,0,0,1-.093-.222.627.627,0,0,1,.01-.366l0-.012L.813.621A.85.85,0,0,1,1.625,0a.831.831,0,0,1,.087,0l4.271.7a.749.749,0,0,1,.67.39.914.914,0,0,1,.092.222.633.633,0,0,1,.013.275l-.027.1-.77,3.833-.076.176a.961.961,0,0,1-.647.453Zm-2.845-4.5-.464,2.35,2.642.45.463-2.351Z" transform="translate(235.652 357.094)" fill="#7c37fa"/>
        <path id="Path-5" data-name="Path" d="M3.128.465.036,7.77A.752.752,0,0,0,.4,8.643L.5,8.709a.655.655,0,0,0,.16.061.73.73,0,0,0,.188.02.83.83,0,0,0,.783-.536L4.657,1.108A.756.756,0,0,0,4.24.084.836.836,0,0,0,3.128.465Z" transform="translate(142.055 31.073)" fill="#0f0a39"/>
        <path id="Path-6" data-name="Path" d="M7.332.124.361,4.45A.777.777,0,0,0,.13,5.534a.775.775,0,0,0,.681.338.992.992,0,0,0,.17-.012l.1-.021a.631.631,0,0,0,.181-.083l.018-.016L8.236,1.424A.777.777,0,0,0,8.467.34.867.867,0,0,0,7.332.124Z" transform="translate(35.037 120.255)" fill="#0f0a39"/>
        <path id="Path_Copy_8" data-name="Path Copy 8" d="M7.332.124.361,4.45A.777.777,0,0,0,.13,5.534a.775.775,0,0,0,.681.338.992.992,0,0,0,.17-.012l.1-.021a.631.631,0,0,0,.181-.083l.018-.016L8.236,1.424A.777.777,0,0,0,8.467.34.867.867,0,0,0,7.332.124Z" transform="matrix(0.259, 0.966, -0.966, 0.259, 20.813, 2.575)" fill="#0f0a39"/>
        <path id="Path-7" data-name="Path" d="M5.836.234.233,6.02A.774.774,0,0,0,.248,7.141a.857.857,0,0,0,.574.223l.1-.007a.749.749,0,0,0,.516-.3l5.6-5.7A.775.775,0,0,0,7.029.234.877.877,0,0,0,5.836.234Z" transform="translate(112.617 298.317)" fill="#0f0a39"/>
        <path id="Path-8" data-name="Path" d="M8.583.025.57,2.634a.849.849,0,0,0-.544.985.838.838,0,0,0,.794.571H.907l.163-.026,8.015-2.6c.479-.223.735-.649.506-1.084A.9.9,0,0,0,8.583.025Z" transform="translate(364.403 38.269)" fill="#0f0a39"/>
        <path id="Path-9" data-name="Path" d="M.357.124A.776.776,0,0,0,.13,1.2L4.544,7.753A.779.779,0,0,0,5.23,8.1l.1-.007a.746.746,0,0,0,.1-.019l.049-.017h.078l.127-.081a.776.776,0,0,0,.227-1.081L1.492.34A.867.867,0,0,0,.357.124Z" transform="translate(101.915 88.288)" fill="#0f0a39"/>
        <path id="Path_Copy_2" data-name="Path Copy 2" d="M.357.124A.776.776,0,0,0,.13,1.2L4.544,7.753A.779.779,0,0,0,5.23,8.1l.1-.007a.746.746,0,0,0,.1-.019l.049-.017h.078l.127-.081a.776.776,0,0,0,.227-1.081L1.492.34A.867.867,0,0,0,.357.124Z" transform="translate(112.082 353.441)" fill="#0f0a39"/>
        <path id="Path-10" data-name="Path" d="M.051.532a.745.745,0,0,0,.4.959L7.892,5.009l.079.05a.687.687,0,0,0,.334.069.843.843,0,0,0,.661-.306L9.06,4.7A.749.749,0,0,0,8.7,3.637L1.209.092A.823.823,0,0,0,.1.431Z" transform="translate(163.998 211.099)" fill="#0f0a39"/>
        <path id="Path-11" data-name="Path" d="M.272.218A.773.773,0,0,0,.229,1.353L5.393,7.377a.916.916,0,0,0,.652.3.746.746,0,0,0,.268-.035.824.824,0,0,0,.349-1.324L1.5.295,1.464.259A.87.87,0,0,0,.272.218Z" transform="translate(246.938 317.096)" fill="#0f0a39"/>
        <path id="Path_Copy_4" data-name="Path Copy 4" d="M.272.218A.773.773,0,0,0,.229,1.353L5.393,7.377a.916.916,0,0,0,.652.3.746.746,0,0,0,.268-.035.824.824,0,0,0,.349-1.324L1.5.295,1.464.259A.87.87,0,0,0,.272.218Z" transform="translate(191.497 297.812)" fill="#0f0a39"/>
        <path id="Path-12" data-name="Path" d="M8.324.446,8.3.4A.817.817,0,0,0,7.133.137L.36,4.763a.706.706,0,0,0-.269.978l.057.094a.775.775,0,0,0,.681.338A.757.757,0,0,0,1.163,6.1l.108-.057L8.055,1.425A.707.707,0,0,0,8.324.446Z" transform="translate(207.058 167.797)" fill="#0f0a39"/>
        <path id="Path_Copy_3" data-name="Path Copy 3" d="M8.324.446,8.3.4A.817.817,0,0,0,7.133.137L.36,4.763a.706.706,0,0,0-.269.978l.057.094a.775.775,0,0,0,.681.338A.757.757,0,0,0,1.163,6.1l.108-.057L8.055,1.425A.707.707,0,0,0,8.324.446Z" transform="translate(313.315 360.636)" fill="#0f0a39"/>
        <path id="Path-13" data-name="Path" d="M.246.234a.778.778,0,0,0,0,1.136L6.325,6.741a.847.847,0,0,0,.561.211A.838.838,0,0,0,7.26,6.87l.112-.051.131-.09a.778.778,0,0,0,0-1.136L1.438.234A.877.877,0,0,0,.246.234Z" transform="translate(293.526 193.237)" fill="#0f0a39"/>
        <path id="Path_Copy_7" data-name="Path Copy 7" d="M.246.234a.778.778,0,0,0,0,1.136L6.325,6.741a.847.847,0,0,0,.561.211A.838.838,0,0,0,7.26,6.87l.112-.051.131-.09a.778.778,0,0,0,0-1.136L1.438.234A.877.877,0,0,0,.246.234Z" transform="translate(341.369 0) rotate(90)" fill="#0f0a39"/>
        <path id="Path_Copy_5" data-name="Path Copy 5" d="M.246.234a.778.778,0,0,0,0,1.136L6.325,6.741a.847.847,0,0,0,.561.211A.838.838,0,0,0,7.26,6.87l.112-.051.131-.09a.778.778,0,0,0,0-1.136L1.438.234A.877.877,0,0,0,.246.234Z" transform="translate(281.414 29.324)" fill="#0f0a39"/>
        <path id="Path-14" data-name="Path" d="M.22.258A.788.788,0,0,0,.263,1.393l6.5,4.982.091.056c.006,0,.077.042.108.057a.757.757,0,0,0,.335.077A.885.885,0,0,0,7.91,6.3a.788.788,0,0,0-.043-1.136L1.358.172A.872.872,0,0,0,.22.258Z" transform="translate(317.828 293.804)" fill="#0f0a39"/>
        <path id="Path-15" data-name="Path" d="M.611.025l-.1.036a.831.831,0,0,0-.481.961L2.682,8.359a.828.828,0,0,0,.782.531h.249l.107-.051A.831.831,0,0,0,4.3,7.879L1.646.542,1.62.483A.9.9,0,0,0,.611.025Z" transform="translate(361.76 182.642)" fill="#0f0a39"/>
        <ellipse id="Oval" cx="3.596" cy="3.257" rx="3.596" ry="3.257" transform="translate(173.961 366.22)" fill="#2de6ea"/>
        <ellipse id="Oval-2" data-name="Oval" cx="4.159" cy="3.793" rx="4.159" ry="3.793" transform="translate(315.445 66.301)" fill="#7c37fa"/>
        <ellipse id="Oval_Copy" data-name="Oval Copy" cx="4.159" cy="3.793" rx="4.159" ry="3.793" transform="translate(79.689 18.091)" fill="#ffcc0a"/>
        <path id="Shape-2" data-name="Shape" d="M3.3,6.045a3.463,3.463,0,0,1-2.216-.785A2.905,2.905,0,0,1,.023,3.314,2.641,2.641,0,0,1,.745,1.129,3.509,3.509,0,0,1,2.995.012C3.09,0,3.188,0,3.284,0A3.257,3.257,0,0,1,6.517,2.364l.035.18.021.156A2.639,2.639,0,0,1,5.85,4.885,3.474,3.474,0,0,1,3.834,5.97l-.14.02-.1.03-.1.017c-.041,0-.075.007-.119.008ZM3.117,1.591a1.616,1.616,0,0,0-1.13.582,1.255,1.255,0,0,0-.309.985A1.571,1.571,0,0,0,3.286,4.474a1.852,1.852,0,0,0,.192-.01,1.616,1.616,0,0,0,1.13-.582,1.187,1.187,0,0,0,.308-.715l.006-.139-.007-.147A1.534,1.534,0,0,0,3.445,1.6L3.3,1.593Z" transform="translate(19.095 215.417)" fill="#2de6ea"/>
        <path id="Shape_Copy_3" data-name="Shape Copy 3" d="M3.3,6.045a3.463,3.463,0,0,1-2.216-.785A2.905,2.905,0,0,1,.023,3.314,2.641,2.641,0,0,1,.745,1.129,3.509,3.509,0,0,1,2.995.012C3.09,0,3.188,0,3.284,0A3.257,3.257,0,0,1,6.517,2.364l.035.18.021.156A2.639,2.639,0,0,1,5.85,4.885,3.474,3.474,0,0,1,3.834,5.97l-.14.02-.1.03-.1.017c-.041,0-.075.007-.119.008ZM3.117,1.591a1.616,1.616,0,0,0-1.13.582,1.255,1.255,0,0,0-.309.985A1.571,1.571,0,0,0,3.286,4.474a1.852,1.852,0,0,0,.192-.01,1.616,1.616,0,0,0,1.13-.582,1.187,1.187,0,0,0,.308-.715l.006-.139-.007-.147A1.534,1.534,0,0,0,3.445,1.6L3.3,1.593Z" transform="translate(69.711 369.688)" fill="#2de6ea"/>
        <path id="Shape-3" data-name="Shape" d="M3.279,6.076A3.358,3.358,0,0,1,.972,5.193,2.936,2.936,0,0,1,0,3.039a2.843,2.843,0,0,1,.671-1.83l.154-.177L.979.877A3.422,3.422,0,0,1,3.3,0,3.461,3.461,0,0,1,5.471.747l.151.13.152.153A2.914,2.914,0,0,1,6.6,3.039a2.96,2.96,0,0,1-.986,2.168A3.487,3.487,0,0,1,3.279,6.076ZM3.3,1.6h0a1.862,1.862,0,0,0-1.064.332l-.119.093-.1.1a1.315,1.315,0,0,0-.343.763l-.007.145a1.41,1.41,0,0,0,.448,1.01,1.764,1.764,0,0,0,1.173.426,1.737,1.737,0,0,0,1.155-.417A1.354,1.354,0,0,0,4.9,3.039a1.411,1.411,0,0,0-.449-1.011A1.709,1.709,0,0,0,3.3,1.6Z" transform="translate(332.519 241.399)" fill="#2de6ea"/>
        <path id="Shape_Copy_2" data-name="Shape Copy 2" d="M3.279,6.076A3.358,3.358,0,0,1,.972,5.193,2.936,2.936,0,0,1,0,3.039a2.843,2.843,0,0,1,.671-1.83l.154-.177L.979.877A3.422,3.422,0,0,1,3.3,0,3.461,3.461,0,0,1,5.471.747l.151.13.152.153A2.914,2.914,0,0,1,6.6,3.039a2.96,2.96,0,0,1-.986,2.168A3.487,3.487,0,0,1,3.279,6.076ZM3.3,1.6h0a1.862,1.862,0,0,0-1.064.332l-.119.093-.1.1a1.315,1.315,0,0,0-.343.763l-.007.145a1.41,1.41,0,0,0,.448,1.01,1.764,1.764,0,0,0,1.173.426,1.737,1.737,0,0,0,1.155-.417A1.354,1.354,0,0,0,4.9,3.039a1.411,1.411,0,0,0-.449-1.011A1.709,1.709,0,0,0,3.3,1.6Z" transform="translate(285.667 337.819)" fill="#ffcc0a"/>
      </g>
    </g>
    <g id="general_1_" transform="translate(58.425 50.088)">
      <g id="general_2_">
        <g id="basket_1_" transform="translate(113.873 35.039)">
          <path id="Path-16" data-name="Path" d="M3.663,0,3.607,0,3.542.01a.828.828,0,0,0-.673.6L0,14.489a.892.892,0,0,0,.131.556.8.8,0,0,0,.712.39l.1-.005a.725.725,0,0,0,.678-.694l0-.052L2.875,8.7c.484-2.324,1-4.842,1.588-7.711L4.472.729A.777.777,0,0,0,3.663,0Z" transform="translate(27.383 43.427)" fill="#0f0a39"/>
          <path id="Path-17" data-name="Path" d="M4.755,0a.813.813,0,0,0-.809.811V.894L4.977,6.044.009,30.2,0,30.5a.777.777,0,0,0,.809.729l.121-.01a.828.828,0,0,0,.673-.6L3.129,23.3c.446-2.17.956-4.666,1.6-7.846l1.063-5.2L9.876,30.288,7.034,44.05a.892.892,0,0,0,.131.556.8.8,0,0,0,.712.39.968.968,0,0,0,.811-.461l.075-.172,1.29-6.18,1.572-7.676.009-.133L12.17,27.8l3.4-16.593,1.257-6.059a.8.8,0,0,0-.633-.933.843.843,0,0,0-1,.6L14.969,5.87,10.784,26.212,6.639,5.955l.009.01L5.555.636C5.564.321,5.189,0,4.755,0Z" transform="translate(30.28 13.866)" fill="#0f0a39"/>
          <path id="Path-18" data-name="Path" d="M.3.7A.285.285,0,0,1,0,.454V.33A.325.325,0,0,1,.3,0h0a.285.285,0,0,1,.3.247V.33A.322.322,0,0,1,.347.7Z" transform="translate(33.301 7.586)"/>
          <path id="Path-19" data-name="Path" d="M1.4,6.027h0a.285.285,0,0,1-.3-.247L.008.544A.322.322,0,0,1,.269.173.338.338,0,0,1,.659.42L1.4,4.09,2.176.255a.338.338,0,0,1,.39-.247.322.322,0,0,1,.26.371L1.7,5.78A.313.313,0,0,1,1.4,6.027Z" transform="translate(34.68 14.175)"/>
          <path id="Path-20" data-name="Path" d="M.315.67a.285.285,0,0,1-.3-.247V.382A.293.293,0,0,1,.228.011a.313.313,0,0,1,.39.206A.147.147,0,0,0,.661.34.267.267,0,0,1,.4.67Z" transform="translate(33.333 7.617)"/>
          <path id="Path-21" data-name="Path" d="M.355.915c-.173,0-.3-.082-.3-.247L.008.379A.322.322,0,0,1,.269.008a.338.338,0,0,1,.39.247L.7.544a.322.322,0,0,1-.26.371Z" transform="translate(44.523 13.639)"/>
          <path id="Path-22" data-name="Path" d="M.01,6.086,0,6.3,4.952,30.556l.005.079a.8.8,0,0,0,.8.557l.033.165.035-.172.1-.01a1.089,1.089,0,0,0,.484-.244l.092-.084.109-.1L11.625,6.313a.8.8,0,0,0-.634-.931l-.1-.018a.844.844,0,0,0-.9.616L5.8,26.287,4.552,20.154l-.124-.623L1.714,6.262,2.78.951A.8.8,0,0,0,2.146.023a.843.843,0,0,0-1,.6Z" transform="translate(35.267 13.775)" fill="#0f0a39"/>
          <path id="Path-23" data-name="Path" d="M.355.915c-.173,0-.3-.082-.3-.247L.008.379A.322.322,0,0,1,.269.008a.338.338,0,0,1,.39.247L.7.544a.322.322,0,0,1-.26.371Z" transform="translate(44.523 13.639)"/>
          <path id="Path-24" data-name="Path" d="M3.662.62.014,18.539,0,18.63a.829.829,0,0,0,.648.838l.122.014H.814a.876.876,0,0,0,.826-.576L5.3.953,5.312.861A.829.829,0,0,0,4.665.023.843.843,0,0,0,3.662.62Z" transform="translate(5.43 1.283)" fill="#0f0a39"/>
          <path id="Path-25" data-name="Path" d="M.652.023A.811.811,0,0,0,.005.878L.256,2.123l.171.863C.45,3.1.472,3.2.5,3.31l2.3,11.371,0,.028.037.118a.754.754,0,0,0,.652.485H3.5l.16.076.181-.043a.811.811,0,0,0,.647-.856L3.165,8.034,1.661.646,1.62.517,1.6.476A.844.844,0,0,0,.652.023Z" transform="translate(30.271 43.543)" fill="#0f0a39"/>
          <path id="Path-26" data-name="Path" d="M17.281.62l-.095.532-.345,1.6c-.162.775-.343,1.678-.607,3l-1.8,8.791L11.591.686,11.549.559a.854.854,0,0,0-.967-.495A.811.811,0,0,0,9.935.92L13.571,18.8,9.487,38.867,1.661.727,1.62.6A.854.854,0,0,0,.652.105a.8.8,0,0,0-.628.955L1.362,7.672l.462,2.345c.445,2.238.951,4.722,1.52,7.47l2.75,13.225,3.8,18.428a.728.728,0,0,0,.7.723l.109.006a.686.686,0,0,0,.11-.008l.049-.008a.38.38,0,0,0,.155-.06l.08-.05.093-.04a.789.789,0,0,0,.456-.786l0-.024-1.206-5.978L14.517,22.9l1.018,5.006q1.307,6.413,2.564,12.464l.607,2.967c-.009.316.366.637.8.637l.121-.01a.828.828,0,0,0,.673-.6l.015-.117v-.206L15.295,18.67,18.919.953l.014-.092a.829.829,0,0,0-.648-.838A.843.843,0,0,0,17.281.62Z" transform="translate(1.74 1.159)" fill="#0f0a39"/>
          <path id="Path-27" data-name="Path" d="M.312,1.245H.269A.322.322,0,0,1,.008.874L.138.255A.338.338,0,0,1,.529.008a.322.322,0,0,1,.26.371L.659,1A.328.328,0,0,1,.312,1.245Z" transform="translate(27.439 11.206)"/>
          <path id="Path-28" data-name="Path" d="M.312,1.41H.269a.322.322,0,0,1-.26-.371L.182.255A.338.338,0,0,1,.572.008a.322.322,0,0,1,.26.371l-.173.783A.375.375,0,0,1,.312,1.41Z" transform="translate(28.219 7.248)"/>
          <path id="Path-29" data-name="Path" d="M4.607,0,4.56.013l.065,0a.741.741,0,0,0-.766.77V.82L4.934,6.137.009,30.248,0,30.463l.05.327a.762.762,0,0,0,.8.65L1,31.426a1.042,1.042,0,0,0,.666-.448l.076-.175L4.907,15.334c.641-3.153,1.215-6,1.776-8.818l0-.2a.537.537,0,0,0-.008-.072l-.015-.06L7.679,1.242A.8.8,0,0,0,7.045.311l-.1-.018a.844.844,0,0,0-.9.616L5.8,2.053,5.506.62A.844.844,0,0,0,4.607,0Z" transform="translate(20.394 13.94)" fill="#0f0a39"/>
          <path id="Path-30" data-name="Path" d="M.529,1.657c-.173,0-.3-.082-.3-.247L.008.379A.322.322,0,0,1,.269.008a.338.338,0,0,1,.39.247L.876,1.286a.322.322,0,0,1-.26.371Z" transform="translate(24.057 11.124)"/>
          <path id="Path-31" data-name="Path" d="M.564,1.9c-.173,0-.3-.082-.3-.247L0,.371A.294.294,0,0,1,.087.124.315.315,0,0,1,.347,0h0a.285.285,0,0,1,.3.247l.26,1.278A.322.322,0,0,1,.65,1.9Z" transform="translate(23.241 7.091)"/>
          <path id="Path-32" data-name="Path" d="M.312,1.245H.269A.322.322,0,0,1,.008.874L.138.255A.338.338,0,0,1,.529.008a.322.322,0,0,1,.26.371L.659,1A.328.328,0,0,1,.312,1.245Z" transform="translate(27.482 11.206)"/>
          <path id="Path-33" data-name="Path" d="M.312,1.41H.269a.322.322,0,0,1-.26-.371L.182.255A.338.338,0,0,1,.572.008a.322.322,0,0,1,.26.371l-.173.783A.5.5,0,0,1,.312,1.41Z" transform="translate(28.263 7.248)"/>
          <path id="Path-34" data-name="Path" d="M.009,5.968,0,6.179,4.866,30.225a.723.723,0,0,0,.8.638h.087l.122-.014.1-.029a.8.8,0,0,0,.549-.826L1.67,6.1,2.693.95A.8.8,0,0,0,2.059.023a.843.843,0,0,0-1,.6Z" transform="translate(25.381 14.146)" fill="#0f0a39"/>
          <path id="Path-35" data-name="Path" d="M.789,3.141c-.173,0-.3-.082-.3-.247L.4,2.358h0L.008.379A.322.322,0,0,1,.269.008a.338.338,0,0,1,.39.247l.52,2.515v.041a.255.255,0,0,1-.26.289C.832,3.141.832,3.141.789,3.141Z" transform="translate(22.192 1.765)"/>
          <path id="Path-36" data-name="Path" d="M.652.023A.8.8,0,0,0,.024.978l2.032,9.993c-.009.316.366.637.8.637l.116-.007a.8.8,0,0,0,.736-.8v-.041L1.655.62A.843.843,0,0,0,.652.023Z" transform="translate(28.19 33.4)" fill="#0f0a39"/>
          <path id="Path-37" data-name="Path" d="M12.661,16.12C10.667,18.842,2.428,30.056.347,32.9L0,0C.564.742,12.314,15.667,12.661,16.12Z" transform="translate(133.897 170.522)" fill="#0f0a39"/>
          <path id="Path-38" data-name="Path" d="M32.867,4H0V0H24.759a2.432,2.432,0,0,0-1.648.742,1.176,1.176,0,0,0-.347.948c.217.866,2.081,1.154,3.512,1.361q1.691.247,3.252.495h0c1.171.124,2.255.289,3.339.454Z" transform="translate(0 0.082)" fill="#ffcc0a"/>
          <path id="Path-39" data-name="Path" d="M14.7,2.1C9.062,1.443,5.03.866,1.864.289,1.388.206.737.082,0,0H10.32A34.921,34.921,0,0,0,14.7,2.1Z" transform="translate(26.58)" fill="#ffcc0a"/>
          <path id="Path-40" data-name="Path" d="M7.588,0V4H7.111c-.694-.371-1.344-.742-1.995-1.113C3.209,1.814,1.518.866,0,0Z" transform="translate(44.401 0.041)" fill="#ffcc0a"/>
        </g>
        <g id="ball_1_" transform="translate(110.112 75.374)">
          <path id="Path-41" data-name="Path" d="M1.593,21.719c1.257-2.432,2.862-5.4,4.076-7.38a6.864,6.864,0,0,1,.564-.825,4.253,4.253,0,0,1,.867-.866h0c.043-.041.043-.041.087-.041l.26-.124h0a1.631,1.631,0,0,1,.477-.082,1.449,1.449,0,0,1,.78.33,2.285,2.285,0,0,1,.3.371c0,.041.043.041.043.082a1.523,1.523,0,0,1-.043,1.154,2.153,2.153,0,0,1-.347.618A32.627,32.627,0,0,0,6.015,19.7c.087.082,1.908-1.9,4.163-4,.65-.618,1.344-1.237,1.995-1.855a2.445,2.445,0,0,1,.347-.289,22.835,22.835,0,0,1,3.209-2.35,8.411,8.411,0,0,1,.911-.412,1.064,1.064,0,0,1,.347-.082,1.254,1.254,0,0,1,.78,0c.13.041.694.247.824.7.173.577-.434,1.2-.867,1.567l-.217.206c-.434.371-4.076,3.752-5.247,4.906.737-.412,1.431-.825,2.081-1.2l1.041-.618c.737-.412,1.344-.825,1.951-1.2.173-.082.3-.206.477-.289a5.68,5.68,0,0,1,.65-.412c.043-.041.087-.041.087-.082.477-.289.954-.618,1.431-.866a2.378,2.378,0,0,1,2.081-.371,1.318,1.318,0,0,1,.694,1.072c0,.7-.737,1.237-1.3,1.608h0l-.434.247c-.434.247-.867.536-1.388.866l-.78.495c-1.214.825-2.645,1.773-4.336,2.968a29.481,29.481,0,0,0,3.772-1.484c.26-.124.477-.247.694-.33l1.171-.618a20.213,20.213,0,0,1,2.472-1.319h0c.043,0,.087-.041.173-.082a1.224,1.224,0,0,1,.65-.124.912.912,0,0,1,.694.371,1.367,1.367,0,0,1,.26.495c.087.742-.911,1.443-1.778,1.938-.043.041-.087.041-.13.082-.39.247-.824.495-1.3.783-1.171.66-2.645,1.484-4.423,2.35a10.314,10.314,0,0,0,3.339-.825c.564-.247,1.041-.495,1.474-.7a6.843,6.843,0,0,1,1.3-.577,1.028,1.028,0,0,1,.78.041,1.07,1.07,0,0,1,.694.783c.043.412-.3.783-.694,1.072a9.429,9.429,0,0,1-.954.618c-.043.041-.087.041-.13.082-1.778.948-5.2,2.474-8.065,3.711h0c-.26.124-.52.206-.78.33-.607.247-1.214.536-1.734.742-1.084.454-1.864.783-2.168.907l-.217.206a.894.894,0,0,1-.13.206c.867.371,1.561.577,1.908.7.39.124.737.206.737.206a2.874,2.874,0,0,0,.3.082,18.368,18.368,0,0,0,2.081.371h0A18.477,18.477,0,0,0,25.224,28.4c.3-.165.65-.33.954-.536l.78-.495h0A15.151,15.151,0,0,0,32.986,19.2c.043-.082.043-.165.087-.247a14,14,0,0,0-1.3-10.6,4.072,4.072,0,0,0-.347-.577A16.49,16.49,0,0,0,21.148.528c-.173-.041-.39-.082-.564-.124s-.39-.082-.564-.124h0A18.229,18.229,0,0,0,11.7.734c-.39.124-.737.247-1.127.371a11.527,11.527,0,0,0-1.648.7A15.98,15.98,0,0,0,1.549,8.9a12.2,12.2,0,0,0-.867,2.185c-.043.082-.043.165-.087.247a13.661,13.661,0,0,0,1,10.39" transform="translate(0 0.407)" fill="#7c37fa"/>
          <path id="Path-42" data-name="Path" d="M.809,0A.813.813,0,0,0,0,.811a21.6,21.6,0,0,1,.044,3.72l.011.151A.856.856,0,0,0,.9,5.333l.11-.008.1-.021a.717.717,0,0,0,.612-.668l-.008-.067,0,.066a23.646,23.646,0,0,0,0-3.374L1.659.724A.811.811,0,0,0,.809,0Z" transform="translate(13.618 26.222)" fill="#0f0a39"/>
          <path id="Path-43" data-name="Path" d="M1.725.34,1.208.092A.823.823,0,0,0,.1.431.748.748,0,0,0,.453,1.489,23.232,23.232,0,0,1,5.93,5.041a.829.829,0,0,0,.452.2l.133.007a.822.822,0,0,0,.144-.016l.083-.018c.016,0,.023-.005.02-.006h.2l.148-.141a.778.778,0,0,0,0-1.135A26,26,0,0,0,1.725.34Z" transform="translate(0.74 8.535)" fill="#0f0a39"/>
          <path id="Path-44" data-name="Path" d="M.272.217A.772.772,0,0,0,.229,1.352l.593.72.4.47.056.078-.012-.033a.8.8,0,0,0,.712.39.745.745,0,0,0,.173-.022l.063-.019h.134l.127-.081A.776.776,0,0,0,2.7,1.775l0-.01L2.6,1.62C2.266,1.176,1.962.807,1.663.474l-.2-.216A.87.87,0,0,0,.272.217Z" transform="translate(8.204 13.941)" fill="#0f0a39"/>
          <path id="Path-45" data-name="Path" d="M.862,0A.819.819,0,0,0,.009.77,22.065,22.065,0,0,0,5.148,15.7l.35.413a23.96,23.96,0,0,0,6.372,5.167l.46.252-.075-.059a.648.648,0,0,0,.361.17.993.993,0,0,0,.17.012.839.839,0,0,0,.724-.379.751.751,0,0,0-.229-1.057l-.1-.053A22.908,22.908,0,0,1,6.46,14.735,20.616,20.616,0,0,1,1.671.825.816.816,0,0,0,.862,0Z" transform="translate(19.766)" fill="#0f0a39"/>
          <path id="Path-46" data-name="Path" d="M.489.084a.763.763,0,0,0-.4,1.059L5.026,11.191l.06.1a.891.891,0,0,0,.585.339H5.7l.117.111.326-.155a.763.763,0,0,0,.4-1.059L1.6.464A.836.836,0,0,0,.489.084Z" transform="translate(10.851 0.379)" fill="#0f0a39"/>
          <path id="Path-47" data-name="Path" d="M.858,1.64a.369.369,0,0,1-.3-.165C.381,1.146.207.774.034.445A.3.3,0,0,1,.207.032.323.323,0,0,1,.641.2c.173.33.347.7.52,1.031a.3.3,0,0,1-.173.412Z" transform="translate(19.25 16.982)"/>
          <path id="Path-48" data-name="Path" d="M.489.084a.763.763,0,0,0-.4,1.059L2.771,6.654l.06.1a.891.891,0,0,0,.586.34l.031,0,.115.111.326-.155a.763.763,0,0,0,.4-1.059L1.6.464A.836.836,0,0,0,.489.084Z" transform="translate(21.735 22.519)" fill="#0f0a39"/>
          <path id="Path-49" data-name="Path" d="M.728,1.434a.444.444,0,0,1-.3-.165C.294.981.164.733.034.445A.3.3,0,0,1,.207.032.323.323,0,0,1,.641.2c.13.289.26.536.39.825a.3.3,0,0,1-.173.412Z" transform="translate(20.854 20.156)"/>
          <path id="Path-50" data-name="Path" d="M1.031,2.053a.369.369,0,0,1-.3-.165L.511,1.393C.338,1.063.207.774.034.445A.3.3,0,0,1,.207.032.323.323,0,0,1,.641.2a9.7,9.7,0,0,0,.477.948l.217.495a.3.3,0,0,1-.173.412Z" transform="translate(17.342 13.065)"/>
          <path id="Path-51" data-name="Path" d="M10.2.085.442,4.786A.791.791,0,0,0,.088,5.844a.864.864,0,0,0,.756.431.73.73,0,0,0,.187-.019l.082-.025a.648.648,0,0,0,.078-.036l.046-.03,9.721-4.683A.791.791,0,0,0,11.312.424L11.28.372A.862.862,0,0,0,10.2.085Z" transform="translate(21.172 8.005)" fill="#0f0a39"/>
        </g>
        <g id="man_2_1_" transform="translate(133.622)">
          <g id="legs_3_" transform="translate(56.305 102.543)">
            <path id="Path-52" data-name="Path" d="M34.587,0l-.062,0-.063.007a.832.832,0,0,0-.684.8l1.084,102.252.384,35.345-22.139,2.054-2.168-24.581L1.66,11.655a.812.812,0,0,0-.851-.729A.813.813,0,0,0,0,11.737L9.281,116l2.255,25.4a.672.672,0,0,0,.316.544l.2.109a.757.757,0,0,0,.334.076L36.154,139.9a.86.86,0,0,0,.76-.809L35.439.765,35.424.653A.859.859,0,0,0,34.587,0Z" transform="translate(22.129)" fill="#0f0a39"/>
            <path id="Path-53" data-name="Path" d="M32.26,104.185c-4.64-5.772-10.493-13.234-17.171-21.975C3.989,67.7,0,61.843,0,53.68,0,51,.824,48.155,2.428,42.424c3.3-11.585,6.851-17.687,12.661-30.757C16.26,8.988,17.821,5.4,19.556,1.113,20.683.742,21.854.371,22.981,0Z" transform="translate(0 11.737)" fill="#0f0a39"/>
            <path id="Path-54" data-name="Path" d="M33.734,0C22.547,4.329,11.36,8.617.173,12.946L0,10.926Q16.846,5.483,33.734,0Z" transform="translate(23.024 0.77)" fill="#0f0a39"/>
          </g>
          <g id="tshirt_3_" transform="translate(24.609 27.949)">
            <path id="Path-55" data-name="Path" d="M52.9,47.453c-1.518,3.175-5.29,10.637-9.843,12.74-.347.165-.65.289-.65.289a18.339,18.339,0,0,1-9.626.866C22.331,59.781,16.26,50.3,9.149,39.249A112.777,112.777,0,0,1,1.864,25.973v-.041c-.26-.536-.52-1.113-.78-1.69h0C.737,23.417.347,22.592,0,21.726c.173-.124.3-.247.477-.371.13-.124.3-.206.434-.33,3.339-2.556,6.721-5.154,10.06-7.751.52-.371,1.041-.783,1.518-1.154,6.851,9.936,13.745,19.914,20.6,29.85,3.079-7.71,8.542-19.749,17-30.633,3.209-4.123,6.894-8.122,12.965-10.1,1.127-.371,5.94-1.9,10.32-.907,8.065,1.814,12.054,11.5,17.257,28.53,3.3,10.8,7.2,25.026,10.8,42.136C67.772,82.044,55.675,86,54.677,86.332c-1.691.536-3.425,1.113-3.425,1.113h-.043a1.146,1.146,0,0,1-.217.082C51.686,74.128,52.293,60.77,52.9,47.453Z" transform="translate(0 0)" fill="#2de6ea"/>
            <path id="Path-56" data-name="Path" d="M.1,14.2l-.045.1a.736.736,0,0,0,.3.9l.028.015L.322,15.17a.631.631,0,0,0,.487.182.772.772,0,0,0,.783-.494L8.72,1.148A.748.748,0,0,0,8.363.092.823.823,0,0,0,7.252.431Z" transform="translate(51.31 34.438)" fill="#0f0a39"/>
          </g>
          <g id="shoes_3_" transform="translate(65.455 218.466)">
            <path id="Path-57" data-name="Path" d="M49.016.007a.82.82,0,0,0-.741.8v14.1l-12.57.627-2.711.142-.713.033L1.693,17.249l-.006-.264A7.68,7.68,0,0,1,2,14.676,6.178,6.178,0,0,1,2.728,13.1,7.247,7.247,0,0,1,6.57,10.248l.559-.222c.7-.27,1.365-.5,2.655-.919l2.99-.951,2-.622c3.006-.953,5.853-1.931,10.9-3.716a.812.812,0,0,0,.488-.981l-.038-.1a.87.87,0,0,0-1.008-.416q-4.5,1.658-9.053,3.135l-2.128.681-2.212.688L9.4,7.569c-1.447.469-2.2.733-3.039,1.06-2.461.961-3.879,1.919-4.919,3.43l-.14.21a7.677,7.677,0,0,0-.919,1.963,9.758,9.758,0,0,0-.356,3.546l.032.393a.773.773,0,0,0,.807.726l31.551-1.65,2.33-.116,2.892-.15.5-.022,11.06-.536a.776.776,0,0,0,.783-.769V.811A.8.8,0,0,0,49.127,0Z" transform="translate(0 22.318)" fill="#0f0a39"/>
            <path id="Path-58" data-name="Path" d="M.173,29.025V23.171L.13,20,0,9.359,9.626,0c3.556,3.711,7.154,7.462,10.71,11.173C13.659,17.151,6.894,23.088.173,29.025Z" transform="translate(48.91)" fill="#0f0a39"/>
            <path id="Path-59" data-name="Path" d="M48.23,0V4.247c-3.6.165-7.2.371-10.8.536-1.995.082-3.989.206-5.984.289C21,5.607,10.506,6.1.057,6.638A9.139,9.139,0,0,1,.36,3.01C10.853,2.309,35.005.825,48.23,0Z" transform="translate(0.853 33.766)" fill="#0f0a39"/>
          </g>
          <g id="head_3_" transform="translate(70.232)">
            <path id="Path-60" data-name="Path" d="M3.964,0A4.972,4.972,0,0,0,.193,1.7.779.779,0,0,0,.268,2.8.888.888,0,0,0,1.46,2.76a3.218,3.218,0,0,1,2.5-1.137A2.947,2.947,0,0,1,7.1,4.4,3,3,0,0,1,3.964,7.174a.8.8,0,0,0-.853.811.827.827,0,0,0,.853.811,4.649,4.649,0,0,0,4.8-4.431A4.61,4.61,0,0,0,3.964,0Z" transform="translate(14.629 11.015)" fill="#0f0a39"/>
            <path id="hair_3_" d="M0,3.5A7.2,7.2,0,0,0,1.431,7.044a9.266,9.266,0,0,0,6.2,3.133c1.041,2.268,2.125,4.535,3.165,6.8.52-.247,1.084-.536,1.6-.783a3.338,3.338,0,0,1,.65-3.092,3.743,3.743,0,0,1,1.864-1.072,4.246,4.246,0,0,1,3.425.742A3.418,3.418,0,0,1,19.6,15.084a3.3,3.3,0,0,1-.737,2.6,3.553,3.553,0,0,1-1.518,1.031c.564,1.567,1.127,3.092,1.691,4.659,1.084-.33,2.168-.66,3.209-1.031l-.78-4.205A14.086,14.086,0,0,0,23.718,12.9c.607-3.216.13-7.174-1.864-9.524C18.428-.748,8.889-1.531,0,3.5Z" transform="translate(2.854)" fill="#0f0a39"/>
            <g id="face_3_" transform="translate(0 5.869)">
              <path id="Path-61" data-name="Path" d="M.489.084a.763.763,0,0,0-.4,1.059L2.5,6.959a.821.821,0,0,0,.774.511l.09,0a.591.591,0,0,0,.32-.114l.012-.011-.066.037a.763.763,0,0,0,.4-1.059L1.618.5,1.6.464A.836.836,0,0,0,.489.084Z" transform="translate(23.993 15.585)" fill="#0f0a39"/>
              <path id="Path-62" data-name="Path" d="M3.364.257A17.717,17.717,0,0,0,1.7,2.745l-.214.4q-.1.191-.179.362L1.17,3.8A15.624,15.624,0,0,0,1.35,16.087a9.907,9.907,0,0,0,5.4,5.328,8.83,8.83,0,0,0,3.6.484l.433-.035q.429-.041.841-.107L12,21.69l.082.2.016.077,1.214,3.011.043.1a.783.783,0,0,0,.3.3l.013.007v.489l.731-.348a.8.8,0,0,0,.438-.96l-.669-1.664-.547-1.4-.016-.084-.347-.866-.061-.1a.832.832,0,0,0-.812-.417l-.029,0h-.091l-.151.022a8.493,8.493,0,0,1-1.921.309,7.209,7.209,0,0,1-2.916-.384A8.221,8.221,0,0,1,2.84,15.494,14.414,14.414,0,0,1,2.569,4.758l.145-.346a9.516,9.516,0,0,1,.458-.919A15.6,15.6,0,0,1,4.644,1.3.745.745,0,0,0,4.5.171.872.872,0,0,0,3.364.257Z" transform="translate(0 0)" fill="#0f0a39"/>
              <path id="Path-63" data-name="Path" d="M4.466,0A6.767,6.767,0,0,1,3.6,2.35,7.951,7.951,0,0,1,.954,5.071C.867,4.783.737,4.494.607,4.164A4.769,4.769,0,0,0,0,3.133a6.6,6.6,0,0,0,1.648-.66A7.091,7.091,0,0,0,4.466,0Z" transform="translate(12.263 17.461)" fill="#0f0a39"/>
            </g>
          </g>
          <g id="hand_4_" transform="translate(0 30.317)">
            <path id="Path-64" data-name="Path" d="M1.066.447A2.323,2.323,0,0,0,.028,1.914c-.374,2.174,3.061,4.169,7.6,5.814l.089.036A.819.819,0,0,0,8.7,7.328l.016-.048L8.7,7.329a.761.761,0,0,0-.5-1.1C4.475,4.86,1.538,3.021,1.676,2.155a.676.676,0,0,1,.3-.414,2.681,2.681,0,0,1,2.129.181,13.032,13.032,0,0,1,1.323.583l.229.116.785.42.293.16L13.9,7.222c1.645.927,3.383,1.91,5.182,2.93L21.4,11.468l-.071-.056a.648.648,0,0,0,.361.17.993.993,0,0,0,.17.012.8.8,0,0,0,.712-.39.746.746,0,0,0-.356-1.059l-4-2.282c-1.548-.876-3.363-1.895-6.3-3.54L7.557,1.881C4.709.188,2.607-.543,1.066.447Z" transform="translate(13.547)" fill="#0f0a39"/>
            <path id="Path-65" data-name="Path" d="M9.72,16.522h0L9.533,16.5a5.023,5.023,0,0,0-1.04-.058H7.369a10.04,10.04,0,0,1-2.285-.307A2.415,2.415,0,0,1,3.36,14.874a1.792,1.792,0,0,1,.127-1.546,1.926,1.926,0,0,1,.345-.422l.013-.014-.105-.01a2.959,2.959,0,0,1-2.31-1.105l-.08-.138a1.811,1.811,0,0,1-.1-1.55A2.284,2.284,0,0,1,2.737,8.865l.07-.023L2.613,8.82a3.157,3.157,0,0,1-2.3-1.071L.205,7.58A1.9,1.9,0,0,1,.073,6.187L.118,6.05c.337-.8,1.254-1.3,2.8-1.531l.161-.027a13.546,13.546,0,0,1,1.384-.133l.107-.006-.517-.107C4,4.232,3.949,4.22,3.9,4.207l-.291-.086A2.044,2.044,0,0,1,2.092,2.841a2.3,2.3,0,0,1-.005-.913A2.163,2.163,0,0,1,2.571.9L2.724.75A2.654,2.654,0,0,1,3.176.432,3.607,3.607,0,0,1,4.413.022,3.054,3.054,0,0,1,4.831,0a124.326,124.326,0,0,1,12.4,1.573l4.253.677.038.007a.871.871,0,0,1,.545.393.727.727,0,0,1,.083.562.853.853,0,0,1-.8.626.726.726,0,0,1-.169-.02l-3.612-.577c-6.408-1-11.266-1.621-12.678-1.621a2.243,2.243,0,0,0-.283.014,2,2,0,0,0-.689.214l-.02.011-.139.135a.077.077,0,0,1-.007.026c-.006.018-.016.045-.026.078L3.7,2.215l-.013.068a.556.556,0,0,0,0,.186,1.089,1.089,0,0,0,.422.217l.121.038c.057.016.1.029.151.041l.268.058.571.109c3.157.6,5.549.969,6.171,1.035l.147.011,1.942.229,1.239.153a.838.838,0,0,1,.687.8.811.811,0,0,1-.809.77H12.048c-.653,0-1.131.007-1.6.016l-.929.023-.38,0H9.111l-3.3.04a21.246,21.246,0,0,0-2.319.162l-.226.039c-.973.142-1.487.376-1.565.544l-.005.054a.55.55,0,0,0,.026.132l.023.075.016.022a2.73,2.73,0,0,0,1.687.4l.219,0h.52c1.447,0,3.008.055,4.64.165l.078,0,2.832.18c.755.051,1.414.1,2.075.15l.479.04a.811.811,0,0,1,.809.769.838.838,0,0,1-.687.8l-.113.014-.169.008-.319.031c-.437.035-1.107.085-2.106.158L8.7,9.967H8.677L7.4,10.031c-.141.007-.272.012-.4.015l-.192,0a20,20,0,0,0-2.75.241l-.2.035c-.636.124-1.069.313-1.159.5l0,.014a.4.4,0,0,0,.023.178l.023.07.008.013c.108.128.445.351,1.489.406l.209.008H5.3c.218,0,.4,0,.644.011l1.973.071h.071c.908.046,1.939.108,3.151.187l2.777.189a.812.812,0,0,1,.707.764.8.8,0,0,1-.773.81l-.5.032c-2.3.145-4.106.216-5.516.216H6.869a9.354,9.354,0,0,0-1.026.05,3.694,3.694,0,0,0-.833.169.72.72,0,0,0-.3.247.222.222,0,0,0,0,.218c.018.053.232.176.635.273a6.526,6.526,0,0,0,1.878.222h.109c.254.011.523.016.8.016.526,0,1.058-.02,1.537-.058l4.444-.234L15,14.654l2.2-.125h.017c2.663-.131,4.706-.276,6.625-.472l.989-.106h.13A.792.792,0,1,1,25,15.533l-.078,0c-2.817.277-5.331.467-7.683.581h-.014l-2.164.123c-.616.039-1.209.074-1.813.107ZM8.053,12.569l0,.268.753-.009c.6-.012,1.251-.034,1.991-.068l.26-.013-1.652-.1Zm1.993-3.929v.266l1.944-.14-1.944-.125ZM9.822,4.717,9.8,5l.794-.017,1.11-.013-.231-.029c-.094,0-.358-.03-.743-.085Z" transform="translate(0 4.059)" fill="#0f0a39"/>
            <path id="Path-66" data-name="Path" d="M12.1,0C8.065,2.762,4.033,5.525,0,8.246.824,8.2,1.6,8.2,2.428,8.163c.477-.371,2.3-1.732,2.775-2.1C7.675,4.164,10.19,2.226,12.661.33A4,4,0,0,1,12.1,0Z" transform="translate(22.961 10.576)" fill="#0f0a39"/>
          </g>
        </g>
        <g id="man_1_1_" transform="translate(0 74.079)">
          <path id="tshirt_2_" d="M83.6,6.922c-.564,8.04-3.469,43.744-16.173,45.6-2.688.412-7.328-.536-14.266-8.947-.65,3.5-5.16,22.47-6.808,27.747-7.762-1.154-16.087-2.639-24.889-4.659C13.789,64.931,6.634,62.993,0,60.973,4.943,48.48,18.211,17.641,38.157,3.912,41.886,1.356,45.789-.582,49.778.16c12.141,2.35,14.309,27.747,14.4,29.025,2.949-8.452,5.94-16.863,8.889-25.314C76.574,4.943,80.087,5.932,83.6,6.922Z" transform="translate(36.345 23.344)" fill="#0f0a39"/>
          <path id="Shape-4" data-name="Shape" d="M11.118,19.449h-.086l-.141-.019L.529,16.553.424,16.5a.7.7,0,0,1-.338-.328.708.708,0,0,1,0-.679l.784-1.52,1.248-2.469.739-1.488,1-1.957c2.7-5.243,3.525-6.233,5.165-6.233h.1a2.158,2.158,0,0,1,1.714.78c.483.65.449,1.246-.139,2.45l-.127.251.181-.172a49.4,49.4,0,0,1,3.775-3.314l.3-.23.273-.2A5.653,5.653,0,0,1,18.338,0a2.885,2.885,0,0,1,.632.07l.19.05.162.052a1.725,1.725,0,0,1,1.018.871,1.363,1.363,0,0,1,.127.571,2.149,2.149,0,0,1-.545,1.323l-.212.255c-.046.054-.089.1-.167.183l-.345.359.112-.06L19.8,3.39a6.681,6.681,0,0,1,3.025-1.133,2.032,2.032,0,0,1,.838.175l.124.06.123.068A1.847,1.847,0,0,1,24.8,3.9l.005.111a1.891,1.891,0,0,1-.5,1.475l-.127.139-.092.09.022,0a2.5,2.5,0,0,1,.524-.059,1.95,1.95,0,0,1,.688.122l.16.067.128.064A1.9,1.9,0,0,1,26.5,7.321a1.733,1.733,0,0,1-.475,1.243,4.475,4.475,0,0,1-.991.833l-.208.134.013,0a1.665,1.665,0,0,1,.222.059l.112.043.113.051a1.667,1.667,0,0,1,1.075,1.238,1.329,1.329,0,0,1-.162.917l-.076.126c-.56.877-1.768,1.479-6.286,3.476l-.964.435c-.674.3-1.385.615-2.114.93l-.566.244-2.1.972c-.776.362-1.349.636-1.859.888l-.661.333-.031.037a.607.607,0,0,1-.232.137l-.09.022ZM9.04,3.328c-.785,0-1.585,1.191-4.076,6.071l-.629,1.24L3.6,12.119l-.632,1.288c-.137.274-.27.541-.4.8L2,15.324l9.024,2.467,1.29-.619,3.226-1.525.987-.45c.98-.441,1.875-.832,2.661-1.16l1.21-.543c2.841-1.284,4.39-2.074,4.362-2.225h0a.175.175,0,0,1-.057-.036.417.417,0,0,0-.042-.031.247.247,0,0,0-.1-.017,3.62,3.62,0,0,0-1.233.494,16.6,16.6,0,0,1-1.76.772,12.446,12.446,0,0,1-3.208.688.869.869,0,0,1-.777-.424l-.73.154.655-.356,0-.01a.81.81,0,0,1,.386-.84l1.466-.806c.394-.218.784-.437,1.267-.708l1.193-.677.1-.074.862-.488c1.437-.827,1.982-1.222,2.009-1.46V7.423a.206.206,0,0,0-.063-.126.174.174,0,0,0-.085-.016,3.2,3.2,0,0,0-1.153.42l-.327.175-.652.377-.3.16a35.54,35.54,0,0,1-6.17,2.765.893.893,0,0,1-.879-.206l-1.407.6,1.232-.868a.822.822,0,0,1,.273-.9c1.333-1.028,2.719-1.992,4.24-2.948l.757-.469.557-.326.421-.257c1.438-.889,1.966-1.333,1.948-1.638a.566.566,0,0,0-.065-.188l-.047-.07a.384.384,0,0,0-.2-.044,7.653,7.653,0,0,0-2.657,1.16c-1.863,1.071-3.914,2.294-6.269,3.74a.822.822,0,0,1-.441.124.854.854,0,0,1-.687-.331l-.536.31.466-.425a.777.777,0,0,1,.178-.921l.715-.659c1.368-1.266,2.887-2.72,3.965-3.794l.637-.645c.063-.069.2-.229.284-.322l.033-.041a2.65,2.65,0,0,0,.209-.283l.066-.119.012-.027-.068-.011-.065-.013a1.033,1.033,0,0,0-.3-.042,3.991,3.991,0,0,0-2.082.934l-.19.144a70.221,70.221,0,0,0-8.169,7.6.768.768,0,0,1-.644.315.929.929,0,0,1-.48-.133l-.593.6.418-.746a.816.816,0,0,1-.144-.839l.467-.94C7.469,7.586,7.893,6.766,8.3,6l.207-.382.164-.272.3-.553c.432-.828.59-1.245.513-1.349a.9.9,0,0,0-.419-.116Z" transform="translate(108.825 11.628)" fill="#0f0a39"/>
          <g id="legs_2_" transform="translate(1.679 84.462)">
            <path id="Shape-5" data-name="Shape" d="M.926,0A.834.834,0,0,0,.081.67L.074.77A24.28,24.28,0,0,0,.208,5.819C1.026,11.5,3.376,15.3,7.783,20.213l1.544,1.705c1.519,1.67,2.972,3.245,4.448,4.817l1.452,1.5,2.106,2.209,1.02,1.062c6.505,6.755,13.889,14.072,21.474,21.279L40.9,53.8l5.489,53.3a.773.773,0,0,0,.807.723l3.84-.016c1.588-.013,3.467-.034,6.139-.067l10.012-.041a.783.783,0,0,0,.807-.77c.329-15.56.287-31.738-.373-45l-.062-1.2a43.152,43.152,0,0,0-1.809-11.506l-.163-.524c-1.261-4.014-3.369-7.977-10.373-18.872L53.69,27.507c-1.944-2.958-4.066-6.131-6.55-9.8-2-2.817-3.937-5.644-5.762-8.445A.858.858,0,0,0,40.288,9a.778.778,0,0,0-.313,1.059l.85,1.282c1.81,2.722,3.427,5.084,4.951,7.224l1.518,2.256c2.043,3.051,4.173,6.284,6.492,9.849l1.188,1.854c5.785,9.068,7.749,12.831,8.922,16.414l.07.215a40.236,40.236,0,0,1,1.9,11.07l.091,1.748.113,2.411c.5,11.392.56,24.7.34,37.991l-.07,3.754-9.176.04-3.8.014-5.074.026h-.376L42.492,53.331a.743.743,0,0,0-.233-.5c-8.058-7.623-16.243-15.744-23.7-23.485l-.844-.864c-.71-.732-1.44-1.5-2.228-2.332L15,25.64c-1.963-2.09-3.886-4.187-5.977-6.507C4.953,14.575,2.747,11.07,1.933,6.046l-.072-.476A19.412,19.412,0,0,1,1.734.848.82.82,0,0,0,.926,0Z" transform="translate(37.122 0.073)" fill="#0f0a39"/>
            <path id="Path-67" data-name="Path" d="M36.777.562.067,94.265a.681.681,0,0,0,.022.631.706.706,0,0,0,.338.328l.075.037L9.939,97.9l9.366,2.6.141.019h.087a.843.843,0,0,0,.661-.306l.1-.131L55.717,30.367a.747.747,0,0,0-.359-1.053l-.106-.043a.813.813,0,0,0-1.006.382l-35.2,69.111-8.7-2.4L1.9,94.032,31.584,18.369,38.348,1.094l.037-.084a.756.756,0,0,0-.459-.931L37.887.068l.04.015A.821.821,0,0,0,36.777.562Z" transform="translate(0 0)" fill="#0f0a39"/>
            <path id="Path-68" data-name="Path" d="M.809,0A.813.813,0,0,0,0,.811L.107,3.354H1.769L1.661.751A.816.816,0,0,0,.809,0Z" transform="translate(100.241 106.403)" fill="#0f0a39"/>
            <path id="Path-69" data-name="Path" d="M.809,0A.813.813,0,0,0,0,.811L.131,3.473a.779.779,0,0,0,.809.748.879.879,0,0,0,.837-.694l.015-.14L1.661.748A.815.815,0,0,0,.809,0Z" transform="translate(88.577 106.279)" fill="#0f0a39"/>
            <path id="Path-70" data-name="Path" d="M.491.545l-.412.969A.755.755,0,0,0,.5,2.535l.1.041a.837.837,0,0,0,1.011-.421l.184-.417L11.4,4.4,10.834,5.73a.751.751,0,0,0,.359.873l.033.018-.065-.054a.652.652,0,0,0,.441.181h.046a.765.765,0,0,0,.794-.571l.845-1.955a.692.692,0,0,0-.016-.645.706.706,0,0,0-.338-.328l-.1-.052L1.494.03A.784.784,0,0,0,.491.545Z" transform="translate(4.069 94.967)" fill="#0f0a39"/>
            <path id="Path-71" data-name="Path" d="M.272.217a.782.782,0,0,0-.121,1.05l.332.361.647.719c.072.079.136.147.208.223l.772.857.567.652c.995,1.157,1.941,2.332,3.179,3.937l3.258,4.256L10.143,13.6c.555.708,1.041,1.316,1.519,1.9L13,17.107C21.423,27.3,26.907,35.928,28.875,42.044l.207.671c.459,1.538,1.045,3.818,1.088,4.044l.015.121a65.62,65.62,0,0,1,1.637,10.733v.13l.26,3.019c.34,3.717,1.046,10.576,4.122,40.441l.051.254a.794.794,0,1,0,1.539-.371l-.027-.148L34.821,72.633c-.8-7.846-1.223-12.342-1.427-15.049v-.13l-.052-.653a66.35,66.35,0,0,0-1.611-10.335l-.079-.366c-.2-.861-.681-2.7-1.078-4.034l-.062-.206c-1.973-6.546-7.9-15.828-17.174-26.924l-.362-.426c-1.137-1.351-2.211-2.742-3.958-5.078L6.675,6.408l-.788-.992c-.9-1.117-1.716-2.1-2.529-3.024l-.784-.87-.183-.213L1.56.368,1.5.3,1.464.258A.87.87,0,0,0,.272.217Z" transform="translate(59.272 5.687)" fill="#0f0a39"/>
            <path id="Path-72" data-name="Path" d="M34.348.464,31.864,6.142C26.843,17.562,18.351,36.626,8.553,58.517L.038,77.522a.752.752,0,0,0,.356.88l.029.016-.061-.051a.631.631,0,0,0,.487.182.839.839,0,0,0,.738-.432l15.577-34.8c8.343-18.682,15.1-33.909,18.549-41.834l.162-.372A.756.756,0,0,0,35.46.084.836.836,0,0,0,34.348.464Z" transform="translate(11.226 19.912)" fill="#0f0a39"/>
            <path id="Path-73" data-name="Path" d="M0,0C3.989.247,7.935.454,11.924.7a2.97,2.97,0,0,1,.043-.618C7.935.041,3.989,0,0,0Z" transform="translate(89.387 107.09)" fill="#0f0a39"/>
            <path id="Path-74" data-name="Path" d="M0,0,10.8,4.082l.477-1.154C7.5,1.979,3.729.989,0,0Z" transform="translate(5.311 95.958)" fill="#0f0a39"/>
          </g>
          <g id="shoes_2_" transform="translate(0 181.15)">
            <path id="Path-75" data-name="Path" d="M5.038.137c1.6-.66,2.862,1.2,7.675,2.886,3.946,1.361,5.854,1.072,6.461,2.35.39.783.217,2.185-2.3,4.783a10.284,10.284,0,0,0,2.688,5.154c4.119,4.123,10.667,3.051,12.1,6.638a2.931,2.931,0,0,1-.043,2.391c-1.3,2.268-6.764,2.1-10.19,1.319-2.862-.618-3.946-1.567-10.97-6.349C2.263,13.7-.165,12.258.009,9.99.1,8.795.789,8.918,2.48,5.373,4.171,1.662,3.911.59,5.038.137Z" fill="#ffcc0a"/>
            <path id="Path-76" data-name="Path" d="M.883.752C1.621.134,2.271.3,6.477.216c5.68-.165,6.938-.536,7.8.371,1.214,1.237-.434,2.8.564,4.535,1.127,1.938,4.206,1.69,10.97,2.639,9.453,1.361,11.621,2.8,12.7,4.411.52.742,1.344,1.938.867,3.01-1.648,4.04-17.561-1.484-31.523-.041-1.127.124-5.854.66-7.2-1.319A5.907,5.907,0,0,1,.06,11.266,21.051,21.051,0,0,1,.146,7.72C.146,3.144-.287,1.742.883.752Z" transform="translate(89.878 12.536)" fill="#ffcc0a"/>
          </g>
          <g id="head_2_" transform="translate(76.609)">
            <path id="Path-77" data-name="Path" d="M1.784.927A4.688,4.688,0,0,0,0,4.246,4.032,4.032,0,0,0,1.671,7.49a4.464,4.464,0,0,0,2.78.884l.511-.009.167.079L5.311,8.4a.8.8,0,0,0,.628-.955.844.844,0,0,0-.9-.616l-.1.018a3.088,3.088,0,0,1-2.258-.533A2.331,2.331,0,0,1,1.661,4.368,2.906,2.906,0,0,1,2.825,2.2a2.174,2.174,0,0,1,1.706-.555,2.151,2.151,0,0,1,1.362.828,3.912,3.912,0,0,1,.425.624l.085.164c.022.046.038.081.048.1L6.5,3.46a.939.939,0,0,0,.977.365l.158-.066.1-.072a.854.854,0,0,0,.308-.738L8.03,2.884l.005.061c0-.776-1.386-2.515-3.02-2.874L4.826.036A3.934,3.934,0,0,0,1.784.927Z" transform="translate(1.55 10.087)" fill="#0f0a39"/>
            <path id="hair_2_" d="M19.342,4.2c-3.035.825-6.07,1.69-9.106,2.515L7.809,11.908a2.725,2.725,0,0,0-1.3-1.484,3.286,3.286,0,0,0-2.3-.165,3.694,3.694,0,0,0-2.255,1.649,3.132,3.132,0,0,0,.39,3.752A4.346,4.346,0,0,0,5.51,16.9a2.337,2.337,0,0,1,.173,1.154,3.464,3.464,0,0,1-1.864,2.474c.043-.124.3-.989.347-1.072s.26-.825.3-.907a12.125,12.125,0,0,1-2.211-1.9A10.264,10.264,0,0,1,.394,13.393c-1.257-3.834.867-7.421,1.214-7.957A11.092,11.092,0,0,1,9.37.076,11.249,11.249,0,0,1,19.342,4.2Z" transform="translate(0.837 0.752)" fill="#0f0a39"/>
            <g id="face_2_">
              <path id="Path-78" data-name="Path" d="M17.643,1.8l-.323-.191A11.277,11.277,0,0,0,10.046.1,11.4,11.4,0,0,0,2.108,5.143,11.007,11.007,0,0,0,.4,14.4l.113.335A10.4,10.4,0,0,0,4.02,19.41l.322.244-.205.674-.18.561-.015.089-.9,2.927a.776.776,0,0,0,.58.973.819.819,0,0,0,1-.556l.9-2.907.012-.087.135-.445.269-.832c.049-.156.087-.278.123-.406l.028-.1a.73.73,0,0,0-.338-.855A9.111,9.111,0,0,1,2.02,13.968,9.606,9.606,0,0,1,3.519,6a9.635,9.635,0,0,1,6.756-4.321,9.7,9.7,0,0,1,6.175,1.3A12.766,12.766,0,0,1,21.706,8.8c1.8,4.275.577,9.845-3.009,11.985a7.313,7.313,0,0,1-2.633.923.419.419,0,0,0-.131.009l-.22.026a.767.767,0,0,0-.74.535L13.8,26.047a.776.776,0,0,0,.579.975l.122.014h.087a1.026,1.026,0,0,0,.7-.306l.092-.087,1.035-3.386-.14.027a9.571,9.571,0,0,0,3.3-1.144c4.1-2.454,5.97-8.585,3.671-13.95A14.281,14.281,0,0,0,17.643,1.8Z" fill="#0f0a39"/>
              <path id="Path-79" data-name="Path" d="M4.379,1.69c-.173.33-.347.66-.52,1.072-.13.289-.26.536-.347.783A6.645,6.645,0,0,1,.694,1.319,4.3,4.3,0,0,1,0,0,6.9,6.9,0,0,0,3.3,1.608,9.591,9.591,0,0,0,4.379,1.69Z" transform="translate(11.768 20.577)" fill="#0f0a39"/>
            </g>
          </g>
        </g>
      </g>
    </g>
  </g>
</svg>
