<svg xmlns="http://www.w3.org/2000/svg" width="386.975" height="325.44" viewBox="0 0 386.975 325.44">
  <g id="last" transform="translate(0 -0.576)">
    <g id="background">
      <g id="background_1_">
        <path id="Oval" d="M3.8,7.6A3.8,3.8,0,1,1,7.61,3.8,3.806,3.806,0,0,1,3.8,7.6Zm0-6.024A2.223,2.223,0,1,0,6.037,3.8,2.23,2.23,0,0,0,3.8,1.577Z" transform="translate(35.422 299.941)" fill="#0f0a39"/>
        <ellipse id="Oval-2" data-name="Oval" cx="1.999" cy="1.995" rx="1.999" ry="1.995" transform="translate(191.607 274.755)" fill="#7c37fa"/>
        <path id="Oval-3" data-name="Oval" d="M3.735,7.461A3.731,3.731,0,1,1,7.47,3.73,3.737,3.737,0,0,1,3.735,7.461Zm0-5.868A2.138,2.138,0,1,0,5.88,3.73,2.144,2.144,0,0,0,3.735,1.593Z" transform="translate(12.465 118.624)" fill="#0f0a39"/>
        <ellipse id="Oval-4" data-name="Oval" cx="2.94" cy="2.934" rx="2.94" ry="2.934" transform="translate(128.651 14.077)" fill="#2de6ea"/>
        <ellipse id="Oval-5" data-name="Oval" cx="5.645" cy="5.633" rx="5.645" ry="5.633" transform="translate(0 226.007)" fill="#2de6ea"/>
        <path id="Oval-6" data-name="Oval" d="M4.157,8.305A4.153,4.153,0,1,1,8.315,4.153,4.16,4.16,0,0,1,4.157,8.305Zm0-6.728A2.576,2.576,0,1,0,6.743,4.153,2.583,2.583,0,0,0,4.157,1.577Z" transform="translate(322.729 24.32)" fill="#0f0a39"/>
        <path id="Oval-7" data-name="Oval" d="M2.786,5.567A2.783,2.783,0,1,1,5.571,2.784,2.787,2.787,0,0,1,2.786,5.567Zm0-3.99A1.206,1.206,0,1,0,4,2.784,1.211,1.211,0,0,0,2.786,1.577Z" transform="translate(332.96 157.436)" fill="#0f0a39"/>
        <path id="Rectangle" d="M15.808,16.638h0L.825,16.607a.8.8,0,0,1-.794-.795L0,.8A.8.8,0,0,1,.795,0L15.779.032a.8.8,0,0,1,.793.8L16.6,15.84a.8.8,0,0,1-.795.8ZM1.591,1.595l.028,13.42,13.392.028-.028-13.42Z" transform="translate(24.72 39.636) rotate(-45)" fill="#7c37fa"/>
        <path id="Rectangle-2" data-name="Rectangle" d="M10.742,11.561h0L.809,11.537a.789.789,0,0,1-.785-.787L0,.79A.788.788,0,0,1,.787,0l9.934.024A.788.788,0,0,1,11.5.811l.024,9.96a.787.787,0,0,1-.787.79ZM1.573,1.579l.022,8.383,8.359.022L9.934,1.6Z" transform="translate(74.813 260.698) rotate(-45)" fill="#ffcc0a"/>
        <path id="Rectangle-3" data-name="Rectangle" d="M0,0,9.163.01l.01,9.163L.01,9.163Z" transform="translate(360.492 59.49) rotate(-45)" fill="#2de6ea"/>
        <path id="Rectangle-4" data-name="Rectangle" d="M.788,14.321h0A.787.787,0,0,1,0,13.531L.03.816A.789.789,0,0,1,.815.03L13.476,0a.787.787,0,0,1,.788.79L14.234,13.5a.788.788,0,0,1-.784.787Zm11.9-12.742L1.6,1.6,1.574,12.741l11.089-.025.025-11.137Z" transform="matrix(-0.6, -0.8, 0.8, -0.6, 364.766, 264.315)" fill="#0f0a39"/>
        <path id="Path" d="M6.094.3A.8.8,0,0,1,7.4,1.2l-.067.1L1.415,8.688a.8.8,0,0,1-1.307-.9l.067-.1Z" transform="translate(355.923 91.32)" fill="#7c37fa"/>
        <path id="Path-2" data-name="Path" d="M6.094.3A.8.8,0,0,1,7.4,1.2l-.067.1L1.415,8.688a.8.8,0,0,1-1.307-.9l.067-.1Z" transform="translate(39.234 175.627)" fill="#7c37fa"/>
        <path id="Path-3" data-name="Path" d="M.372.118a.785.785,0,0,1,1.014.16l.068.095L6.433,8.431a.787.787,0,0,1-1.268.925L5.1,9.262.118,1.2A.79.79,0,0,1,.372.118Z" transform="translate(202.541 0.576)" fill="#0f0a39"/>
        <path id="Path-4" data-name="Path" d="M.213.249A.785.785,0,0,1,1.234.14l.091.073,6.9,6.493A.788.788,0,0,1,7.238,7.93l-.091-.073L.248,1.363A.79.79,0,0,1,.213.249Z" transform="translate(159.539 253.313)" fill="#0f0a39"/>
        <path id="Path-5" data-name="Path" d="M0,0,7.448,5.907" transform="translate(378.474 172.033)" fill="none" stroke="#000" stroke-linecap="round" stroke-linejoin="round" stroke-miterlimit="10" stroke-width="1.5"/>
      </g>
    </g>
    <g id="general_1_" transform="translate(62 8)">
      <g id="general">
        <g id="lines">
          <g id="Group" transform="translate(28.084 1.059)">
            <path id="Path-6" data-name="Path" d="M55.339,10.067c2.507,3.091-1.449,13.889-8.146,15.924-4.739,1.408-10.574-1.565-18.172-1.213a8.842,8.842,0,0,0-4.151,1.017c-2.311,1.291-2.507,3.013-3.995,3.991-3.055,2-8.3-1.056-9.047-1.487-5.522-3.169-7.4-8.92-10.574-19.249C.783,7.563.392,6.232,0,4.941c6.736,3.247,14.1,4.578,20.17,2.9C28.316,5.567,32.115-1.788,36.736.4,39.869,1.89,39.4,5.763,43.55,8.189,48.642,11.28,53.42,7.719,55.339,10.067Z" transform="translate(220.063 110.986)" fill="#2de6ea"/>
            <path id="Path-7" data-name="Path" d="M38.212,8.3c1.175,3.873-.392,8.529-3.368,10.368-4.582,2.817-8.694-3.286-16.449-2.7-5.8.469-7.754,4.265-13.942,9.742C.38,19.762-1.187,12.133.967,10.02c1.88-1.878,6.227.822,8.538-1.761,1.88-2.113.078-5.047,2.193-7.042C13.46-.426,16.4,0,17.925.2c4.347.626,4.856,3.052,8.538,3.169,2.976.117,3.446-1.448,5.875-.978C35.118,2.978,37.39,5.677,38.212,8.3Z" transform="translate(156.864 0.23)" fill="#7c37fa"/>
            <path id="Path-8" data-name="Path" d="M188.463,22.854a17.142,17.142,0,0,1,0,11.111c-2.7,7.395-11.123,11.464-19.034,11.424-7.872-.039-15.352-3.286-22.48-6.651s-14.373-6.964-22.206-7.747C107.119,29.232,91.062,41.908,73.4,43.317c-15,1.213-29.412-5.79-44.412-6.886-8.264-.587-17.506.352-23.812-5.008C.162,27.158-1.091,19.842.906,13.5q11.162,2.817,22.324,5.673c6.5,1.643,13.316,3.286,19.778,1.565C51.741,18.433,57.772,10.647,65.37,5.757A37.129,37.129,0,0,1,98.425,2.431c10.613,4.108,19.386,13.185,30.665,14.476C144.521,18.668,159.442,5.326,174.4,9.4A20.944,20.944,0,0,1,188.463,22.854Z" transform="translate(0.23 41.428)" fill="#ffcc0a"/>
            <path id="Path-9" data-name="Path" d="M114.291,22.888c1.919,6.495-1.958,13.889-8.029,16.863S92.555,41.59,86.954,37.795C79.4,32.708,73.208,22.732,64.2,24.3c-3.329.587-6.11,2.739-8.929,4.538A51.481,51.481,0,0,1,23,36.66C12.66,35.682,1.224,29.7.088,19.367c-.47-4.3,1.018-7.708,2.467-10.642A32.39,32.39,0,0,1,8.861,0c8.224,7.238,21.5,12.833,34.347,13.42,13.707.626,13.551-3.247,34.5-5.83,11.593-1.408,24.6.2,32.585,8.686A16.962,16.962,0,0,1,114.291,22.888Z" transform="translate(8.958 191.164)" fill="#2de6ea"/>
          </g>
          <g id="Group-2" data-name="Group">
            <path id="Path-10" data-name="Path" d="M58.48,1.642c3.633-1.8,6.6-2.174,9.389-.85,2.266,1.062,3.354,2.458,4.775,5.548l.55,1.23c1.532,3.442,2.757,4.976,5.429,5.993,2.171.821,4.008.783,7.068.092l1.142-.27c4.6-1.109,6.96-1.224,10.125.173l.309.14c.368.163.788.371,1.286.652a16.283,16.283,0,0,1,2.168,1.459,9.815,9.815,0,0,1,3.736,5.567c.557,2.557-.067,4.386-2.03,7.518L101.415,30.5c-1.251,2.062-1.64,3.431-1.2,4.947.851,2.944,4.886,5.333,8.59,5.295a5.381,5.381,0,0,0,4.114-1.962l.228-.228c.139-.142,1.041-1.091,1.428-1.485l.075-.075a12.942,12.942,0,0,1,4.725-3.2c7.8-3,19.214,1.139,22.051,7.909a7.3,7.3,0,0,1,.537,3.81l-.066.612-.027.221a7.868,7.868,0,0,0,.46,4.563,13.89,13.89,0,0,0,10.133,8.119c7.366,1.322,16.413-4.863,16.025-9.6-.08-.987-.617-1.66-1.947-2.552l-1.2-.76-.834-.519a22,22,0,0,1-2.393-1.721,15.936,15.936,0,0,1-3.749-4.531,13.389,13.389,0,0,1-1.856-6.693l-.07-1.2c-.018-.267-.037-.474-.064-.7a7.381,7.381,0,0,0-1.342-3.592,10.744,10.744,0,0,0-6.393-4.225l-.7-.191c-.456-.12-.781-.2-1.511-.344l-1.749-.349c-4.066-.805-5.7-1.54-6.463-3.641-2.059-5.768,8.169-16.331,14.6-14.852,1.672.392,2.673,1.441,3.7,3.529l.141.291c.251.53,1.153,2.6,1.307,2.936a32.6,32.6,0,0,0,1.773,3.427c3.4,5.631,9.261,10.709,15.957,13.936A.795.795,0,1,1,175,29.106c-6.963-3.355-13.064-8.639-16.629-14.548a32.606,32.606,0,0,1-1.6-3.031l-.343-.751c-.279-.629-1-2.277-1.21-2.721-.893-1.888-1.606-2.68-2.765-2.952-5.238-1.2-14.365,8.221-12.742,12.767.488,1.35,1.769,1.925,5.275,2.619l2.281.46c.553.118.856.2,1.4.342,3.438.922,5.905,2.38,7.675,4.967a8.952,8.952,0,0,1,1.611,4.308l.045.441c.013.15.025.309.036.5l.037.657a12.3,12.3,0,0,0,1.678,6.407,14.351,14.351,0,0,0,3.382,4.089A19.235,19.235,0,0,0,165,44.02l2.345,1.479.084.056c1.693,1.135,2.519,2.171,2.646,3.742.484,5.9-9.589,12.784-17.892,11.293a15.478,15.478,0,0,1-11.329-9.1,9.035,9.035,0,0,1-.6-4.962l.1-.857a6.01,6.01,0,0,0-.39-3.36c-2.489-5.938-12.982-9.745-20.011-7.038a11.077,11.077,0,0,0-3.883,2.557l-.287.283c-.311.312-1.329,1.383-1.492,1.55-1.807,1.843-3.244,2.65-5.463,2.668-4.36.045-9.061-2.739-10.132-6.443-.566-1.955-.132-3.652,1.184-5.9l.479-.787.522-.82c1.92-3.011,2.492-4.559,2.031-6.673a8.3,8.3,0,0,0-3.175-4.659,14.706,14.706,0,0,0-1.956-1.316c-.36-.2-.672-.362-.955-.494l-.207-.094c-2.828-1.312-4.843-1.285-8.982-.315l-1.164.278c-3.588.847-5.772.937-8.4-.059C75,13.884,73.524,12.126,71.9,8.577l-.4-.906C70.063,4.423,69.167,3.156,67.19,2.23c-2.28-1.082-4.764-.772-8,.836l-.593.3c-1.1.583-2.306,1.313-3.792,2.285l-5.515,3.7L49,9.547c-7.319,4.815-12.99,7.364-19.647,8.052-8.875.938-18.458-1.917-29.026-9.657a.795.795,0,1,1,.94-1.282c10.26,7.514,19.453,10.253,27.92,9.358,6.169-.638,11.5-2.973,18.331-7.4l1.067-.7c1.395-.93,4.3-2.9,4.929-3.314A46.853,46.853,0,0,1,58.48,1.642Z" transform="translate(72.758 88.635)" fill="#ffcc0a"/>
            <path id="Path-11" data-name="Path" d="M19.167,32.008a8.383,8.383,0,0,1-1.069-.072,13.911,13.911,0,0,1-3.716-1.1c-.466-.2-.932-.428-1.385-.668-.311-.164-.51-.276-.769-.427l-.208-.122A13.993,13.993,0,0,1,6.6,24.1c-1.389-2.435-2.693-5.784-4.651-11.944l-.662-2.106L.038,5.935a.782.782,0,0,1,.115-.7A.8.8,0,0,1,.8,4.9a.8.8,0,0,1,.347.081,33.282,33.282,0,0,0,14.2,3.56,20.193,20.193,0,0,0,5.331-.676l.465-.139A22.591,22.591,0,0,0,27.523,4.4c.088-.062.352-.254.719-.519.772-.56,1.939-1.406,2.686-1.929l.508-.347A8.488,8.488,0,0,1,35.208.026a4.913,4.913,0,0,1,.5-.026A4.836,4.836,0,0,1,37.8.482c1.294.613,2.05,1.428,3.11,3.353l.555,1.007c.112.2.221.384.333.565A8,8,0,0,0,44.673,8.3a8.17,8.17,0,0,0,4.5,1.19,22.754,22.754,0,0,0,2.488-.163l.873-.089c.629-.058,1.109-.085,1.511-.085a2.953,2.953,0,0,1,2.706,1.165c1.164,1.413,1.324,3.9.439,6.817A18.81,18.81,0,0,1,53.754,23.5a11.932,11.932,0,0,1-5.532,4.011,9.654,9.654,0,0,1-3.011.47,33.475,33.475,0,0,1-5.125-.591l-2.142-.368a39.313,39.313,0,0,0-6.891-.715c-.4,0-.794.008-1.21.025a7.813,7.813,0,0,0-3.784.913A5.629,5.629,0,0,0,24.448,28.6c-.12.144-.241.3-.38.488l-.554.757a5.16,5.16,0,0,1-1.407,1.366A5.28,5.28,0,0,1,19.167,32.008ZM2.07,7.152l.51,1.677.564,1.813C5.491,18.114,6.713,20.987,7.826,23a12.732,12.732,0,0,0,5.2,5.365l.316.18a17.627,17.627,0,0,0,1.679.833,12.314,12.314,0,0,0,3.284.979,6.742,6.742,0,0,0,.858.058,3.747,3.747,0,0,0,2.082-.545,4.258,4.258,0,0,0,1.171-1.217l.526-.717c.094-.123.188-.24.287-.36a7.189,7.189,0,0,1,2.056-1.724,9.391,9.391,0,0,1,4.5-1.115c.44-.018.858-.027,1.278-.027a42.642,42.642,0,0,1,7.7.832l.8.139a36.382,36.382,0,0,0,5.615.694,8.092,8.092,0,0,0,2.26-.3l.316-.092a10.485,10.485,0,0,0,4.9-3.669,17.817,17.817,0,0,0,3.053-5.737c.706-2.329.633-4.246-.2-5.259a1.751,1.751,0,0,0-1.582-.571c-.383,0-.868.032-1.571.1l-.923.1c-.885.089-1.636.132-2.3.132a9.584,9.584,0,0,1-5.277-1.413,9.618,9.618,0,0,1-3.424-3.426c-.071-.115-.148-.242-.239-.4L39.949,5.4l-.584-1.06a4.937,4.937,0,0,0-2.252-2.421,3.2,3.2,0,0,0-1.4-.328,3.309,3.309,0,0,0-.342.018,7.157,7.157,0,0,0-3.065,1.327c-.513.336-2.032,1.436-3.037,2.164l-.7.5-.646.45A22.687,22.687,0,0,1,21.1,9.4l-.454.119a22.125,22.125,0,0,1-5.307.615A33.852,33.852,0,0,1,2.51,7.34l-.44-.188Z" transform="translate(247.31 111.327)" fill="#2de6ea"/>
            <path id="Path-12" data-name="Path" d="M.347.138A.8.8,0,0,1,1.452.347C3.944,4,7.044,6.527,10.391,7.38c2.319.59,3.868.371,6.805-.681l.88-.321c3.232-1.177,5.2-1.42,7.918-.508,3.2,1.067,4.773,2.78,6.9,6.683l.875,1.63c1.732,3.175,3.208,4.92,5.739,6.251a12.043,12.043,0,0,0,2.515.972c2.939.772,5.706.518,10.068-.584l3.011-.775a13.666,13.666,0,0,1,2.7-.5c1.822-.17,3.171.2,4.11,1.316,1.936,2.3,1.3,4.9-2.019,11.868L59,34.581c-3.081,6.391-3.886,9.458-2.428,11.4l.14.177c1.122,1.327,2.817,1.327,8.165.17l2.847-.635a40.459,40.459,0,0,1,6.258-.989,15.433,15.433,0,0,1,9.72,2.142C92.814,52.7,95.74,70.5,88.541,76.9c-3.511,3.108-9.869,4.119-14.091,1.95a9.221,9.221,0,0,1-2.915-2.386l-.324-.392-.535-.666a4.641,4.641,0,0,0-2.773-2c-2.752-.622-6.4,1.164-8.3,3.872-1.828,2.562-1.608,5.631.664,13.4a.8.8,0,0,1-1.527.446l-.381-1.329c-2.047-7.286-2.148-10.5-.055-13.435,2.238-3.194,6.511-5.283,9.956-4.5a5.856,5.856,0,0,1,3.446,2.3l.847,1.047c.068.083.132.16.2.235a7.673,7.673,0,0,0,2.431,2c3.618,1.859,9.272.959,12.306-1.726,6.357-5.653,3.635-22.209-4.641-27.534a13.892,13.892,0,0,0-8.754-1.893,39.13,39.13,0,0,0-6.036.959l-3.244.73a23.917,23.917,0,0,1-4.5.739c-2.305.134-3.957-.376-5.009-1.782-1.924-2.557-1.183-5.756,1.888-12.245l1.064-2.213c3.108-6.495,3.786-8.99,2.441-10.588l-.132-.148c-.872-.916-2.016-.893-5.935.078l-1.649.42c-4.895,1.272-7.979,1.6-11.364.709a13.641,13.641,0,0,1-2.848-1.1c-2.755-1.449-4.4-3.323-6.182-6.509l-.377-.688-.519-.971-.377-.693c-1.847-3.333-3.182-4.725-5.822-5.6-2.213-.742-3.807-.587-6.51.365l-.843.306C14.663,9.324,12.808,9.635,10,8.92,6.229,7.959,2.83,5.186.138,1.242A.794.794,0,0,1,.347.138Z" transform="translate(188.566 26.205)" fill="#ffcc0a"/>
            <path id="Path-13" data-name="Path" d="M5.242,27.331a.8.8,0,0,1-.659-.348A28.243,28.243,0,0,1,.352,17.254c-.673-3.245-.364-5.787.846-6.975a3.434,3.434,0,0,1,2.755-.946c.427,0,.934.025,1.643.08l.437.032.6.034c.145.006.286.008.417.008A3.2,3.2,0,0,0,9.7,8.559c.558-.627.737-1.259.8-2.82l.033-.708c.113-1.819.443-2.652,1.409-3.565l.187-.166A5.915,5.915,0,0,1,16.18,0a17.14,17.14,0,0,1,2.646.24,10.639,10.639,0,0,1,4.393,1.621l1.022.624a5.742,5.742,0,0,0,3.04.917c.111,0,.218.007.318.007a5.582,5.582,0,0,0,2.272-.481L30.2,2.8l.464-.175a4.715,4.715,0,0,1,1.587-.288,5.427,5.427,0,0,1,1.033.107,7.914,7.914,0,0,1,3.969,2.282,10.545,10.545,0,0,1,2.5,4.167c1.3,4.152-.362,9.214-3.71,11.282a5.778,5.778,0,0,1-1.808.738,6.4,6.4,0,0,1-1.375.175c-1.054,0-2.2-.4-4.374-1.309l-1.745-.735a16.048,16.048,0,0,0-6.368-1.5c-.37,0-.741.015-1.132.047a10.208,10.208,0,0,0-6.094,2.573c-.527.433-2.028,1.877-3.617,3.406-1.187,1.143-2.415,2.324-3.253,3.1l-.516.468A.791.791,0,0,1,5.242,27.331Zm-1.218-16.4a2.213,2.213,0,0,0-1.712.487c-.828.812-.98,2.8-.419,5.456a27.15,27.15,0,0,0,3.4,8.288l.1.16.222-.206c.762-.715,1.761-1.676,2.727-2.605,1.5-1.439,3.039-2.924,3.69-3.483l.11-.092A11.813,11.813,0,0,1,19.119,16c.435-.035.864-.053,1.275-.053a18.033,18.033,0,0,1,7.416,1.813l1.784.747a9.236,9.236,0,0,0,3.334.967,4.052,4.052,0,0,0,.738-.073l.24-.048a4.14,4.14,0,0,0,1.308-.537c2.72-1.68,4.107-6.01,3.028-9.454C37.4,6.675,35.232,4.468,32.974,4a3.711,3.711,0,0,0-.712-.076,3.465,3.465,0,0,0-1.294.281l-.812.318A6.779,6.779,0,0,1,27.607,5h-.049l-.333-.007a7.569,7.569,0,0,1-4.087-1.312L22.1,3.045a8.855,8.855,0,0,0-3.509-1.233l-.33-.049A14.233,14.233,0,0,0,16.25,1.6a4.462,4.462,0,0,0-3.222,1.026l-.1.1c-.636.653-.771,1.338-.833,2.94l-.019.435a4.954,4.954,0,0,1-1.186,3.514,4.662,4.662,0,0,1-3.834,1.46c-.247,0-.505-.008-.789-.024l-.1-.006-.123-.007-.84-.062C4.711,10.943,4.337,10.926,4.024,10.926Z" transform="translate(184.121 0.463)" fill="#7c37fa"/>
            <path id="Path-14" data-name="Path" d="M90.475,8.563l1.108-1.726C94.368,2.5,96.366.686,100.159.128,105.1-.583,110.483,1.7,115.99,6.037a54.894,54.894,0,0,1,5.564,5.072l.514.541c.914.974,1.667,1.842,2.162,2.455a39.861,39.861,0,0,1,3.265,4.607l1.863,3.151c.062.1.113.186.15.245a6.823,6.823,0,0,0,3.6,3.184c4.108,1.583,8.573.081,16.169-4.628l1.61-1.015,1.4-.9a64.275,64.275,0,0,0,8.164-6.146.795.795,0,1,1,1.057,1.188,65.291,65.291,0,0,1-7.635,5.824L151,21.459l-.9.566c-8.011,4.966-12.819,6.576-17.561,4.749a8.145,8.145,0,0,1-4.173-3.513l-.2-.305c-.317-.5-1.513-2.565-1.952-3.295l-.073-.121a38.4,38.4,0,0,0-2.7-3.88l-.446-.554c-.56-.694-1.476-1.74-2.588-2.9a53.325,53.325,0,0,0-5.4-4.925c-5.2-4.092-10.207-6.218-14.617-5.584-3.117.459-4.8,1.918-7.236,5.639L91.908,9.276l-.1.157c-2.677,4.093-5.057,6.32-9.07,7.615-5.119,1.651-9.043.983-15.861-1.761l-2.33-.943a21.942,21.942,0,0,0-6.37-1.868,9.649,9.649,0,0,0-5.783,1.075c-2.218,1.169-3.56,2.706-5.4,5.83L46.008,21.1c-2.754,4.783-4.684,6.708-8.746,7.546a16.816,16.816,0,0,1-5.3.124l-.612-.067-2.98-.375c-.189-.022-.365-.041-.554-.06-9.154-.939-18.162,2.12-23.227,8.392a17.361,17.361,0,0,0-3.032,5.76A.8.8,0,0,1,.035,41.96a18.953,18.953,0,0,1,3.314-6.293c5.34-6.611,14.646-9.855,24.13-9.025l.785.078c.188.02.375.042.589.068l2.68.339.145.017a16.217,16.217,0,0,0,5.262-.051c3.492-.72,5.146-2.364,7.685-6.774l.555-.975c2.209-3.88,3.739-5.76,6.469-7.2a11.233,11.233,0,0,1,6.7-1.25l.411.049c2.086.267,3.647.806,7.815,2.5l.412.168c6.8,2.779,10.479,3.461,15.262,1.919C85.848,14.373,87.978,12.381,90.475,8.563Z" transform="translate(28.346 13.799)" fill="#2de6ea"/>
            <path id="Path-15" data-name="Path" d="M170.372,46.979h-.124c-6.471-.032-12.228-1.73-22.816-6.728l-2.8-1.321c-8.852-4.147-13.329-5.672-18.427-6.275l-.722-.078a35.139,35.139,0,0,0-3.526-.178,39.882,39.882,0,0,0-9.076,1.108,95.258,95.258,0,0,0-11.071,3.4l-1.317.482L96.462,38.9c-9.675,3.628-15.068,5.347-21.453,5.94l-.723.062c-1.277.1-2.513.154-3.779.154-4.754,0-9.742-.7-17.214-2.41l-1.46-.339-4.776-1.149c-8.335-2-12.222-2.726-16.634-3.088l-.67-.052c-.909-.065-1.7-.107-2.917-.155l-3.916-.141a48.168,48.168,0,0,1-10.452-1.275,17.162,17.162,0,0,1-6.983-3.623A15.439,15.439,0,0,1,.493,24.459a19.841,19.841,0,0,1,.436-10.4.791.791,0,0,1,.759-.56.8.8,0,0,1,.2.024l3.628.915,18.7,4.757c6.6,1.667,10.436,2.316,13.7,2.316a21.472,21.472,0,0,0,5.681-.749l.3-.082c3.963-1.1,6.99-2.944,12.958-7.893l1.674-1.4a66.6,66.6,0,0,1,7.2-5.509l.473-.3A36.829,36.829,0,0,1,75.75,1.409,38.474,38.474,0,0,1,86.075,0,36.77,36.77,0,0,1,99.5,2.486l.308.121a62.967,62.967,0,0,1,10.2,5.371l3.452,2.111c7.606,4.606,11.616,6.264,16.5,6.824a27.252,27.252,0,0,0,3.114.184,30.026,30.026,0,0,0,6.875-.865,95.814,95.814,0,0,0,9.215-2.766l2.812-.973C159.5,9.9,164.172,8.586,168.83,8.586c.849,0,1.7.042,2.6.129l.644.068a22.823,22.823,0,0,1,3.324.641,21.458,21.458,0,0,1,9.071,5.183,21.209,21.209,0,0,1,5.573,8.8,17.864,17.864,0,0,1-.009,11.63,17.053,17.053,0,0,1-7.536,8.7A23.99,23.99,0,0,1,170.372,46.979ZM121.939,30.809h0a36.907,36.907,0,0,1,3.705.187c5.652.565,10.244,2.081,19.651,6.489l4.042,1.9c9.478,4.4,14.952,5.971,20.919,6h.114a22.4,22.4,0,0,0,11.241-2.981,17.489,17.489,0,0,0,4.221-3.439,14.022,14.022,0,0,0,2.708-4.483,16.29,16.29,0,0,0-.011-10.6,19.62,19.62,0,0,0-5.16-8.137,19.858,19.858,0,0,0-8.391-4.8,21.109,21.109,0,0,0-3.09-.595,25.846,25.846,0,0,0-3.025-.184c-3.843,0-7.707.873-15.315,3.458l-3.893,1.343a96.814,96.814,0,0,1-9.423,2.823,31.218,31.218,0,0,1-7.121.887c-.868,0-1.735-.041-2.65-.127l-.678-.07a27.867,27.867,0,0,1-8.153-2.208,80.409,80.409,0,0,1-10.015-5.458L109.2,9.345A63.791,63.791,0,0,0,99.514,4.2l-.595-.235A35.187,35.187,0,0,0,86.076,1.589,36.869,36.869,0,0,0,75.927,3.011a35.117,35.117,0,0,0-9.343,4.208,58.264,58.264,0,0,0-6,4.529l-2.732,2.281C51.591,19.218,48.354,21.151,44,22.3a23.021,23.021,0,0,1-6.088.808c-3.2,0-6.95-.6-12.947-2.085l-1.146-.286-2.241-.576L2.241,15.256l-.107.42a18.041,18.041,0,0,0-.018,8.715,13.917,13.917,0,0,0,4.133,6.991l.265.229a15.853,15.853,0,0,0,6.661,3.37,49.142,49.142,0,0,0,10.344,1.173l3.923.142c.474.02.91.042,1.374.068l1.051.068c4.833.352,8.77,1.065,17.553,3.178l2.32.561,3.9.923c7.353,1.684,12.245,2.372,16.883,2.372,1.221,0,2.411-.048,3.64-.148,5.794-.462,10.411-1.689,20.582-5.471l1.77-.662,4.777-1.777a96.549,96.549,0,0,1,11.3-3.466A41.2,41.2,0,0,1,121.939,30.809Z" transform="translate(27.451 41.693)" fill="#ffcc0a"/>
            <path id="Path-16" data-name="Path" d="M5.264,3.6C10.516-.828,17.208-.86,28.135,1.815l.55.136.04.015a.8.8,0,0,1,.79.687l.007.108a.8.8,0,0,1-.8.795l-.122,0a1.263,1.263,0,0,1-.236-.034l-.122-.039-.492-.122C17.485.845,11.234.83,6.534,4.615l-.246.2C1.09,9.167.284,17.74,3.5,25.706c6.092,15.2,23.366,25.121,39.6,22.75l.593-.092c.848-.138,1.707-.3,3.217-.609l2.336-.468.146-.028c4.1-.778,6.926-.941,9.78-.319C64.586,48.131,67.9,51.1,73.465,58.462l1.882,2.518C79.673,66.727,82.175,69.3,85.8,71.189c6.694,3.457,15.139,2.378,25.127-2.047l1-.456c2.032-.956,10.2-4.794,12.585-5.735l.136-.053a42.165,42.165,0,0,1,12.21-2.658l1.4-.11,1.077-.075a42.011,42.011,0,0,1,6.2-.032c4.853.378,8.461,1.879,10.514,4.978,2.622,3.951,2.5,10.19-.586,13.105-2.427,2.3-5.018,2.242-11.173.719L143.4,78.6c-5.389-1.332-7.659-1.4-9.551.233l-.225.2c-1.287,1.211-1.452,2.52-1.107,6.622l.062.71c.505,5.593.293,9.1-1.439,13.7-3.067,8.206-9.37,14.985-16.443,15.344-4.8.277-10.165-2.129-10.927-5.555-.465-2.143.717-4.018,3.428-6.347l1.027-.853,2-1.556c4.523-3.5,6.156-5.411,5.908-7.721-.254-2.346-2.826-4.492-7.1-6.309a47.994,47.994,0,0,0-8.13-2.556l-.837-.187C89.569,82,78.352,82.809,76.25,87.369c-.7,1.509-.44,3.252.673,5.5l.207.406c.32.611.689,1.242,1.2,2.058L79.5,97.186c2.85,4.534,3.383,6.136,2.1,8.227-3.374,5.442-19.084,3.33-26.887-4.352a16.12,16.12,0,0,1-3.84-5.728l-.206-.517c-.068-.177-.139-.364-.216-.575L49.9,92.705a18.44,18.44,0,0,0-4.217-7.167c-5.923-6.459-14.973-10.512-20.48-8.1-9.485,4.121-10.526,28.161-2.283,33.342a8.01,8.01,0,0,0,4.36,1.074h.65c.227,0,.461-.009.767-.019l.642-.023c4.172-.16,5.9.151,7.616,2.085,1.545,1.73,1.76,3.248,1.382,6.81l-.188,1.684a15.6,15.6,0,0,0-.093,2.975c.287,4.23,3.109,8.821,7.916,13.033a.795.795,0,1,1-1.049,1.195c-5.1-4.464-8.135-9.409-8.454-14.114a16.855,16.855,0,0,1,.094-3.221l.19-1.7c.333-3.125.163-4.322-.986-5.61-1.2-1.355-2.482-1.659-5.677-1.576l-1.849.061c-.151,0-.291.005-.435.006h-.145a9.85,9.85,0,0,1-5.587-1.32c-9.3-5.845-8.189-31.5,2.493-36.143,6.285-2.749,15.958,1.582,22.29,8.487A19.914,19.914,0,0,1,51.4,92.159l.627,1.723c.118.316.22.577.331.849a14.546,14.546,0,0,0,3.484,5.2c7.175,7.064,21.708,9.018,24.416,4.651.846-1.385.274-2.827-2.508-7.2l-.594-.934A31.058,31.058,0,0,1,75.5,93.573c-1.3-2.635-1.629-4.839-.692-6.869,2.533-5.494,14.069-6.39,25.166-4.021l.438.1a51.014,51.014,0,0,1,9.248,2.833c4.762,2.025,7.721,4.494,8.058,7.6.326,3.042-1.436,5.18-6.18,8.886l-2.442,1.9c-.193.156-.355.291-.586.484-2.491,2.088-3.494,3.6-3.183,5.031.551,2.478,5.161,4.546,9.288,4.309,6.3-.319,12.169-6.635,15.04-14.315,1.575-4.18,1.814-7.394,1.392-12.449l-.111-1.269c-.409-4.88-.154-6.422,1.881-8.161,2.389-2.058,4.923-2.037,10.559-.671l2.025.5c5.058,1.205,7.19,1.175,8.968-.508,2.473-2.337,2.579-7.72.353-11.074-1.729-2.609-4.9-3.928-9.312-4.272a40.623,40.623,0,0,0-5.983.034l-1.8.131a41.7,41.7,0,0,0-11.92,2.426l-.489.184c-2.423.93-12.947,5.9-13.094,5.968C101.5,75.155,92.424,76.4,85.07,72.6c-4-2.076-6.647-4.853-11.31-11.085L72.853,60.3c-5.744-7.717-8.9-10.679-14.022-11.805a21.3,21.3,0,0,0-8.64.235l-1.382.265-2.831.571c-1.1.216-1.808.341-2.645.466C26.368,52.506,8.389,42.174,2.024,26.3-1.422,17.762-.548,8.465,5.264,3.6Z" transform="translate(0.492 53.23)" fill="#7c37fa"/>
            <path id="Path-17" data-name="Path" d="M99.478,43.012h0a22.039,22.039,0,0,1-12.161-3.764,44.109,44.109,0,0,1-5.3-4.3l-2.652-2.425a40.536,40.536,0,0,0-6.736-5.21A10.886,10.886,0,0,0,67.1,25.7a11.327,11.327,0,0,0-1.956.177c-2.02.361-3.607,1.124-7.075,3.4l-1.006.661-1.111.707a52.154,52.154,0,0,1-13.226,5.821,52.275,52.275,0,0,1-14.276,2c-1.577,0-3.165-.074-4.722-.221A32.355,32.355,0,0,1,7.763,32.489a20.677,20.677,0,0,1-5.221-5.458A15.712,15.712,0,0,1,.1,20.247c-.391-3.583.275-6.482,2.543-11.076A34.617,34.617,0,0,1,9.1.237.8.8,0,0,1,10.193.2C18.677,7.665,31.967,12.871,44.05,13.46c1.013.046,1.932.069,2.808.069a35.161,35.161,0,0,0,8.907-1.062c.025-.01,7.89-2.22,11.328-2.963l.669-.142C71,8.684,74.484,8.12,78.419,7.636a61.24,61.24,0,0,1,7.553-.485,43.3,43.3,0,0,1,14.552,2.31,28.021,28.021,0,0,1,11.158,7.106,17.6,17.6,0,0,1,4.176,6.887,14.175,14.175,0,0,1-.991,10.209,16.305,16.305,0,0,1-7.453,7.6A18.325,18.325,0,0,1,99.478,43.012ZM67.171,24.1h0a12.3,12.3,0,0,1,6.371,1.892,46.417,46.417,0,0,1,7.632,6.027l1.9,1.738a45.248,45.248,0,0,0,4.729,3.9l.4.276a20.436,20.436,0,0,0,11.274,3.492,16.717,16.717,0,0,0,7.239-1.591,14.7,14.7,0,0,0,6.7-6.822,12.6,12.6,0,0,0,.919-9.1,16.047,16.047,0,0,0-3.812-6.259,26.474,26.474,0,0,0-10.606-6.718A41.819,41.819,0,0,0,85.96,8.74a59.556,59.556,0,0,0-7.345.472c-4.159.513-7.818,1.116-11.184,1.844C64.1,11.776,56.249,13.98,56.173,14l-.5.122a36.438,36.438,0,0,1-8.823.995c-.9,0-1.842-.023-2.878-.07a60.174,60.174,0,0,1-18.287-3.963A55.969,55.969,0,0,1,10.039,2.157l-.322-.271-.431.463a31.942,31.942,0,0,0-5.21,7.521c-2.119,4.291-2.745,6.961-2.39,10.2a14.134,14.134,0,0,0,2.266,6.2,19.291,19.291,0,0,0,4.89,5.03A30.814,30.814,0,0,0,23.88,36.663c1.507.142,3.046.214,4.573.214a50.676,50.676,0,0,0,14.141-2.026A50.481,50.481,0,0,0,55.648,28.96L57.573,27.7c3.391-2.209,5.1-3,7.3-3.4A13.337,13.337,0,0,1,67.171,24.1Z" transform="translate(36.275 191.429)" fill="#2de6ea"/>
            <path id="Path-18" data-name="Path" d="M115.9,3.06c3.94-4.98,17.687-3.561,27.718,1.949a33.3,33.3,0,0,1,3.691,2.365.795.795,0,1,1-.945,1.278A31.708,31.708,0,0,0,142.852,6.4c-9.424-5.176-22.41-6.517-25.7-2.355-1.819,2.3-.872,6.244,2.563,13.043l.484.945,2.649,5.064a37.8,37.8,0,0,1,2.239,4.877c1.091,2.942,1.161,5.022-.159,6.34a3.648,3.648,0,0,1-3.553.789,16.315,16.315,0,0,1-1.767-.457l-2.688-.861a22.883,22.883,0,0,0-10.774-1.159c-4.279.622-6.506,1.965-10.041,5.4l-.922.9-.673.646c-2.839,2.682-4.763,3.875-7.993,4.653-6.325,1.523-11.789-.255-20.29-5.358l-5.8-3.534a24.367,24.367,0,0,0-4.445-2.285c-2.989-1.227-5.3-1.337-7.291-.212-1.6.907-2.576,2.274-3.635,4.732l-.2.484L44.4,39.173l-.273.657c-1.348,3.161-2.473,4.51-4.788,4.994a5.435,5.435,0,0,1-4.514-1.117l-.193-.142c-.884-.671-3.032-2.51-3.084-2.551A15.252,15.252,0,0,0,26.7,38.227c-7.375-2.468-17.689,1.391-25.345,9.08A.795.795,0,0,1,.231,46.186c8.042-8.076,18.943-12.154,26.981-9.465a16.339,16.339,0,0,1,4.936,2.738l.472.378c.421.356,2.541,2.163,3.121,2.57a3.9,3.9,0,0,0,3.271.862c1.652-.345,2.51-1.375,3.664-4.086l.409-.995.36-.881c1.24-2.973,2.408-4.679,4.464-5.846,2.4-1.353,5.082-1.277,8.318-.02l1.226.5a27.335,27.335,0,0,1,3.915,2.106l4.695,2.866c8.736,5.356,14.055,7.222,20.079,5.771,3.027-.729,4.773-1.855,7.619-4.593l.888-.868c3.951-3.9,6.446-5.472,11.265-6.173A23.884,23.884,0,0,1,116.85,32.1l2.3.712c3.692,1.135,3.954,1.083,4.647.381,1.349-1.348.512-3.843-3.575-11.682l-1.579-3.023-.553-1.089C114.516,10.25,113.561,6.015,115.9,3.06Z" transform="translate(45.108 145.438)" fill="#2de6ea"/>
          </g>
        </g>
        <g id="floor_line" transform="translate(67.728 284.829)">
          <path id="Path-19" data-name="Path" d="M13.365,0H1.068L.923.011A1.093,1.093,0,0,0,0,1.088,1.078,1.078,0,0,0,1.068,2.177h12.3l.145-.011a1.093,1.093,0,0,0,.923-1.077A1.078,1.078,0,0,0,13.365,0Z" transform="translate(117.197 0.968)" fill="#0f0a39"/>
          <path id="Path-20" data-name="Path" d="M45.617,0H1.094L.948.011A1.1,1.1,0,0,0,0,1.088,1.091,1.091,0,0,0,1.094,2.177H45.617l.147-.011a1.1,1.1,0,0,0,.948-1.078A1.091,1.091,0,0,0,45.617,0Z" transform="translate(198.961 0.885)" fill="#0f0a39"/>
          <path id="Path-21" data-name="Path" d="M88.718.006,88.592,0,1.062.444a1.069,1.069,0,0,0,.012,2.137l10.5-.06,77.029-.384A1.069,1.069,0,0,0,88.718.006Z" transform="translate(0.371 0.968)" fill="#0f0a39"/>
        </g>
        <g id="man" transform="translate(128.344 156.079)">
          <path id="shoe" d="M30.454,0c-.744,3.013-1.488,6.025-2.272,9C15.141,3.521,3.94,5.243.885,10.759c-.548.978-1.723,3.717.078,8.8q24.5-.411,49.033-.782V1.956C43.5,1.291,36.956.665,30.454,0Z" transform="translate(0.329 139.904)" fill="#0f0a39"/>
          <g id="hand" transform="translate(69.409)">
            <path id="Path-22" data-name="Path" d="M2.247.042,2.083.077,2.162.066A2.831,2.831,0,0,0,.639.956L.516,1.1a2.956,2.956,0,0,0-.5,2.131l.038.17,0,.051L.073,3.6l.025.12,0,.02a1.067,1.067,0,0,0,2.125-.149l-.005-.119-.015-.115-.032-.143.008-.01L2.17,3.1l-.032-.144,0-.034a.834.834,0,0,1,.089-.531l.052-.052a1.563,1.563,0,0,1,.142-.114l.073-.05.155-.027c1.014-.131,3.033,1.841,5.091,5.071l.306.484.25.418c.118.2.235.412.364.651l.449.843a1.068,1.068,0,0,0,1.934-.9l-.082-.167-.25-.471-.368-.679-.268-.465L9.9,6.641l-.749-1.17C6.6,1.614,4.368-.317,2.247.042Z" transform="translate(7.878 0.356)" fill="#0f0a39"/>
            <path id="Path-23" data-name="Path" d="M.722.551A5.8,5.8,0,0,0,.868,6.407,5.637,5.637,0,0,0,3.8,8.736,5.9,5.9,0,0,0,5.691,9.1a1.069,1.069,0,0,0,0-2.137A3.58,3.58,0,0,1,2.678,5.272a3.66,3.66,0,0,1-.2-3.466l.112-.219A1.068,1.068,0,1,0,.722.551Z" transform="translate(3.777 10.075)" fill="#0f0a39"/>
            <path id="Path-24" data-name="Path" d="M.47.59A4.777,4.777,0,0,0,.156,3.879,4.669,4.669,0,0,0,1.964,6.455a5.03,5.03,0,0,0,1.514.777,1.069,1.069,0,0,0,.636-2.037l-.119-.037A2.775,2.775,0,0,1,2.221,3.332a2.712,2.712,0,0,1,.085-1.616l.075-.168A1.068,1.068,0,1,0,.47.59Z" transform="translate(5.262 15.982)" fill="#0f0a39"/>
            <path id="Path-25" data-name="Path" d="M1.316.005,1.267,0A1.068,1.068,0,0,0,.18.832,5.991,5.991,0,0,0,.727,5.2,6.154,6.154,0,0,0,2.048,6.754l.277.255.32.282A11.77,11.77,0,0,0,4.326,8.526,1.068,1.068,0,0,0,5.4,6.679,10.542,10.542,0,0,1,3.81,5.473l-.63-.591a3.291,3.291,0,0,1-.6-.739,3.914,3.914,0,0,1-.32-2.838,1.069,1.069,0,0,0-.8-1.279Z" transform="translate(6.053 19.973)" fill="#0f0a39"/>
            <path id="Path-26" data-name="Path" d="M.614.1A1.069,1.069,0,0,0,.1,1.525c.195.414.381.857.6,1.423l.228.607a24.972,24.972,0,0,1,1.382,8.313,1.068,1.068,0,1,0,2.136,0A27.126,27.126,0,0,0,2.938,2.829l-.224-.6c-.248-.649-.457-1.146-.68-1.619A1.068,1.068,0,0,0,.614.1Z" transform="translate(23.947 19.073)" fill="#0f0a39"/>
            <path id="Path-27" data-name="Path" d="M1.239.113A1.6,1.6,0,0,0,.9.347L.675.56l-.092.1A1.582,1.582,0,0,0,.37.982,3.638,3.638,0,0,0,.032,3.02C.229,4.4,1.2,5.332,3.454,6.48l.574.284a44.683,44.683,0,0,0,6.064,2.407,1.069,1.069,0,0,0,.636-2.04A42.562,42.562,0,0,1,4.952,4.836L4.46,4.594C2.834,3.771,2.22,3.229,2.147,2.717l-.012-.15,0-.11a1.729,1.729,0,0,1,.1-.408L2.256,2l.038-.037.026-.016A1.079,1.079,0,0,0,2.671.591,1.068,1.068,0,0,0,1.239.113Z" transform="translate(0.036 4.519)" fill="#0f0a39"/>
          </g>
          <g id="head" transform="translate(114.093 7.473)">
            <path id="face" d="M24.439,26.918a1.072,1.072,0,0,1-1.043-.844l-.019-.123-.626-6.38a1.068,1.068,0,0,1,.965-1.163c.033,0,.067,0,.1,0a1.072,1.072,0,0,1,1.043.847l.019.12.626,6.381a1.07,1.07,0,0,1-.965,1.163C24.505,26.917,24.472,26.918,24.439,26.918Zm-13.315,0a1.065,1.065,0,0,1-1.06-.939l-.007-.123,0-.23-.02-.529-.223-.014a10.71,10.71,0,0,1-7-3.2l-.239-.259-.221-.257a10.66,10.66,0,0,1-2.294-7.9A14.809,14.809,0,0,1,5.55,3.623,16.805,16.805,0,0,1,7.81,2.035,14.732,14.732,0,0,1,15.129,0a10.852,10.852,0,0,1,8.286,3.529l.2.235.217.271a10.577,10.577,0,0,1,2.028,7.925,1.426,1.426,0,0,1-.152.713,1.065,1.065,0,0,1-.956.591,1.053,1.053,0,0,1-.476-.113,1.072,1.072,0,0,1-.564-1.167l.014-.065.006-.1A8.674,8.674,0,0,0,22.362,5.64l-.193-.264-.2-.245a8.69,8.69,0,0,0-6.85-3A12.584,12.584,0,0,0,8.879,3.886,14.618,14.618,0,0,0,6.906,5.275a12.656,12.656,0,0,0-4.721,8.388A8.545,8.545,0,0,0,4,20a8.66,8.66,0,0,0,6.538,2.975l.273,0,.137-.029.142-.009a1.075,1.075,0,0,1,1.026.791l.032.134.01.143v.546l.007.287.027.688c0,.115,0,.208,0,.317A1.07,1.07,0,0,1,11.124,26.918ZM24.183,11.444l-.244.127c-.1.057-.108.071-.122.114l-.018.032.957.427.014-.052.007-.112,0-.09.013-.118,0-.016c-.017-.055-.06-.09-.174-.142l-.3-.121Z" transform="translate(0.147 0.083)" fill="#0f0a39"/>
            <path id="ear" d="M4.593,0A4.843,4.843,0,0,0,3.2.2a4.662,4.662,0,0,0-2.2,1.486A5.775,5.775,0,0,0,.093,3.177a1.068,1.068,0,1,0,1.951.869,3.745,3.745,0,0,1,.6-.986,2.524,2.524,0,0,1,1.177-.817,2.708,2.708,0,0,1,.774-.107A2.674,2.674,0,0,1,7.246,4.786,2.674,2.674,0,0,1,4.593,7.434a2.463,2.463,0,0,1-.472-.044l-.136-.033A1.069,1.069,0,0,0,3.4,9.413a4.4,4.4,0,0,0,1.194.158A4.811,4.811,0,0,0,9.382,4.786,4.811,4.811,0,0,0,4.593,0Z" transform="translate(20.268 11.17)" fill="#0f0a39"/>
            <path id="Path-28" data-name="Path" d="M16.527,10.994h-.548a2.724,2.724,0,0,0-.666.156,3.775,3.775,0,0,0-1.136.626A4.978,4.978,0,0,0,12.846,13.3c-1.018-2.66-2.076-5.321-3.094-7.981L0,1.8C5.326-1.174,11.4-.313,14.452,3.286,16.958,6.181,16.606,10.016,16.527,10.994Z" transform="translate(8.452 1.245)" fill="#0f0a39"/>
            <path id="Path-29" data-name="Path" d="M.157,5.634a12.522,12.522,0,0,0,2.428-.548A14.918,14.918,0,0,0,9.6,0,15.723,15.723,0,0,1,6.384,2.113,17.549,17.549,0,0,1,0,3.952C.039,4.538.117,5.086.157,5.634Z" transform="translate(11.154 19.868)" fill="#0f0a39"/>
          </g>
          <g id="legs" transform="translate(25.937 43.82)">
            <path id="Path-30" data-name="Path" d="M.992,0A1.068,1.068,0,0,0,0,1.144l.043.534c.016.187.035.384.057.6l.245,2.19.5,3.958.224,1.712c.144,1.08.279,2.055.421,3.043l.822,5.588.26,1.722.379,2.461.085.624.506,3.305.249,1.582c1.484,9.335,2.742,15.858,4.13,21.369l.339,1.316C11.7,64.081,16.3,71.788,23.77,76.875a32.77,32.77,0,0,0,12.894,5.153,35.516,35.516,0,0,0,4.777.517c.732.029,1.387.033,2.006.014L44,82.537C52.071,82,59.383,78.325,65.814,71.855a50.175,50.175,0,0,0,5.8-7.036c.593-.867,1.139-1.721,1.633-2.552l.293-.5c.092-.16.179-.313.262-.464l.225-.413a1.068,1.068,0,1,0-1.881-1.013l-.295.537c-.051.091-.1.183-.158.277l-.285.486c-.469.789-.99,1.6-1.558,2.434A48.048,48.048,0,0,1,64.3,70.348c-6.074,6.11-12.917,9.559-20.418,10.055-.52.027-1.067.037-1.676.026l-.688-.02a33.371,33.371,0,0,1-4.484-.486,30.652,30.652,0,0,1-12.062-4.814c-7-4.766-11.337-12.055-14.648-24.51l-.337-1.307C8.54,43.541,7.229,36.633,5.651,26.546l-.473-3.065L5.073,22.7l-.519-3.386q-.065-.43-.13-.869L3.5,12.122,3.18,9.812C3.093,9.158,3,8.463,2.9,7.7L2.519,4.651,2.264,2.414l-.077-.764L2.133.985A1.067,1.067,0,0,0,1.117,0Z" transform="translate(34.718 35.546)" fill="#0f0a39"/>
            <path id="Path-31" data-name="Path" d="M31.964.327C25.2,1.8,19.983,8.1,15.581,19.777l-.335.9C12.418,28.4,10.33,36.524,6.829,53.249L5.5,59.644q-2.679,13.274-4.4,26.407l-.189,1.47L.7,89.288c-.109.9-.217,1.814-.326,2.773L.006,95.347a1.069,1.069,0,0,0,.953,1.18l23.258,2.325,3.089.3,1.065.11a1.067,1.067,0,0,0,1.149-.808l9.986-40.1a1.068,1.068,0,1,0-2.072-.52L30.423,85.931,27.667,97.044,2.245,94.508l.248-2.2.216-1.858c.072-.6.144-1.2.216-1.782l.3-2.335Q4.938,73.288,7.6,60.072l.738-3.582c3.825-18.455,5.9-26.694,8.682-34.432l.351-.963C21.564,9.736,26.4,3.722,32.43,2.413a10.066,10.066,0,0,1,2.855-.241,18.646,18.646,0,0,1,5.929,1.366A26.778,26.778,0,0,1,47.952,7.49a1.068,1.068,0,0,0,1.322-1.679,29.215,29.215,0,0,0-6.7-4.025l-.582-.239C38-.012,34.858-.34,31.964.327Z" transform="translate(0.253 0.229)" fill="#0f0a39"/>
            <path id="Path-32" data-name="Path" d="M21.116.217C11.946,1.951,5.63,25.428,1.193,69.289L.7,74.23c-.272,2.817-.507,5.546-.7,8.1a1.068,1.068,0,1,0,2.13.16c.219-2.913.494-6.05.815-9.28l.365-3.655.257-2.491C7.805,26.727,13.978,3.742,21.514,2.317a10.53,10.53,0,0,1,4.65.18,8.755,8.755,0,0,1,.871.271l.169.069c3.756,1.651,6.028,5.96,7.447,13.92.133.745.26,1.525.39,2.4l.156,1.071.9,6.6c3.56,25.728,6.088,36.279,11,45.3l.438.791a25.315,25.315,0,0,0,8.8,9.554,17.534,17.534,0,0,0,7.627,2.5c7.611.545,14.6-3.936,20.956-12.436l.158-.226.069-.078a1.08,1.08,0,0,0-.092-1.405,1.067,1.067,0,0,0-1.509,0,2.207,2.207,0,0,0-.226.269l-.138.2-.556.729C76.868,79.424,70.633,83.3,64.12,82.833a15.411,15.411,0,0,1-6.7-2.2,23.6,23.6,0,0,1-8.3-9.255l-.3-.551c-4.8-8.94-7.272-19.747-10.94-46.716l-.377-2.8-.271-1.938-.16-1.067c-.079-.512-.158-.995-.238-1.461l-.171-.956C35.108,7.531,32.533,2.845,28.051.875a8.033,8.033,0,0,0-.917-.326L26.7.429A12.642,12.642,0,0,0,21.116.217Z" transform="translate(12.864 14.533)" fill="#0f0a39"/>
            <path id="Path-33" data-name="Path" d="M5.75.164a8.1,8.1,0,0,0-.958.744A13.207,13.207,0,0,0,2.827,3.093,15.576,15.576,0,0,0,0,12.709,28.725,28.725,0,0,0,3.165,24.383a1.068,1.068,0,1,0,1.923-.93A26.633,26.633,0,0,1,2.139,12.661,13.441,13.441,0,0,1,4.56,4.343,11.077,11.077,0,0,1,6.205,2.511a6.212,6.212,0,0,1,.683-.538A1.068,1.068,0,0,0,5.75.164Z" transform="translate(78.382 73.731)" fill="#0f0a39"/>
            <path id="Path-34" data-name="Path" d="M14.412,18.858c-.039-.274-.078-.587-.117-.861-2.35,9.351-4.661,18.741-7.01,28.092-.979,3.991-2,8.021-2.976,12.011-1.449-.157-2.859-.274-4.308-.43L2.35,46.089,11.749,0Z" transform="translate(24.428 40.331)" fill="#0f0a39"/>
            <path id="Path-35" data-name="Path" d="M28.257,41.433C13.1,48.867,7.3,45.659,5.542,44.329-5.5,36.112,3.192,3.873,4.249,0,15.529,8.92,23.4,26.879,28.257,41.433Z" transform="translate(45.145 5.689)" fill="#7c37fa"/>
          </g>
          <g id="sweater" transform="translate(70.594 27.302)">
            <path id="Path-36" data-name="Path" d="M64.19,102.7c-2.154,5.869-3.76,9.742-4.073,10.446l-.039-.039c-3.8-3.482-7.637-6.925-11.436-10.407a2.362,2.362,0,0,1-.313-.313c-4.151-3.8-8.3-7.551-12.454-11.346-2.037-1.839-4.034-3.678-6.07-5.517-1.919-6.964-3.877-13.968-5.8-20.932a158.738,158.738,0,0,0-6.815-17.254,91.833,91.833,0,0,0-9.2-15.806A45.6,45.6,0,0,0,0,23.123c1.1-4.46,2.193-8.92,3.251-13.459.352-1.526.744-3.052,1.1-4.578C4.739,3.4,5.13,1.682,5.561,0c2.624.352,5.4.822,8.3,1.408,2.937.626,5.718,1.291,8.3,2-.587,4.147-1.8,13.107-3.564,25.392-1.1,7.708-1.488,10.446-.352,11.033,1.919.939,5.561-5.164,10.848-12.285,4.935-6.651,11.318-14.163,19.073-17.684V5.79h18.8v4.3h0a18.981,18.981,0,0,1,3.681,2.191c5.091,3.834,7.559,10.485,8.342,18.584C81.03,53.014,70.339,86,64.19,102.7Z" transform="translate(4.209 0.235)" fill="#7c37fa"/>
            <path id="Path-37" data-name="Path" d="M29.859.43A84.825,84.825,0,0,1,15.625,15.345,82.3,82.3,0,0,1,.581,25.236a1.069,1.069,0,0,0-.513,1.327l.024.066.191.591.094.27c2.258,6.912,4.1,13.729,5.443,19.9a1.068,1.068,0,1,0,2.087-.455l-.26-1.177C6.316,39.829,4.544,33.367,2.4,26.794l-.029-.08.122-.062a84.25,84.25,0,0,0,14.494-9.658A86.949,86.949,0,0,0,31.572,1.707,1.068,1.068,0,1,0,29.859.43Z" transform="translate(27.109 38.643)" fill="#0f0a39"/>
            <g id="pattern" transform="translate(0.783 4.027)">
              <path id="Combined_Shape" data-name="Combined Shape" d="M60.231,104.46a1.065,1.065,0,0,1-.4-.076,1.078,1.078,0,0,1-.666-1.12l.021-.138.043-.138,1.879-4.734a1.073,1.073,0,0,1,1.393-.6,1.081,1.081,0,0,1,.666,1.121l-.021.137-.043.138-1.88,4.734A1.067,1.067,0,0,1,60.231,104.46ZM54.641,98.7a1.149,1.149,0,0,1-.437-.088l-.125-.059-.119-.082-4.935-3.952a1.073,1.073,0,0,1,1.065-1.837l.116.054.041.025.12.081L55.3,96.8a1.073,1.073,0,0,1,.166,1.51A1.054,1.054,0,0,1,54.641,98.7ZM65.6,91.861a1.1,1.1,0,0,1-.861-.433l-.08-.113-.063-.131L62.719,86.45a1.073,1.073,0,0,1,1.833-1.069l.074.1.024.043.063.13,1.88,4.734a1.076,1.076,0,0,1-.6,1.395A1.049,1.049,0,0,1,65.6,91.861Zm-9.445-4.733a1.067,1.067,0,0,1-.4-.076,1.079,1.079,0,0,1-.666-1.12l.021-.138.043-.138,1.88-4.734a1.072,1.072,0,0,1,1.392-.6,1.08,1.08,0,0,1,.666,1.12l-.021.138-.043.138L57.155,86.45A1.068,1.068,0,0,1,56.158,87.128Zm-13.355-.2a1.069,1.069,0,0,1-.947-1.567l.068-.122.09-.112,3.955-4.3a1.07,1.07,0,0,1,1.738,1.219l-.068.121-.09.113-3.955,4.3A1.075,1.075,0,0,1,42.8,86.932Zm-4.845-7.323a1.147,1.147,0,0,1-.447-.092l-.124-.06-.119-.083-4.9-3.991a1.074,1.074,0,0,1,1.081-1.828l.115.055.041.025.118.083,4.9,3.991a1.074,1.074,0,0,1,.153,1.512A1.052,1.052,0,0,1,37.958,79.609Zm25.758-1.832a1.067,1.067,0,0,1-1.072-1.047,1.078,1.078,0,0,1,.769-1.051l.134-.035.143-.014,6.305-.157h.027a1.071,1.071,0,0,1,.3,2.1l-.134.035-.144.014-6.305.157ZM52.174,77.77a1.145,1.145,0,0,1-.442-.09l-.124-.059-.119-.082-4.9-3.952a1.074,1.074,0,0,1,1.073-1.833l.115.054.041.025.119.083,4.9,3.951A1.074,1.074,0,0,1,53,77.378,1.054,1.054,0,0,1,52.174,77.77Zm8.062-4.963a1.093,1.093,0,0,1-.86-.433L59.3,72.26l-.063-.13L57.353,67.4a1.073,1.073,0,0,1,1.834-1.069l.074.1.023.042.064.13,1.879,4.734a1.073,1.073,0,0,1-.6,1.395A1.051,1.051,0,0,1,60.236,72.807ZM73.7,70.5a1.074,1.074,0,0,1-.163-2.135l.125-.012.549-.019,2.254-.054.132-.006.125,0a1.074,1.074,0,0,1,.079,2.132l-.126.013-1.249.034-1.55.039-.131,0Zm-5.794-1.173a1.084,1.084,0,0,1-.971-.627l-.053-.129-.035-.14-1.057-6.26a1.074,1.074,0,0,1,.88-1.238,1.072,1.072,0,0,1,1.137.575l.05.118.015.047.034.14,1.057,6.26a1.074,1.074,0,0,1-1.058,1.253Zm-27.024-.782a1.067,1.067,0,0,1-.4-.077,1.079,1.079,0,0,1-.662-1.122l.021-.137.043-.138,1.88-4.7a1.072,1.072,0,0,1,1.394-.6,1.081,1.081,0,0,1,.663,1.121l-.022.138-.043.138-1.88,4.694A1.069,1.069,0,0,1,40.883,68.543Zm10.04-3.365a1.091,1.091,0,0,1-1.043-.793l-.032-.136-.011-.145V57.766a1.084,1.084,0,0,1,2.128-.281l.032.136.012.145V64.1A1.081,1.081,0,0,1,50.923,65.178ZM5.264,65.167A1.068,1.068,0,0,1,4.2,63.979l.019-.138.042-.138L6.1,58.97a1.082,1.082,0,0,1,1-.685,1.067,1.067,0,0,1,.388.073,1.08,1.08,0,0,1,.674,1.115l-.02.137-.042.139-1.84,4.734A1.068,1.068,0,0,1,5.264,65.167Zm14.7-1.049A1.069,1.069,0,0,1,18.9,62.931l.02-.138.041-.139L20.8,57.92a1.08,1.08,0,0,1,1-.685,1.067,1.067,0,0,1,.388.073,1.08,1.08,0,0,1,.674,1.115l-.02.138L22.8,58.7l-1.841,4.734A1.065,1.065,0,0,1,19.96,64.118Zm55.669-1.132a1.1,1.1,0,0,1-.85-.419l-.082-.112-.065-.129L72.2,56.5a1.074,1.074,0,0,1,1.816-1.1l.075.1.025.042.066.129L76.612,61.5a1.073,1.073,0,0,1-.579,1.4A1.047,1.047,0,0,1,75.629,62.986ZM29.1,61.109a1.069,1.069,0,0,1-.948-1.567l.068-.121.089-.113L32.261,55A1.07,1.07,0,0,1,34,56.224l-.068.122-.089.113-3.956,4.3A1.075,1.075,0,0,1,29.1,61.109Zm30.672-2.153a1.1,1.1,0,0,1-.861-.433l-.079-.113-.064-.13-1.879-4.734a1.073,1.073,0,0,1,1.834-1.069l.074.1.023.043.063.13,1.88,4.734a1.073,1.073,0,0,1-.6,1.4A1.054,1.054,0,0,1,59.767,58.956Zm4.692-1.76a1.068,1.068,0,0,1-.395-.076A1.08,1.08,0,0,1,63.4,56l.02-.138.043-.138,1.88-4.734a1.07,1.07,0,0,1,2.058.517l-.02.138-.043.138-1.88,4.734A1.069,1.069,0,0,1,64.459,57.2Zm-50.8-.421A1.068,1.068,0,0,1,12.6,55.588l.019-.138.042-.138L14.5,50.578a1.072,1.072,0,0,1,1.389-.612,1.08,1.08,0,0,1,.674,1.115l-.02.138-.042.138-1.841,4.734A1.068,1.068,0,0,1,13.661,56.776ZM39.755,54.81a1.1,1.1,0,0,1-.86-.431l-.079-.113-.064-.13-1.879-4.7A1.073,1.073,0,0,1,38.7,48.366l.074.1.024.042.064.13,1.879,4.7a1.074,1.074,0,0,1-.6,1.4A1.049,1.049,0,0,1,39.755,54.81ZM75,51.8a1.1,1.1,0,0,1-.865-.437l-.078-.114L74,51.115l-1.84-4.694a1.075,1.075,0,0,1,1-1.467,1.082,1.082,0,0,1,.839.4l.073.1.024.043.062.13L76,50.332a1.076,1.076,0,0,1-.608,1.392A1.053,1.053,0,0,1,75,51.8Zm-22.554-.358a1.146,1.146,0,0,1-.443-.09l-.125-.06-.118-.082-4.935-3.991A1.074,1.074,0,0,1,47.9,45.383l.115.055.041.025.119.082,4.935,3.991a1.075,1.075,0,0,1,.159,1.512A1.054,1.054,0,0,1,52.448,51.439ZM3.165,49.433a1.067,1.067,0,0,1-.388-.073A1.08,1.08,0,0,1,2.1,48.245l.02-.138.042-.138,1.841-4.734a1.072,1.072,0,0,1,1.389-.612,1.08,1.08,0,0,1,.673,1.115l-.019.137-.042.139-1.84,4.734A1.068,1.068,0,0,1,3.165,49.433ZM29.1,48a1.069,1.069,0,0,1-.948-1.567l.068-.121L28.3,46.2l3.956-4.3A1.07,1.07,0,0,1,34,43.117l-.068.121-.089.113-3.956,4.3A1.075,1.075,0,0,1,29.1,48Zm32.082-.9a1.1,1.1,0,0,1-.862-.433l-.079-.113-.063-.131-1.88-4.734a1.073,1.073,0,0,1,1.834-1.069l.074.1.024.043.063.13,1.88,4.734a1.076,1.076,0,0,1-.6,1.4A1.054,1.054,0,0,1,61.177,47.1Zm-41.717-1.72a1.069,1.069,0,0,1-.724-.282,1.08,1.08,0,0,1-.223-1.284l.068-.121.09-.113,2.585-2.817a1.071,1.071,0,0,1,1.739,1.219l-.068.121-.089.113-2.585,2.817A1.076,1.076,0,0,1,19.461,45.381Zm62.048-.593a1.142,1.142,0,0,1-.45-.094l-.125-.061-.118-.083-4.621-3.8a1.073,1.073,0,0,1,1.087-1.823l.115.055.041.026.118.083,4.621,3.8a1.074,1.074,0,0,1,.148,1.512A1.054,1.054,0,0,1,81.508,44.788ZM39.826,43.151a1.068,1.068,0,0,1-.948-1.566l.068-.122.09-.113,3.955-4.3a1.07,1.07,0,0,1,1.737,1.22l-.068.121-.09.113-3.955,4.3A1.076,1.076,0,0,1,39.826,43.151ZM67.4,42.368a1.067,1.067,0,0,1-.388-.073,1.08,1.08,0,0,1-.674-1.115l.02-.138.042-.138,1.841-4.734a1.07,1.07,0,0,1,2.062.5l-.019.138-.042.138L68.4,41.683A1.068,1.068,0,0,1,67.4,42.368ZM11.562,41.042a1.067,1.067,0,0,1-.388-.073,1.08,1.08,0,0,1-.674-1.115l.02-.138.042-.138L12.4,34.844a1.072,1.072,0,0,1,1.389-.612,1.08,1.08,0,0,1,.673,1.115l-.019.138-.042.138-1.841,4.734A1.08,1.08,0,0,1,11.562,41.042Zm38.29-1.06a1.069,1.069,0,0,1-.948-1.567l.068-.121.09-.113,3.955-4.3a1.07,1.07,0,0,1,1.737,1.22l-.068.121-.09.113-3.956,4.3A1.076,1.076,0,0,1,49.852,39.982Zm-18.8-1.917a1.065,1.065,0,0,1-.4-.076,1.078,1.078,0,0,1-.666-1.12l.021-.138.043-.138,1.879-4.734a1.073,1.073,0,0,1,1.393-.6,1.081,1.081,0,0,1,.666,1.12l-.021.138-.043.138-1.88,4.734A1.067,1.067,0,0,1,31.054,38.065ZM1.066,35.8a1.07,1.07,0,0,1-.388-.073A1.08,1.08,0,0,1,0,34.61l.019-.138.042-.138L1.907,29.6a1.071,1.071,0,0,1,1.388-.612A1.079,1.079,0,0,1,3.969,30.1l-.02.138-.042.139L2.066,35.113A1.068,1.068,0,0,1,1.066,35.8Zm75.816-.746a1.1,1.1,0,0,1-.862-.433l-.079-.114-.063-.13L74,29.641a1.074,1.074,0,0,1,1.834-1.07l.074.1.024.042.063.13,1.879,4.734a1.073,1.073,0,0,1-.6,1.4A1.05,1.05,0,0,1,76.882,35.051ZM64.667,34.3a1.145,1.145,0,0,1-.445-.091L64.1,34.15l-.118-.083-4.9-3.991a1.074,1.074,0,0,1,1.081-1.828l.114.055.042.025.118.083,4.9,3.991a1.074,1.074,0,0,1,.153,1.512A1.056,1.056,0,0,1,64.667,34.3ZM42.332,32a1.069,1.069,0,0,1-.395-.076,1.081,1.081,0,0,1-.666-1.12l.021-.138.043-.138,1.88-4.734a1.072,1.072,0,0,1,1.392-.6,1.08,1.08,0,0,1,.666,1.12l-.021.138-.043.138-1.879,4.734A1.069,1.069,0,0,1,42.332,32ZM10.1,29.77a1.069,1.069,0,0,1-.718-.276,1.081,1.081,0,0,1-.234-1.282l.067-.122.088-.113,1.449-1.6A1.071,1.071,0,0,1,12.5,27.577l-.068.122-.088.113-1.449,1.6A1.076,1.076,0,0,1,10.1,29.77Zm72.1-1.8a1.07,1.07,0,0,1-.54-.146l-.113-.076-3.524-2.7a1.074,1.074,0,0,1,1.192-1.781l.112.076,3.524,2.7a1.074,1.074,0,0,1-.653,1.927Zm-13.434-.7a1.069,1.069,0,0,1-.395-.076,1.081,1.081,0,0,1-.666-1.12l.021-.138.043-.138,1.88-4.734a1.072,1.072,0,0,1,1.392-.6,1.08,1.08,0,0,1,.666,1.12l-.021.138-.043.138-1.879,4.734A1.069,1.069,0,0,1,68.768,27.266Zm-18.8-1.174a1.064,1.064,0,0,1-.4-.077,1.081,1.081,0,0,1-.663-1.121l.021-.138.044-.137,1.88-4.7a1.07,1.07,0,0,1,1.394-.6,1.077,1.077,0,0,1,.662,1.121l-.021.137-.043.138-1.88,4.7A1.068,1.068,0,0,1,49.97,26.093ZM38.222,23.9a1.077,1.077,0,0,1-.986-.662l-.049-.13-.03-.141-.588-4.421a1.073,1.073,0,0,1,.923-1.206,1.072,1.072,0,0,1,1.116.615l.046.12.013.047.03.141.587,4.422A1.072,1.072,0,0,1,38.222,23.9Zm-22.09-.352a1.069,1.069,0,0,1-.948-1.567l.068-.121.09-.113,3.955-4.3a1.07,1.07,0,0,1,1.737,1.219l-.067.122-.09.113-3.956,4.3A1.075,1.075,0,0,1,16.132,23.549ZM60.23,21.4a1.069,1.069,0,0,1-.947-1.567l.068-.121.089-.113,3.955-4.3a1.07,1.07,0,0,1,1.738,1.219l-.068.122-.089.112-3.955,4.3A1.077,1.077,0,0,1,60.23,21.4Zm16.657-2.314a1.143,1.143,0,0,1-.446-.092l-.125-.06-.118-.083-4.9-3.991a1.075,1.075,0,0,1,1.082-1.829l.114.055.042.026.118.083,4.9,3.991a1.068,1.068,0,0,1-.666,1.9Zm-69.282,0a1.141,1.141,0,0,1-.447-.093l-.124-.06-.119-.083L3.469,16.03A1.074,1.074,0,0,1,4.552,14.2l.115.055.041.026.118.083,3.446,2.817A1.074,1.074,0,0,1,8.424,18.7,1.055,1.055,0,0,1,7.605,19.083Zm37.2-1.989a1.07,1.07,0,0,1-.868-1.7l.085-.11.105-.1,4.9-3.991a1.071,1.071,0,0,1,1.545,1.456l-.085.11-.1.1-4.9,3.991A1.075,1.075,0,0,1,44.8,17.094ZM11.941,13.1a1.069,1.069,0,0,1-.395-.076,1.081,1.081,0,0,1-.666-1.12l.021-.138.043-.138L12.824,6.9a1.072,1.072,0,0,1,1.392-.6,1.08,1.08,0,0,1,.666,1.12l-.021.138-.043.138-1.879,4.734A1.07,1.07,0,0,1,11.941,13.1Zm45.163,0a1.1,1.1,0,0,1-.861-.433l-.08-.114-.063-.13L54.22,7.691a1.074,1.074,0,0,1,1.834-1.07l.073.1.024.043.063.13,1.88,4.734a1.074,1.074,0,0,1-.6,1.395A1.053,1.053,0,0,1,57.1,13.1ZM23.859,9.849a1.147,1.147,0,0,1-.447-.092l-.124-.06-.119-.083L18.9,6.132A1.074,1.074,0,0,1,19.982,4.3l.115.055.041.026.118.082,4.27,3.483a1.074,1.074,0,0,1,.152,1.512A1.053,1.053,0,0,1,23.859,9.849ZM67.411,8.13a1.134,1.134,0,0,1-.584-.166l-.114-.078-.105-.1L63.591,4.5a1.074,1.074,0,0,1,1.323-1.66l.116.076.142.131,3.016,3.287a1.076,1.076,0,0,1-.066,1.518A1.052,1.052,0,0,1,67.411,8.13ZM9.6,3.824a1.148,1.148,0,0,1-.444-.091l-.125-.06-.118-.082L6.84,1.909A1.074,1.074,0,0,1,7.916.077l.115.055.041.025.119.082,2.075,1.682a1.075,1.075,0,0,1,.158,1.512A1.053,1.053,0,0,1,9.6,3.824Z" transform="translate(0.218 0.259)" fill="#0f0a39"/>
            </g>
          </g>
        </g>
        <g id="pencil" transform="translate(189.44 152.081)">
          <path id="Path-38" data-name="Path" d="M3.191.624A1.069,1.069,0,0,0,3.6,1.978L31.71,19.433l-1.726,3.038-.132-.12-.213-.206-.2-.21-.075-.083-.059-.146a17.745,17.745,0,0,0-1.409-2.631c-1.6-2.467-3.323-3.926-8.067-6.808L18.558,11.5l-.827-.49C10.3,6.641,7.04,5.563,4.888,6.783L3.371,5.775l-.538-.391L1.708,4.556A1.068,1.068,0,0,0,.42,6.261l1.77,1.3.844.564,1.283.841a1.066,1.066,0,0,0,1.24-.045l.119-.1.08-.058c.037-.025.082-.054.128-.082l.069-.04c1.285-.715,4.4.462,11.544,4.724l1.2.724.779.477c3.864,2.388,5.307,3.648,6.617,5.673a15.021,15.021,0,0,1,1.351,2.585l.136.24.286.331c.166.177.34.351.522.523l.281.257c.055.048.132.113.234.2l.69.566.109.079a1.076,1.076,0,0,0,1.508-.377l2.857-5.044a1.07,1.07,0,0,0-.367-1.432L4.724.16A1.068,1.068,0,0,0,3.254.506Z" transform="translate(4.846 1.709)" fill="#0f0a39"/>
          <path id="Path-39" data-name="Path" d="M5.483,7.316C3.642,4.891,1.841,2.426,0,0,2.937.822,5.914,1.643,8.851,2.5c.117.626.274,1.291.392,1.917-.7.117-1.41.235-2.154.391.352.743.7,1.448,1.057,2.191C7.245,7.082,6.345,7.2,5.483,7.316Z" transform="translate(0.313)" fill="#7c37fa"/>
          <path id="Path-40" data-name="Path" d="M2.106.528.146,3.936A1.068,1.068,0,0,0,1.99,5.014l.149-.255L3.318,2.7,3.95,1.607A1.068,1.068,0,0,0,2.106.528Z" transform="translate(31.202 17.633)" fill="#0f0a39"/>
        </g>
      </g>
    </g>
  </g>
</svg>
