<svg xmlns="http://www.w3.org/2000/svg" xmlns:xlink="http://www.w3.org/1999/xlink" width="375" height="812" viewBox="0 0 375 812">
  <defs>
    <clipPath id="clip-Logo">
      <rect width="375" height="812"/>
    </clipPath>
  </defs>
  <g id="Logo" clip-path="url(#clip-Logo)">
    <rect width="375" height="812" fill="#fff"/>
    <g id="Illus" transform="translate(590 -88)">
      <g id="background">
        <g id="background_1_">
          <path id="Shape" d="M0,3.984C0,1.781-2.064,0-4.617,0S-9.234,1.781-9.234,3.984s2.065,3.983,4.617,3.983S0,6.187,0,3.984Z" transform="translate(-59.259 358.704)"/>
          <circle id="Oval" cx="3.5" cy="3.5" r="3.5" transform="translate(-317.767 239.636)" fill="#2de6ea"/>
          <path id="Shape-2" data-name="Shape" d="M-3.186,7.567A4.511,4.511,0,0,0-.524,5.693,3.344,3.344,0,0,0-.2,2.74,4.666,4.666,0,0,0-5.792.161,3.83,3.83,0,0,0-8.78,4.989a4.143,4.143,0,0,0,2.173,2.3,4.786,4.786,0,0,0,2.119.469A4.179,4.179,0,0,0-3.186,7.567Z" transform="translate(-30.708 141.436)"/>
          <ellipse id="Oval-2" data-name="Oval" cx="4.074" cy="3.515" rx="4.074" ry="3.515" transform="translate(-152.356 15.608)" fill="#9050a6"/>
          <ellipse id="Oval-3" data-name="Oval" cx="7.822" cy="6.749" rx="7.822" ry="6.749" transform="translate(-16.023 269.696)" fill="#9050a6"/>
          <path id="Shape-3" data-name="Shape" d="M-2.213,8A4.239,4.239,0,0,0-.095,5.19,3.8,3.8,0,0,0-.909,1.91,5.022,5.022,0,0,0-4.168.082a5.557,5.557,0,0,0-3.8.7A4.242,4.242,0,0,0-10.089,3.6a3.8,3.8,0,0,0,.815,3.28A5.018,5.018,0,0,0-6.015,8.706a6.47,6.47,0,0,0,.923.047A6.051,6.051,0,0,0-2.213,8Z" transform="translate(-413.793 28.51)"/>
          <path id="Shape-4" data-name="Shape" d="M-4.012,8a3.939,3.939,0,0,0,2.246-.684A3.976,3.976,0,0,0-.077,4.744,3.93,3.93,0,0,0-.686,1.752,3.934,3.934,0,0,0-3.969,0,3.967,3.967,0,0,0-6.081.609L-6.25.722A3.917,3.917,0,0,0-7.89,3.082,3.987,3.987,0,0,0-7.5,5.936l.108.184.116.176A3.952,3.952,0,0,0-4.012,8Zm.018-6a1.993,1.993,0,0,1,1.643.868,1.943,1.943,0,0,1,.316,1.507,1.9,1.9,0,0,1-.82,1.264A1.986,1.986,0,0,1-4,6a2.014,2.014,0,0,1-1.642-.864,1.968,1.968,0,0,1-.334-1.481,1.964,1.964,0,0,1,.816-1.276A2.131,2.131,0,0,1-3.994,2Z" transform="translate(-426.5 187.5)" fill="#2de6ea"/>
          <path id="Shape-5" data-name="Shape" d="M-14.788,25.932-.122,13.276a.333.333,0,0,0,0-.516L-14.788.105a.475.475,0,0,0-.6,0L-30.05,12.76a.333.333,0,0,0,0,.516l14.665,12.656a.855.855,0,0,0,.326.094A.451.451,0,0,0-14.788,25.932Z" transform="translate(-16.064 20.518)"/>
          <path id="Shape-6" data-name="Shape" d="M-10.473,21a.915.915,0,0,0,.538-.182l.082-.072,9.6-9.619A.906.906,0,0,0,0,10.507a.915.915,0,0,0-.181-.537l-.072-.083L-9.853.267A.905.905,0,0,0-10.5,0a.919.919,0,0,0-.554.185l-.094.082-9.6,9.619a.906.906,0,0,0-.253.62.915.915,0,0,0,.181.538l.072.082,9.6,9.619A.825.825,0,0,0-10.473,21ZM-10.5,2.207h0L-2.207,10.5-10.5,18.793-18.793,10.5-10.5,2.207Z" transform="translate(-109.5 299.5)" fill="#ffcc0a"/>
          <path id="Rectangle" d="M0,0-11.839.871-12.71,12.71l11.839-.871Z" transform="translate(-472.711 70.023) rotate(45)" fill="#9050a6"/>
          <path id="Shape-7" data-name="Shape" d="M-11.64,25h.374a.9.9,0,0,0,.668-.271l.048-.076L-.167,11.334A.887.887,0,0,0-.248,10.2l-.092-.069L-14.472.074l.216.05-.1-.048-.029-.011L-14.4.058A.86.86,0,0,0-14.7,0l-.1.008L-14.9.03a.812.812,0,0,0-.457.2L-15.412.3l-.043.07L-25.927,13.975l.056-.23-.05.1c-.006.014-.013.029-.019.045A.809.809,0,0,0-26,14.2l.009.1.022.087a.789.789,0,0,0,.217.455l.069.058.074.042L-11.641,25ZM-14.554,2.186l12.335,8.839-9.233,11.79-12.335-8.839,9.233-11.79Z" transform="translate(-396.497 245.499)" fill="#7c37fa"/>
          <path id="Path" d="M-8.473.254l8.242,8.9a.831.831,0,0,1-.095,1.234l-.129.081-.136.064a.817.817,0,0,1-.334.07.991.991,0,0,1-.653-.262l-8.242-8.9A.831.831,0,0,1-9.724.207l.055-.041A.97.97,0,0,1-8.473.254Z" transform="translate(-459.296 108.249)" fill="#ffcc0a"/>
          <path id="Path-2" data-name="Path" d="M-.424,9.6a.628.628,0,0,0,.272-.094A.334.334,0,0,0-.1,8.99L-8.3.132A.473.473,0,0,0-8.9.085.334.334,0,0,0-8.952.6l8.2,8.859A.5.5,0,0,0-.424,9.6Z" transform="translate(-48.732 232.677)"/>
          <path id="Path-3" data-name="Path" d="M-7.281,10.405a.3.3,0,0,0,.326-.187l6.9-9.7A.323.323,0,0,0-.165.047.406.406,0,0,0-.708.187l-6.9,9.655a.323.323,0,0,0,.109.469A.281.281,0,0,0-7.281,10.405Z" transform="translate(-247.299)"/>
          <path id="Path-4" data-name="Path" d="M-.3.227A.833.833,0,0,1-.3,1.5l-9.571,7.79a.94.94,0,0,1-.587.206,1.165,1.165,0,0,1-.524-.135l-.129-.081a.833.833,0,0,1,0-1.273L-1.546.227A.975.975,0,0,1-.3.227Z" transform="translate(-197.539 295.132)" fill="#7c37fa"/>
          <path id="Path-5" data-name="Path" d="M-.264.254A.841.841,0,0,1-.319,1.526L-10.627,8.637l-.06.036-.161.076a.817.817,0,0,1-.334.07.991.991,0,0,1-.653-.262.841.841,0,0,1,.054-1.273L-1.46.166A.97.97,0,0,1-.264.254Z" transform="translate(-484.165 204.007)" fill="#7c37fa"/>
        </g>
      </g>
      <g id="general_1_" transform="translate(-48 7)">
        <g id="general">
          <g id="lines">
            <g id="Group">
              <path id="Path-6" data-name="Path" d="M-82.337,1.237l.428.157c2.973,1.112,5.579,2.52,11.537,6.025l1.271.746c12.313,7.192,19.235,10.09,29.014,10.981,12.214,1.113,25.245-2.651,38.722-11.2a.963.963,0,0,1,1.2.211A.829.829,0,0,1-.418,9.361c-13.8,8.749-27.207,12.617-39.868,11.483C-49.637,20-57.369,16.933-67.9,10.865l-4.679-2.729C-78.023,4.982-80.257,3.818-83,2.815c-3.746-1.37-6.811-1.53-9.652-.353-2.61,1.077-3.9,2.562-5.684,5.985l-.769,1.5c-2.256,4.353-4.294,6.517-8.506,7.884-3.693,1.209-6.525,1.086-11.924-.023l-1.442-.3c-5.516-1.121-8.379-1.129-12.281.452-4.314,1.811-7.849,4.4-8.731,7.942-.589,2.446.158,4.316,2.552,7.63l.447.611.472.638c2.566,3.52,3.286,5.43,2.412,8.1-1.445,4.356-7.935,7.651-13.834,7.6-3.054,0-4.862-.918-7.571-3.329l-1.809-1.639-.164-.143a15.826,15.826,0,0,0-5.693-3.34c-9.777-3.248-24.435,1.25-27.94,8.495a6.814,6.814,0,0,0-.5,4.578,9.8,9.8,0,0,1-.741,6.406c-2.509,5.454-8.709,9.767-15.518,10.821a26.45,26.45,0,0,1-3.374.24,28.246,28.246,0,0,1-16.3-5.575c-3.326-2.635-5.137-5.585-4.9-8.122.193-2.131,1.258-3.151,4.6-4.97l1.318-.711a30.043,30.043,0,0,0,3.551-2.178,18.511,18.511,0,0,0,4.771-4.959,12.625,12.625,0,0,0,2.312-7.079l.108-1.434c.016-.192.031-.352.048-.515l.013-.124a9.949,9.949,0,0,1,2.248-5.534c2.207-2.769,5.226-4.445,9.292-5.54l.456-.119c1.253-.318,2.192-.509,4.148-.853l1.855-.324c4.727-.836,6.534-1.54,7.21-3.2.88-2.2-.784-5.91-4.374-9.423-4.2-4.111-9.635-6.716-13.447-5.951-2.022.393-2.924,1.434-4.787,5.121l-.727,1.443a35.079,35.079,0,0,1-2.826,4.794c-4.891,6.993-13.206,13.309-22.869,17.35a.9.9,0,0,1-1.167-.352.8.8,0,0,1,.4-1.177c9.4-3.953,17.479-10.078,22.117-16.769a37.919,37.919,0,0,0,2.832-4.842l.766-1.514c2.023-3.931,3.2-5.2,5.852-5.737,4.509-.887,10.572,1.942,15.153,6.4,3.92,3.8,6.066,8.107,4.762,11.222-.97,2.32-2.91,3.211-7.927,4.118l-3.16.546c-.838.15-1.4.26-2.075.406-4.649,1.006-7.768,2.528-9.993,5.343a8.454,8.454,0,0,0-1.74,3.774l-.052.3c-.064.4-.108.8-.157,1.415l-.053.7a14.575,14.575,0,0,1-2.566,8.426,19.82,19.82,0,0,1-5,5.265l-.5.357a34.3,34.3,0,0,1-3.535,2.123l-1.82.986c-.176.1-.32.179-.466.264l-.178.1c-1.671.992-2.387,1.8-2.478,2.93-.2,1.862,1.39,4.388,4.244,6.634a24.511,24.511,0,0,0,18.1,4.954c6.241-.961,11.92-4.9,14.111-9.773a8.473,8.473,0,0,0,.663-5.533,8.066,8.066,0,0,1,.641-5.48c3.9-8.063,19.635-12.919,30.182-9.381,3.033.995,4.784,2.212,7.694,4.879,2.785,2.6,4.238,3.435,6.968,3.472,5.185.049,10.874-2.818,12.062-6.4.661-2.02,0-3.635-2.29-6.8l-.548-.751c-2.931-3.981-3.856-6.169-3.065-9.311,1.076-4.232,5.208-7.271,9.816-9.095,4.39-1.766,7.585-1.726,13.653-.495l.69.142c5.562,1.153,8,1.3,11.423.2,3.607-1.214,5.3-2.988,7.365-6.885l.454-.872.091-.124c.109-.26.209-.454.311-.647,1.868-3.562,3.422-5.4,6.317-6.641l.294-.122C-90.047-.437-86.5-.265-82.337,1.237Z" transform="translate(-100.788 105.319)" fill="#2de6ea"/>
              <path id="Path-7" data-name="Path" d="M-1.905.717l.3-.38A.959.959,0,0,1-.415.116.831.831,0,0,1-.16,1.322C-3.815,5.906-8.3,9.257-13.7,10.444c-3.726.816-6.288.484-10.7-.934l-1.857-.587-.1-.03c-3.391-1.018-5.728-1.193-8.719-.33-3.866,1.152-5.665,2.859-8.417,7.27l-.9,1.456-.505.79c-2.578,3.957-4.7,6.045-8.542,7.776a20.233,20.233,0,0,1-3.391,1.184c-4.546,1.15-8.736.852-15.237-.553l-1.854-.412c-6.426-1.407-8.45-1.521-9.861-.09-1.932,1.94-.838,5.253,3.378,12.817l1.388,2.5A40.151,40.151,0,0,1-75.7,48.407c1.055,3.228.933,5.727-.659,7.557l-.231.255c-2.339,2.462-5.586,2.328-14.733.516l-1.666-.331c-10.641-2.064-15.868-2.076-21.35.979-6.058,3.374-10.464,10.847-11.207,19.032-.53,6.189,1.217,11.293,4.78,14.02,4.2,3.24,12.079,4.385,17.226,2.093a10.374,10.374,0,0,0,3.53-2.571l.687-.73c1.933-2.092,3.076-2.919,5.292-3.378,4.28-.859,10.235,1.306,13.518,5.321,3.009,3.7,2.71,8.026-.618,17.61a.907.907,0,0,1-.851.57h-.216l-.106-.011a.831.831,0,0,1-.645-1.049l.3-.9c2.857-8.545,3.055-12.173.6-15.164-2.684-3.263-7.808-5.481-11.679-4.695-1.736.367-2.567.982-4.272,2.843a13.215,13.215,0,0,1-4.812,3.721c-5.738,2.574-14.437,1.314-19.163-2.3-4.063-3.175-6.044-8.836-5.438-15.513.77-8.669,5.505-16.638,12.094-20.329a23.081,23.081,0,0,1,12.263-2.55l.773.032A65.79,65.79,0,0,1-93.01,54.7l2.045.4.855.168c7.8,1.519,10.678,1.55,12.35-.38,2.02-2.31.973-5.875-3.061-13.185L-82.3,39.057a41.508,41.508,0,0,1-3.531-7.406c-.961-2.948-.809-5.186.73-6.785,1.988-2.015,4.287-1.993,10.833-.548l2.067.457,1.1.235c5.389,1.118,8.923,1.4,12.693.689a18.586,18.586,0,0,0,4.222-1.317c3.674-1.644,5.517-3.558,8.214-7.865l.8-1.293c3-4.859,5.134-6.942,9.6-8.231,3.849-1.124,6.382-.794,11.322.8,4.419,1.435,6.715,1.775,10.174,1.017C-9.268,7.754-5.205,4.783-1.905.717Z" transform="translate(-260.605 30.669)" fill="#7c37fa"/>
              <path id="Shape-8" data-name="Shape" d="M-6.525,31.464a.345.345,0,0,0,.325-.14c5.622-7.16,7.947-16.475,4.757-19.236-1.352-1.123-3.353-.983-5.46-.842-2.325.14-4.7.328-6.326-1.217-1.189-1.123-1.244-2.481-1.3-3.932-.054-1.591-.162-3.229-1.73-4.54C-18.851-.549-23.123.013-25.177.247A16.464,16.464,0,0,0-31.557,2.4a10.638,10.638,0,0,1-5.407,1.638,10.422,10.422,0,0,1-4.108-.7,7,7,0,0,0-4.109-.468,11.626,11.626,0,0,0-8.434,7.3,10.794,10.794,0,0,0,4.866,12.776c3.514,1.873,6.812.655,10.6-.8,3.406-1.264,7.3-2.714,12.272-2.387,5.785.421,8.813,3,13.354,6.927,1.622,1.4,3.46,2.948,5.677,4.68a.437.437,0,0,0,.324.094Zm0,0Z" transform="translate(-254.961 0.362)"/>
              <path id="Path-8" data-name="Path" d="M-.392,50.173h.108a.332.332,0,0,0,.27-.421A20.922,20.922,0,0,0-4.5,42.4c-7.137-7.676-19.95-11.7-33.412-10.484-.973.094-1.946.187-2.865.281a33.956,33.956,0,0,1-9.732.187c-6.326-1.123-8.813-4.961-11.516-9.08-2.217-3.37-4.433-6.833-8.975-8.893-6.812-3.136-13.192-.842-19.9,1.544-6.812,2.387-13.787,4.914-22.221,2.574-6.812-1.919-9.84-5.991-12.759-9.922S-131.5.937-137.772.141c-14.706-1.825-30.817,14.649-32.6,16.521a53.662,53.662,0,0,0-5.893,7.582c-1.946,2.9-3.244,4.867-6.65,5.991-8.11,2.668-17.733-2.668-27.087-7.863a87.539,87.539,0,0,1-11.408-7.442.476.476,0,0,0-.595.047.337.337,0,0,0,.054.515,92.278,92.278,0,0,0,11.462,7.488c9.515,5.289,19.355,10.765,27.79,7.956,3.622-1.217,4.974-3.229,7.028-6.272a50.18,50.18,0,0,1,5.839-7.488C-168.048,15.3-152.207-.889-137.934.89c5.893.749,8.38,4.165,11.3,8.144,2.865,3.885,6.055,8.237,13.192,10.2,8.7,2.434,16.165-.234,22.761-2.574s12.759-4.54,19.247-1.591c4.325,1.966,6.488,5.336,8.65,8.612,2.649,4.025,5.352,8.237,12.057,9.407,3.3.608,6.7.187,10-.187.919-.094,1.892-.234,2.865-.281,13.192-1.17,25.681,2.715,32.709,10.25A20.348,20.348,0,0,1-.825,49.986.709.709,0,0,0-.392,50.173Z" transform="translate(-39.913 16.38)"/>
              <path id="Shape-9" data-name="Shape" d="M-234.3,55.044c10.868,0,20.977-3.792,31.2-8l1.568-.655c9.246-3.791,18.76-7.722,28.925-8.612,13.516-1.17,26.654,3.09,39.36,7.255,10.164,3.323,20.652,6.739,31.466,7.488,12.056.842,24-1.685,35.574-4.118,8.435-1.778,17.139-3.557,25.79-4.118,2.217-.14,4.541-.187,6.758-.281,9.462-.281,19.247-.562,26.383-5.8C-.734,33.374,1.7,24.622-1.221,16.385a.4.4,0,0,0-.486-.234l-30.817,6.787c-8.489,1.872-18.059,3.978-27.141,1.872-7.731-1.778-14-6.366-20.112-10.812a96.555,96.555,0,0,0-10.6-7.067c-13.462-7.489-31.088-9.033-46.01-4.026a112.635,112.635,0,0,0-16.6,7.676c-8,4.259-16.328,8.658-25.681,9.594-9.84.983-19.734-2.012-29.3-4.867-10.922-3.276-22.221-6.692-33.359-4.072-9.083,2.153-16.869,8.564-19.734,16.334a18.263,18.263,0,0,0,0,13.526c4.109,9.594,16.653,13.947,26.654,13.947Z" transform="translate(-38.706 49.654)" fill="none"/>
              <path id="Path-9" data-name="Path" d="M-7.216,4.233c7.98,5.815,9.164,16.9,4.43,27.059-4.261,9.174-12.391,17.076-22.991,22.374a59.917,59.917,0,0,1-33.18,6.027l-.68-.081c-.775-.093-1.586-.211-2.545-.367l-3.368-.572L-67.1,58.4c-6.623-1.146-10.055-1.367-14.011-.618-6.58,1.243-11.047,4.555-17.63,12.023l-1.666,1.92-1.736,2.017c-6.352,7.322-9.85,10.454-15.242,12.881-9.409,4.213-21.33,3.4-36.482-2.444l-1.895-.75L-164.4,79.9c-10.918-4.427-15.337-5.558-25.394-6.248l-1.145-.077a59.688,59.688,0,0,0-11.562.057c-5.166.612-8.951,2.2-11.081,5.018-3.046,4.075-2.979,10.5.513,13.352,2.67,2.169,5.727,2.137,13.3.511l2.559-.542.881-.176c6.479-1.263,10.071-1.169,13.035,1.036,2.7,2.048,3.073,4.163,2.508,9.771l-.038.371c-.759,6.718-.523,10.639,1.8,15.989,3.89,9.025,11.868,16.822,20.918,17.2,5.862.29,12.32-2.219,13.064-5.236.534-2.18-1.271-4.032-6.957-7.859l-1.425-.951c-6.854-4.591-9.183-7.033-8.712-10.7.632-5.224,9.064-9.561,23.7-12.409l.955-.181c15.137-2.776,30.719-1.607,34.129,4.789,1.774,3.308.681,6.188-3.4,11.819l-1.185,1.619c-3.3,4.548-4.059,6.34-2.912,7.941.922,1.3,3.276,2.24,6.675,2.6,8.831.93,20.462-2.24,27.357-8.166,2.97-2.533,4.114-4.378,5.81-8.516l.342-.845a23.664,23.664,0,0,1,6.208-9.154c8.5-8.077,21.857-13.392,30.476-10.123,6.571,2.458,11.009,9.92,11.891,19.846.882,10.453-2.554,19.989-8.476,23.229a14.382,14.382,0,0,1-7.339,1.562l-1.018-.008-1.629-.042-.771-.027c-4.482-.133-6.443.245-8.163,1.942-1.677,1.664-1.888,3.226-1.364,7.133l.122.9a19.617,19.617,0,0,1,.273,4.387l-.02.233c-.434,5.5-4.284,11.158-11.176,16.542l-.426.329a.927.927,0,0,1-.574.2l-.1-.006a.651.651,0,0,1-.575-.7l0-.041-.021-.051a.841.841,0,0,1,.257-.925c6.785-5.181,10.547-10.589,10.966-15.67a22.478,22.478,0,0,0-.322-4.806c-.664-4.814-.462-6.756,1.771-8.9,2.256-2.2,4.593-2.621,9.918-2.446l1.251.047c4,.136,6.08-.127,8.184-1.283,5.3-2.877,8.434-11.745,7.582-21.61-.8-9.319-4.852-16.218-10.761-18.436-7.861-2.945-20.5,2.143-28.512,9.769-3.137,3.022-4.392,5.123-6.154,9.422l-.353.824a19.8,19.8,0,0,1-5.946,8.35c-7.26,6.241-19.416,9.549-28.762,8.591-3.874-.389-6.75-1.569-7.983-3.348-1.767-2.534-.789-4.707,3.413-10.455l.49-.665c3.884-5.311,4.911-7.824,3.526-10.462-2.914-5.433-18.433-6.51-33.145-3.673l-1.067.215c-13.192,2.713-20.7,6.571-21.239,10.732-.335,2.611,1.676,4.8,7.123,8.558l1.58,1.072,1.065.714c6.153,4.166,8.067,6.276,7.305,9.368-.954,3.745-7.7,6.873-14.889,6.558-9.862-.441-18.337-8.666-22.549-18.271-2.286-5.278-2.629-9.277-2.044-15.66l.112-1.158.1-1.031c.431-4.586.1-6.1-1.906-7.6-2.649-1.976-5.81-1.9-13.162-.333l-2.459.526-.874.179c-6.713,1.341-10.362,1.216-13.314-1.23-4.214-3.508-4.342-10.969-.781-15.619,2.718-3.578,7.519-5.359,14.009-5.847a65.583,65.583,0,0,1,9,.022l2.4.154a67.225,67.225,0,0,1,17.1,3.05l1.179.392c2.4.818,4.5,1.653,9.61,3.755,2.374,1,4.406,1.84,6.515,2.671l1.422.555c14.974,5.9,26.628,6.779,35.622,2.725,4.93-2.2,8.59-5.459,14.245-11.952l2.279-2.643C-93.69,61.333-88.93,57.515-81.4,56.1c4.338-.8,8-.54,15.211.7l3.99.693c.339.057.649.107.961.156.7.109,1.336.2,1.941.271a57.76,57.76,0,0,0,32.75-5.754C-16.357,47.055-8.5,39.407-4.4,30.589c4.384-9.489,3.33-19.765-3.9-25.033C-14.952.739-24.166.7-38.869,3.956l-.361.054a.878.878,0,0,1-1.038-.59l-.023-.1a.833.833,0,0,1,.668-.947l.343-.052-.021.005C-23.987-1.067-14.412-1.005-7.216,4.233Z" transform="translate(-0.842 62.992)" fill="#ffcc0a"/>
              <path id="Shape-10" data-name="Shape" d="M-120.2,45.878a79.78,79.78,0,0,0,9.191-6.647c6.921-5.522,13.462-10.717,21.9-9.454,3.785.562,7.082,2.48,10.327,4.306.648.374,1.243.7,1.892,1.076a79.885,79.885,0,0,0,44.766,9.408A49.884,49.884,0,0,0-11.37,38.343c6.6-3.884,10.489-8.986,11.246-14.79.649-5.148-1.352-9.22-3.461-12.917A41.236,41.236,0,0,0-12.4.105a.4.4,0,0,0-.54,0c-11.84,9.033-30.331,15.3-47.145,15.96-10.057.421-14.76-.749-21.248-2.34a171.794,171.794,0,0,0-26.276-4.586c-26.492-2.809-39.738,5.382-45.307,10.483a20.553,20.553,0,0,0-5.622,8c-2.65,7.628,2.433,16.849,11.3,20.593a26.938,26.938,0,0,0,10.651,2.059A32.99,32.99,0,0,0-120.2,45.878Z" transform="translate(-50.832 228.76)" fill="none"/>
              <path id="Path-10" data-name="Path" d="M-159.96,3.64c2.106,2.291,2.188,5.508.632,9.717l-.171.453a61.669,61.669,0,0,1-5.172,9.767l-1.742,2.867c-5.057,8.382-6.314,11.677-4.457,13.285,1.043.871,2.515.754,6.537-.378l2.731-.769a37.715,37.715,0,0,1,15.555-1.4c6.211.773,9.742,2.581,14.591,6.641l1.766,1.49c4.079,3.4,6.625,4.88,10.93,5.776,4.973,1.039,10.059.526,15.608-1.325l.638-.217A81.081,81.081,0,0,0-90.326,43.89l2.768-1.484c5.4-2.88,7.863-4.042,10.8-4.97,4.153-1.314,7.611-1.321,10.725.209,3.01,1.5,4.515,3.516,6.433,7.663l.479,1.041c1.752,3.735,2.875,4.985,5.39,5.434,2.348.443,3.834-.239,7.287-2.855l.821-.605a24.108,24.108,0,0,1,8.371-4.344c10.845-3.145,25.667,1.371,36.962,11.243a.833.833,0,0,1,0,1.269.934.934,0,0,1-.466.206l-.132.01-.075,0-.1-.012a.357.357,0,0,0-.15,0l-.246.053-.189-.165c-10.846-9.482-25-13.841-35.215-10.895-3.147.908-5.1,2.049-8.6,4.648l-1.414,1.016c-.264.184-.483.331-.74.5-2.345,1.521-4.278,2.09-6.613,1.666-3.224-.59-4.707-2.245-6.671-6.382l-.337-.72-.275-.581c-1.76-3.7-3.044-5.409-5.552-6.635-2.647-1.292-5.682-1.244-9.466-.015l-.6.2A57.615,57.615,0,0,0-85.395,43.2l-4.817,2.56-1.187.623c-11.729,6.1-19.235,8.225-27.889,6.433-4.838-1.008-7.662-2.664-12.08-6.444l-.419-.361c-5.263-4.556-8.363-6.285-14.6-7.09a35.845,35.845,0,0,0-14.1,1.166l-1.233.326-2.538.7c-4.643,1.256-6.27,1.306-7.907-.111-1.616-1.4-1.715-3.57-.592-6.581l.116-.3c.9-2.289,2.078-4.4,5.052-9.266l1.1-1.8c.653-1.076,1.168-1.937,1.651-2.766l.461-.8c4.27-7.49,5.435-12.028,2.988-14.705-4.636-5.153-22.765-3.481-35.747,2.735a39.027,39.027,0,0,0-4.924,2.687.963.963,0,0,1-1.2-.212.831.831,0,0,1,.254-1.206,41.436,41.436,0,0,1,5.064-2.827A65.985,65.985,0,0,1-177.229.27l.743-.069C-168.512-.513-162.635.683-159.96,3.64Z" transform="translate(-62.607 173.313)" fill="#7c37fa"/>
              <path id="Shape-11" data-name="Shape" d="M-16.326,35.243C-8.459,31.181-5.872,23.774-1.562,11.494-.914,9.678-.322,8.005.163,6.476a.343.343,0,0,0-.108-.383.449.449,0,0,0-.431-.048c-9.7,4.157-19.668,5.448-27.428,3.488-4.957-1.243-8.675-3.68-11.963-5.83-4.095-2.676-7.382-4.827-11.1-3.249-2.156.907-3.18,2.533-4.2,4.2a12.636,12.636,0,0,1-5.173,5.3c-3.718,1.958-7.329,1.625-10.292,1.337-2.587-.238-4.8-.478-6.142,1-1.4,1.529-1.509,4.54-.324,8.028C-75.33,25.208-71.02,30.8-65.254,32.328c3.61.956,7.544.335,12.178-.382a62.953,62.953,0,0,1,12.932-1.1,12.305,12.305,0,0,1,5.55,1.243,8.9,8.9,0,0,1,3.287,2.819,8.514,8.514,0,0,0,2.21,2.056,6.14,6.14,0,0,0,3.611.955C-21.984,37.919-18.158,36.2-16.326,35.243Z" transform="translate(-342.184 132.081)" fill="#ffca00"/>
            </g>
            <g id="Group-2" data-name="Group" transform="translate(-38.846 0.468)">
              <path id="Path-11" data-name="Path" d="M-76.394,12.56c-3.46,3.856,2,17.33,11.246,19.868,6.542,1.757,14.6-1.953,25.086-1.513a13.272,13.272,0,0,1,5.731,1.269c3.19,1.611,3.46,3.759,5.515,4.979,4.217,2.49,11.462-1.318,12.489-1.855C-8.7,31.354-6.109,24.178-1.73,11.291-1.081,9.436-.541,7.776,0,6.165c-9.3,4.052-19.463,5.711-27.844,3.612C-39.089,6.946-44.333-2.231-50.713.5c-4.325,1.855-3.676,6.688-9.407,9.714C-67.149,14.073-73.745,9.631-76.394,12.56Z" transform="translate(-303.792 131.613)" fill="#ffcc0a"/>
              <path id="Path-12" data-name="Path" d="M-52.751,9.927a10.566,10.566,0,0,0,4.65,12.4c6.326,3.37,12-3.931,22.707-3.229,8,.562,10.7,5.1,19.247,11.654C-.524,23.64,1.639,14.514-1.335,11.987c-2.6-2.247-8.6.983-11.786-2.106-2.6-2.527-.108-6.038-3.028-8.424C-18.582-.51-22.637.005-24.745.239c-6,.749-6.7,3.651-11.786,3.791-4.109.14-4.758-1.732-8.11-1.17A11.35,11.35,0,0,0-52.751,9.927Z" transform="translate(-216.548 0.276)" fill="#6130c9"/>
              <path id="Path-13" data-name="Path" d="M-260.169,27.339a17.928,17.928,0,0,0,0,13.292c3.73,8.846,15.355,13.713,26.276,13.666,10.867-.047,21.194-3.931,31.033-7.956s19.842-8.331,30.655-9.267c24.329-2.106,46.5,13.058,70.879,14.743,20.707,1.451,40.6-6.927,61.31-8.237,11.408-.7,24.167.421,32.872-5.991,6.92-5.1,8.65-13.854,5.893-21.436q-15.409,3.37-30.817,6.786c-8.975,1.966-18.382,3.931-27.3,1.872C-71.428,22.051-79.754,12.737-90.242,6.886-103.6-.555-121.059-2.1-135.873,2.908c-14.652,4.914-26.762,15.772-42.333,17.317-21.3,2.106-41.9-13.854-62.553-8.986C-249.735,13.392-257.3,19.664-260.169,27.339Z" transform="translate(-0.317 49.558)" fill="#7c37fa"/>
              <path id="Path-14" data-name="Path" d="M-157.776,27.38c-2.649,7.769,2.7,16.615,11.083,20.172s18.923,2.2,26.654-2.34c10.435-6.084,18.977-18.019,31.412-16.147,4.6.7,8.434,3.276,12.327,5.429a79.822,79.822,0,0,0,44.55,9.361c14.273-1.17,30.06-8.331,31.628-20.687.649-5.148-1.406-9.22-3.406-12.73A39.473,39.473,0,0,0-12.233,0C-23.586,8.658-41.914,15.351-59.648,16.053c-18.923.749-18.707-3.885-47.631-6.974-16-1.685-33.953.234-44.982,10.39A20,20,0,0,0-157.776,27.38Z" transform="translate(-12.367 228.678)" fill="#2de6ea"/>
            </g>
          </g>
          <g id="pencil" transform="translate(-305.317 202.84)">
            <path id="Path-15" data-name="Path" d="M-2.894.345-.088,4.569A.81.81,0,0,1-.424,5.635l-.038.019L-.4,5.606a.676.676,0,0,1-.364.158l-.116.01-.163,0a.7.7,0,0,1-.7-.475l0-.026-2.7-4.065A.81.81,0,0,1-4.105.14l.05-.026A.921.921,0,0,1-2.894.345Z" transform="translate(0.113 -0.217)" fill="#ffcc0a"/>
          </g>
        </g>
      </g>
    </g>
    <g id="Illus-2" data-name="Illus" transform="translate(-232 896)">
      <g id="background-2" data-name="background">
        <g id="background_1_2" data-name="background_1_">
          <path id="Shape-12" data-name="Shape" d="M0-3.984C0-1.781,2.064,0,4.617,0S9.234-1.781,9.234-3.984,7.169-7.968,4.617-7.968,0-6.187,0-3.984Z" transform="translate(59.259 -358.704)"/>
          <circle id="Oval-4" data-name="Oval" cx="3.5" cy="3.5" r="3.5" transform="translate(310.767 -246.636)" fill="#2de6ea"/>
          <path id="Shape-13" data-name="Shape" d="M3.186-7.567A4.511,4.511,0,0,0,.524-5.693,3.344,3.344,0,0,0,.2-2.74,4.666,4.666,0,0,0,5.792-.161,3.83,3.83,0,0,0,8.78-4.989a4.143,4.143,0,0,0-2.173-2.3,4.786,4.786,0,0,0-2.119-.469A4.179,4.179,0,0,0,3.186-7.567Z" transform="translate(30.708 -141.436)"/>
          <ellipse id="Oval-5" data-name="Oval" cx="4.074" cy="3.515" rx="4.074" ry="3.515" transform="translate(144.209 -22.639)" fill="#9050a6"/>
          <ellipse id="Oval-6" data-name="Oval" cx="7.822" cy="6.749" rx="7.822" ry="6.749" transform="translate(0.38 -283.195)" fill="#9050a6"/>
          <path id="Shape-14" data-name="Shape" d="M2.213-8A4.239,4.239,0,0,0,.095-5.19,3.8,3.8,0,0,0,.909-1.91,5.022,5.022,0,0,0,4.168-.082a5.557,5.557,0,0,0,3.8-.7A4.242,4.242,0,0,0,10.089-3.6a3.8,3.8,0,0,0-.815-3.28A5.018,5.018,0,0,0,6.015-8.706a6.47,6.47,0,0,0-.923-.047A6.051,6.051,0,0,0,2.213-8Z" transform="translate(413.793 -28.51)"/>
          <path id="Shape-15" data-name="Shape" d="M4.012-8a3.939,3.939,0,0,0-2.246.684A3.976,3.976,0,0,0,.077-4.744,3.93,3.93,0,0,0,.686-1.752,3.934,3.934,0,0,0,3.969,0,3.967,3.967,0,0,0,6.081-.609L6.25-.722A3.917,3.917,0,0,0,7.89-3.082,3.987,3.987,0,0,0,7.5-5.936l-.108-.184L7.276-6.3A3.952,3.952,0,0,0,4.012-8ZM3.994-2a1.993,1.993,0,0,1-1.643-.868,1.943,1.943,0,0,1-.316-1.507,1.9,1.9,0,0,1,.82-1.264A1.986,1.986,0,0,1,4-6a2.014,2.014,0,0,1,1.642.864,1.968,1.968,0,0,1,.334,1.481,1.964,1.964,0,0,1-.816,1.276A2.131,2.131,0,0,1,3.994-2Z" transform="translate(426.5 -187.5)" fill="#2de6ea"/>
          <path id="Shape-16" data-name="Shape" d="M14.788-25.932.122-13.276a.333.333,0,0,0,0,.516L14.788-.105a.475.475,0,0,0,.6,0L30.05-12.76a.333.333,0,0,0,0-.516L15.385-25.932a.855.855,0,0,0-.326-.094A.451.451,0,0,0,14.788-25.932Z" transform="translate(16.064 -20.518)"/>
          <path id="Shape-17" data-name="Shape" d="M10.473-21a.915.915,0,0,0-.538.182l-.082.072-9.6,9.619a.906.906,0,0,0-.253.62.915.915,0,0,0,.181.537l.072.083,9.6,9.619A.905.905,0,0,0,10.5,0a.919.919,0,0,0,.554-.185l.094-.082,9.6-9.619a.906.906,0,0,0,.253-.62.915.915,0,0,0-.181-.538l-.072-.082-9.6-9.619A.825.825,0,0,0,10.473-21ZM10.5-2.207h0L2.207-10.5,10.5-18.793,18.793-10.5,10.5-2.207Z" transform="translate(109.5 -299.5)" fill="#ffcc0a"/>
          <path id="Rectangle-2" data-name="Rectangle" d="M0,0,11.839-.871,12.71-12.71.871-11.839Z" transform="translate(472.711 -70.023) rotate(45)" fill="#9050a6"/>
          <path id="Shape-18" data-name="Shape" d="M11.64-25h-.374a.9.9,0,0,0-.668.271l-.048.076L.167-11.334A.887.887,0,0,0,.248-10.2l.092.069L14.472-.074l-.216-.05.1.048.029.011.017.007A.86.86,0,0,0,14.7,0l.1-.008L14.9-.03a.812.812,0,0,0,.457-.2L15.412-.3l.043-.07L25.927-13.975l-.056.23.05-.1c.006-.014.013-.029.019-.045A.809.809,0,0,0,26-14.2L26-14.3l-.022-.087a.789.789,0,0,0-.217-.455l-.069-.058-.074-.042L11.641-25ZM14.554-2.186,2.219-11.025l9.233-11.79,12.335,8.839L14.554-2.186Z" transform="translate(396.497 -245.499)" fill="#7c37fa"/>
          <path id="Path-16" data-name="Path" d="M8.473-.254.231-9.151a.831.831,0,0,1,.095-1.234l.129-.081L.59-10.53a.817.817,0,0,1,.334-.07.991.991,0,0,1,.653.262l8.242,8.9A.831.831,0,0,1,9.724-.207l-.055.041A.97.97,0,0,1,8.473-.254Z" transform="translate(459.296 -108.249)" fill="#ffcc0a"/>
          <path id="Path-17" data-name="Path" d="M.424-9.6a.628.628,0,0,0-.272.094A.334.334,0,0,0,.1-8.99L8.3-.132a.473.473,0,0,0,.6.047A.334.334,0,0,0,8.952-.6L.75-9.459A.5.5,0,0,0,.424-9.6Z" transform="translate(48.732 -232.677)"/>
          <path id="Path-18" data-name="Path" d="M7.281-10.405a.3.3,0,0,0-.326.187l-6.9,9.7a.323.323,0,0,0,.109.469A.406.406,0,0,0,.708-.187l6.9-9.655a.323.323,0,0,0-.109-.469A.281.281,0,0,0,7.281-10.405Z" transform="translate(247.299)"/>
          <path id="Path-19" data-name="Path" d="M.3-.227A.833.833,0,0,1,.3-1.5l9.571-7.79a.94.94,0,0,1,.587-.206,1.165,1.165,0,0,1,.524.135l.129.081a.833.833,0,0,1,0,1.273L1.546-.227A.975.975,0,0,1,.3-.227Z" transform="translate(197.539 -295.132)" fill="#7c37fa"/>
          <path id="Path-20" data-name="Path" d="M.264-.254A.841.841,0,0,1,.319-1.526L10.627-8.637l.06-.036.161-.076a.817.817,0,0,1,.334-.07.991.991,0,0,1,.653.262.841.841,0,0,1-.054,1.273L1.46-.166A.97.97,0,0,1,.264-.254Z" transform="translate(484.165 -204.007)" fill="#7c37fa"/>
        </g>
      </g>
      <g id="general_1_2" data-name="general_1_" transform="translate(48 -7)">
        <g id="general-2" data-name="general">
          <g id="lines-2" data-name="lines">
            <g id="Group-3" data-name="Group">
              <path id="Path-21" data-name="Path" d="M82.337-1.237l-.428-.157c-2.973-1.112-5.579-2.52-11.537-6.025L69.1-8.165c-12.313-7.192-19.235-10.09-29.014-10.981C27.874-20.259,14.843-16.5,1.366-7.943a.963.963,0,0,1-1.2-.211A.829.829,0,0,1,.418-9.361c13.8-8.749,27.207-12.617,39.868-11.483,9.351.841,17.083,3.912,27.618,9.98l4.679,2.729C78.023-4.982,80.257-3.818,83-2.815c3.746,1.37,6.811,1.53,9.652.353,2.61-1.077,3.9-2.562,5.684-5.985l.769-1.5c2.256-4.353,4.294-6.517,8.506-7.884,3.693-1.209,6.525-1.086,11.924.023l1.442.3c5.516,1.121,8.379,1.129,12.281-.452,4.314-1.811,7.849-4.4,8.731-7.942.589-2.446-.158-4.316-2.552-7.63l-.447-.611-.472-.638c-2.566-3.52-3.286-5.43-2.412-8.1,1.445-4.356,7.935-7.651,13.834-7.6,3.054,0,4.862.918,7.571,3.329l1.809,1.639.164.143a15.826,15.826,0,0,0,5.693,3.34c9.777,3.248,24.435-1.25,27.94-8.495a6.814,6.814,0,0,0,.5-4.578,9.8,9.8,0,0,1,.741-6.406c2.509-5.454,8.709-9.767,15.518-10.821a26.45,26.45,0,0,1,3.374-.24,28.246,28.246,0,0,1,16.3,5.575c3.326,2.635,5.137,5.585,4.9,8.122-.193,2.131-1.258,3.151-4.6,4.97l-1.318.711a30.043,30.043,0,0,0-3.551,2.178,18.511,18.511,0,0,0-4.771,4.959,12.625,12.625,0,0,0-2.312,7.079l-.108,1.434c-.016.192-.031.352-.048.515l-.013.124a9.949,9.949,0,0,1-2.248,5.534c-2.207,2.769-5.226,4.445-9.292,5.54l-.456.119c-1.253.318-2.192.509-4.148.853l-1.855.324c-4.727.836-6.534,1.54-7.21,3.2-.88,2.2.784,5.91,4.374,9.423,4.2,4.111,9.635,6.716,13.447,5.951,2.022-.393,2.924-1.434,4.787-5.121l.727-1.443a35.079,35.079,0,0,1,2.826-4.794c4.891-6.993,13.206-13.309,22.869-17.35a.9.9,0,0,1,1.167.352.8.8,0,0,1-.4,1.177c-9.4,3.953-17.479,10.078-22.117,16.769a37.919,37.919,0,0,0-2.832,4.842l-.766,1.514c-2.023,3.931-3.2,5.2-5.852,5.737-4.509.887-10.572-1.942-15.153-6.4-3.92-3.8-6.066-8.107-4.762-11.222.97-2.32,2.91-3.211,7.927-4.118l3.16-.546c.838-.15,1.4-.26,2.075-.406,4.649-1.006,7.768-2.528,9.993-5.343a8.454,8.454,0,0,0,1.74-3.774l.052-.3c.064-.4.108-.8.157-1.415l.053-.7a14.575,14.575,0,0,1,2.566-8.426,19.82,19.82,0,0,1,5-5.265l.5-.357a34.3,34.3,0,0,1,3.535-2.123l1.82-.986c.176-.1.32-.179.466-.264l.178-.1c1.671-.992,2.387-1.8,2.478-2.93.2-1.862-1.39-4.388-4.244-6.634a24.511,24.511,0,0,0-18.1-4.954c-6.241.961-11.92,4.9-14.111,9.773a8.473,8.473,0,0,0-.663,5.533,8.066,8.066,0,0,1-.641,5.48c-3.9,8.063-19.635,12.919-30.182,9.381-3.033-.995-4.784-2.212-7.694-4.879-2.785-2.6-4.238-3.435-6.968-3.472-5.185-.049-10.874,2.818-12.062,6.4-.661,2.02,0,3.635,2.29,6.8l.548.751c2.931,3.981,3.856,6.169,3.065,9.311-1.076,4.232-5.208,7.271-9.816,9.095-4.39,1.766-7.585,1.726-13.653.495l-.69-.142c-5.562-1.153-8-1.3-11.423-.2-3.607,1.214-5.3,2.988-7.365,6.885l-.454.872-.091.124c-.109.26-.209.454-.311.647C98.1-4.13,96.55-2.291,93.655-1.051l-.294.122C90.047.437,86.5.265,82.337-1.237Z" transform="translate(100.788 -105.319)" fill="#2de6ea"/>
              <path id="Path-22" data-name="Path" d="M1.905-.717l-.3.38A.959.959,0,0,1,.415-.116.831.831,0,0,1,.16-1.322C3.815-5.906,8.3-9.257,13.7-10.444c3.726-.816,6.288-.484,10.7.934l1.857.587.1.03c3.391,1.018,5.728,1.193,8.719.33,3.866-1.152,5.665-2.859,8.417-7.27l.9-1.456.505-.79c2.578-3.957,4.7-6.045,8.542-7.776a20.233,20.233,0,0,1,3.391-1.184c4.546-1.15,8.736-.852,15.237.553l1.854.412c6.426,1.407,8.45,1.521,9.861.09,1.932-1.94.838-5.253-3.378-12.817l-1.388-2.5A40.151,40.151,0,0,1,75.7-48.407c-1.055-3.228-.933-5.727.659-7.557l.231-.255c2.339-2.462,5.586-2.328,14.733-.516l1.666.331c10.641,2.064,15.868,2.076,21.35-.979,6.058-3.374,10.464-10.847,11.207-19.032.53-6.189-1.217-11.293-4.78-14.02-4.2-3.24-12.079-4.385-17.226-2.093a10.374,10.374,0,0,0-3.53,2.571l-.687.73c-1.933,2.092-3.076,2.919-5.292,3.378-4.28.859-10.235-1.306-13.518-5.321-3.009-3.7-2.71-8.026.618-17.61a.907.907,0,0,1,.851-.57h.216l.106.011a.831.831,0,0,1,.645,1.049l-.3.9c-2.857,8.545-3.055,12.173-.6,15.164,2.684,3.263,7.808,5.481,11.679,4.695,1.736-.367,2.567-.982,4.272-2.843a13.215,13.215,0,0,1,4.812-3.721c5.738-2.574,14.437-1.314,19.163,2.3,4.063,3.175,6.044,8.836,5.438,15.513-.77,8.669-5.505,16.638-12.094,20.329a23.081,23.081,0,0,1-12.263,2.55l-.773-.032A65.79,65.79,0,0,1,93.01-54.7l-2.045-.4-.855-.168c-7.8-1.519-10.678-1.55-12.35.38-2.02,2.31-.973,5.875,3.061,13.185L82.3-39.057a41.508,41.508,0,0,1,3.531,7.406c.961,2.948.809,5.186-.73,6.785-1.988,2.015-4.287,1.993-10.833.548L72.2-24.776l-1.1-.235C65.7-26.129,62.17-26.408,58.4-25.7a18.586,18.586,0,0,0-4.222,1.317c-3.674,1.644-5.517,3.558-8.214,7.865l-.8,1.293c-3,4.859-5.134,6.942-9.6,8.231-3.849,1.124-6.382.794-11.322-.8C19.826-9.23,17.531-9.57,14.072-8.812,9.268-7.754,5.205-4.783,1.905-.717Z" transform="translate(260.605 -30.669)" fill="#7c37fa"/>
              <path id="Shape-19" data-name="Shape" d="M6.525-31.464a.345.345,0,0,0-.325.14C.578-24.163-1.747-14.849,1.443-12.088c1.352,1.123,3.353.983,5.46.842,2.325-.14,4.7-.328,6.326,1.217,1.189,1.123,1.244,2.481,1.3,3.932.054,1.591.162,3.229,1.73,4.54C18.851.549,23.123-.013,25.177-.247A16.464,16.464,0,0,0,31.557-2.4a10.638,10.638,0,0,1,5.407-1.638,10.422,10.422,0,0,1,4.108.7,7,7,0,0,0,4.109.468,11.626,11.626,0,0,0,8.434-7.3,10.794,10.794,0,0,0-4.866-12.776c-3.514-1.873-6.812-.655-10.6.8-3.406,1.264-7.3,2.714-12.272,2.387-5.785-.421-8.813-3-13.354-6.927-1.622-1.4-3.46-2.948-5.677-4.68a.437.437,0,0,0-.324-.094Zm0,0Z" transform="translate(254.961 -0.362)"/>
              <path id="Path-23" data-name="Path" d="M.392-50.173H.284a.332.332,0,0,0-.27.421A20.922,20.922,0,0,0,4.5-42.4c7.137,7.676,19.95,11.7,33.412,10.484.973-.094,1.946-.187,2.865-.281a33.956,33.956,0,0,1,9.732-.187c6.326,1.123,8.813,4.961,11.516,9.08,2.217,3.37,4.433,6.833,8.975,8.893,6.812,3.136,13.192.842,19.9-1.544,6.812-2.387,13.787-4.914,22.221-2.574,6.812,1.919,9.84,5.991,12.759,9.922S131.5-.937,137.772-.141c14.706,1.825,30.817-14.649,32.6-16.521a53.662,53.662,0,0,0,5.893-7.582c1.946-2.9,3.244-4.867,6.65-5.991,8.11-2.668,17.733,2.668,27.087,7.863a87.539,87.539,0,0,1,11.408,7.442.476.476,0,0,0,.595-.047.337.337,0,0,0-.054-.515,92.278,92.278,0,0,0-11.462-7.488c-9.515-5.289-19.355-10.765-27.79-7.956-3.622,1.217-4.974,3.229-7.028,6.272a50.18,50.18,0,0,1-5.839,7.488C168.048-15.3,152.207.889,137.934-.89c-5.893-.749-8.38-4.165-11.3-8.144-2.865-3.885-6.055-8.237-13.192-10.2-8.7-2.434-16.165.234-22.761,2.574s-12.759,4.54-19.247,1.591c-4.325-1.966-6.488-5.336-8.65-8.612-2.649-4.025-5.352-8.237-12.057-9.407-3.3-.608-6.7-.187-10,.187-.919.094-1.892.234-2.865.281-13.192,1.17-25.681-2.715-32.709-10.25A20.348,20.348,0,0,1,.825-49.986.709.709,0,0,0,.392-50.173Z" transform="translate(39.913 -16.38)"/>
              <path id="Shape-20" data-name="Shape" d="M234.3-55.044c-10.868,0-20.977,3.792-31.2,8l-1.568.655c-9.246,3.791-18.76,7.722-28.925,8.612-13.516,1.17-26.654-3.09-39.36-7.255-10.164-3.323-20.652-6.739-31.466-7.488-12.056-.842-24,1.685-35.574,4.118-8.435,1.778-17.139,3.557-25.79,4.118-2.217.14-4.541.187-6.758.281-9.462.281-19.247.562-26.383,5.8C.734-33.374-1.7-24.622,1.221-16.385a.4.4,0,0,0,.486.234l30.817-6.787c8.489-1.872,18.059-3.978,27.141-1.872,7.731,1.778,14,6.366,20.112,10.812a96.555,96.555,0,0,0,10.6,7.067C103.837.558,121.462,2.1,136.384-2.905a112.635,112.635,0,0,0,16.6-7.676c8-4.259,16.328-8.658,25.681-9.594,9.84-.983,19.734,2.012,29.3,4.867,10.922,3.276,22.221,6.692,33.359,4.072,9.083-2.153,16.869-8.564,19.734-16.334a18.263,18.263,0,0,0,0-13.526c-4.109-9.594-16.653-13.947-26.654-13.947Z" transform="translate(38.706 -49.654)" fill="none"/>
              <path id="Path-24" data-name="Path" d="M7.216-4.233c-7.98-5.815-9.164-16.9-4.43-27.059,4.261-9.174,12.391-17.076,22.991-22.374a59.917,59.917,0,0,1,33.18-6.027l.68.081c.775.093,1.586.211,2.545.367l3.368.572L67.1-58.4c6.623,1.146,10.055,1.367,14.011.618,6.58-1.243,11.047-4.555,17.63-12.023l1.666-1.92,1.736-2.017c6.352-7.322,9.85-10.454,15.242-12.881,9.409-4.213,21.33-3.4,36.482,2.444l1.895.75L164.4-79.9c10.918,4.427,15.337,5.558,25.394,6.248l1.145.077a59.688,59.688,0,0,0,11.562-.057c5.166-.612,8.951-2.2,11.081-5.018,3.046-4.075,2.979-10.5-.513-13.352-2.67-2.169-5.727-2.137-13.3-.511l-2.559.542-.881.176c-6.479,1.263-10.071,1.169-13.035-1.036-2.7-2.048-3.073-4.163-2.508-9.771l.038-.371c.759-6.718.523-10.639-1.8-15.989-3.89-9.025-11.868-16.822-20.918-17.2-5.862-.29-12.32,2.219-13.064,5.236-.534,2.18,1.271,4.032,6.957,7.859l1.425.951c6.854,4.591,9.183,7.033,8.712,10.7-.632,5.224-9.064,9.561-23.7,12.409l-.955.181c-15.137,2.776-30.719,1.607-34.129-4.789-1.774-3.308-.681-6.188,3.4-11.819l1.185-1.619c3.3-4.548,4.059-6.34,2.912-7.941-.922-1.3-3.276-2.24-6.675-2.6-8.831-.93-20.462,2.24-27.357,8.166-2.97,2.533-4.114,4.378-5.81,8.516l-.342.845a23.664,23.664,0,0,1-6.208,9.154c-8.5,8.077-21.857,13.392-30.476,10.123-6.571-2.458-11.009-9.92-11.891-19.846-.882-10.453,2.554-19.989,8.476-23.229a14.382,14.382,0,0,1,7.339-1.562l1.018.008,1.629.042.771.027c4.482.133,6.443-.245,8.163-1.942,1.677-1.664,1.888-3.226,1.364-7.133l-.122-.9a19.617,19.617,0,0,1-.273-4.387l.02-.233c.434-5.5,4.284-11.158,11.176-16.542l.426-.329a.927.927,0,0,1,.574-.2l.1.006a.651.651,0,0,1,.575.7l0,.041.021.051a.841.841,0,0,1-.257.925c-6.785,5.181-10.547,10.589-10.966,15.67a22.478,22.478,0,0,0,.322,4.806c.664,4.814.462,6.756-1.771,8.9-2.256,2.2-4.593,2.621-9.918,2.446l-1.251-.047c-4-.136-6.08.127-8.184,1.283-5.3,2.877-8.434,11.745-7.582,21.61.8,9.319,4.852,16.218,10.761,18.436,7.861,2.945,20.5-2.143,28.512-9.769,3.137-3.022,4.392-5.123,6.154-9.422l.353-.824a19.8,19.8,0,0,1,5.946-8.35c7.26-6.241,19.416-9.549,28.762-8.591,3.874.389,6.75,1.569,7.983,3.348,1.767,2.534.789,4.707-3.413,10.455l-.49.665c-3.884,5.311-4.911,7.824-3.526,10.462,2.914,5.433,18.433,6.51,33.145,3.673l1.067-.215c13.192-2.713,20.7-6.571,21.239-10.732.335-2.611-1.676-4.8-7.123-8.558l-1.58-1.072-1.065-.714c-6.153-4.166-8.067-6.276-7.305-9.368.954-3.745,7.7-6.873,14.889-6.558,9.862.441,18.337,8.666,22.549,18.271,2.286,5.278,2.629,9.277,2.044,15.66l-.112,1.158-.1,1.031c-.431,4.586-.1,6.1,1.906,7.6,2.649,1.976,5.81,1.9,13.162.333l2.459-.526.874-.179c6.713-1.341,10.362-1.216,13.314,1.23,4.214,3.508,4.342,10.969.781,15.619-2.718,3.578-7.519,5.359-14.009,5.847a65.583,65.583,0,0,1-9-.022l-2.4-.154a67.225,67.225,0,0,1-17.1-3.05l-1.179-.392c-2.4-.818-4.5-1.653-9.61-3.755-2.374-1-4.406-1.84-6.515-2.671l-1.422-.555c-14.974-5.9-26.628-6.779-35.622-2.725-4.93,2.2-8.59,5.459-14.245,11.952l-2.279,2.643C93.69-61.333,88.93-57.515,81.4-56.1c-4.338.8-8,.54-15.211-.7L62.2-57.49c-.339-.057-.649-.107-.961-.156-.7-.109-1.336-.2-1.941-.271a57.76,57.76,0,0,0-32.75,5.754C16.357-47.055,8.5-39.407,4.4-30.589.011-21.1,1.066-10.824,8.292-5.556,14.952-.739,24.166-.7,38.869-3.956l.361-.054a.878.878,0,0,1,1.038.59l.023.1a.833.833,0,0,1-.668.947l-.343.052.021-.005C23.987,1.067,14.412,1.005,7.216-4.233Z" transform="translate(0.842 -62.992)" fill="#ffcc0a"/>
              <path id="Shape-21" data-name="Shape" d="M120.2-45.878a79.78,79.78,0,0,0-9.191,6.647c-6.921,5.522-13.462,10.717-21.9,9.454-3.785-.562-7.082-2.48-10.327-4.306-.648-.374-1.243-.7-1.892-1.076a79.885,79.885,0,0,0-44.766-9.408A49.884,49.884,0,0,0,11.37-38.343C4.774-34.458.881-29.357.124-23.553c-.649,5.148,1.352,9.22,3.461,12.917A41.236,41.236,0,0,0,12.4-.105a.4.4,0,0,0,.54,0c11.84-9.033,30.331-15.3,47.145-15.96,10.057-.421,14.76.749,21.248,2.34a171.794,171.794,0,0,0,26.276,4.586c26.492,2.809,39.738-5.382,45.307-10.483a20.553,20.553,0,0,0,5.622-8c2.65-7.628-2.433-16.849-11.3-20.593a26.938,26.938,0,0,0-10.651-2.059A32.99,32.99,0,0,0,120.2-45.878Z" transform="translate(50.832 -228.76)" fill="none"/>
              <path id="Path-25" data-name="Path" d="M159.96-3.64c-2.106-2.291-2.188-5.508-.632-9.717l.171-.453a61.669,61.669,0,0,1,5.172-9.767l1.742-2.867c5.057-8.382,6.314-11.677,4.457-13.285-1.043-.871-2.515-.754-6.537.378l-2.731.769a37.715,37.715,0,0,1-15.555,1.4c-6.211-.773-9.742-2.581-14.591-6.641l-1.766-1.49c-4.079-3.4-6.625-4.88-10.93-5.776-4.973-1.039-10.059-.526-15.608,1.325l-.638.217A81.081,81.081,0,0,0,90.326-43.89l-2.768,1.484c-5.4,2.88-7.863,4.042-10.8,4.97-4.153,1.314-7.611,1.321-10.725-.209-3.01-1.5-4.515-3.516-6.433-7.663l-.479-1.041c-1.752-3.735-2.875-4.985-5.39-5.434-2.348-.443-3.834.239-7.287,2.855l-.821.605a24.108,24.108,0,0,1-8.371,4.344C26.409-40.834,11.587-45.351.293-55.222a.833.833,0,0,1,0-1.269A.934.934,0,0,1,.761-56.7l.132-.01.075,0,.1.012a.357.357,0,0,0,.15,0l.246-.053.189.165c10.846,9.482,25,13.841,35.215,10.895,3.147-.908,5.1-2.049,8.6-4.648l1.414-1.016c.264-.184.483-.331.74-.5,2.345-1.521,4.278-2.09,6.613-1.666,3.224.59,4.707,2.245,6.671,6.382l.337.72.275.581c1.76,3.7,3.044,5.409,5.552,6.635,2.647,1.292,5.682,1.244,9.466.015l.6-.2A57.615,57.615,0,0,0,85.395-43.2l4.817-2.56L91.4-46.38c11.729-6.1,19.235-8.225,27.889-6.433,4.838,1.008,7.662,2.664,12.08,6.444l.419.361c5.263,4.556,8.363,6.285,14.6,7.09a35.845,35.845,0,0,0,14.1-1.166l1.233-.326,2.538-.7c4.643-1.256,6.27-1.306,7.907.111,1.616,1.4,1.715,3.57.592,6.581l-.116.3c-.9,2.289-2.078,4.4-5.052,9.266l-1.1,1.8c-.653,1.076-1.168,1.937-1.651,2.766l-.461.8C160.119-12,158.955-7.458,161.4-4.781,166.038.373,184.167-1.3,197.149-7.515a39.027,39.027,0,0,0,4.924-2.687.963.963,0,0,1,1.2.212.831.831,0,0,1-.254,1.206,41.436,41.436,0,0,1-5.064,2.827A65.985,65.985,0,0,1,177.229-.27l-.743.069C168.512.513,162.635-.683,159.96-3.64Z" transform="translate(62.607 -173.313)" fill="#7c37fa"/>
              <path id="Shape-22" data-name="Shape" d="M16.326-35.243C8.459-31.181,5.872-23.774,1.562-11.494.914-9.678.322-8.005-.163-6.476a.343.343,0,0,0,.108.383.449.449,0,0,0,.431.048c9.7-4.157,19.668-5.448,27.428-3.488,4.957,1.243,8.675,3.68,11.963,5.83,4.095,2.676,7.382,4.827,11.1,3.249,2.156-.907,3.18-2.533,4.2-4.2a12.636,12.636,0,0,1,5.173-5.3c3.718-1.958,7.329-1.625,10.292-1.337,2.587.238,4.8.478,6.142-1,1.4-1.529,1.509-4.54.324-8.028C75.33-25.208,71.02-30.8,65.254-32.328c-3.61-.956-7.544-.335-12.178.382a62.953,62.953,0,0,1-12.932,1.1,12.305,12.305,0,0,1-5.55-1.243,8.9,8.9,0,0,1-3.287-2.819,8.514,8.514,0,0,0-2.21-2.056,6.14,6.14,0,0,0-3.611-.955C21.984-37.919,18.158-36.2,16.326-35.243Z" transform="translate(342.184 -132.081)" fill="#ffca00"/>
            </g>
            <g id="Group-4" data-name="Group" transform="translate(38.846 -0.468)">
              <path id="Path-26" data-name="Path" d="M76.394-12.56c3.46-3.856-2-17.33-11.246-19.868-6.542-1.757-14.6,1.953-25.086,1.513a13.272,13.272,0,0,1-5.731-1.269c-3.19-1.611-3.46-3.759-5.515-4.979-4.217-2.49-11.462,1.318-12.489,1.855C8.7-31.354,6.109-24.178,1.73-11.291,1.081-9.436.541-7.776,0-6.165c9.3-4.052,19.463-5.711,27.844-3.612C39.089-6.946,44.333,2.231,50.713-.5c4.325-1.855,3.676-6.688,9.407-9.714C67.149-14.073,73.745-9.631,76.394-12.56Z" transform="translate(303.792 -131.613)" fill="#ffcc0a"/>
              <path id="Path-27" data-name="Path" d="M52.751-9.927a10.566,10.566,0,0,0-4.65-12.4C41.776-25.7,36.1-18.4,25.394-19.1c-8-.562-10.7-5.1-19.247-11.654C.524-23.64-1.639-14.514,1.335-11.987c2.6,2.247,8.6-.983,11.786,2.106,2.6,2.527.108,6.038,3.028,8.424C18.582.51,22.637-.005,24.745-.239c6-.749,6.7-3.651,11.786-3.791,4.109-.14,4.758,1.732,8.11,1.17A11.35,11.35,0,0,0,52.751-9.927Z" transform="translate(216.548 -0.276)" fill="#6130c9"/>
              <path id="Path-28" data-name="Path" d="M260.169-27.339a17.928,17.928,0,0,0,0-13.292c-3.73-8.846-15.355-13.713-26.276-13.666-10.867.047-21.194,3.931-31.033,7.956s-19.842,8.331-30.655,9.267c-24.329,2.106-46.5-13.058-70.879-14.743-20.707-1.451-40.6,6.927-61.31,8.237-11.408.7-24.167-.421-32.872,5.991-6.92,5.1-8.65,13.854-5.893,21.436q15.409-3.37,30.817-6.786c8.975-1.966,18.382-3.931,27.3-1.872C71.428-22.051,79.754-12.737,90.242-6.886,103.6.555,121.059,2.1,135.873-2.908c14.652-4.914,26.762-15.772,42.333-17.317,21.3-2.106,41.9,13.854,62.553,8.986C249.735-13.392,257.3-19.664,260.169-27.339Z" transform="translate(0.317 -49.558)" fill="#7c37fa"/>
              <path id="Path-29" data-name="Path" d="M157.776-27.38c2.649-7.769-2.7-16.615-11.083-20.172s-18.923-2.2-26.654,2.34C109.6-39.127,101.062-27.192,88.627-29.064c-4.6-.7-8.434-3.276-12.327-5.429a79.822,79.822,0,0,0-44.55-9.361C17.477-42.684,1.69-35.523.122-23.167c-.649,5.148,1.406,9.22,3.406,12.73A39.473,39.473,0,0,0,12.233,0C23.586-8.658,41.914-15.351,59.648-16.053c18.923-.749,18.707,3.885,47.631,6.974,16,1.685,33.953-.234,44.982-10.39A20,20,0,0,0,157.776-27.38Z" transform="translate(12.367 -228.678)" fill="#2de6ea"/>
            </g>
          </g>
          <g id="pencil-2" data-name="pencil" transform="translate(305.317 -202.84)">
            <path id="Path-30" data-name="Path" d="M2.894-.345.088-4.569A.81.81,0,0,1,.424-5.635l.038-.019L.4-5.606A.676.676,0,0,1,.76-5.763l.116-.01.163,0a.7.7,0,0,1,.7.475l0,.026,2.7,4.065A.81.81,0,0,1,4.105-.14l-.05.026A.921.921,0,0,1,2.894-.345Z" transform="translate(-0.113 0.217)" fill="#ffcc0a"/>
          </g>
        </g>
      </g>
    </g>
    <g id="Bars_Status_Bar_iPhone_Light" data-name="Bars/Status Bar/iPhone/Light" transform="translate(0 778)">
      <rect id="System_Home_Indicator_Dark_background" data-name="System / Home Indicator  / Dark background" width="375" height="34" fill="none"/>
    </g>
    <g id="Bars_Status_Bar" data-name="Bars / Status Bar">
      <rect id="System_Status_Bar_Dark_background" data-name="System / Status Bar / Dark background" width="375" height="44" fill="none"/>
    </g>
    <g id="Logo-2" data-name="Logo" transform="translate(119 382)">
      <path id="TopNote" d="M24.026,38.825a1.783,1.783,0,0,1-.458-.3,2.882,2.882,0,0,1-.393-.41,2.131,2.131,0,0,1-.327-.607q.915-3.511,1.554-6.1t1.1-4.333q.491-2.034.851-3.413.328-1.314.654-2.626.262-1.147.573-2.461.279-1.179.518-2.224-.519.431-1.156.911-.917.688-2,1.345a10.3,10.3,0,0,1-2.062.985A11.459,11.459,0,0,1,22,21.923a7.677,7.677,0,0,1-1.326,1.871,5.779,5.779,0,0,1-1.735,1.23,5,5,0,0,1-2.111.443,3.456,3.456,0,0,1-2.111-.574,3.54,3.54,0,0,1-1.146-1.427,5.723,5.723,0,0,1-.458-1.871q-.082-1.017-.082-1.9a7.178,7.178,0,0,1,.148-1.378,12.415,12.415,0,0,1,.409-1.543,10.8,10.8,0,0,1,.671-1.575,7.688,7.688,0,0,1,.966-1.444,2.7,2.7,0,0,1,.6-.985,3.6,3.6,0,0,1,.95-.706,5.054,5.054,0,0,1,1.162-.427,5.254,5.254,0,0,1,1.211-.148.485.485,0,0,1,.18.032c.055.023.114.044.18.066a3.28,3.28,0,0,1,1.064.328,4.516,4.516,0,0,1,1.244.886,4.933,4.933,0,0,1,1.456,3.676q0,.262-.032.64t-.066.64a16.255,16.255,0,0,0,1.571-.722q.818-.427,1.588-.9t1.424-.968q.413-.311.721-.581.044-.282.065-.518a1.611,1.611,0,0,0-.491-1.329,3.408,3.408,0,0,1,.8-.509,3.674,3.674,0,0,1,.737-.246,2.019,2.019,0,0,1,.72-.066q.883.066,1.1.558a3.09,3.09,0,0,1,.049,1.575c-.022.11-.039.2-.049.279a1.773,1.773,0,0,0-.016.247A11.149,11.149,0,0,1,32.4,13.554a11.886,11.886,0,0,1,1.13-.886,6.174,6.174,0,0,1,1.178-.64,3.073,3.073,0,0,1,1.162-.247,1.909,1.909,0,0,1,1.228.378,2.465,2.465,0,0,1,.737,1,4.569,4.569,0,0,1,.327,1.395,11.87,11.87,0,0,1,.033,1.525,8.079,8.079,0,0,1-.278,1.74,12.505,12.505,0,0,1-.671,1.87,17.057,17.057,0,0,1-.982,1.871,16.742,16.742,0,0,1-1.178,1.706,1.011,1.011,0,0,1,.163.049c.022.011.033.022.033.032s.016.023.049.033a.865.865,0,0,0,.213.016,3.416,3.416,0,0,0,1.538-.394,8.51,8.51,0,0,0,1.538-1,16.436,16.436,0,0,0,1.457-1.329q.7-.721,1.276-1.394.372-.437.667-.817l.3-1.185q.36-1.427.671-2.707t.54-2.2q.294-1.183.654-2.758.622-2.691,1.866-8.073a5.461,5.461,0,0,1,.491-.312c.175-.1.327-.18.458-.246a2.1,2.1,0,0,1,.458-.2q1.048-.394,1.489-.1a1.472,1.472,0,0,1,.508,1.182q.032.59.147,1.706t.213,2.494q.1,1.378.164,2.839t.065,2.708q0,.821.033,1.936t.1,2.363q.065,1.247.164,2.543t.229,2.478q.131,1.181.278,2.166a15.723,15.723,0,0,0,.311,1.608c.043.175.093.338.147.492s.1.306.148.459q.2-.787.442-1.87l.524-2.314q.278-1.231.54-2.527t.458-2.445q.163-.918.36-2.363t.458-3.118c-.239-.087-.469-.175-.687-.262a4.027,4.027,0,0,1-.59-.328,1.982,1.982,0,0,1-.491-.459,4.2,4.2,0,0,1,.081-.624q.05-.2.311-.033a4.516,4.516,0,0,0,.606.229,5.072,5.072,0,0,0,.966.2q.163-.918.376-1.838t.442-1.772a20.07,20.07,0,0,1,.818-2.543,8.178,8.178,0,0,1,1.064-1.92A4.291,4.291,0,0,1,58.558.46a4.325,4.325,0,0,1,1.9-.46,1.987,1.987,0,0,1,1.652.837,4.57,4.57,0,0,1,.54,2.9,7.229,7.229,0,0,1-.638,2.773A9.057,9.057,0,0,1,60.62,8.681a7.929,7.929,0,0,1-1.8,1.543,7.791,7.791,0,0,1-1.866.869q-.294,1.543-.556,3.1l-.508,3.019q-.246,1.461-.491,2.774t-.475,2.33q-.228.984-.491,2.133-.229.984-.557,2.264t-.687,2.691a1.857,1.857,0,0,1-.328.508,2.206,2.206,0,0,1-.392.345,2.441,2.441,0,0,1-.459.263,1.56,1.56,0,0,1-1.112.1,1.632,1.632,0,0,1-.818-.886,10.057,10.057,0,0,1-.639-1.871q-.278-1.115-.572-2.428a26.567,26.567,0,0,1-.442-3.069q-.147-1.656-.229-3.38t-.114-3.429q-.032-1.706-.131-3.217-.165-1.97-.328-3.528t-.36-2.641l-.294,1.476q-.165.821-.36,1.674-.165.591-.41,1.69t-.524,2.511q-.278,1.411-.59,2.97t-.556,3.069q-.246,1.509-.442,2.839a20.911,20.911,0,0,0-.229,2.248q-.034,1.017,0,2,.032.853.114,1.788a7.735,7.735,0,0,0,.311,1.658,6.087,6.087,0,0,1-.982.377q-.425.115-.688.181a2.871,2.871,0,0,1-.556.066,4.611,4.611,0,0,1-.622-.05,1.126,1.126,0,0,1-.654-.345,2.258,2.258,0,0,1-.491-.919,5.349,5.349,0,0,1-.13-1.8,14.493,14.493,0,0,1,.246-1.953q.212-1.165.507-2.56.183-.865.4-1.767-.305.361-.642.733a15.692,15.692,0,0,1-1.686,1.608,10.238,10.238,0,0,1-1.817,1.2,3.99,3.99,0,0,1-1.816.475,5.828,5.828,0,0,1-.688-.032,1.509,1.509,0,0,1-.442-.115c-.121-.054-.235-.109-.344-.164s-.24-.115-.392-.181a4.891,4.891,0,0,1-1.211.706,3.269,3.269,0,0,1-1.211.247,2.374,2.374,0,0,1-.966-.181,1.809,1.809,0,0,1-.67-.492A2.794,2.794,0,0,1,29,24.434a5.524,5.524,0,0,1-.262-.739c-.022.087-.038.165-.049.229s-.027.154-.049.263q-.393,1.575-.818,3.643-.36,1.773-.868,4.316t-1.064,5.792q-.2.887-.7,1.018a1.411,1.411,0,0,1-.354.044A2.19,2.19,0,0,1,24.026,38.825ZM.933,30.669q-.181-.181-.049-.706.1-.459.589-2.494.2-.853.507-2.15t.737-3.15q.425-1.855,1.014-4.333t1.342-5.694L7.267,3.02q-.981.131-1.931.3t-1.784.345Q2.717,3.84,2.046,4T.982,4.267a.8.8,0,0,1-.59.032A.625.625,0,0,1,.1,3.971,1.275,1.275,0,0,1,0,3.462a4.426,4.426,0,0,1,.032-.542A4.318,4.318,0,0,1,.148,2.4,3.069,3.069,0,0,1,.36,1.838a1.67,1.67,0,0,1,.311-.443.941.941,0,0,1,.474-.247Q2.651.886,4.075.755t2.569-.2q1.31-.1,2.52-.1.262,0,.524.016t.524.016a1.607,1.607,0,0,1,.474-.049A2.077,2.077,0,0,1,11,.492q.949.032,1.964.1l1.915.148q1.064.082,2.111.214a1.292,1.292,0,0,1,.032.656c-.022.131-.044.263-.066.393a.777.777,0,0,1-.164.362,1.6,1.6,0,0,1-.245.311,1.319,1.319,0,0,1-.344.246q-1.114-.032-2.144-.049-.825-.014-1.493-.016H10.474Q10.049,4.365,9.427,6.58t-1.26,4.66Q7.528,13.686,6.955,16.1t-.9,4.349q-.327,1.871-.654,3.676-.131.755-.278,1.576t-.262,1.607q-.115.788-.213,1.51t-.163,1.312a6.9,6.9,0,0,1-.983.41,6.307,6.307,0,0,1-.818.213,3.5,3.5,0,0,1-.786.1A1.57,1.57,0,0,1,.933,30.669Zm84.743-5.415a4.429,4.429,0,0,1-1.522-1.066,5.209,5.209,0,0,1-1.1-1.87,4.942,4.942,0,0,1-.241-1.043q-.591.719-1.215,1.388a16.928,16.928,0,0,1-2.291,2.083,3.414,3.414,0,0,1-1.866.821,3.481,3.481,0,0,1-1.8-.427,3.376,3.376,0,0,1-1.13-1.05,4.065,4.065,0,0,1-.572-1.363,4.216,4.216,0,0,1-.1-1.362q.032-.525.229-1.887t.524-3.15l0-.026q-.542.454-1.216.961-.917.688-2,1.345a10.3,10.3,0,0,1-2.062.985,11.459,11.459,0,0,1-.884,2.33,7.726,7.726,0,0,1-1.326,1.871,5.79,5.79,0,0,1-1.735,1.23,5,5,0,0,1-2.111.443,3.451,3.451,0,0,1-2.111-.574,3.533,3.533,0,0,1-1.146-1.427,5.747,5.747,0,0,1-.459-1.871q-.081-1.017-.081-1.9a7.244,7.244,0,0,1,.147-1.378,12.422,12.422,0,0,1,.41-1.543A10.793,10.793,0,0,1,60.7,15.2a7.731,7.731,0,0,1,.966-1.444,2.713,2.713,0,0,1,.606-.985,3.59,3.59,0,0,1,.95-.706,5.039,5.039,0,0,1,1.162-.427,5.254,5.254,0,0,1,1.211-.148.489.489,0,0,1,.18.032c.054.023.114.044.18.066a3.28,3.28,0,0,1,1.064.328,4.53,4.53,0,0,1,1.244.886,4.942,4.942,0,0,1,1.456,3.676q0,.262-.032.64t-.066.64a16.354,16.354,0,0,0,1.571-.722q.818-.427,1.588-.9t1.424-.968q.412-.31.719-.58.193-1.011.41-2.095.409-2.051.868-3.955l-1.112.131a8.661,8.661,0,0,1-1.015.066A8.46,8.46,0,0,1,70.7,8.008a.35.35,0,0,1-.229-.378,1.172,1.172,0,0,1,.2-.492,1.7,1.7,0,0,1,.409-.427.78.78,0,0,1,.442-.18q.622.065,1.342.114a14.729,14.729,0,0,0,1.571.017q.622-.034,1.2-.1T76.757,6.4q.427-1.575.835-2.74a7.113,7.113,0,0,1,.736-1.625.787.787,0,0,1,.442-.279,3.794,3.794,0,0,1,.736-.164,2.851,2.851,0,0,1,.753,0,.787.787,0,0,1,.524.246,3.072,3.072,0,0,1,.131,1.345,17.646,17.646,0,0,1-.36,2.757,17.966,17.966,0,0,1,2.439.148q1.064.148,1.816.328a9.4,9.4,0,0,1,1.211.361q.458.181.688.247a.326.326,0,0,1,.245.328,1.218,1.218,0,0,1-.1.542,1.126,1.126,0,0,1-.376.476.709.709,0,0,1-.59.131,5.654,5.654,0,0,1-.736-.131,8.36,8.36,0,0,0-.982-.165q-.572-.065-1.358-.13t-1.833-.066c-.131,0-.278.005-.442.016s-.333.016-.508.016q-.131.525-.245,1.034a9.622,9.622,0,0,1-.311,1.066q-.425,1.312-.982,2.855Q78,14.342,77.314,16.081T75.775,19.79a5,5,0,0,0,.049,2.149,2.488,2.488,0,0,0,.606,1.066,1.7,1.7,0,0,0,1.048.394,1.954,1.954,0,0,0,1.194-.345,8.631,8.631,0,0,0,1.456-1.1q.753-.69,1.523-1.51.651-.7,1.221-1.366a9.1,9.1,0,0,1,.776-2.391,12.925,12.925,0,0,1,1.735-2.74,9.837,9.837,0,0,1,2.324-2.067,4.815,4.815,0,0,1,2.6-.821,2.3,2.3,0,0,1,1.8.624,2,2,0,0,1,.491,1.543,4.753,4.753,0,0,1-.572,1.87,7.577,7.577,0,0,1-1.13,1.543,11.47,11.47,0,0,1-1.391,1.247q-.736.558-1.391,1.017-.72.493-1.374.935t-1.146.8a3.568,3.568,0,0,0,.294,1.378,2.7,2.7,0,0,0,.655.9,2.325,2.325,0,0,0,.9.492,3.654,3.654,0,0,0,1.031.148,4.622,4.622,0,0,0,2.324-.706,15.824,15.824,0,0,0,2.372-1.706,26.111,26.111,0,0,0,2.161-2.083q1-1.084,1.652-1.871a.878.878,0,0,1,.475-.311.459.459,0,0,1,.392.066.469.469,0,0,1,.148.393,1.233,1.233,0,0,1-.229.64,24.944,24.944,0,0,1-2.226,2.806,20.274,20.274,0,0,1-2.634,2.428,14.4,14.4,0,0,1-2.848,1.723,6.87,6.87,0,0,1-2.831.656A4.08,4.08,0,0,1,85.676,25.254Z" transform="translate(39)" fill="#7c37fa"/>
      <g id="Group-5" data-name="Group">
        <g id="Icon_Leaf" data-name="Icon / Leaf">
          <path id="Path-31" data-name="Path" d="M25.645.355A1.445,1.445,0,0,0,24.582,0C24.109.118,11.464,2.245,6.264,7.445A11.168,11.168,0,0,0,2.955,17.964l4.373-2.6a.6.6,0,0,1,.709.945L3.664,20.682h0L.355,23.991a1.142,1.142,0,0,0,0,1.655A1.073,1.073,0,0,0,1.182,26a1.073,1.073,0,0,0,.827-.355l3.309-3.309A11.488,11.488,0,0,0,10.282,23.4a11.273,11.273,0,0,0,7.091-2.482,1.075,1.075,0,0,0,.355-1.3l-1.655-5.909,4.255,1.655a1.173,1.173,0,0,0,1.536-.591c2.482-5.555,4.018-13,4.136-13.236A1.764,1.764,0,0,0,25.645.355Z" transform="translate(2.6 2.6)" fill="#7c37fa"/>
        </g>
        <path id="Path_34" data-name="Path 34" d="M-.127,4.967C-4.207-.41-12.029-1.395-23.4,1.883-37.3,5.892-44.206,5.026-50.335.572A.855.855,0,0,0-51.42.654a.607.607,0,0,0,.095.939c6.492,4.717,13.87,5.683,27.968,1.682l.447-.128C-12.13.04-5.03.934-1.414,5.7A.845.845,0,0,0-.347,5.89.615.615,0,0,0-.127,4.967Z" transform="translate(60 36)" fill="#7c37fa"/>
        <path id="Path_34_Copy_2" data-name="Path 34 Copy 2" d="M-.812,0A41.643,41.643,0,0,0-10.8,1.821l-.51.153C-25.249,6.206-32.159,5.293-38.3.591A.875.875,0,0,0-39.4.64a.594.594,0,0,0,.058.933c6.522,4.99,13.948,6.013,28.119,1.776l.436-.131A40.724,40.724,0,0,1-.741,1.32.712.712,0,0,0,0,.63.739.739,0,0,0-.812,0Z" transform="translate(46.8 42)" fill="#7c37fa"/>
      </g>
    </g>
  </g>
</svg>
