<svg xmlns="http://www.w3.org/2000/svg" width="62" height="57.997" viewBox="0 0 62 57.997">
  <g id="magician-hat" transform="translate(0 -0.003)">
    <path id="Path" d="M1.2,8.243A27.351,27.351,0,0,0,.02,17.311a2.874,2.874,0,0,0,4.949,1.8c3.788-3.933,10.1-8.67,17.392-6.839-.482-.471-4.815-12.1-4.815-12.1S5.883-1.914,1.2,8.243Z" transform="translate(1.016 7)" fill="#b86eff"/>
    <path id="Path-2" data-name="Path" d="M21.16,13.053C20.71,12.605,16.168.181,16.168.181S4.729-1.863.357,7.785c0,0-.159.467-.357,1.281a8.915,8.915,0,0,1,7.577,7.486C7.6,16.533,16.947,9.74,21.16,13.053Z" transform="translate(2.217 6.177)" fill="#9f4dff"/>
    <path id="Path-3" data-name="Path" d="M.641,49s13.7-7.621,12.417-21.371S7.32,3.782,0,15.24C0,15.24,3.745-2.3,26,.253,49.456,2.941,51.652,46.086,51.652,46.086Z" transform="translate(2.217 0.003)" fill="#cf92ff"/>
    <path id="Path-4" data-name="Path" d="M12.075,0c.189,1.234.345,2.511.469,3.815C13.844,17.483,0,25.064,0,25.064L18.047,24.5A31.137,31.137,0,0,0,12.075,0Z" transform="translate(2.769 23.787)" fill="#b86eff"/>
    <path id="Path-5" data-name="Path" d="M0,18.851l50.82-2.973S49.354,8.79,47.372,0c-5.6,1.258-10.82,3.154-17.883,4.417C20.719,5.986,13.737,5.833,10.427,5A27.094,27.094,0,0,1,0,18.851Z" transform="translate(4.066 30.149)" fill="#ffeb99"/>
    <path id="Path-6" data-name="Path" d="M11.866,0C8.85,8.976,0,13.583,0,13.583l18.215-.727A34.925,34.925,0,0,0,17.959.661,37.226,37.226,0,0,1,11.866,0Z" transform="translate(2.627 35.144)" fill="#ffde55"/>
    <path id="Shape" d="M2.318,14.288.06,5.138A2.185,2.185,0,0,1,1.808,2.517L13.179.057a2.341,2.341,0,0,1,2.8,1.636l2.258,9.149a2.184,2.184,0,0,1-1.748,2.62L5.116,15.924A3.073,3.073,0,0,1,4.455,16,2.215,2.215,0,0,1,2.318,14.288Z" transform="translate(28.459 31)" fill="#47474e"/>
    <path id="Path-7" data-name="Path" d="M1.128,7.446A4.289,4.289,0,0,1,5.391,6.062a62.963,62.963,0,0,0,24.194,1.07A88.425,88.425,0,0,0,50.449.639c4.818-2.128,10.758,1.349,11.445,6.148s-2.029,9.5-6.693,10.357C49.963,18.111,41.821,19,29.584,19c-14.6,0-22.7-2.3-27.06-4.4a4.626,4.626,0,0,1-1.4-7.154Z" transform="translate(0 39)" fill="#dfaeff"/>
    <path id="Path-8" data-name="Path" d="M36.59,2.527c-2.9-2.995-8.66-3.7-14.071-.065C12.831,8.972,0,9.9,0,9.9q2.4.1,5.084.1c12.069,0,20.1-.865,25.264-1.807A8.1,8.1,0,0,0,36.59,2.527Z" transform="translate(24.393 48)" fill="#cf92ff"/>
    <g id="Group" transform="translate(22.361 19)">
      <path id="Path-9" data-name="Path" d="M1.434,3.718A.955.955,0,0,1,.321,2.905l-.3-1.678A1.029,1.029,0,0,1,.767.019.955.955,0,0,1,1.88.832l.3,1.677a1.029,1.029,0,0,1-.749,1.209Z" transform="translate(20.113 0)" fill="#57565c"/>
      <path id="Path-10" data-name="Path" d="M1.434,3.718A.955.955,0,0,1,.321,2.905l-.3-1.677A1.03,1.03,0,0,1,.767.019.955.955,0,0,1,1.88.832l.3,1.677A1.028,1.028,0,0,1,1.434,3.718Z" transform="translate(0.086 4.256)" fill="#57565c"/>
      <path id="Path-11" data-name="Path" d="M4.167,3.7A5.276,5.276,0,0,1,.523,3.159,1.073,1.073,0,0,1,.1,1.776a.915.915,0,0,1,1.274-.457A3.577,3.577,0,0,0,5.925.352a.9.9,0,0,1,1.338-.1,1.091,1.091,0,0,1,.091,1.453,5.585,5.585,0,0,1-3.187,2Z" transform="translate(7.557 3.202)" fill="#57565c"/>
    </g>
    <path id="Path-12" data-name="Path" d="M21.146,1.816A72.391,72.391,0,0,1,5.418.119,4.22,4.22,0,0,0,1.226,1.478C-.709,3.7-.349,7.623,2.275,8.885c3.267,1.572,9.238,3.025,17.992,3.737A4.672,4.672,0,0,1,16,7.779C16.047,3.613,20.451,2.063,21.146,1.816Z" transform="translate(0 45)" fill="#cf92ff"/>
  </g>
</svg>
