<svg xmlns="http://www.w3.org/2000/svg" width="375.203" height="375.138" viewBox="0 0 375.203 375.138">
  <g id="onboardingscreen2" transform="translate(0 -0.9)">
    <g id="background">
      <g id="background_1_">
        <path id="Shape" d="M2.67,5.415a2.573,2.573,0,0,1-1.535-.5A2.529,2.529,0,0,1,.029,3.134,2.8,2.8,0,0,1,.471,1.153,2.488,2.488,0,0,1,2.235.03,2.88,2.88,0,0,1,2.646,0,2.774,2.774,0,0,1,4.206.48,2.527,2.527,0,0,1,5.313,2.264,2.8,2.8,0,0,1,4.87,4.246,2.5,2.5,0,0,1,3.5,5.283l-.2.051-.106.014A1.435,1.435,0,0,1,2.67,5.415ZM2.613,1.627l-.126.044a1.059,1.059,0,0,0-.71.464,1.04,1.04,0,0,0-.155.8,1.079,1.079,0,0,0,.461.724.93.93,0,0,0,.53.177l.113,0,.129-.019a1.059,1.059,0,0,0,.71-.464,1.037,1.037,0,0,0,.154-.8,1.066,1.066,0,0,0-.408-.689,1.265,1.265,0,0,0-.641-.22l-.091,0Z" transform="translate(14.823 338.196)" fill="#7c37fa"/>
        <ellipse id="Oval" cx="2.065" cy="2.093" rx="2.065" ry="2.093" transform="translate(169.432 360.555)" fill="#ffcc0a"/>
        <path id="Shape-2" data-name="Shape" d="M3.839,7.8a3.328,3.328,0,0,1-.915-.118l-.4-.133A3.913,3.913,0,0,1,2.007.465,3.5,3.5,0,0,1,3.78,0,4.2,4.2,0,0,1,4.95.17,3.943,3.943,0,0,1,7.239,2.061a4.046,4.046,0,0,1,.383,2.485l-.044.234-.06.241A3.889,3.889,0,0,1,3.839,7.8Zm0-6.155a2.142,2.142,0,0,0-1.03.275A2.316,2.316,0,0,0,1.725,3.26a2.23,2.23,0,0,0,.164,1.715A2.252,2.252,0,0,0,3.221,6.082a2.119,2.119,0,0,0,.643.1A2.226,2.226,0,0,0,5.881,4.869l.06-.148.05-.148A2.219,2.219,0,0,0,5.82,2.841a2.28,2.28,0,0,0-1.31-1.1A2.508,2.508,0,0,0,3.839,1.643Z" transform="translate(19.284 136.759)" fill="#2de6ea"/>
        <path id="Shape-3" data-name="Shape" d="M2.3,4.668a2.8,2.8,0,0,1-.7-.113A2.294,2.294,0,0,1,.358,3.573L.281,3.421A2.2,2.2,0,0,1,.065,1.826l.052-.167a2.162,2.162,0,0,1,.988-1.3L1.249.284A2.216,2.216,0,0,1,2.319,0a2.069,2.069,0,0,1,.544.073L3.01.119A2.327,2.327,0,0,1,4.633,2.7L4.6,2.868l-.051.2A2.271,2.271,0,0,1,3.39,4.422,2.824,2.824,0,0,1,2.3,4.668Zm0-3.077a.487.487,0,0,0-.316.1.859.859,0,0,0-.373.426.78.78,0,0,0,.031.579.857.857,0,0,0,.417.376,1.136,1.136,0,0,0,.276.039.548.548,0,0,0,.282-.069A.858.858,0,0,0,3,2.585a.7.7,0,0,0-.388-.858l-.095-.036-.13-.063A.172.172,0,0,0,2.3,1.591Z" transform="translate(150.002 167.04)" fill="#2de6ea"/>
        <ellipse id="Oval-2" data-name="Oval" cx="1.701" cy="1.723" rx="1.701" ry="1.723" transform="translate(107.482 52.689)" fill="#2de6ea"/>
        <ellipse id="Oval-3" data-name="Oval" cx="3.604" cy="3.652" rx="3.604" ry="3.652" transform="translate(0 243.209)" fill="#ffcc0a"/>
        <ellipse id="Oval-4" data-name="Oval" cx="2.551" cy="2.585" rx="2.551" ry="2.585" transform="translate(287.233 12.161)" fill="#7c37fa"/>
        <ellipse id="Oval-5" data-name="Oval" cx="2.551" cy="2.585" rx="2.551" ry="2.585" transform="translate(333.78 361)" fill="#ffcc0a"/>
        <path id="Shape-4" data-name="Shape" d="M6.827,13.772a.818.818,0,0,1-.483-.165l-.074-.066L.235,7.467A.829.829,0,0,1,.158,6.405l.077-.092L6.229.241A.805.805,0,0,1,6.807,0a.816.816,0,0,1,.5.168l.083.074,5.994,6.072a.831.831,0,0,1,.077,1.063l-.077.091L7.385,13.541A.81.81,0,0,1,6.827,13.772Zm0-11.813h0L1.942,6.871l4.844,4.908,4.847-4.91L6.824,1.959Z" transform="translate(8.318 27.876)" fill="#ffcc0a"/>
        <path id="Shape-5" data-name="Shape" d="M4.064,8.232a.813.813,0,0,1-.483-.166L3.506,8,.225,4.677A.807.807,0,0,1,0,4.121.819.819,0,0,1,.161,3.64l.064-.075L3.506.241A.805.805,0,0,1,4.084,0a.816.816,0,0,1,.5.168l.083.074,3.28,3.324a.807.807,0,0,1,.225.556.819.819,0,0,1-.161.482l-.064.075L4.662,8l-.13.1A.908.908,0,0,1,4.064,8.232ZM4.1,1.879,1.931,4.08,4.1,6.281l2.174-2.2Z" transform="translate(74.376 356.14)" fill="#2de6ea"/>
        <path id="Shape-6" data-name="Shape" d="M3.884,6.91h0A.88.88,0,0,1,3.738,6.9a.673.673,0,0,1-.253-.091L3.454,6.78.342,4.609A.821.821,0,0,1,.076,3.6L.128,3.5,2.27.35A.807.807,0,0,1,2.942,0a.782.782,0,0,1,.338.076l.1.057L6.49,2.3a.821.821,0,0,1,.267,1.013l-.052.092-2.111,3.1a.735.735,0,0,1-.691.4ZM3.1,1.9,1.878,3.732l1.807,1.24L4.912,3.137Z" transform="translate(221.17 180.666)" fill="#7c37fa"/>
        <path id="Shape-7" data-name="Shape" d="M4.9,8.634h0a.88.88,0,0,1-.146-.012A.673.673,0,0,1,4.5,8.531L4.468,8.5.342,5.635A.821.821,0,0,1,.076,4.622L.127,4.53,2.958.35A.807.807,0,0,1,3.631,0a.782.782,0,0,1,.338.076l.1.057L8.137,2.969a.725.725,0,0,1,.4.651l0,.11a.861.861,0,0,1-.076.319l-.048.1L5.5,8.439,5.384,8.5a.9.9,0,0,1-.469.136ZM3.793,1.9,1.878,4.759,4.7,6.7,6.613,3.833,3.793,1.9h0Z" transform="translate(154.961 78.818)" fill="#7c37fa"/>
        <path id="Shape-8" data-name="Shape" d="M4.023,9.945a.657.657,0,0,1-.4-.13L3.545,9.75a.62.62,0,0,1-.062-.061L3.4,9.6.092,4.537A.915.915,0,0,1,0,4.07a.655.655,0,0,1,.243-.521l.1-.1L5.336.1A.855.855,0,0,1,5.62.009L5.735,0H5.8a.657.657,0,0,1,.4.13L6.283.2a.881.881,0,0,1,.1.1l.047.054,3.28,5A.822.822,0,0,1,9.568,6.39l-.082.064L4.492,9.809l-.163.08a.492.492,0,0,1-.205.055ZM5.5,1.894h0L1.877,4.331,4.285,8.009,7.91,5.571,5.5,1.895Z" transform="translate(348.974 44.229)" fill="#2de6ea"/>
        <path id="Shape-9" data-name="Shape" d="M5.022,11.687h0a.715.715,0,0,1-.566-.261l-.038-.065L.094,5.477.12,5.54a.682.682,0,0,1-.086-.581l0-.013.014-.069a.718.718,0,0,1,.17-.317l.06-.052.064-.038L6.038.144A.862.862,0,0,1,6.515,0a.742.742,0,0,1,.559.238L7.125.3,11.393,6.07a.819.819,0,0,1-.069,1.013l-.086.07L5.621,11.415a.7.7,0,0,1-.458.266ZM6.339,1.96h0L1.951,5.295,5.244,9.743,9.632,6.41,6.339,1.96Z" transform="translate(352.804 275.037)" fill="#2de6ea"/>
        <path id="Path" d="M.469.088A.8.8,0,0,0,.085,1.165l3.959,9.088a.844.844,0,0,0,.742.464h.241l.107-.054a.8.8,0,0,0,.384-1.078L1.548.476A.79.79,0,0,0,.469.088Z" transform="translate(322.862 80.374)" fill="#0f0a39"/>
        <path id="Path-2" data-name="Path" d="M.073,9.792l-.039.1a.786.786,0,0,0,.347.884l.026.016-.061-.055a.6.6,0,0,0,.477.19.747.747,0,0,0,.769-.585L5.137,1.123a.786.786,0,0,0-.4-1.036A.79.79,0,0,0,3.655.476Z" transform="translate(229.637 30.936) rotate(120)" fill="#ffcc0a"/>
        <path id="Path-3" data-name="Path" d="M.642,2.154l-.1.031A.821.821,0,0,0,0,3.03l.007.04,0-.059a.757.757,0,0,0,.783.746H.873l.109-.012,9.557-2.134A.813.813,0,1,0,10.185.024Z" transform="translate(204.641 346.583)" fill="#0f0a39"/>
        <path id="Path-4" data-name="Path" d="M5.41.372.156,8.725l.051-.059A.772.772,0,0,0,.365,9.842a.507.507,0,0,0,.278.115.9.9,0,0,0,.164.012.767.767,0,0,0,.6-.272l.067-.085L6.719,1.267l.02-.022A.773.773,0,0,0,6.589.209l-.04-.03.04.035A.764.764,0,0,0,5.41.372Z" transform="translate(178.492 39.844)" fill="#0f0a39"/>
        <path id="Path-5" data-name="Path" d="M5.41.372.155,8.727l.053-.061A.772.772,0,0,0,.365,9.842a.507.507,0,0,0,.278.115.9.9,0,0,0,.164.012l.1-.006a.746.746,0,0,0,.59-.4l5.224-8.3.018-.02A.773.773,0,0,0,6.589.209L6.545.175l.044.039A.764.764,0,0,0,5.41.372Z" transform="translate(264.761 51.714)" fill="#0f0a39"/>
        <path id="Path-6" data-name="Path" d="M.55.026.393.1a.891.891,0,0,0-.368.944l3.459,9.368a.8.8,0,0,0,.752.532.6.6,0,0,0,.477-.19.844.844,0,0,0,.292-.881L1.547.5,1.5.4A.881.881,0,0,0,.55.026Z" transform="translate(82.545 0.9)" fill="#0f0a39"/>
        <path id="Path-7" data-name="Path" d="M.235.241a.825.825,0,0,0,0,1.154L7.373,8.217a.8.8,0,0,0,.548.221A.9.9,0,0,0,8.39,8.3l.13-.095a.825.825,0,0,0,0-1.154L1.392.241A.815.815,0,0,0,.235.241Z" transform="translate(139.887 313.96)" fill="#0f0a39"/>
        <path id="Path-8" data-name="Path" d="M3.936.476.036,9.754a.788.788,0,0,0,.342.9l.116.078a.64.64,0,0,0,.327.072.818.818,0,0,0,.732-.484l3.86-9.178a.79.79,0,0,0-.4-1.05A.79.79,0,0,0,3.936.476Z" transform="translate(129.938 209.007)" fill="#0f0a39"/>
        <path id="Path-9" data-name="Path" d="M.628.024A.817.817,0,0,0,.023,1l1.9,9.742a.713.713,0,0,0,.774.651h.081l.123-.015A.817.817,0,0,0,3.5,10.4L1.6.635A.812.812,0,0,0,.628.024Z" transform="translate(219.259 274.348)" fill="#0f0a39"/>
        <path id="Path-10" data-name="Path" d="M6.291.265.178,8.105a.824.824,0,0,0,.079,1.11l.13.095.1.056a.7.7,0,0,0,.327.08.833.833,0,0,0,.6-.272l6.113-7.84A.824.824,0,0,0,7.448.224L7.4.177A.81.81,0,0,0,6.291.265Z" transform="translate(289.697 366.591)" fill="#0f0a39"/>
        <path id="Path-11" data-name="Path" d="M.26.225a.819.819,0,0,0-.04,1.154L6.213,9.17a.869.869,0,0,0,.639.318.685.685,0,0,0,.261-.037.741.741,0,0,0,.3-.194A.819.819,0,0,0,7.451,8.1L1.457.312,1.417.266A.809.809,0,0,0,.26.225Z" transform="translate(353.713 343.684)" fill="#0f0a39"/>
        <path id="Path-12" data-name="Path" d="M.359.141a.763.763,0,0,0-.219,1.1l5.8,8.02a.728.728,0,0,0,.648.33l.093,0a.543.543,0,0,0,.357-.126l.013-.014.02-.011a.782.782,0,0,0,.177-1.074L1.459.359l.033.057A.762.762,0,0,0,.447.089Z" transform="translate(184.222 212.084)" fill="#ffcc0a"/>
        <path id="Path-13" data-name="Path" d="M4.8.443.107,9.168a.786.786,0,0,0,.336,1.093.788.788,0,0,0,.388.1.763.763,0,0,0,.691-.443L6.212,1.189A.781.781,0,0,0,5.976.155L5.93.127A.787.787,0,0,0,4.8.443Z" transform="translate(24.316 198.036)" fill="#0f0a39"/>
        <path id="Path-14" data-name="Path" d="M.21.265a.836.836,0,0,0,.04,1.154L8.117,7.5a.6.6,0,0,0,.247.15.685.685,0,0,0,.261.037A.79.79,0,0,0,9.183,6.3L1.314.177A.81.81,0,0,0,.21.265Z" transform="translate(22.759 282.189)" fill="#0f0a39"/>
        <path id="Path-15" data-name="Path" d="M.638,2.237l-.1.031A.821.821,0,0,0,0,3.112l.007.039,0-.058a.757.757,0,0,0,.783.746H.873l.113-.013,9.557-2.216A.813.813,0,1,0,10.185.024Z" transform="translate(2.812 92.299)" fill="#0f0a39"/>
        <path id="Path-16" data-name="Path" d="M.235.242a.823.823,0,0,0,0,1.152l7.052,6.9a.8.8,0,0,0,.555.226.9.9,0,0,0,.471-.137l.131-.1a.823.823,0,0,0,0-1.152L1.4.242A.819.819,0,0,0,.235.242Z" transform="translate(73.998 89.999)" fill="#0f0a39"/>
        <path id="Path-17" data-name="Path" d="M.26.225a.819.819,0,0,0-.04,1.154L6.255,9.131a.868.868,0,0,0,.637.316.685.685,0,0,0,.261-.037.741.741,0,0,0,.3-.194.819.819,0,0,0,.04-1.154L1.456.31,1.417.266A.809.809,0,0,0,.26.225Z" transform="translate(102.971 159.032)" fill="#0f0a39"/>
        <path id="Path-18" data-name="Path" d="M.21.265a.836.836,0,0,0,.04,1.154L7.946,7.652l.13.081.06.033a.7.7,0,0,0,.327.08.762.762,0,0,0,.691-.4A.787.787,0,0,0,9.021,6.42L1.314.177A.81.81,0,0,0,.21.265Z" transform="translate(343.886 205.031)" fill="#0f0a39"/>
        <path id="Path-19" data-name="Path" d="M8.9.095.407,5.158a.764.764,0,0,0-.357.959l.043.1a.686.686,0,0,0,.691.443A.9.9,0,0,0,.948,6.65l.095-.022a.6.6,0,0,0,.177-.086l.009-.009L9.666,1.5A.775.775,0,0,0,9.98.443.777.777,0,0,0,8.9.095Z" transform="translate(365.131 125.954)" fill="#0f0a39"/>
      </g>
    </g>
    <g id="general_1_" transform="translate(38 72)">
      <g id="general">
        <g id="man_2" transform="translate(189.181 45.641)">
          <g id="hand_l_1_" transform="translate(77.143 79.682)">
            <path id="Shape-10" data-name="Shape" d="M13.819,21.183h0a2.136,2.136,0,0,1-1.626-.822c-.5-.69-.5-1.428.019-2.927.076-.2.152-.4.234-.6l.12-.3-.377.534,0,0c0,.015-.339.453-.654.84l-.346.412C9.871,19.811,9,20.451,8.3,20.451a1.166,1.166,0,0,1-.146-.009,2.116,2.116,0,0,1-1.6-1.217,2.477,2.477,0,0,1-.206-1.537,4.757,4.757,0,0,1,.42-1.241l.013-.022-.343.283a4.5,4.5,0,0,1-2.472,1.307,1.336,1.336,0,0,1-.492-.093,2.228,2.228,0,0,1-1.393-1.843c-.119-.917.221-1.542,1.584-2.9l.6-.589c.06-.058.122-.115.187-.173l.145-.127.088-.08c.117-.106.241-.218.371-.337l.96-.884-.459.233c-1.644.83-2.693,1.332-3.033,1.452l-.047.016a2.123,2.123,0,0,1-.583.084,2.056,2.056,0,0,1-.529-.071.581.581,0,0,1-.109-.032.015.015,0,0,1,.009,0h.056l-.161-.026a1.045,1.045,0,0,1-.3-.158c-.029-.021-.053-.042-.067-.055L.767,12.4a1.957,1.957,0,0,1-.537-.747l-.094-.227-.085-.314A1.82,1.82,0,0,1,0,10.675,2.934,2.934,0,0,1,1.665,8.381c.2-.124.292-.184.487-.287l.691-.353C4.323,7.038,8,5.319,14.081,2.487L16.433,1.4l.469-.221.236-.113,2.1-.976A.791.791,0,0,1,19.593,0a.822.822,0,0,1,.728.476.8.8,0,0,1-.4,1.084l-2.1.976-.062.031-.649.307-.361.161c-1.288.592-2.659,1.225-4.316,1.993l-9.24,4.3c-.241.118-.423.217-.626.34-.609.37-.981.75-.994,1.018a.4.4,0,0,0,.019.1l.028.09a.941.941,0,0,0,.175.283l-.017-.021.038.007h.029a.445.445,0,0,0,.1-.011l.08-.023c.255-.077,1.869-.879,4.316-2.145l4.074-2.132a.713.713,0,0,1,.4-.126.968.968,0,0,1,.669.311l.47-.243-.387.364.01.016a.809.809,0,0,1-.089.852l-.081.093c-2.767,2.628-4.35,4.12-5.328,4.981l-.537.464c-.044.039-.095.086-.151.139l-.185.181c-1.215,1.225-1.543,1.647-1.524,1.964a.694.694,0,0,0,.291.481.08.08,0,0,0,.022,0c.219,0,1.129-.616,3.025-2.344l.432-.4c.042-.043.248-.234.508-.477.333-.31.746-.695,1.071-1l.813-.786c.186-.183.364-.357.544-.537l.88-.882c.842-.849,1.217-1.195,1.54-1.195a.664.664,0,0,1,.391.158l.113.087.018.011a.759.759,0,0,1,.3.506l.005.087c.052.626-1.878,3.263-3.638,5.2l-.342.371-.2.238c-.168.209-.337.433-.49.648l-.357.545-.19.314a4.3,4.3,0,0,0-.343.728,2.063,2.063,0,0,0-.086.329.908.908,0,0,0,.032.536.958.958,0,0,0,.314.332l.01-.008.181-.12a9.29,9.29,0,0,0,1.5-1.456c.243-.281.482-.566.71-.848l.272-.338c.724-1.044,1.8-2.453,3.2-4.189l.613-.758a.756.756,0,0,1,.642-.341.937.937,0,0,1,.249.035l.081.026.225-.276-.122.319.033.016a.779.779,0,0,1,.314.961l-.014.024-1.3,3.35-.365.858c-.3.725-.489,1.2-.624,1.6l-.155.472c-.24.732-.286,1.1-.159,1.273a.364.364,0,0,0,.31.143c.134,0,.4-.2.716-.758l.083-.136L15,18.153l.018-.028.116-.276.012-.021.012-.021.279-.538.008-.021a.6.6,0,0,1,.043-.073l.045-.055.951-1.884c.176-.35.318-.639.448-.91l.337-.718.625-1.276.185-.388a.748.748,0,0,1,.655-.442,11.719,11.719,0,0,0,3.078-.668,11.586,11.586,0,0,0,3.932-2.358,14.446,14.446,0,0,0,1.947-2.115l.07-.091a.822.822,0,0,1,.6-.262.593.593,0,0,1,.44.173.8.8,0,0,1,.342.589.638.638,0,0,1-.172.521,13.124,13.124,0,0,1-2.189,2.38,13.032,13.032,0,0,1-4.465,2.635,14.405,14.405,0,0,1-3.048.731l-.438.932c-.048.1-.091.186-.132.269l-.122.236-1.49,3,.056.024-.29.487c-.043.073-.084.151-.14.27l-.149.314-.1.242c-.045.089-.084.165-.127.247l-.332.6-.024.039a2.971,2.971,0,0,1-1.958,1.467ZM12.114,10.46l-.594.6-.51.509.17.16.216-.281c.259-.344.488-.657.681-.932Z" transform="translate(0.619 0.63)" fill="#0f0a39"/>
          </g>
          <g id="tshirt_2_" transform="translate(20.088 24.983)">
            <path id="Path-20" data-name="Path" d="M1.015,4.956C1.665,4.014,2.8,2.5,4.831,0c-.487,1.27-.934,2.416-1.3,3.358-.487,1.188-.853,2.089-1.1,2.785-.812,0-1.624.041-2.436.041C.568,5.529,1.015,4.956,1.015,4.956Z" transform="translate(68.246 66.88)"/>
            <path id="Path-21" data-name="Path" d="M1.827,3.44c-.447,0-.934,0-1.38.041H0A.04.04,0,0,1,.041,3.44L1.746,0C1.746,1.147,1.786,2.293,1.827,3.44Z" transform="translate(73.808 69.46)"/>
            <path id="tshirt_1_" d="M23.872,73.555h0c1.091-7.093,2.157-14.368,3.167-21.623.73-5.361,1.468-10.735,2.192-15.972a47.261,47.261,0,0,1-3.086,3.727C22.576,43.65,14.217,52.933,7.18,52.934a7.3,7.3,0,0,1-1.821-.225,5.786,5.786,0,0,1-1.664-.819,8.683,8.683,0,0,1-2.273-1.925c-.02-.614-.2-5.2-.365-9.635V40.3C.886,35.872.711,31.289.69,30.676.67,30.111.5,25.516.345,21.462v-.02C.185,17.192.02,12.8,0,12.245c1.3,2.972,2.682,5.962,3.9,8.6,1.772,3.818,3.575,7.621,5.36,11.3,1.941-2.833,4-5.6,6.13-8.212A96.946,96.946,0,0,1,25.9,12.778a55.7,55.7,0,0,1,8.1-6.1,34.726,34.726,0,0,1,5.577-2.749c.78-.29,1.518-.538,2.232-.778V0C44.6.081,47.5.123,50.423.123c2.859,0,5.687-.041,8.4-.123V1.679c2.443.286,4.542.726,6.228,1.079l.008,0,.707.148a57.848,57.848,0,0,1,19.65,8.6A72.427,72.427,0,0,1,97.365,21.02a29.1,29.1,0,0,1,4.953,6.741,17.718,17.718,0,0,1,2.061,7.992c0,3.275-1.2,6.02-3.695,11.427A89.022,89.022,0,0,1,88.179,67c-1.793-1.124-3.25-2.061-4.587-2.948-2.3-1.487-4.5-2.975-6.537-4.424-.781-.5-1.519-1.036-2.233-1.556-.184-.124-.372-.261-.553-.393s-.362-.264-.543-.386c-6.892,3.169-11.437,5.29-13.234,6.143-.551.229-2.354,1.067-2.4,2.212a1.829,1.829,0,0,0,.081.491,1.563,1.563,0,0,0,.365.573c0,.041.083.082.163.122a1.1,1.1,0,0,0,.454.087,1.472,1.472,0,0,0,.358-.045c.422-.117,3.624-1.74,8.566-4.342-3.432,3.243-5.157,4.809-5.724,5.324a6.575,6.575,0,0,0-.488.451c-1.1,1.109-1.827,1.842-1.745,2.621a1.441,1.441,0,0,0,.852,1.147.557.557,0,0,0,.238.052c.4,0,1.213-.336,4.024-2.96.122-.123.313-.306.6-.583s.674-.644,1.183-1.137c.934-.908,1.584-1.558,2.059-2.034a5.788,5.788,0,0,1,.938-.876l.007,0a28.086,28.086,0,0,1-3.775,5,4.739,4.739,0,0,0-.771.941,6.145,6.145,0,0,0-1.1,2.253c-6.838.145-13.78.282-20.494.414H43.86c-6.548.129-13.318.263-19.987.4ZM73.889,28.177c.062,2.185.135,4.546.206,6.828v.019c.068,2.2.139,4.473.2,6.586l.365,11.3c2.664-2.919,5-5.585,7.145-8.15,2.673-3.226,4.983-6.093,7.064-8.764-1.682-.9-3.4-1.806-5.057-2.678q-1.263-.664-2.535-1.336C79.051,30.808,76.634,29.562,73.889,28.177Z" transform="translate(0.325 0.369)" fill="#0f0a39"/>
          </g>
          <g id="shoes" transform="translate(9.532 202.728)">
            <path id="Path-22" data-name="Path" d="M13.763,0c.406,3.154.812,6.1,1.137,8.805-4.141-.041-9.135-.041-14.9,0C1.705,3.317,4.06,1.392,6.009.655,8.729-.369,10.637.614,13.763,0Z" transform="translate(0.081 6.184)" fill="#2de6ea"/>
            <path id="Path-23" data-name="Path" d="M21.07,14.867c-1.462.041-3.491.041-5.927.041l-1.786-2.293v2.293h-.122c-5.075,0-8.769-.082-10.231-.123H.2C.162,11.713.081,8.4,0,4.751A17.925,17.925,0,0,0,5.278,0H19.406C19.974,4.956,20.543,9.911,21.07,14.867Z" transform="translate(17.132 0.205)" fill="#2de6ea"/>
            <path id="Path-24" data-name="Path" d="M30.855,12.573l1.786,2.293c2.233,0,4.141-.041,5.481-.041C37.594,9.87,37.026,4.956,36.5,0c-4.75.041-9.459.041-14.209.082C19.2,4.055,16.28,5.406,14.128,5.9c-3.37.778-5.278-.369-8.12.7C4.1,7.331,1.705,9.256,0,14.744c8.444-.041,15.224,0,20.056.041,1.462,0,5.156.123,10.231.123h.528V12.573Z" transform="translate(51.803 0.246)" fill="#2de6ea"/>
          </g>
          <g id="head_1_" transform="translate(53.996)">
            <path id="Path-25" data-name="Path" d="M1.7,5.931l-.032.047-.027.052.035-.042-.086.121A16.218,16.218,0,0,0,0,13.21a15.157,15.157,0,0,0,.72,5.22A8.347,8.347,0,0,0,4,22.882l.266.173a8.646,8.646,0,0,0,4.765,1.214l.279-.009.159.8a.73.73,0,0,0,.673.642l.1.007a.527.527,0,0,0,.268-.059l.078-.049.044-.019a.814.814,0,0,0,.442-.791L11,24.344l-.2-1.057-.014-.083a.82.82,0,0,0-.821-.665,7.733,7.733,0,0,1-5.045-1.066,6.853,6.853,0,0,1-2.656-3.709,13.759,13.759,0,0,1-.606-4.595l.005-.4A14.905,14.905,0,0,1,3.067,6.752L3.1,6.677A8.9,8.9,0,0,1,6.87,2.716l.154-.071c.1-.044.19-.087.293-.131.282-.122.582-.239.905-.349a8.727,8.727,0,0,1,5.159-.319,6.248,6.248,0,0,1,1.03.388c2.328,1.1,3.85,3.639,4.967,8.347l.034.212a.8.8,0,0,0,.986.608.787.787,0,0,0,.587-.867l-.055-.288c-1.178-5-2.894-7.891-5.6-9.327L15.093.8a7.884,7.884,0,0,0-1-.4A10.076,10.076,0,0,0,7.666.684a11.852,11.852,0,0,0-1.545.653l-.315.17A10.126,10.126,0,0,0,1.852,5.643Z" transform="translate(0.666 0.51)" fill="#0f0a39"/>
            <path id="Path-26" data-name="Path" d="M2.425.282,2.4.308,2.305.35c-.163.072-.28.127-.4.193a2.3,2.3,0,0,0-.572.395L1.2,1.043A4.027,4.027,0,0,0,.027,2.99a.8.8,0,1,0,1.54.425,2.509,2.509,0,0,1,.8-1.247,3.192,3.192,0,0,1,.71-.37,2.634,2.634,0,0,1,2.044.1A2.58,2.58,0,0,1,6.489,3.417,2.845,2.845,0,0,1,4.832,6.884a2.965,2.965,0,0,1-.953.129.807.807,0,1,0-.041,1.614h.2a3.032,3.032,0,0,0,1.446-.3A4.438,4.438,0,0,0,8.01,2.888,4.581,4.581,0,0,0,5.813.433,4.217,4.217,0,0,0,2.535.244Z" transform="translate(15.355 9.974)" fill="#0f0a39"/>
            <g id="hair_2_" transform="translate(2.63)">
              <path id="hair_1_" d="M18.838,11.181a4.349,4.349,0,0,0-3.532-.451,3.735,3.735,0,0,0-1.3.86,3.153,3.153,0,0,0-.69,1.311L10.15,8.109A12.2,12.2,0,0,1,7.632,7.044a17.74,17.74,0,0,1-3.37-2.662,10.193,10.193,0,0,1-1.5,1.27A8.386,8.386,0,0,1,0,6.8,9.81,9.81,0,0,1,4.019,1.393a9.555,9.555,0,0,1,9.581-.2A10.339,10.339,0,0,1,18.838,11.181Z" transform="translate(0.162 0.164)" fill="#0f0a39"/>
              <path id="Path-27" data-name="Path" d="M1.38,0l.162,4.3L0,1.352Z" transform="translate(18.229 16.054)"/>
            </g>
            <path id="Path-28" data-name="Path" d="M.726.006.689.012l.066,0A.762.762,0,0,0,.023.955l.113.824L.367,3.346c.018.13.034.25.051.38L.689,5.387,1.3,9.338l.05.3.006.083a.729.729,0,0,0,.473.525l.05.016.136.137.28-.071a.823.823,0,0,0,.627-.872l-.536-3.3C2.284,5.475,2.2,4.89,2.106,4.247L1.982,3.5l-.2-1.406L1.63,1.07C1.612.94,1.6.819,1.579.69l0,.064A.762.762,0,0,0,.726.006Z" transform="translate(21.079 15.915)" fill="#0f0a39"/>
          </g>
          <g id="legs_1_" transform="translate(27.201 96.473)">
            <path id="Path-29" data-name="Path" d="M27.244.007a.819.819,0,0,0-.684.821l7.555,104.186-3.241.036-6.818.04H21.623l-5.9.037-.586-4.053c-.7-4.8-1.509-10.121-2.56-16.939L12.336,82.5l-1.451-9.3c-1.15-7.283-2.4-15.013-4.031-24.945L6.57,46.5l-.064-.347-.231-1.419-.031-.172L4.685,35.31C3.624,29.056,2.637,23.333,1.616,17.533a.823.823,0,0,0-.985-.644A.823.823,0,0,0,0,17.761l.018.1c1.568,8.959,3.06,17.679,4.62,26.993l.086.471.2,1.208c.015.085.029.163.046.254l.282,1.749.766,4.605c1.535,9.29,3.089,19.07,4.714,29.629l.243,1.636,1.862,12.344c.492,3.282.951,6.372,1.386,9.321a.756.756,0,0,0,.782.673l6.661-.041,3.627-.006,5.626-.035,4.105-.041a.774.774,0,0,0,.252-.03.631.631,0,0,0,.4-.328l.067-.144c.008-.02.015-.04.023-.063a.819.819,0,0,0,.045-.263L28.174.751A.8.8,0,0,0,27.347,0Z" transform="translate(39.753 0.623)" fill="#0f0a39"/>
            <path id="Path-30" data-name="Path" d="M20.55.635,0,105.3a.972.972,0,0,0,.036.358l.024.065c.018.045.036.082.064.14l.093.13a.839.839,0,0,0,.6.272H19.455l.1-.006a.658.658,0,0,0,.616-.659l0-.031,15.478-48.76.161-.486L43.239,32.89a.8.8,0,0,0-1.5-.539l-7.455,23.5-15.486,48.8H1.756L22.141.973A.814.814,0,0,0,20.55.635Z" transform="translate(0.632 0.983)" fill="#0f0a39"/>
            <g id="pattern" transform="translate(1.224)">
              <path id="Oval-6" data-name="Oval" d="M1.478,2.966A1.483,1.483,0,1,1,2.955,1.483,1.482,1.482,0,0,1,1.478,2.966ZM1.478,1a.483.483,0,1,0,.471.483A.478.478,0,0,0,1.478,1Z" transform="translate(20.349 0.582)" fill="#0f0a39"/>
              <path id="Oval-7" data-name="Oval" d="M1.478,2.966A1.483,1.483,0,1,1,2.955,1.483,1.482,1.482,0,0,1,1.478,2.966ZM1.478,1a.483.483,0,1,0,.471.483A.478.478,0,0,0,1.478,1Z" transform="translate(31.067 0.582)" fill="#0f0a39"/>
              <path id="Oval-8" data-name="Oval" d="M1.478,2.966A1.483,1.483,0,1,1,2.955,1.483,1.482,1.482,0,0,1,1.478,2.966ZM1.478,1a.483.483,0,1,0,.471.483A.478.478,0,0,0,1.478,1Z" transform="translate(41.785 0.582)" fill="#0f0a39"/>
              <path id="Oval-9" data-name="Oval" d="M1.478,2.966A1.483,1.483,0,1,1,2.955,1.483,1.482,1.482,0,0,1,1.478,2.966ZM1.478,1a.483.483,0,1,0,.471.483A.478.478,0,0,0,1.478,1Z" transform="translate(52.544 0.582)" fill="#0f0a39"/>
              <path id="Path-31" data-name="Path" d="M1.964,0H1.754L1.663.007a.537.537,0,0,0-.4.292L1.25.347l-.055.12-.281.543c-.025.052-.047.1-.071.156l-.23.4-.192.325L0,2.638H.982A1.467,1.467,0,0,0,2.46,1.155,1.989,1.989,0,0,0,2.246.32L2.153.19Z" transform="translate(63.757 0.91)" fill="#0f0a39"/>
              <path id="Oval-10" data-name="Oval" d="M1.478,2.966A1.483,1.483,0,1,1,2.955,1.483,1.482,1.482,0,0,1,1.478,2.966ZM1.478,1a.483.483,0,1,0,.471.483A.478.478,0,0,0,1.478,1Z" transform="translate(25.708 5.619)" fill="#0f0a39"/>
              <path id="Oval-11" data-name="Oval" d="M1.478,2.966A1.483,1.483,0,1,1,2.955,1.483,1.482,1.482,0,0,1,1.478,2.966ZM1.478,1a.483.483,0,1,0,.471.483A.478.478,0,0,0,1.478,1Z" transform="translate(36.426 5.619)" fill="#0f0a39"/>
              <path id="Oval-12" data-name="Oval" d="M1.478,2.966A1.483,1.483,0,1,1,2.955,1.483,1.482,1.482,0,0,1,1.478,2.966ZM1.478,1a.483.483,0,1,0,.471.483A.478.478,0,0,0,1.478,1Z" transform="translate(47.185 5.619)" fill="#0f0a39"/>
              <path id="Oval-13" data-name="Oval" d="M1.478,2.966A1.483,1.483,0,1,1,2.955,1.483,1.482,1.482,0,0,1,1.478,2.966ZM1.478,1a.483.483,0,1,0,.471.483A.478.478,0,0,0,1.478,1Z" transform="translate(57.903 5.619)" fill="#0f0a39"/>
              <path id="Oval-14" data-name="Oval" d="M1.478,2.966A1.483,1.483,0,1,1,2.955,1.483,1.482,1.482,0,0,1,1.478,2.966ZM1.478,1a.483.483,0,1,0,.471.483A.478.478,0,0,0,1.478,1Z" transform="translate(20.349 11.435)" fill="#0f0a39"/>
              <path id="Oval-15" data-name="Oval" d="M1.478,2.966A1.483,1.483,0,1,1,2.955,1.483,1.482,1.482,0,0,1,1.478,2.966ZM1.478,1a.483.483,0,1,0,.471.483A.478.478,0,0,0,1.478,1Z" transform="translate(31.067 11.435)" fill="#0f0a39"/>
              <path id="Oval-16" data-name="Oval" d="M1.478,2.966A1.483,1.483,0,1,1,2.955,1.483,1.482,1.482,0,0,1,1.478,2.966ZM1.478,1a.483.483,0,1,0,.471.483A.478.478,0,0,0,1.478,1Z" transform="translate(41.785 11.435)" fill="#0f0a39"/>
              <path id="Oval-17" data-name="Oval" d="M1.478,2.966A1.483,1.483,0,1,1,2.955,1.483,1.482,1.482,0,0,1,1.478,2.966ZM1.478,1a.483.483,0,1,0,.471.483A.478.478,0,0,0,1.478,1Z" transform="translate(52.544 11.435)" fill="#0f0a39"/>
              <path id="Oval-18" data-name="Oval" d="M1.478,2.966A1.483,1.483,0,1,1,2.955,1.483,1.482,1.482,0,0,1,1.478,2.966ZM1.478,1a.483.483,0,1,0,.471.483A.478.478,0,0,0,1.478,1Z" transform="translate(63.262 11.435)" fill="#0f0a39"/>
              <path id="Oval-19" data-name="Oval" d="M1.478,2.966A1.483,1.483,0,1,1,2.955,1.483,1.482,1.482,0,0,1,1.478,2.966ZM1.478,1a.483.483,0,1,0,.471.483A.478.478,0,0,0,1.478,1Z" transform="translate(25.708 16.432)" fill="#0f0a39"/>
              <path id="Oval-20" data-name="Oval" d="M1.478,2.966A1.483,1.483,0,1,1,2.955,1.483,1.482,1.482,0,0,1,1.478,2.966ZM1.478,1a.483.483,0,1,0,.471.483A.478.478,0,0,0,1.478,1Z" transform="translate(36.426 16.432)" fill="#0f0a39"/>
              <path id="Oval-21" data-name="Oval" d="M1.478,2.966A1.483,1.483,0,1,1,2.955,1.483,1.482,1.482,0,0,1,1.478,2.966ZM1.478,1a.483.483,0,1,0,.471.483A.478.478,0,0,0,1.478,1Z" transform="translate(47.185 16.432)" fill="#0f0a39"/>
              <path id="Oval-22" data-name="Oval" d="M1.478,2.966A1.483,1.483,0,1,1,2.955,1.483,1.482,1.482,0,0,1,1.478,2.966ZM1.478,1a.483.483,0,1,0,.471.483A.478.478,0,0,0,1.478,1Z" transform="translate(57.903 16.432)" fill="#0f0a39"/>
              <path id="Oval-23" data-name="Oval" d="M1.478,2.966A1.483,1.483,0,1,1,2.955,1.483,1.482,1.482,0,0,1,1.478,2.966ZM1.478,1a.483.483,0,1,0,.471.483A.478.478,0,0,0,1.478,1Z" transform="translate(20.349 22.657)" fill="#0f0a39"/>
              <path id="Oval-24" data-name="Oval" d="M1.478,2.966A1.483,1.483,0,1,1,2.955,1.483,1.482,1.482,0,0,1,1.478,2.966ZM1.478,1a.483.483,0,1,0,.471.483A.478.478,0,0,0,1.478,1Z" transform="translate(31.067 22.657)" fill="#0f0a39"/>
              <path id="Oval-25" data-name="Oval" d="M1.478,2.966A1.483,1.483,0,1,1,2.955,1.483,1.482,1.482,0,0,1,1.478,2.966ZM1.478,1a.483.483,0,1,0,.471.483A.478.478,0,0,0,1.478,1Z" transform="translate(41.785 22.657)" fill="#0f0a39"/>
              <path id="Oval-26" data-name="Oval" d="M1.478,2.966A1.483,1.483,0,1,1,2.955,1.483,1.482,1.482,0,0,1,1.478,2.966ZM1.478,1a.483.483,0,1,0,.471.483A.478.478,0,0,0,1.478,1Z" transform="translate(52.544 22.657)" fill="#0f0a39"/>
              <path id="Oval-27" data-name="Oval" d="M1.478,2.966A1.483,1.483,0,1,1,2.955,1.483,1.482,1.482,0,0,1,1.478,2.966ZM1.478,1a.483.483,0,1,0,.471.483A.478.478,0,0,0,1.478,1Z" transform="translate(63.262 22.657)" fill="#0f0a39"/>
              <path id="Oval-28" data-name="Oval" d="M1.478,2.966A1.483,1.483,0,1,1,2.955,1.483,1.482,1.482,0,0,1,1.478,2.966ZM1.478,1a.483.483,0,1,0,.471.483A.478.478,0,0,0,1.478,1Z" transform="translate(14.99 27.694)" fill="#0f0a39"/>
              <path id="Oval-29" data-name="Oval" d="M1.478,2.966A1.483,1.483,0,1,1,2.955,1.483,1.482,1.482,0,0,1,1.478,2.966ZM1.478,1a.483.483,0,1,0,.471.483A.478.478,0,0,0,1.478,1Z" transform="translate(25.708 27.694)" fill="#0f0a39"/>
              <path id="Oval-30" data-name="Oval" d="M1.478,2.966A1.483,1.483,0,1,1,2.955,1.483,1.482,1.482,0,0,1,1.478,2.966ZM1.478,1a.483.483,0,1,0,.471.483A.478.478,0,0,0,1.478,1Z" transform="translate(36.426 27.694)" fill="#0f0a39"/>
              <path id="Oval-31" data-name="Oval" d="M1.478,2.966A1.483,1.483,0,1,1,2.955,1.483,1.482,1.482,0,0,1,1.478,2.966ZM1.478,1a.483.483,0,1,0,.471.483A.478.478,0,0,0,1.478,1Z" transform="translate(47.185 27.694)" fill="#0f0a39"/>
              <path id="Oval-32" data-name="Oval" d="M1.478,2.966A1.483,1.483,0,1,1,2.955,1.483,1.482,1.482,0,0,1,1.478,2.966ZM1.478,1a.483.483,0,1,0,.471.483A.478.478,0,0,0,1.478,1Z" transform="translate(57.903 27.694)" fill="#0f0a39"/>
              <path id="Oval-33" data-name="Oval" d="M1.478,2.966A1.483,1.483,0,1,1,2.955,1.483,1.482,1.482,0,0,1,1.478,2.966ZM1.478,1a.483.483,0,1,0,.471.483A.478.478,0,0,0,1.478,1Z" transform="translate(20.349 33.51)" fill="#0f0a39"/>
              <path id="Oval-34" data-name="Oval" d="M1.478,2.966A1.483,1.483,0,1,1,2.955,1.483,1.482,1.482,0,0,1,1.478,2.966ZM1.478,1a.483.483,0,1,0,.471.483A.478.478,0,0,0,1.478,1Z" transform="translate(31.067 33.51)" fill="#0f0a39"/>
              <path id="Oval-35" data-name="Oval" d="M1.478,2.966A1.483,1.483,0,1,1,2.955,1.483,1.482,1.482,0,0,1,1.478,2.966ZM1.478,1a.483.483,0,1,0,.471.483A.478.478,0,0,0,1.478,1Z" transform="translate(41.785 33.51)" fill="#0f0a39"/>
              <path id="Oval-36" data-name="Oval" d="M1.478,2.966A1.483,1.483,0,1,1,2.955,1.483,1.482,1.482,0,0,1,1.478,2.966ZM1.478,1a.483.483,0,1,0,.471.483A.478.478,0,0,0,1.478,1Z" transform="translate(52.544 33.51)" fill="#0f0a39"/>
              <path id="Oval-37" data-name="Oval" d="M1.478,2.966A1.483,1.483,0,1,1,2.955,1.483,1.482,1.482,0,0,1,1.478,2.966ZM1.478,1a.483.483,0,1,0,.471.483A.478.478,0,0,0,1.478,1Z" transform="translate(63.262 33.51)" fill="#0f0a39"/>
              <path id="Oval-38" data-name="Oval" d="M1.478,2.966A1.483,1.483,0,1,1,2.955,1.483,1.482,1.482,0,0,1,1.478,2.966ZM1.478,1a.483.483,0,1,0,.471.483A.478.478,0,0,0,1.478,1Z" transform="translate(14.99 38.506)" fill="#0f0a39"/>
              <path id="Oval-39" data-name="Oval" d="M1.478,2.966A1.483,1.483,0,1,1,2.955,1.483,1.482,1.482,0,0,1,1.478,2.966ZM1.478,1a.483.483,0,1,0,.471.483A.478.478,0,0,0,1.478,1Z" transform="translate(25.708 38.506)" fill="#0f0a39"/>
              <path id="Oval-40" data-name="Oval" d="M1.478,2.966A1.483,1.483,0,1,1,2.955,1.483,1.482,1.482,0,0,1,1.478,2.966ZM1.478,1a.483.483,0,1,0,.471.483A.478.478,0,0,0,1.478,1Z" transform="translate(36.426 38.506)" fill="#0f0a39"/>
              <path id="Oval-41" data-name="Oval" d="M1.478,2.966A1.483,1.483,0,1,1,2.955,1.483,1.482,1.482,0,0,1,1.478,2.966ZM1.478,1a.483.483,0,1,0,.471.483A.478.478,0,0,0,1.478,1Z" transform="translate(47.185 38.506)" fill="#0f0a39"/>
              <path id="Oval-42" data-name="Oval" d="M1.478,2.966A1.483,1.483,0,1,1,2.955,1.483,1.482,1.482,0,0,1,1.478,2.966ZM1.478,1a.483.483,0,1,0,.471.483A.478.478,0,0,0,1.478,1Z" transform="translate(57.903 38.506)" fill="#0f0a39"/>
              <path id="Path-32" data-name="Path" d="M1.094.131.573,0,0,3.082H.808A1.494,1.494,0,0,0,2.285,1.6,1.536,1.536,0,0,0,1.094.131Z" transform="translate(11.276 44.616)" fill="#0f0a39"/>
              <path id="Oval-43" data-name="Oval" d="M1.478,2.966A1.483,1.483,0,1,1,2.955,1.483,1.482,1.482,0,0,1,1.478,2.966ZM1.478,1a.483.483,0,1,0,.471.483A.478.478,0,0,0,1.478,1Z" transform="translate(21.324 44.732)" fill="#0f0a39"/>
              <path id="Oval-44" data-name="Oval" d="M1.478,2.966A1.483,1.483,0,1,1,2.955,1.483,1.482,1.482,0,0,1,1.478,2.966ZM1.478,1a.483.483,0,1,0,.471.483A.478.478,0,0,0,1.478,1Z" transform="translate(32.082 44.732)" fill="#0f0a39"/>
              <path id="Path-33" data-name="Path" d="M.892,0A1.035,1.035,0,0,0,.34.1L0,.266l.135.7L.352,2.3l.122.663H.892A1.494,1.494,0,0,0,2.37,1.483,1.494,1.494,0,0,0,.892,0Z" transform="translate(43.386 44.732)" fill="#0f0a39"/>
              <path id="Oval-45" data-name="Oval" d="M1.478,2.966A1.483,1.483,0,1,1,2.955,1.483,1.482,1.482,0,0,1,1.478,2.966ZM1.478,1a.483.483,0,1,0,.471.483A.478.478,0,0,0,1.478,1Z" transform="translate(53.518 44.732)" fill="#0f0a39"/>
              <path id="Oval-46" data-name="Oval" d="M1.478,2.966A1.483,1.483,0,1,1,2.955,1.483,1.482,1.482,0,0,1,1.478,2.966ZM1.478,1a.483.483,0,1,0,.471.483A.478.478,0,0,0,1.478,1Z" transform="translate(64.236 44.732)" fill="#0f0a39"/>
              <path id="Oval-47" data-name="Oval" d="M1.478,2.966A1.483,1.483,0,1,1,2.955,1.483,1.482,1.482,0,0,1,1.478,2.966ZM1.478,1a.483.483,0,1,0,.471.483A.478.478,0,0,0,1.478,1Z" transform="translate(15.965 49.769)" fill="#0f0a39"/>
              <path id="Oval-48" data-name="Oval" d="M1.478,2.966A1.483,1.483,0,1,1,2.955,1.483,1.482,1.482,0,0,1,1.478,2.966ZM1.478,1a.483.483,0,1,0,.471.483A.478.478,0,0,0,1.478,1Z" transform="translate(26.683 49.769)" fill="#0f0a39"/>
              <path id="Oval-49" data-name="Oval" d="M1.478,2.966A1.483,1.483,0,1,1,2.955,1.483,1.482,1.482,0,0,1,1.478,2.966ZM1.478,1a.483.483,0,1,0,.471.483A.478.478,0,0,0,1.478,1Z" transform="translate(48.159 49.769)" fill="#0f0a39"/>
              <path id="Oval-50" data-name="Oval" d="M1.478,2.966A1.483,1.483,0,1,1,2.955,1.483,1.482,1.482,0,0,1,1.478,2.966ZM1.478,1a.483.483,0,1,0,.471.483A.478.478,0,0,0,1.478,1Z" transform="translate(58.877 49.769)" fill="#0f0a39"/>
              <path id="Oval-51" data-name="Oval" d="M1.478,2.966A1.483,1.483,0,1,1,2.955,1.483,1.482,1.482,0,0,1,1.478,2.966ZM1.478,1a.483.483,0,1,0,.471.483A.478.478,0,0,0,1.478,1Z" transform="translate(10.606 55.585)" fill="#0f0a39"/>
              <path id="Oval-52" data-name="Oval" d="M1.478,2.966A1.483,1.483,0,1,1,2.955,1.483,1.482,1.482,0,0,1,1.478,2.966ZM1.478,1a.483.483,0,1,0,.471.483A.478.478,0,0,0,1.478,1Z" transform="translate(21.324 55.585)" fill="#0f0a39"/>
              <path id="Oval-53" data-name="Oval" d="M1.478,2.966A1.483,1.483,0,1,1,2.955,1.483,1.482,1.482,0,0,1,1.478,2.966ZM1.478,1a.483.483,0,1,0,.471.483A.478.478,0,0,0,1.478,1Z" transform="translate(32.082 55.585)" fill="#0f0a39"/>
              <path id="Oval-54" data-name="Oval" d="M1.478,2.966A1.483,1.483,0,1,1,2.955,1.483,1.482,1.482,0,0,1,1.478,2.966ZM1.478,1a.483.483,0,1,0,.471.483A.478.478,0,0,0,1.478,1Z" transform="translate(53.518 55.585)" fill="#0f0a39"/>
              <path id="Oval-55" data-name="Oval" d="M1.478,2.966A1.483,1.483,0,1,1,2.955,1.483,1.482,1.482,0,0,1,1.478,2.966ZM1.478,1a.483.483,0,1,0,.471.483A.478.478,0,0,0,1.478,1Z" transform="translate(64.236 55.585)" fill="#0f0a39"/>
              <path id="Oval-56" data-name="Oval" d="M1.478,2.966A1.483,1.483,0,1,1,2.955,1.483,1.482,1.482,0,0,1,1.478,2.966ZM1.478,1a.483.483,0,1,0,.471.483A.478.478,0,0,0,1.478,1Z" transform="translate(15.965 60.581)" fill="#0f0a39"/>
              <path id="Oval-57" data-name="Oval" d="M1.478,2.966A1.483,1.483,0,1,1,2.955,1.483,1.482,1.482,0,0,1,1.478,2.966ZM1.478,1a.483.483,0,1,0,.471.483A.478.478,0,0,0,1.478,1Z" transform="translate(26.683 60.581)" fill="#0f0a39"/>
              <path id="Oval-58" data-name="Oval" d="M1.478,2.966A1.483,1.483,0,1,1,2.955,1.483,1.482,1.482,0,0,1,1.478,2.966ZM1.478,1a.483.483,0,1,0,.471.483A.478.478,0,0,0,1.478,1Z" transform="translate(48.159 60.581)" fill="#0f0a39"/>
              <path id="Oval-59" data-name="Oval" d="M1.478,2.966A1.483,1.483,0,1,1,2.955,1.483,1.482,1.482,0,0,1,1.478,2.966ZM1.478,1a.483.483,0,1,0,.471.483A.478.478,0,0,0,1.478,1Z" transform="translate(58.877 60.581)" fill="#0f0a39"/>
              <path id="Path-34" data-name="Path" d="M1.166,1.294,1.038,0,.261,1.046A1.317,1.317,0,0,0,0,1.875,1.425,1.425,0,0,0,.388,2.881l1,1.008L1.234,2.325l-.052-.858C1.177,1.409,1.172,1.354,1.166,1.294Z" transform="translate(69.595 60.189)" fill="#0f0a39"/>
              <path id="Oval-60" data-name="Oval" d="M1.478,2.966A1.483,1.483,0,1,1,2.955,1.483,1.482,1.482,0,0,1,1.478,2.966ZM1.478,1a.483.483,0,1,0,.471.483A.478.478,0,0,0,1.478,1Z" transform="translate(10.606 66.806)" fill="#0f0a39"/>
              <path id="Oval-61" data-name="Oval" d="M1.478,2.966A1.483,1.483,0,1,1,2.955,1.483,1.482,1.482,0,0,1,1.478,2.966ZM1.478,1a.483.483,0,1,0,.471.483A.478.478,0,0,0,1.478,1Z" transform="translate(21.324 66.806)" fill="#0f0a39"/>
              <path id="Oval-62" data-name="Oval" d="M1.478,2.966A1.483,1.483,0,1,1,2.955,1.483,1.482,1.482,0,0,1,1.478,2.966ZM1.478,1a.483.483,0,1,0,.471.483A.478.478,0,0,0,1.478,1Z" transform="translate(53.518 66.806)" fill="#0f0a39"/>
              <path id="Oval-63" data-name="Oval" d="M1.478,2.966A1.483,1.483,0,1,1,2.955,1.483,1.482,1.482,0,0,1,1.478,2.966ZM1.478,1a.483.483,0,1,0,.471.483A.478.478,0,0,0,1.478,1Z" transform="translate(64.236 66.806)" fill="#0f0a39"/>
              <path id="Path-35" data-name="Path" d="M1.117.163.578,0,0,3.107H.726A1.494,1.494,0,0,0,2.2,1.624,1.517,1.517,0,0,0,1.117.163Z" transform="translate(5.998 71.702)" fill="#0f0a39"/>
              <path id="Oval-64" data-name="Oval" d="M1.478,2.966A1.483,1.483,0,1,1,2.955,1.483,1.482,1.482,0,0,1,1.478,2.966ZM1.478,1a.483.483,0,1,0,.471.483A.478.478,0,0,0,1.478,1Z" transform="translate(15.965 71.844)" fill="#0f0a39"/>
              <path id="Oval-65" data-name="Oval" d="M1.478,2.966A1.483,1.483,0,1,1,2.955,1.483,1.482,1.482,0,0,1,1.478,2.966ZM1.478,1a.483.483,0,1,0,.471.483A.478.478,0,0,0,1.478,1Z" transform="translate(26.683 71.844)" fill="#0f0a39"/>
              <path id="Oval-66" data-name="Oval" d="M1.478,2.966A1.483,1.483,0,1,1,2.955,1.483,1.482,1.482,0,0,1,1.478,2.966ZM1.478,1a.483.483,0,1,0,.471.483A.478.478,0,0,0,1.478,1Z" transform="translate(48.159 71.844)" fill="#0f0a39"/>
              <path id="Oval-67" data-name="Oval" d="M1.478,2.966A1.483,1.483,0,1,1,2.955,1.483,1.482,1.482,0,0,1,1.478,2.966ZM1.478,1a.483.483,0,1,0,.471.483A.478.478,0,0,0,1.478,1Z" transform="translate(58.877 71.844)" fill="#0f0a39"/>
              <path id="Path-36" data-name="Path" d="M1.941.607V0h-.5A1.459,1.459,0,0,0,0,1.483,1.494,1.494,0,0,0,1.478,2.966h.616L2.029,2l-.074-.982C1.947.86,1.942.733,1.941.607Z" transform="translate(69.636 71.844)" fill="#0f0a39"/>
              <path id="Oval-68" data-name="Oval" d="M1.478,2.966A1.483,1.483,0,1,1,2.955,1.483,1.482,1.482,0,0,1,1.478,2.966ZM1.478,1a.483.483,0,1,0,.471.483A.478.478,0,0,0,1.478,1Z" transform="translate(10.606 77.659)" fill="#0f0a39"/>
              <path id="Oval-69" data-name="Oval" d="M1.478,2.966A1.483,1.483,0,1,1,2.955,1.483,1.482,1.482,0,0,1,1.478,2.966ZM1.478,1a.483.483,0,1,0,.471.483A.478.478,0,0,0,1.478,1Z" transform="translate(21.324 77.659)" fill="#0f0a39"/>
              <path id="Oval-70" data-name="Oval" d="M1.478,2.966A1.483,1.483,0,1,1,2.955,1.483,1.482,1.482,0,0,1,1.478,2.966ZM1.478,1a.483.483,0,1,0,.471.483A.478.478,0,0,0,1.478,1Z" transform="translate(53.518 77.659)" fill="#0f0a39"/>
              <path id="Oval-71" data-name="Oval" d="M1.478,2.966A1.483,1.483,0,1,1,2.955,1.483,1.482,1.482,0,0,1,1.478,2.966ZM1.478,1a.483.483,0,1,0,.471.483A.478.478,0,0,0,1.478,1Z" transform="translate(64.236 77.659)" fill="#0f0a39"/>
              <path id="Oval-72" data-name="Oval" d="M1.478,2.966A1.483,1.483,0,1,1,2.955,1.483,1.482,1.482,0,0,1,1.478,2.966ZM1.478,1a.483.483,0,1,0,.471.483A.478.478,0,0,0,1.478,1Z" transform="translate(5.247 82.656)" fill="#0f0a39"/>
              <path id="Oval-73" data-name="Oval" d="M1.478,2.966A1.483,1.483,0,1,1,2.955,1.483,1.482,1.482,0,0,1,1.478,2.966ZM1.478,1a.483.483,0,1,0,.471.483A.478.478,0,0,0,1.478,1Z" transform="translate(15.965 82.656)" fill="#0f0a39"/>
              <path id="Path-37" data-name="Path" d="M.872.44,0,0,.39,2.6l.132.864L1.2,2.912a1.457,1.457,0,0,0,.511-1.125A1.505,1.505,0,0,0,.872.44Z" transform="translate(49.399 82.352)" fill="#0f0a39"/>
              <path id="Oval-74" data-name="Oval" d="M1.478,2.966A1.483,1.483,0,1,1,2.955,1.483,1.482,1.482,0,0,1,1.478,2.966ZM1.478,1a.483.483,0,1,0,.471.483A.478.478,0,0,0,1.478,1Z" transform="translate(58.877 82.656)" fill="#0f0a39"/>
              <path id="Oval-75" data-name="Oval" d="M1.478,2.966A1.483,1.483,0,1,1,2.955,1.483,1.482,1.482,0,0,1,1.478,2.966ZM1.478,1a.483.483,0,1,0,.471.483A.478.478,0,0,0,1.478,1Z" transform="translate(69.636 82.656)" fill="#0f0a39"/>
              <path id="Oval-76" data-name="Oval" d="M1.478,2.966A1.483,1.483,0,1,1,2.955,1.483,1.482,1.482,0,0,1,1.478,2.966ZM1.478,1a.483.483,0,1,0,.471.483A.478.478,0,0,0,1.478,1Z" transform="translate(11.296 88.881)" fill="#0f0a39"/>
              <path id="Path-38" data-name="Path" d="M2.012,2.976H1.478A1.5,1.5,0,0,1,0,1.493,1.469,1.469,0,0,1,1.382.017h.011A1.254,1.254,0,0,1,1.6,0a1.308,1.308,0,0,1,.927.405l.21.212L2.013,2.976ZM1.567,1h0L1.4,1.019a.5.5,0,0,0-.39.474.493.493,0,0,0,.238.415l.037.019L1.567,1Z" transform="translate(22.054 88.912)" fill="#0f0a39"/>
              <path id="Oval-77" data-name="Oval" d="M1.478,2.966A1.483,1.483,0,1,1,2.955,1.483,1.482,1.482,0,0,1,1.478,2.966ZM1.478,1a.483.483,0,1,0,.471.483A.478.478,0,0,0,1.478,1Z" transform="translate(54.208 88.881)" fill="#0f0a39"/>
              <path id="Oval-78" data-name="Oval" d="M1.478,2.966A1.483,1.483,0,1,1,2.955,1.483,1.482,1.482,0,0,1,1.478,2.966ZM1.478,1a.483.483,0,1,0,.471.483A.478.478,0,0,0,1.478,1Z" transform="translate(64.967 88.881)" fill="#0f0a39"/>
              <path id="Oval-79" data-name="Oval" d="M1.478,2.966A1.483,1.483,0,1,1,2.955,1.483,1.482,1.482,0,0,1,1.478,2.966ZM1.478,1a.483.483,0,1,0,.471.483A.478.478,0,0,0,1.478,1Z" transform="translate(5.937 93.919)" fill="#0f0a39"/>
              <path id="Oval-80" data-name="Oval" d="M1.478,2.966A1.483,1.483,0,1,1,2.955,1.483,1.482,1.482,0,0,1,1.478,2.966ZM1.478,1a.483.483,0,1,0,.471.483A.478.478,0,0,0,1.478,1Z" transform="translate(16.655 93.919)" fill="#0f0a39"/>
              <path id="Oval-81" data-name="Oval" d="M1.478,2.966A1.483,1.483,0,1,1,2.955,1.483,1.482,1.482,0,0,1,1.478,2.966ZM1.478,1a.483.483,0,1,0,.471.483A.478.478,0,0,0,1.478,1Z" transform="translate(59.608 93.919)" fill="#0f0a39"/>
              <path id="Oval-82" data-name="Oval" d="M1.478,2.966A1.483,1.483,0,1,1,2.955,1.483,1.482,1.482,0,0,1,1.478,2.966ZM1.478,1a.483.483,0,1,0,.471.483A.478.478,0,0,0,1.478,1Z" transform="translate(70.326 93.919)" fill="#0f0a39"/>
              <path id="Oval-83" data-name="Oval" d="M1.478,2.966A1.483,1.483,0,1,1,2.955,1.483,1.482,1.482,0,0,1,1.478,2.966ZM1.478,1a.483.483,0,1,0,.471.483A.478.478,0,0,0,1.478,1Z" transform="translate(0.578 99.734)" fill="#0f0a39"/>
              <path id="Oval-84" data-name="Oval" d="M1.478,2.966A1.483,1.483,0,1,1,2.955,1.483,1.482,1.482,0,0,1,1.478,2.966ZM1.478,1a.483.483,0,1,0,.471.483A.478.478,0,0,0,1.478,1Z" transform="translate(11.296 99.734)" fill="#0f0a39"/>
              <path id="Oval-85" data-name="Oval" d="M1.478,2.966A1.483,1.483,0,1,1,2.955,1.483,1.482,1.482,0,0,1,1.478,2.966ZM1.478,1a.483.483,0,1,0,.471.483A.478.478,0,0,0,1.478,1Z" transform="translate(54.208 99.734)" fill="#0f0a39"/>
              <path id="Oval-86" data-name="Oval" d="M1.478,2.966A1.483,1.483,0,1,1,2.955,1.483,1.482,1.482,0,0,1,1.478,2.966ZM1.478,1a.483.483,0,1,0,.471.483A.478.478,0,0,0,1.478,1Z" transform="translate(64.967 99.734)" fill="#0f0a39"/>
              <path id="Path-39" data-name="Path" d="M2.765,2.228H.041V1.742L.014,1.629A.757.757,0,0,1,0,1.483a1.5,1.5,0,0,1,3,0c0,.059,0,.1-.005.15a.867.867,0,0,1-.087.316l-.138.278ZM1.478,1a.473.473,0,0,0-.356.176l-.038.053H1.91l-.04-.054a.519.519,0,0,0-.3-.166Z" transform="translate(5.937 104.731)" fill="#0f0a39"/>
              <path id="Path-40" data-name="Path" d="M2.573,2.228H.041V1.742h0s0,0,0-.009l0-.007-.022-.1A.756.756,0,0,1,0,1.483,1.495,1.495,0,0,1,2.872.914l.077.175L2.573,2.228ZM1.478,1a.473.473,0,0,0-.356.176l-.039.053h.76l.02-.058-.007-.009a.459.459,0,0,0-.286-.156Z" transform="translate(16.655 104.731)" fill="#0f0a39"/>
              <path id="Path-41" data-name="Path" d="M2.8,2.31H.23L.093,2.031A1.038,1.038,0,0,1,0,1.483,1.5,1.5,0,0,1,1.478,0,1.5,1.5,0,0,1,2.955,1.483c0,.051,0,.088,0,.121L2.947,1.7l-.02.125L2.8,2.31ZM1.478,1a.478.478,0,0,0-.4.243L1.04,1.31h.874l-.032-.068a.5.5,0,0,0-.323-.235Z" transform="translate(59.608 104.731)" fill="#0f0a39"/>
              <path id="Path-42" data-name="Path" d="M2.765,2.228H.23L.093,1.949a.867.867,0,0,1-.087-.316C0,1.584,0,1.542,0,1.483a1.5,1.5,0,0,1,3,0c0,.059,0,.1-.005.15a.867.867,0,0,1-.087.316l-.138.278ZM1.478,1a.473.473,0,0,0-.356.176l-.039.053h.826L1.87,1.174a.519.519,0,0,0-.3-.166Z" transform="translate(70.285 104.731)" fill="#0f0a39"/>
            </g>
          </g>
          <path id="Shape-11" data-name="Shape" d="M4.4,19.478l-.168,0-.071,0a1.473,1.473,0,0,1-.23-.032l-.051-.015a2.921,2.921,0,0,1-1.669-1.173,8.72,8.72,0,0,1-.9-1.593l-.126-.285-.045-.091A11.21,11.21,0,0,1,0,11.269,11.625,11.625,0,0,1,2.547,4.58a12.578,12.578,0,0,1,5-3.864A4.226,4.226,0,0,1,8.195.459L8.66.317A8.67,8.67,0,0,1,11.266,0c.79,0,1.815.048,3.43.16l.748.053.3.019a6.033,6.033,0,0,1,3.191.8,2.278,2.278,0,0,1,.752.88,2.51,2.51,0,0,1,.159,1.48l-.051.184.139.08a2.49,2.49,0,0,1,1,1.147l.067.181.049.168a2.38,2.38,0,0,1-2.111,2.813l-.224.017c-.067,0-.133.005-.2.005-.151,0-.333-.007-.649-.027L17.3,7.926l-.4-.038c-.119-.01-.234-.019-.352-.025l-.3-.013.8.18a9.194,9.194,0,0,1,2.182.692l.18.1.025.009.072.044.064.053.034.039.071.051a2.25,2.25,0,0,1,.614.7l.079.161.064.169a2.277,2.277,0,0,1-.45,2.156l-.131.14v.009l-.036.026-.015.015a.751.751,0,0,1-.12.1l-.068.032-.068.048a1.814,1.814,0,0,1-1.1.309,5.845,5.845,0,0,1-.642-.043l-.407-.051.05.024a1.939,1.939,0,0,1,.976.949l.064.157.04.114A1.712,1.712,0,0,1,18.44,15.5a1.948,1.948,0,0,1-1.538.9,4.061,4.061,0,0,1-.6.04,25.083,25.083,0,0,1-6.814-1.548l-.467-.159L8.961,15a6.084,6.084,0,0,1-.643,1.577l-.144.229-.153.218A4.739,4.739,0,0,1,4.4,19.478Zm7.064-17.9a8.289,8.289,0,0,0-2.559.3l-.287.1a3.505,3.505,0,0,0-.409.174A10.825,10.825,0,0,0,3.825,5.567a9.686,9.686,0,0,0-2.207,5.725,9.641,9.641,0,0,0,.8,3.893l.161.377.051.105.2.449a5.935,5.935,0,0,0,.594,1.066l.086.112a1.241,1.241,0,0,0,.747.58.921.921,0,0,0,.181.017,2.274,2.274,0,0,0,1.379-.685,6.145,6.145,0,0,0,.97-1.092,5.191,5.191,0,0,0,.886-2.543.8.8,0,0,1,.189-.509l.077-.087.13-.094a.84.84,0,0,1,.394-.111,1.033,1.033,0,0,1,.346.069l.069.029c.355.134,1.987.679,3.233,1.038l.6.169a15.963,15.963,0,0,0,3.62.675c.091,0,.176,0,.252-.011l.123-.015.2-.045.02-.005c.04-.01.074-.019.091-.025l.085-.033a.28.28,0,0,0,0-.087l-.017-.079-.008-.024c-.09-.276-.679-.514-2.334-.943a31.48,31.48,0,0,1-3.537-1.139l-.385-.156.09.048-.808-.335c-.087-.039-.157-.073-.22-.105a2.144,2.144,0,0,1-.255-.1l-.1-.048L9.4,11.57a.826.826,0,0,1-.385-.61L7.561,10.39l1.5.2.023-.057a.864.864,0,0,1,.686-.483l.124-.007,1.8.183.214.025c.771.1,1.578.232,2.334.372.841.147,1.6.263,2.314.356l1.287.157a7.182,7.182,0,0,0,.738.06.77.77,0,0,0,.229-.026l.041-.016.129-.129h.015l.031-.051a.683.683,0,0,0,.07-.385l-.019-.094a.515.515,0,0,0-.2-.246l-.059-.043a.5.5,0,0,1-.139-.1l-.008-.009-.1-.05a8.359,8.359,0,0,0-1.741-.533l-.754-.164c-2.135-.431-3.795-.72-5.383-.939l-.247-.04a2.534,2.534,0,0,0-.4-.035.752.752,0,0,1-.739-.555l-.033-.112-1.39-.206L9.29,7.318a.821.821,0,0,1,.633-.587l.724-.122a26.535,26.535,0,0,1,4.71-.434c.291,0,.581.006.862.017a12.85,12.85,0,0,1,1.414.083l.8.051c.115.006.2.008.264.008a2.211,2.211,0,0,0,.266-.016.762.762,0,0,0,.509-.223.72.72,0,0,0,.193-.6,1.057,1.057,0,0,0-.889-.676.778.778,0,0,1-.157-.014l-.106-.025h-.032l-.064-.008-.049-.014-.168.018c-.108.008-.239.012-.424.013l-1.229-.01h-.6l-.686-.027c-.308-.009-.57-.013-.9-.014-.408-.025-.817-.038-1.217-.038a18.109,18.109,0,0,0-2.892.228.77.77,0,0,1-.188.023.762.762,0,0,1-.758-.657l0-.035L9.3,4.212a.755.755,0,0,1,.592-.836l.091-.005a25.654,25.654,0,0,1,3.356-.241c.217,0,.434,0,.644.011L15,3.182l.462.014.512.005h.463l.784.019.324,0a3.42,3.42,0,0,0,.8-.054l.033-.013.035-.023A.656.656,0,0,0,18.4,2.7l-.04-.091a.633.633,0,0,0-.2-.216,6.13,6.13,0,0,0-2.7-.532A34.7,34.7,0,0,0,11.468,1.58Z" transform="translate(0.541 15.219)" fill="#0f0a39"/>
        </g>
        <g id="thread" transform="translate(0 7.781)">
          <path id="Path-43" data-name="Path" d="M.174.345.161.366.216.3A.754.754,0,0,0,.428,1.509c5.7,3.559,11.188,8.778,16.51,15.326l.752.934A157.813,157.813,0,0,1,28.4,33.233,105.324,105.324,0,0,1,39.637,57.648a.812.812,0,0,0,.652.548l.112.008.082,0a.483.483,0,0,0,.425-.2l.008-.02.055-.046a.81.81,0,0,0,.2-.766,107.47,107.47,0,0,0-11.429-24.8l-.832-1.321A148.039,148.039,0,0,0,18.771,16.541l-.542-.673A71.5,71.5,0,0,0,1.839.522L1.277.166l.062.055A.753.753,0,0,0,.174.345Z" transform="translate(203.051 12.592)" fill="#7c37fa"/>
          <path id="Path-44" data-name="Path" d="M45.48.035C33.715.66,21.49,8.757,11.925,22.24,5.536,31.19,1.134,41.713.144,50.362A25.115,25.115,0,0,0,2.417,63.439,29.461,29.461,0,0,0,15.586,77.273,36.782,36.782,0,0,0,32.4,81.752l.6.005.385,0a4.438,4.438,0,0,0,.852-.088,34.966,34.966,0,0,0,21.086-8.171.827.827,0,0,0,.081-1.189.816.816,0,0,0-1.164-.041,33.251,33.251,0,0,1-20.159,7.8A35.081,35.081,0,0,1,16.4,75.782,27.831,27.831,0,0,1,3.906,62.749,23.716,23.716,0,0,1,1.753,50.515c.963-8.3,5.273-18.545,11.523-27.372,9.3-13.084,21.111-20.93,32.3-21.495a27.718,27.718,0,0,1,7.018.564A25.5,25.5,0,0,1,56.3,3.258a25.9,25.9,0,0,1,3.319,1.33l.1.035a.829.829,0,0,0,.981-.428l.037-.1a.828.828,0,0,0-.423-.975c-1.084-.508-2.2-.961-3.466-1.417A30.2,30.2,0,0,0,53.447.729L52.913.618A29.854,29.854,0,0,0,45.48.035Z" transform="translate(139.648 7.182)" fill="#7c37fa"/>
          <path id="Path-45" data-name="Path" d="M28.175.726,27.847.6c-2.874-1.023-6.324-.74-10.025.787A28.123,28.123,0,0,0,9.377,7.07C.791,15.523-1.908,30.714,1.318,52.1l.2,1.266c1.57,9.853,3.712,18.2,7.653,31.564l.072.162c1.2,4.11,2.646,8.449,4.283,12.853l.042.1a.809.809,0,0,0,.6.424h.016l.153.155.347-.233a.888.888,0,0,0,.369-.943c-1.684-4.538-3.111-8.786-4.309-12.88l-.072-.163L9.1,78.946c-.761-2.659-1.2-4.273-1.844-6.7A189.871,189.871,0,0,1,2.923,51.868C-.224,30.947,2.354,16.28,10.533,8.229,15.541,3.271,22.545.423,27.346,2.12a10.708,10.708,0,0,1,5.077,4.16.741.741,0,0,0,1,.262l.1-.056a.759.759,0,0,0,.22-1.1A12.543,12.543,0,0,0,28.175.726Z" transform="translate(0.767 0.703)" fill="#7c37fa"/>
          <path id="Shape-12" data-name="Shape" d="M71.9,239.126c-7.733,0-14.22-2.024-18.759-5.853a23.692,23.692,0,0,1-5.809-7.532,22.659,22.659,0,0,1-2.282-7.793,18.344,18.344,0,0,1,.5-6.445c1.751-6.265,7.735-11.819,16.417-15.239a49.811,49.811,0,0,1,17.892-3.338,42.7,42.7,0,0,1,8.252.772,34.378,34.378,0,0,1,9.721,3.307,60.675,60.675,0,0,1,9.746,6.636l3.359,2.676c.428.337.725.566,1.155.895.728.556,1.374,1.032,1.975,1.454l.521.36.107-.41a54.636,54.636,0,0,0,1.231-17.18,93.834,93.834,0,0,0-3.954-20.275l-.314-1.015-.063.029c-9.617,4.345-23.576,8.107-35.562,9.584l-.813.1-.792.088a96.393,96.393,0,0,1-10.35.6,53.346,53.346,0,0,1-15.992-2.151,26.542,26.542,0,0,1-11.53-6.916l-.276-.3-.178-.205a21.122,21.122,0,0,1-1.479-1.843,22.243,22.243,0,0,1-2.953-5.912,28.47,28.47,0,0,1-1.29-6.777,44.638,44.638,0,0,1,.433-9.769l.11-.831a44.442,44.442,0,0,1,6.817-18.187,32.738,32.738,0,0,1,16.042-13.179,30.213,30.213,0,0,1,8.359-1.759l.1-.005-.005-.171a28.884,28.884,0,0,1,.152-3.782l.074-.6.087-.59a20.54,20.54,0,0,1,1.915-5.918,16.588,16.588,0,0,1,4.7-5.621,24.345,24.345,0,0,1,7.244-3.7l.479-.157c4.083-1.309,7.817-1.968,16.648-2.936l3.384-.368c8.459-.941,12.678-1.66,16.721-2.848l.37-.111-.434-.238A94.734,94.734,0,0,1,94.04,71.8,69.623,69.623,0,0,1,81.562,56.109l-.307-.528-.294-.516A84.464,84.464,0,0,1,74.138,39.4l-.126-.391-.383.25a41.577,41.577,0,0,0-9.7,8.655,25.173,25.173,0,0,0-5.008,9.738l-.091.4-.081.388a16.145,16.145,0,0,0-.237,5.025,30.159,30.159,0,0,0,1.416,5.829l.308.938a33.289,33.289,0,0,1,1.9,8.146,18.326,18.326,0,0,1-1,7.192A27.365,27.365,0,0,1,53.739,96.99a30.715,30.715,0,0,1-11.482,6.837,30.767,30.767,0,0,1-9.5,1.422,38.916,38.916,0,0,1-10.774-1.558,39.848,39.848,0,0,1-10.2-4.544C6.649,95.927,2.9,91.723,1.235,87.31A20.285,20.285,0,0,1,0,80.4a33.369,33.369,0,0,1,.972-8.139,65.39,65.39,0,0,1,8.257-18.85,117.392,117.392,0,0,1,22.4-26.121l.8-.7c1.963-1.723,4.2-3.539,6.848-5.551,1.966-1.5,4.113-3,6.564-4.607a109.206,109.206,0,0,1,17.2-9.319l.367-.155-.239-.233a8.431,8.431,0,0,0-3.368-1.945l-.353-.1L59.121,4.6a10.436,10.436,0,0,0-2.339-.277c-3.261,0-6.606,1.748-12.017,5.191a.888.888,0,0,1-.4.1.773.773,0,0,1-.656-.349.814.814,0,0,1,.23-1.105l1.214-.766c5.539-3.455,8.565-4.679,11.564-4.679a12.185,12.185,0,0,1,2.788.341,10.167,10.167,0,0,1,5.24,3l.274.293.533-.214A81.653,81.653,0,0,1,95.723,0l.529,0,.829.012.945.024A78.83,78.83,0,0,1,110.646,1.5c15.182,2.965,30.745,10.3,40.616,19.143a.837.837,0,0,1,.184.9l-.05.118-.094.13a.811.811,0,0,1-.586.247.954.954,0,0,1-.328-.06l-.119-.051-.109-.075c-9.652-8.636-24.914-15.825-39.832-18.761A75.975,75.975,0,0,0,97.06,1.627c-.446-.009-.9-.013-1.347-.013A80.056,80.056,0,0,0,66.344,7.548l-.281.112.123.179c1.571,2.336,2.777,5.416,4.161,10.629l.27,1.034.712,2.864,1.234,5.1c.832,3.4,1.441,5.7,2.1,7.952L75,36.53l.057-.033a53.888,53.888,0,0,1,10.979-4.926,49.131,49.131,0,0,1,11.445-2.24l.69-.043.67-.032c.572-.023,1.15-.035,1.717-.035a36.717,36.717,0,0,1,12.524,2.113c6.412,2.341,14.95,7.2,19.212,17.046l.2.476.037.19V49l-.011-.094a.3.3,0,0,1,.03.058l.025.053c3.515,8.594,2.93,19.023-1.491,26.568A24.552,24.552,0,0,1,119.144,85.8l-.51.219-.49.2,1.453.737c2.707,1.354,5.511,2.666,9.679,4.528l7.145,3.173c13.666,6.132,18.47,9.177,22.351,14.165a17.783,17.783,0,0,1,3.8,9.3,21.032,21.032,0,0,1-1.5,10.081l-.184.449-.015.079c-2.383,5.631-6.829,11.171-14.415,17.962l-.766.68.152.216a67.535,67.535,0,0,1,11.447,32.25,46.911,46.911,0,0,1-1.1,15.343,25.09,25.09,0,0,1-6.155,11.606l-.36.356-.377.353a31.424,31.424,0,0,1-8.8,5.446,30.681,30.681,0,0,1-10.318,2.508c-.324.014-.658.022-.991.022a27.742,27.742,0,0,1-4.365-.365l-.872-.153a9.026,9.026,0,0,1-.908-.2l.009,0-.123-.015a25.979,25.979,0,0,1-6.25-2.517l-.531-.3-.52-.306-.015.052a33.734,33.734,0,0,1-4.04,8.464l-.365.53-.374.519A41.082,41.082,0,0,1,96.85,232.8a55.626,55.626,0,0,1-19.185,6.041l-.976.077C74.754,239.061,73.276,239.126,71.9,239.126Zm8.078-44.6a48.847,48.847,0,0,0-8.923.828,45.077,45.077,0,0,0-8.431,2.414c-8.2,3.212-13.829,8.376-15.452,14.167a15.948,15.948,0,0,0-.471,5.879,21.1,21.1,0,0,0,2.1,7.2A20.729,20.729,0,0,0,61.893,236.1a33.96,33.96,0,0,0,10,1.392,46.827,46.827,0,0,0,5.594-.348c13.064-1.582,25.63-8.255,32.012-17a31.975,31.975,0,0,0,4.59-9.221l.1-.309-.294-.2-.608-.419c-1.276-.89-2.6-1.9-4.415-3.37l-.823-.67-.97-.779c-7.984-6.373-12.286-8.609-19.181-9.969A45.756,45.756,0,0,0,79.978,194.526Zm64.46-46.16-.692.6c-1.455,1.251-3.011,2.562-4.624,3.9l-1.171.963a117.151,117.151,0,0,1-24.158,15.321l-.6.285.115.367c4.765,15.315,5.745,29.13,2.834,39.952l-.053.187.205.129a25.475,25.475,0,0,0,6.542,2.92l.507.134,0,.008.758.147c.21.039.433.081.642.116l.351.059a26.737,26.737,0,0,0,4.087.333c.324,0,.648-.007.962-.021a29.065,29.065,0,0,0,9.746-2.383,29.859,29.859,0,0,0,8.326-5.144,22.6,22.6,0,0,0,6.256-10.841,43.807,43.807,0,0,0,1.292-14.758,65.78,65.78,0,0,0-10.85-31.588l-.469-.679ZM62.346,114.279l-.127.006a29.109,29.109,0,0,0-7.886,1.658,31.28,31.28,0,0,0-13.806,10.481,40.9,40.9,0,0,0-7.8,18.507l-.079.513-.08.567-.146,1.106a42.375,42.375,0,0,0-.4,8.921,27.409,27.409,0,0,0,1.185,6.508,20.815,20.815,0,0,0,2.762,5.627c.472.637.995,1.285,1.552,1.928,5.325,5.858,14.276,8.828,26.606,8.828a93.362,93.362,0,0,0,10.154-.594,133.819,133.819,0,0,0,36.1-9.4l.81-.362-.126-.384a139.294,139.294,0,0,0-7.148-17.668,92.741,92.741,0,0,0-7.478-12.761l-.384-.535-.436.117a43.085,43.085,0,0,1-10.9,1.724,18.309,18.309,0,0,1-11.1-3.5l-.316-.228a25.863,25.863,0,0,1-7.269-8.8,33.285,33.285,0,0,1-3.645-11.806Zm56.031,18.251c-1.014,0-2.074.05-3.149.15l-.641.064a68.7,68.7,0,0,0-12.4,2.755l-1.528.442-2.93.835.212.3a97.653,97.653,0,0,1,7.406,12.668,137.688,137.688,0,0,1,6.955,17.022l.374,1.129.47-.222a114.732,114.732,0,0,0,22.981-14.432l1.642-1.353c1.02-.845,2.148-1.8,3.352-2.827l2.323-2-.1-.139c-4.4-5.965-8.253-9.375-13.291-11.768l-.472-.22A26.183,26.183,0,0,0,118.376,132.53Zm.009-1.665a28.008,28.008,0,0,1,11.9,2.545,31.558,31.558,0,0,1,7.528,4.84,44.16,44.16,0,0,1,6.442,7.108l.432.582.113-.1c7.668-6.829,11.958-12.035,14.345-17.406l.165-.381.016-.077a19.268,19.268,0,0,0,1.633-9.322l-.045-.461a16.226,16.226,0,0,0-3.47-8.473l-.309-.388a27.769,27.769,0,0,0-7.675-6.423,136.3,136.3,0,0,0-14.8-7.326l-2.235-.989c-7.046-3.124-11.215-5.032-15.848-7.43l-.514-.267-.21.072a76.9,76.9,0,0,1-15.425,3.046l-5.4.607c-8.728.945-13.1,1.573-17.6,3.022a23.53,23.53,0,0,0-6.994,3.444,15.111,15.111,0,0,0-4.46,5.224,17.749,17.749,0,0,0-1.737,5.423,24.8,24.8,0,0,0-.3,4.669l0,.142h.053l.406,0c.8,0,1.573.032,2.3.094l.5.048a27.463,27.463,0,0,1,9.1,2.631,35.568,35.568,0,0,1,8.263,5.676l.51.464c3.146,2.887,5.713,5.862,10.175,11.792l1.529,2.045,4.662-1.329,1.654-.462C110.33,131.5,114.045,130.865,118.385,130.865ZM64,114.2l.037.371c.815,7.644,4.725,15.191,9.962,19.229l.31.233a17.333,17.333,0,0,0,4.956,2.6,17.646,17.646,0,0,0,5.535.825,38.563,38.563,0,0,0,9.474-1.431l.777-.2-.28-.376c-5.039-6.778-7.741-9.936-11.119-13l-.261-.235a34.045,34.045,0,0,0-7.846-5.394,25.751,25.751,0,0,0-8.556-2.486l-.982-.068c-.626-.038-1.131-.059-1.588-.064Zm.506-105.91-.659.276A109.231,109.231,0,0,0,46.724,17.8c-2.561,1.706-4.616,3.158-6.469,4.568-2.276,1.732-4.549,3.572-6.755,5.468A118.17,118.17,0,0,0,10.62,54.262a77.45,77.45,0,0,0-4.983,9.415,52.569,52.569,0,0,0-3.01,8.74,32.157,32.157,0,0,0-.972,7.775,18.839,18.839,0,0,0,1.13,6.519c1.557,4.108,5.075,8.02,9.906,11.016a38.391,38.391,0,0,0,9.793,4.349A37.356,37.356,0,0,0,32.8,103.569a28.859,28.859,0,0,0,8.978-1.348,29.08,29.08,0,0,0,10.828-6.469,25.984,25.984,0,0,0,7-10.778,17.2,17.2,0,0,0,.953-6.359,27.33,27.33,0,0,0-1.53-7.041l-.382-1.155c-1.694-5.13-2.311-8.14-1.492-12.419a26.022,26.022,0,0,1,5.326-10.985,43.71,43.71,0,0,1,10.857-9.635l.16-.1-.329-1.085c-.807-2.71-1.506-5.381-2.579-9.852L69.719,22.7c-2.05-8.429-3.192-11.624-5.091-14.247Zm35.844,22.471h-.069l-.7.007-.67.017a47.7,47.7,0,0,0-11.851,2.1A51.989,51.989,0,0,0,75.739,37.92l-.277.167.164.517A80.485,80.485,0,0,0,82.01,53.51l.4.695A70.007,70.007,0,0,0,96.541,71.8a95.026,95.026,0,0,0,19.13,13.077l.52.275.308-.107c5.924-2.151,10.147-5.4,12.911-9.938l.232-.392c4.078-6.935,4.693-16.634,1.567-24.71l-.177-.446-.025-.128-.009,0,.006.034a.185.185,0,0,0,.009.029l-.019-.038-.022-.064,0-.016-.173-.41c-3.972-9.151-11.89-13.755-17.832-16.006l-.436-.163A35.123,35.123,0,0,0,100.352,30.763Z" transform="translate(41.76 27.599)" fill="#7c37fa"/>
          <path id="Path-46" data-name="Path" d="M.453.088a.828.828,0,0,0-.423.975c.341.927.652,1.846.983,2.9.287.915.536,1.816.776,2.79l.191.8c.2.869.624,2.8.605,2.715l.183.847c.957,4.353,1.684,6.132,3.738,8.579,3.91,4.613,8.619,6.355,15.375,7.341a29.617,29.617,0,0,0,4.255.333,26.976,26.976,0,0,0,6.536-.834c1.024-.258,2.008-.551,2.928-.874l.119-.028.5-.126L36,24.726l-.143-.346-.168-.4-.582.147a22.652,22.652,0,0,1-2.239.687l-.547.128a25.96,25.96,0,0,1-10.128.444,27.1,27.1,0,0,1-8.732-2.466A17.355,17.355,0,0,1,7.8,18.6a13.818,13.818,0,0,1-1.279-1.763A16.544,16.544,0,0,1,4.567,11.48L4.217,9.89l-.559-2.45C3.269,5.781,3.028,4.9,2.582,3.459l-.167-.523c-.22-.684-.434-1.315-.652-1.921L1.611.6,1.6.558a.633.633,0,0,0-.075-.15L1.507.383A.814.814,0,0,0,.453.088Z" transform="translate(38.969 17.749)" fill="#7c37fa"/>
        </g>
        <g id="man_1" transform="translate(1.812 12.287)">
          <path id="legs" d="M84.079,111.029c-8.485-.041-25.415.164-30.53.164-.2,0-6.5-.041-7.876-.041.487-4.218.934-8.478,1.421-12.7-.771.041-1.5.041-2.274.082.406-9.5,1.665-43.085,1.908-50.416-2.8-3.645-16.077-21.952-19.568-27.153q-2.375,39.01-4.709,78.06c-.609.041-1.583.082-2.761.164.609.532,1.218.983,1.786,1.392a16.628,16.628,0,0,0,3.776,1.6c4.75,1.515,6.374.778,8.647,1.761,1.705.737,3.9,2.457,5.6,7.167-8.485-.041-25.415.164-30.53.164-.2,0-6.5-.041-7.876-.041C1.5,107.425.771,37.761,0,3.563,5.887,3.113,44.333.082,45.389,0h0c1.989,3.276,4.3,7.085,6.78,11.345C66.053,34.976,67.555,40.955,68.205,45.706c0,0,.081.491.122.942.974,10.157-.934,22.2-.934,22.2-.528,4.177-1.137,8.437-1.705,12.7-.812,5.611-1.624,11.181-2.476,16.628a17.61,17.61,0,0,0,2.882,2.416,16.628,16.628,0,0,0,3.776,1.6c4.75,1.515,6.374.778,8.647,1.761C80.182,104.6,82.414,106.32,84.079,111.029Z" transform="translate(8.323 137.422)" fill="#0f0a39"/>
          <g id="hand_l" transform="translate(20.511)">
            <path id="Path-47" data-name="Path" d="M17.846,8.168l.039-.14.034-.1a2.326,2.326,0,0,0,.1-1.167,2.14,2.14,0,0,0-.462-1.206,2.081,2.081,0,0,0-1.093-.735l-.307-.1c-.155-.05-.193-.071-.229-.116a.378.378,0,0,1-.054-.223l-.018-.162a2.136,2.136,0,0,0-.4-1.105l-.107-.138a2.376,2.376,0,0,0-.7-.579l.241.427a1.966,1.966,0,0,0-.365-.5l-.063-.049a1.387,1.387,0,0,1-.136-.107l-.067-.064a1.729,1.729,0,0,1-.52-.739l-.121-.3A1.521,1.521,0,0,0,13.095.3L13,.241C12.325-.2,11.45-.008,10.414.6A10.851,10.851,0,0,0,9.2,1.444c-.3.239-.6.492-.9.759l-.55.509A53.212,53.212,0,0,0,.489,11.859l-.082.115-.2.318-.091.153a.811.811,0,0,0,.232,1.078l.092.053a.826.826,0,0,0,.952-.191l.043-.048.075-.1.177-.292c.06-.1.113-.174.16-.238A52.975,52.975,0,0,1,8.9,3.839l.145-.144a9.256,9.256,0,0,1,3.043-2.141l.016,0,0,.01.065.189.027.065.125.263c.061.127.117.234.181.343a3.5,3.5,0,0,0,.5.654l.157.155a2.693,2.693,0,0,0,.725.532c.134.056.151.07.279.232a.819.819,0,0,1,.089.283l.01.17a2.117,2.117,0,0,0,.419,1.091,1.79,1.79,0,0,0,.624.522,2.086,2.086,0,0,0,.408.156l.127.037a.72.72,0,0,1,.441.247.556.556,0,0,1,.065.1l.047.115.056.217L16.462,7a.848.848,0,0,1-.061.434,1.516,1.516,0,0,0-.1,1.056l.038.142a1.655,1.655,0,0,0,1.117,1.027l.191.076.26.118a1.013,1.013,0,0,1,.505.418l.045.1c.009.021.018.046.028.072a1.024,1.024,0,0,1,.049.607,1.136,1.136,0,0,1-.513.555l-.148.09q-.448.264-.936.569l-.863.546c-.308.19-.9.553-1.125.687l-1.158.75a.8.8,0,0,0-.3.946l.079.19a.687.687,0,0,0,.551.35h.015l.187.189,1.46-.948,1.562-.956c.409-.254,1.15-.721,1.364-.848l.347-.222a2.744,2.744,0,0,0,.243-.184,2.342,2.342,0,0,0,.817-1.2,2.544,2.544,0,0,0-.1-1.618,2.469,2.469,0,0,0-.2-.416l-.123-.185A2.943,2.943,0,0,0,18.18,8.3l-.266-.124c-.052-.022-.07-.023-.064.005Z" transform="translate(0.539 0.832)" fill="#0f0a39"/>
            <path id="Path-48" data-name="Path" d="M7.191.232a7.208,7.208,0,0,0-1.363.53.781.781,0,0,0-.345,1.076.783.783,0,0,0,1.085.348,3.75,3.75,0,0,1,.853-.369l.418-.1a4.786,4.786,0,0,1,.6-.108,1.144,1.144,0,0,1,.636.081,1.365,1.365,0,0,1,.658.537,4.344,4.344,0,0,0-.454.264L9,2.64c-.393.193-.884.4-2,.849A55.449,55.449,0,0,0,1.691,5.8l-1.01.539c-.088.044-.154.074-.225.105A.832.832,0,0,0,.083,7.532L.16,7.64a.926.926,0,0,0,.254.23l.023.011v.357l.7-.3c.4-.172.835-.382,1.3-.634.739-.373,1.471-.714,2.252-1.054l.832-.354c.683-.284,1.982-.811,2.106-.863l.787-.316c2.426-.989,2.933-1.39,2.933-2.439A2.328,2.328,0,0,0,9.924.344L9.766.266A3.388,3.388,0,0,0,7.191.232Z" transform="translate(10.987 12.815)" fill="#0f0a39"/>
            <path id="Path-49" data-name="Path" d="M12.1,6.061h0L10.19,6.88,0,.573C.122.369.244.2.365,0Z" transform="translate(1.372 13.082)" fill="#0f0a39"/>
          </g>
          <path id="tshirt" d="M86.606,31.413c-.041,1.024-.122,2.171-.2,3.481-.2,2.908-.568,6.43-1.218,10.4-.122.819-.284,1.638-.447,2.5-.284,1.433-.528,2.826-.771,4.1-1.827,9.42-3.288,15.031-7.957,19.372-2.476,2.293-6.415,4.014-14.372,7.331-4.953,2.089-9.135,3.563-12.1,4.505l2.436,24.819c.528,5.242,1.015,10.485,1.543,15.727h0c-2.476.082-14.656.9-22.532,1.638-9.216.86-17.66,1.556-22.857,1.966-.122,0-.65.041-.771.041-.974-9.993-2.6-27.276-4.06-43.371C2.121,70.975,1.024,58.771.5,51.849.375,50.293.253,49.023.213,48.04.172,47.262.091,46.32.05,45.214a39.893,39.893,0,0,1,.812-10.4c.2-.86.406-1.761.69-2.662.731-2.416,1.665-4.505,4.263-8.723,1.218-1.966,2.761-4.341,4.831-7.454.609-.9,1.218-1.843,1.949-2.867.122-.2.284-.41.406-.614,1.949-2.867,4.182-6.143,6.739-9.747.65-.9,1.3-1.8,1.949-2.744.122.082.325.164.487.287C24.044,1.352,28.631,4.1,31.27,5.734h0c.325.2.609.369.893.532s.487.328.65.41c-.162.246-.284.491-.447.778-.853,1.515-1.868,3.195-2.882,4.956l-.365.614c-1.746,2.99-3.532,6.061-4.953,8.478-.325.614-.731,1.229-1.1,1.843C21,26.908,18.563,31.126,16.452,34.73c-.487.819-.974,1.638-1.421,2.416l1.1,7.986c.325,2.212.609,4.423.934,6.635.406,2.99.812,5.979,1.259,9.01.487.082,4.628.983,9.216,1.966,2.964.614,6.09,1.311,8.566,1.843,2.436.532,4.263.942,4.628,1.024,2.964-.819,5.927-1.6,8.891-2.375,6.049-1.638,12.1-3.276,18.107-4.874.568-2.171,1.1-4.341,1.624-6.594.528-2.171,1.015-4.382,1.5-6.635.244-1.065.447-2.13.69-3.194.365-1.8.731-3.6,1.1-5.365l.365-1.843c.244-1.27.487-2.539.731-3.768v-.041h.122c1.868.041,3.735.082,5.6.164a5.944,5.944,0,0,1,.853.041c1.421.041,2.355.082,4.182.123A12.869,12.869,0,0,0,86.606,31.413Z" transform="translate(0.193 13.573)" fill="#ffcc0a"/>
          <g id="hand_r" transform="translate(67.199 29.078)">
            <path id="Path-50" data-name="Path" d="M.307,7.139.47,7.5l.18.378c.079.172.172.38.305.683l.023.078.166.407c.031.073.061.139.094.207l.028.057.016.072,1.053,2.492A.814.814,0,0,0,3.86,11.32L2.755,8.793,2.747,8.74c-.029-.086-.059-.166-.1-.255l-.189-.411-.037-.112L2.192,7.5l-.349-.728c-.03-.066-.078-.173-.1-.217a1.794,1.794,0,0,1-.175-.628A.551.551,0,0,1,1.6,5.715a1.057,1.057,0,0,1,.612-.492l.151-.076A.507.507,0,0,1,2.511,5.1L2.583,5.1h.092a1.836,1.836,0,0,0,.959-.218,2.085,2.085,0,0,0,.691-.592l.145-.211c.015-.025.047-.083.146-.257.151-.3.21-.38.358-.455a1.6,1.6,0,0,1,.793-.2l.291.011a.405.405,0,0,1,.079.014l.114.039a1.763,1.763,0,0,0,.646.108A1.844,1.844,0,0,0,8.22,2.781l.172-.169L8.6,2.439A.391.391,0,0,1,8.8,2.346a.716.716,0,0,1,.228.074l.171.064a1.677,1.677,0,0,0,1.137.051l.177-.068a1.772,1.772,0,0,0,.439-.273l.123-.114c-.013.013-.015.018-.01.015l.118-.086.064-.044.062-.035a2.008,2.008,0,0,1,.909-.273l.169.232a5.022,5.022,0,0,1,.319.525,15.617,15.617,0,0,1,1.075,3.161l.015.151a42.5,42.5,0,0,1,.722,4.7l.039.5c.044.608.076,1.261.121,2.343v1.863a.812.812,0,0,0,.828.787l.123-.01a.872.872,0,0,0,.7-.721l.018-.315c.009-.2.01-.395.007-.642l-.024-1.6c-.012-.449-.039-.915-.086-1.517l-.071-.857a37.345,37.345,0,0,0-.739-4.892l.016.041c.023.012-.444-1.711-.741-2.526a10.291,10.291,0,0,0-.54-1.249C13.578.537,13.009,0,12.256,0a3.733,3.733,0,0,0-1.714.477c-.175.106-.49.355-.476.346l-.13.089A.123.123,0,0,1,9.9.927L9.6.8A1.773,1.773,0,0,0,8.668.658a1.806,1.806,0,0,0-1.1.476l-.141.129-.114.114-.192.166a.335.335,0,0,1-.15.092l-.079,0-.173-.065a1.9,1.9,0,0,0-.63-.1,3.631,3.631,0,0,0-1.643.312l-.161.089a1.949,1.949,0,0,0-.753.68l-.068.106-.168.3-.1.183a.627.627,0,0,1-.185.208l-.058.037a.363.363,0,0,1-.1.049L2.8,3.439H2.716a2.358,2.358,0,0,0-1.145.251L1.3,3.833A2.943,2.943,0,0,0,.886,4.1a2.2,2.2,0,0,0-.753.975A2.712,2.712,0,0,0,.307,7.139Z" transform="translate(3.731 0.787)" fill="#0f0a39"/>
            <path id="Path-51" data-name="Path" d="M2.217.006A2.212,2.212,0,0,0,.256.926C-.236,1.8-.008,2.86.851,4.32A17.117,17.117,0,0,0,2,5.978l.364.464c.127.159.261.324.4.5l1.5,1.789c.1.119.483.548.56.645L5.5,10.1A.8.8,0,1,0,6.637,8.959L6,8.274l-.225-.23c-.064-.067-.119-.126-.171-.184L4.291,6.3l-.377-.461c-.119-.147-.232-.289-.341-.427l-.414-.536A16.238,16.238,0,0,1,2.2,3.484,4.38,4.38,0,0,1,1.6,2.152.588.588,0,0,1,1.6,1.774a.576.576,0,0,1,.432-.159c.022,0,.074.033.222.171a11.556,11.556,0,0,1,1,1.131l.622.785c.07.091.144.19.252.335l.093.162.079.1.036.037a.811.811,0,0,0,.561.231.822.822,0,0,0,.828-.828A.81.81,0,0,0,5.5,3.184l-.076-.11c-.09-.1-.358-.473-.415-.545l-.325-.41-.311-.4C3.437.52,2.925.113,2.325.019Z" transform="translate(0.858 6.065)" fill="#0f0a39"/>
            <path id="Path-52" data-name="Path" d="M12.748,1.843,6.9,1.72.284,1.6V1.556H.406C.284,1.433.162,1.27,0,1.106,2.72.86,9.906.246,12.707,0,12.748.614,12.748,1.229,12.748,1.843Z" transform="translate(6.487 14.024)" fill="#0f0a39"/>
          </g>
          <g id="head" transform="translate(22.953 51.194)">
            <path id="hair" d="M20.535,6.635c-.041.041-.122.041-.162.082-.041,0-.041.041-.081.041L19.682,7l-.853.369c-.244.86-.528,1.761-.771,2.621-.244.819-.447,1.638-.69,2.416-.244,0-1.3-.123-1.5-.164a2.745,2.745,0,0,0-.731-2.867A2.919,2.919,0,0,0,11.806,9.3a3.5,3.5,0,0,0-1.5,3.4c.041.2.081.41.122.573a3.72,3.72,0,0,0,1.624,2.007c-.041.082-.122.123-.162.2-.731.86-1.543,1.72-2.355,2.58-1.1,1.147-2.152,2.253-3.207,3.317-.609-.082-1.218-.2-1.827-.287l-.853-.123c-1.1-.164-2.233-.369-3.329-.532h0c-.081,0-.162-.041-.244-.041a66.488,66.488,0,0,1,.041-7.044A39,39,0,0,1,.723,8.4a10.667,10.667,0,0,1,.365-1.638A7.778,7.778,0,0,1,1.86,4.915,10.787,10.787,0,0,1,8.518.2,10.923,10.923,0,0,1,10.791,0a10.867,10.867,0,0,1,7.023,2.375,7.2,7.2,0,0,1,2.558,3.686A3.037,3.037,0,0,1,20.535,6.635Z" transform="translate(1.211 1)" fill="#0f0a39"/>
            <path id="Path-53" data-name="Path" d="M.125.35a.816.816,0,0,0,.22,1.1,6.025,6.025,0,0,0,.934.536,4.63,4.63,0,0,0,.873.308l.14.02h.081a.808.808,0,0,0,.762-.549A.8.8,0,0,0,2.577.754,2.188,2.188,0,0,1,2.1.616L1.951.547A3.019,3.019,0,0,1,1.506.308L1.233.129A.817.817,0,0,0,.125.35Z" transform="translate(11.944 15.488)" fill="#0f0a39"/>
            <g id="face">
              <path id="Path-54" data-name="Path" d="M21.666,6.909l-.012-.1-.033-.132-.031-.137v-.12l-.138-.21a2.073,2.073,0,0,1-.147-.272l-.029-.075a5.816,5.816,0,0,0-.546-.928A13.912,13.912,0,0,0,18.77,2.764l-.186-.156a12.481,12.481,0,0,0-2.076-1.283A11.13,11.13,0,0,0,9.085.228,9.9,9.9,0,0,0,2.117,6.076l-.078.138c-.063.121-.124.267-.218.5a13.68,13.68,0,0,0-.6,1.837l-.038.175a36.735,36.735,0,0,0-.7,4.847c-.2,2.479-.336,4.719-.408,7.071L0,23.844a.814.814,0,0,0,.787.84.812.812,0,0,0,.828-.787L1.7,20.744l.037-1.112c.072-1.983.167-3.662.294-5.113L2.1,13.75a43.515,43.515,0,0,1,.643-4.663,9.061,9.061,0,0,1,.539-1.707,2.021,2.021,0,0,1,.212-.511A8.347,8.347,0,0,1,9.378,1.9a9.212,9.212,0,0,1,5.524.567,10.993,10.993,0,0,1,2.434,1.357l.186.145a10.745,10.745,0,0,1,1.814,1.947l.1.15c.144.231.277.465.36.618l.149.284.008.064.024.116c0,.005,0,.007,0,0v.037l.012.109a21.67,21.67,0,0,1,.477,6.365l-.15,1.333-.023.181C19.9,18.3,19.5,19.57,18.3,20.757a7.205,7.205,0,0,1-5.355,1.821h-.259a.79.79,0,0,0-.828.787v3.154a.822.822,0,0,0,.828.828.95.95,0,0,0,.857-.648l.052-.1V24.142l.133,0a8.426,8.426,0,0,0,5.768-2.3c1.572-1.513,2.048-2.975,2.5-6.6l.167-1.521.035-.571a23.684,23.684,0,0,0-.414-5.7Z" transform="translate(0.741 0.57)" fill="#0f0a39"/>
              <path id="Path-55" data-name="Path" d="M3.735.819c0,.164-.041.328-.041.491-.081.9-.122,1.761-.162,2.58h0c-.406-.451-.771-.86-1.177-1.27C1.583,1.761.771.86,0,0A9.315,9.315,0,0,0,2.761.737,7.817,7.817,0,0,0,3.735.819Z" transform="translate(9.891 22.87)" fill="#0f0a39"/>
            </g>
          </g>
        </g>
        <g id="needle" transform="translate(190.406)">
          <path id="Path-56" data-name="Path" d="M23.4,212.165a.837.837,0,0,1-.593-.247.61.61,0,0,1-.19-.432c-1.355-9.822-2.653-19.565-3.857-28.958l-.9-6.946C14.3,147.837,10.981,119.607,8,91.678c-.251-2.308-.517-4.809-.812-7.646L5.677,69.326C4.212,54.935,2.738,39.455,1.171,22L.489,14.336,0,7.381a.809.809,0,0,1,.787-.828.871.871,0,0,1,.613.254.7.7,0,0,1,.213.5L2.1,14.176C3.817,33.631,5.441,50.9,7.066,66.961l.555,5.447,1.6,15.432,1.143,10.631c3.039,28,6.405,56.213,10.006,83.848.484,3.75.925,7.138,1.349,10.358l.676,5.108-.278-15.047-.062-2.929c-.225-8.888-1.2-36.19-2.976-83.465L15.835,11.179c-.182-2.936-.337-5.355-.472-7.4L15.112.112l.463-.067L15.931,0h.794l.032.465c.08,1.122.172,2.473.28,4.127l.411,6.5c3.911,101.9,5.887,155.5,6.22,168.7l.049,2.263.43,24.07,0,.126v.022c0,.054,0,.108,0,.161l.04,2.849.035,2.084-.015.131A.841.841,0,0,1,23.4,212.165Zm-.256-5.8-.215.015.243,1.784Z" transform="translate(2.649 72.131)" fill="#0f0a39"/>
          <path id="Path-57" data-name="Path" d="M4.428.975c-1.9,2-3.125,6.673-3.794,14.257L.509,16.719Q-.512,29.625.507,53.3l.25,5.428c.058,1.141.126,2.42.214,4.007l.147,2.631a.773.773,0,0,0,.787.759l.124-.01a.835.835,0,0,0,.7-.818L2.343,58.08l-.182-3.946C1.439,37.66,1.456,24.746,2.2,15.866l.089-.977C2.949,8.005,4.079,3.685,5.6,2.078c.358-.391.657-.506.92-.434C8.08,2.154,10.059,7.759,12,20.21l.081.523c1.43,9.512,2.807,22.447,4.069,38.3l.23,2.945A.808.808,0,0,0,18,61.9l-.225-2.887c-1.279-16.149-2.6-28.761-4-37.975l-.082-.538c-1.313-8.481-2.651-13.964-4-17.087-.949-2.2-1.7-2.957-2.7-3.294A2.367,2.367,0,0,0,4.428.975Z" transform="translate(0.598 0.616)" fill="#0f0a39"/>
          <path id="Shape-13" data-name="Shape" d="M4.8,34.624H2.409a.854.854,0,0,1-.6-.25.585.585,0,0,1-.183-.414A122.213,122.213,0,0,1,.039,17.589C-.047,13.69.011,9.93.2,7l.1-1.514C.595,1.532,1.032.1,1.977,0l.07,0H2.16C3.128.037,3.7,1.425,4.417,5.5l.112.649.138.88c.407,2.67.758,5.665.989,8.434L5.737,16.5l.056.8a106.8,106.8,0,0,1-.175,16.658.853.853,0,0,1-.695.658ZM2.172,2.8h0l-.023.176a108.283,108.283,0,0,0-.494,14.552,110.629,110.629,0,0,0,1.3,14.712l.127.771h.974l.059-.766A106.731,106.731,0,0,0,4.28,19.879l-.063-1.236L4.14,17.407a106.239,106.239,0,0,0-1.845-14.1Z" transform="translate(4.924 8.487)" fill="#0f0a39"/>
          <path id="Path-58" data-name="Path" d="M.487,2.7H.162C.122,2.212.081,1.679.041,1.147L0,.328A.316.316,0,0,1,.284,0,.315.315,0,0,1,.609.287l.041.819C.69,1.638.731,2.13.771,2.662Z" transform="translate(17.889 67.634)"/>
        </g>
      </g>
    </g>
  </g>
</svg>
