<svg xmlns="http://www.w3.org/2000/svg" width="20" height="20" viewBox="0 0 20 20">
  <path id="Path" d="M19.727.273A1.111,1.111,0,0,0,18.909,0C18.545.091,8.818,1.727,4.818,5.727a8.591,8.591,0,0,0-2.545,8.091l3.364-2a.46.46,0,0,1,.545.727L2.818,15.909h0L.273,18.455a.879.879,0,0,0,0,1.273A.825.825,0,0,0,.909,20a.825.825,0,0,0,.636-.273l2.545-2.545A8.837,8.837,0,0,0,7.909,18a8.672,8.672,0,0,0,5.455-1.909.827.827,0,0,0,.273-1l-1.273-4.545,3.273,1.273a.9.9,0,0,0,1.182-.455A66.544,66.544,0,0,0,20,1.182,1.357,1.357,0,0,0,19.727.273Z" fill="#fff"/>
</svg>
